<svg width="204" height="183" viewBox="0 0 204 183" fill="none" xmlns="http://www.w3.org/2000/svg">
<g clip-path="url(#clip0_1959_93016)">
<g filter="url(#filter0_dd_1959_93016)">
<path d="M190.549 3.34766H13.4504C8.49808 3.34766 4.4834 7.34433 4.4834 12.2745V85.9208C4.4834 90.851 8.49808 94.8477 13.4504 94.8477H190.549C195.502 94.8477 199.516 90.851 199.516 85.9208V12.2745C199.516 7.34433 195.502 3.34766 190.549 3.34766Z" fill="#FFFBFE"/>
<path d="M190.549 3.625H13.4505C8.65289 3.625 4.76367 7.49678 4.76367 12.2729V85.9192C4.76367 90.6953 8.65289 94.5671 13.4505 94.5671H190.549C195.347 94.5671 199.236 90.6953 199.236 85.9192V12.2729C199.236 7.49678 195.347 3.625 190.549 3.625Z" stroke="#D1D5E4"/>
</g>
<path d="M20.2539 29.5699V26.3562H23.6838V25.0283H20.2539V23.1202H23.9528V21.7589H18.752V29.5699H20.2539ZM25.8261 23.1091C26.2969 23.1091 26.6556 22.7743 26.6556 22.328C26.6556 21.8705 26.2969 21.5469 25.8261 21.5469C25.3553 21.5469 25.0079 21.8705 25.0079 22.328C25.0079 22.7743 25.3553 23.1091 25.8261 23.1091ZM26.5323 29.5699V23.9125H25.1199V29.5699H26.5323ZM29.4124 29.5699V21.7589H28.0001V29.5699H29.4124ZM34.0497 29.5699V28.2978H33.1305C32.8727 28.2978 32.7606 28.1862 32.7606 27.9296V25.2404H34.0497V23.9125H32.7606V22.2164H31.3483V23.9125H30.4516V25.2404H31.3483V28.2197C31.3483 29.0566 31.8639 29.5699 32.7943 29.5699H34.0497ZM37.6375 29.6814C39.1843 29.6814 40.025 28.6995 40.2828 27.9184H38.8481C38.6687 28.1974 38.2428 28.5098 37.6375 28.5098C36.8529 28.5098 36.2364 27.963 36.1468 27.2043H40.3837C40.4061 27.115 40.4397 26.8918 40.4397 26.624C40.4397 25.006 39.2292 23.8009 37.6375 23.8009C35.9898 23.8009 34.7457 25.0395 34.7457 26.7468C34.7457 28.4429 35.9898 29.6814 37.6375 29.6814ZM36.1468 26.2669C36.2589 25.5305 36.8081 24.9614 37.6375 24.9614C38.4109 24.9614 38.9602 25.5305 39.0386 26.2669H36.1468ZM42.9623 29.5699V26.345C42.9623 25.6086 43.3322 25.2404 44.0496 25.2404H45.0023V23.9125H43.9599C43.4331 23.9125 43.108 24.1357 42.9399 24.4035H42.8839L42.7718 23.9125H41.55V29.5699H42.9623ZM47.9255 29.6814C49.5732 29.6814 50.369 28.8892 50.369 27.9519C50.369 26.9922 49.7749 26.412 48.5419 26.2223L47.634 26.0772C47.1184 25.988 46.8943 25.8094 46.8943 25.5305C46.8943 25.2292 47.2081 24.9168 47.8694 24.9168C48.542 24.9168 48.9118 25.2515 48.9118 25.6086H50.2905C50.2905 24.794 49.4611 23.8009 47.8694 23.8009C46.3002 23.8009 45.4932 24.6155 45.4932 25.5528C45.4932 26.4566 46.1208 27.0034 47.3314 27.2043L48.2169 27.3493C48.7773 27.4386 48.9679 27.6394 48.9679 27.963C48.9679 28.2755 48.654 28.5656 47.9255 28.5656C47.1745 28.5656 46.827 28.1974 46.827 27.8514H45.4483C45.4483 28.5656 46.1096 29.6814 47.9255 29.6814Z" fill="#031A34"/>
<path d="M70.4224 26.8413C71.3908 26.8413 72.2068 26.0022 72.2068 24.8417C72.2068 23.6098 71.3729 22.7617 70.243 22.7617H67.3467V29.0105H68.5483V26.8681H68.8711L70.8797 29.0105H72.3682L70.2968 26.8413H70.4224ZM68.5483 23.8776H70.1892C70.6376 23.8776 71.0142 24.2614 71.0142 24.8327C71.0142 25.3951 70.6376 25.779 70.1892 25.779H68.5483V23.8776ZM75.143 29.0998C76.3804 29.0998 77.0529 28.3142 77.2592 27.6893H76.1114C75.9679 27.9125 75.6272 28.1625 75.143 28.1625C74.5153 28.1625 74.0221 27.725 73.9503 27.118H77.3399C77.3578 27.0466 77.3847 26.8681 77.3847 26.6538C77.3847 25.3594 76.4163 24.3953 75.143 24.3953C73.8248 24.3953 72.8295 25.3862 72.8295 26.752C72.8295 28.1089 73.8248 29.0998 75.143 29.0998ZM73.9503 26.3682C74.04 25.779 74.4794 25.3237 75.143 25.3237C75.7617 25.3237 76.2011 25.779 76.2638 26.3682H73.9503ZM79.9319 29.0998C81.2501 29.0998 81.8867 28.466 81.8867 27.7161C81.8867 26.9484 81.4115 26.4842 80.4251 26.3325L79.6988 26.2164C79.2863 26.145 79.1069 26.0022 79.1069 25.779C79.1069 25.538 79.358 25.288 79.8871 25.288C80.4251 25.288 80.721 25.5558 80.721 25.8415H81.824C81.824 25.1898 81.1604 24.3953 79.8871 24.3953C78.6317 24.3953 77.9861 25.047 77.9861 25.7968C77.9861 26.5199 78.4882 26.9573 79.4567 27.118L80.165 27.2341C80.6134 27.3055 80.7658 27.4662 80.7658 27.725C80.7658 27.975 80.5148 28.2071 79.9319 28.2071C79.3311 28.2071 79.0531 27.9125 79.0531 27.6358H77.9502C77.9502 28.2071 78.4792 29.0998 79.9319 29.0998ZM84.8105 29.0998C86.048 29.0998 86.7205 28.3142 86.9268 27.6893H85.779C85.6355 27.9125 85.2948 28.1625 84.8105 28.1625C84.1828 28.1625 83.6897 27.725 83.6179 27.118H87.0075C87.0254 27.0466 87.0523 26.8681 87.0523 26.6538C87.0523 25.3594 86.0839 24.3953 84.8105 24.3953C83.4924 24.3953 82.497 25.3862 82.497 26.752C82.497 28.1089 83.4924 29.0998 84.8105 29.0998ZM83.6179 26.3682C83.7076 25.779 84.147 25.3237 84.8105 25.3237C85.4293 25.3237 85.8686 25.779 85.9314 26.3682H83.6179ZM90.3908 29.0105V27.9928H89.6555C89.4493 27.9928 89.3596 27.9036 89.3596 27.6983V25.5469H90.3908V24.4846H89.3596V23.1277H88.2298V24.4846H87.5124V25.5469H88.2298V27.9304C88.2298 28.5999 88.6423 29.0105 89.3865 29.0105H90.3908Z" fill="white"/>
<path d="M70.4224 26.8413C71.3908 26.8413 72.2068 26.0022 72.2068 24.8417C72.2068 23.6098 71.3729 22.7617 70.243 22.7617H67.3467V29.0105H68.5483V26.8681H68.8711L70.8797 29.0105H72.3682L70.2968 26.8413H70.4224ZM68.5483 23.8776H70.1892C70.6376 23.8776 71.0142 24.2614 71.0142 24.8327C71.0142 25.3951 70.6376 25.779 70.1892 25.779H68.5483V23.8776ZM75.143 29.0998C76.3804 29.0998 77.0529 28.3142 77.2592 27.6893H76.1114C75.9679 27.9125 75.6272 28.1625 75.143 28.1625C74.5153 28.1625 74.0221 27.725 73.9503 27.118H77.3399C77.3578 27.0466 77.3847 26.8681 77.3847 26.6538C77.3847 25.3594 76.4163 24.3953 75.143 24.3953C73.8248 24.3953 72.8295 25.3862 72.8295 26.752C72.8295 28.1089 73.8248 29.0998 75.143 29.0998ZM73.9503 26.3682C74.04 25.779 74.4794 25.3237 75.143 25.3237C75.7617 25.3237 76.2011 25.779 76.2638 26.3682H73.9503ZM79.9319 29.0998C81.2501 29.0998 81.8867 28.466 81.8867 27.7161C81.8867 26.9484 81.4115 26.4842 80.4251 26.3325L79.6988 26.2164C79.2863 26.145 79.1069 26.0022 79.1069 25.779C79.1069 25.538 79.358 25.288 79.8871 25.288C80.4251 25.288 80.721 25.5558 80.721 25.8415H81.824C81.824 25.1898 81.1604 24.3953 79.8871 24.3953C78.6317 24.3953 77.9861 25.047 77.9861 25.7968C77.9861 26.5199 78.4882 26.9573 79.4567 27.118L80.165 27.2341C80.6134 27.3055 80.7658 27.4662 80.7658 27.725C80.7658 27.975 80.5148 28.2071 79.9319 28.2071C79.3311 28.2071 79.0531 27.9125 79.0531 27.6358H77.9502C77.9502 28.2071 78.4792 29.0998 79.9319 29.0998ZM84.8105 29.0998C86.048 29.0998 86.7205 28.3142 86.9268 27.6893H85.779C85.6355 27.9125 85.2948 28.1625 84.8105 28.1625C84.1828 28.1625 83.6897 27.725 83.6179 27.118H87.0075C87.0254 27.0466 87.0523 26.8681 87.0523 26.6538C87.0523 25.3594 86.0839 24.3953 84.8105 24.3953C83.4924 24.3953 82.497 25.3862 82.497 26.752C82.497 28.1089 83.4924 29.0998 84.8105 29.0998ZM83.6179 26.3682C83.7076 25.779 84.147 25.3237 84.8105 25.3237C85.4293 25.3237 85.8686 25.779 85.9314 26.3682H83.6179ZM90.3908 29.0105V27.9928H89.6555C89.4493 27.9928 89.3596 27.9036 89.3596 27.6983V25.5469H90.3908V24.4846H89.3596V23.1277H88.2298V24.4846H87.5124V25.5469H88.2298V27.9304C88.2298 28.5999 88.6423 29.0105 89.3865 29.0105H90.3908Z" fill="url(#paint0_linear_1959_93016)"/>
<path d="M182.054 28.9296C182.212 29.0498 182.44 29.0378 182.584 28.8935C182.742 28.7361 182.742 28.4809 182.584 28.3236L179.913 25.6639L182.584 23.0045L182.621 22.9632C182.741 22.8053 182.73 22.5789 182.584 22.4346C182.426 22.2772 182.17 22.2772 182.012 22.4346L179.341 25.094L176.669 22.4345L176.627 22.3984C176.469 22.2781 176.241 22.2902 176.096 22.4345C175.938 22.5918 175.938 22.847 176.096 23.0043L178.768 25.6639L176.096 28.3237L176.06 28.365C175.939 28.523 175.951 28.7494 176.096 28.8936C176.254 29.051 176.51 29.051 176.669 28.8936L179.341 26.2338L182.012 28.8935L182.054 28.9296Z" fill="#031A34"/>
<path d="M181.582 48.2617H22.4172C20.0957 48.2617 18.2139 50.1352 18.2139 52.4462V76.995C18.2139 79.306 20.0957 81.1794 22.4172 81.1794H181.582C183.903 81.1794 185.785 79.306 185.785 76.995V52.4462C185.785 50.1352 183.903 48.2617 181.582 48.2617Z" fill="#FFFBFE"/>
<path d="M27.131 60.8153C28.661 60.8153 29.7594 59.6827 29.7594 58.0815C29.7594 56.4802 28.661 55.3477 27.131 55.3477H25.2871V60.8153H27.131ZM25.9148 55.9335H27.131C28.2686 55.9335 29.1317 56.7927 29.1317 58.0815C29.1317 59.3703 28.2686 60.2295 27.131 60.2295H25.9148V55.9335ZM32.3502 60.8935C33.174 60.8935 33.7625 60.4638 34.0371 59.7218H33.4094C33.2132 60.1124 32.8209 60.3467 32.3502 60.3467C31.6911 60.3467 31.134 59.878 31.0555 59.136H34.1155C34.1312 59.0891 34.1548 58.9329 34.1548 58.7064C34.1548 57.6128 33.3702 56.8317 32.3502 56.8317C31.2909 56.8317 30.4671 57.6519 30.4671 58.8626C30.4671 60.0733 31.2909 60.8935 32.3502 60.8935ZM31.0555 58.5892C31.134 57.8862 31.644 57.3785 32.3502 57.3785C33.0171 57.3785 33.5271 57.8862 33.5663 58.5892H31.0555ZM36.8228 60.8153L38.2351 56.9099H37.6074L36.4305 60.1905H36.2736L35.0967 56.9099H34.469L35.8813 60.8153H36.8228ZM39.161 56.1444C39.3963 56.1444 39.5533 55.9882 39.5533 55.7538C39.5533 55.5195 39.3963 55.3633 39.161 55.3633C38.9256 55.3633 38.7687 55.5195 38.7687 55.7538C38.7687 55.9882 38.9256 56.1444 39.161 56.1444ZM39.4513 60.8153V56.9099H38.8628V60.8153H39.4513ZM42.1962 60.8935C43.0593 60.8935 43.7262 60.3857 43.9223 59.5265H43.3339C43.177 60.0733 42.7454 60.3467 42.1962 60.3467C41.49 60.3467 40.9016 59.7609 40.9016 58.8626C40.9016 57.9643 41.49 57.3785 42.1962 57.3785C42.7454 57.3785 43.177 57.6519 43.3339 58.1596H43.9223C43.7262 57.3395 43.0593 56.8317 42.1962 56.8317C41.137 56.8317 40.3131 57.6519 40.3131 58.8626C40.3131 60.0733 41.137 60.8935 42.1962 60.8935ZM46.3951 60.8935C47.219 60.8935 47.8074 60.4638 48.082 59.7218H47.4543C47.2582 60.1124 46.8659 60.3467 46.3951 60.3467C45.736 60.3467 45.179 59.878 45.1005 59.136H48.1605C48.1762 59.0891 48.1997 58.9329 48.1997 58.7064C48.1997 57.6128 47.4151 56.8317 46.3951 56.8317C45.3359 56.8317 44.512 57.6519 44.512 58.8626C44.512 60.0733 45.3359 60.8935 46.3951 60.8935ZM45.1005 58.5892C45.179 57.8862 45.689 57.3785 46.3951 57.3785C47.062 57.3785 47.572 57.8862 47.6113 58.5892H45.1005ZM50.3166 60.8935C51.3366 60.8935 51.8466 60.3857 51.8466 59.7609C51.8466 59.136 51.4935 58.7689 50.7089 58.6283L50.042 58.5111C49.5712 58.4252 49.4143 58.2377 49.4143 57.9643C49.4143 57.6519 49.6889 57.3785 50.2774 57.3785C50.8659 57.3785 51.2189 57.6909 51.2189 58.0424H51.8074C51.8074 57.4176 51.2189 56.8317 50.2774 56.8317C49.2966 56.8317 48.8259 57.3395 48.8259 57.9643C48.8259 58.5814 49.2025 58.9329 49.9243 59.0579L50.5912 59.175C51.062 59.261 51.2582 59.4484 51.2582 59.7609C51.2582 60.0733 50.9443 60.3467 50.3166 60.3467C49.6889 60.3467 49.3359 60.0342 49.3359 59.6828H48.7474C48.7474 60.3076 49.3359 60.8935 50.3166 60.8935ZM55.7339 60.8935C56.7541 60.8935 57.2641 60.3857 57.2641 59.7609C57.2641 59.136 56.911 58.7689 56.1264 58.6283L55.4593 58.5111C54.9885 58.4252 54.8316 58.2377 54.8316 57.9643C54.8316 57.6519 55.1062 57.3785 55.6947 57.3785C56.2833 57.3785 56.6364 57.6909 56.6364 58.0424H57.2249C57.2249 57.4176 56.6364 56.8317 55.6947 56.8317C54.7139 56.8317 54.2431 57.3395 54.2431 57.9643C54.2431 58.5814 54.6197 58.9329 55.3416 59.0579L56.0085 59.175C56.4795 59.261 56.6756 59.4484 56.6756 59.7609C56.6756 60.0733 56.3618 60.3467 55.7339 60.3467C55.1062 60.3467 54.7531 60.0342 54.7531 59.6828H54.1647C54.1647 60.3076 54.7531 60.8935 55.7339 60.8935ZM59.776 60.8153V60.2686H59.1091C58.9522 60.2686 58.8737 60.1905 58.8737 60.0342V57.4566H59.776V56.9099H58.8737V55.8163H58.2852V56.9099H57.6575V57.4566H58.2852V60.1514C58.2852 60.542 58.5598 60.8153 58.9914 60.8153H59.776ZM61.7403 60.8935C62.368 60.8935 62.8074 60.581 62.9565 60.3467H62.9957L63.0742 60.8153H63.5842V58.3158C63.5842 57.3785 62.9957 56.8317 62.0542 56.8317C61.0734 56.8317 60.5242 57.4176 60.485 58.0424H61.0734C61.1126 57.6909 61.4657 57.3785 62.0542 57.3785C62.6427 57.3785 62.9957 57.73 62.9957 58.3158V58.433H61.9365C60.838 58.433 60.3673 58.9407 60.3673 59.6828C60.3673 60.3857 60.9165 60.8935 61.7403 60.8935ZM61.7403 60.3467C61.2303 60.3467 60.9557 60.0733 60.9557 59.6828C60.9557 59.2922 61.2303 58.9798 61.9365 58.9798H62.9957V59.136C62.9957 59.878 62.525 60.3467 61.7403 60.3467ZM66.3735 60.8153V60.2686H65.7066C65.5497 60.2686 65.4712 60.1905 65.4712 60.0342V57.4566H66.3735V56.9099H65.4712V55.8163H64.8827V56.9099H64.255V57.4566H64.8827V60.1514C64.8827 60.542 65.1573 60.8153 65.5889 60.8153H66.3735ZM68.7671 60.8935C69.3399 60.8935 69.7558 60.6123 69.9441 60.3857H69.9833L70.0617 60.8153H70.5718V56.9099H69.9833V59.2531C69.9833 59.839 69.4733 60.3467 68.8456 60.3467C68.2571 60.3467 67.7864 59.878 67.7864 59.2531V56.9099H67.1979V59.2531C67.1979 60.2295 67.8648 60.8935 68.7671 60.8935ZM72.9278 60.8935C73.9478 60.8935 74.4578 60.3857 74.4578 59.7609C74.4578 59.136 74.1048 58.7689 73.3201 58.6283L72.6532 58.5111C72.1825 58.4252 72.0255 58.2377 72.0255 57.9643C72.0255 57.6519 72.3001 57.3785 72.8886 57.3785C73.4771 57.3785 73.8301 57.6909 73.8301 58.0424H74.4186C74.4186 57.4176 73.8301 56.8317 72.8886 56.8317C71.9078 56.8317 71.4371 57.3395 71.4371 57.9643C71.4371 58.5814 71.8137 58.9329 72.5355 59.0579L73.2025 59.175C73.6732 59.261 73.8694 59.4484 73.8694 59.7609C73.8694 60.0733 73.5555 60.3467 72.9278 60.3467C72.3002 60.3467 71.9471 60.0342 71.9471 59.6828H71.3586C71.3586 60.3076 71.9471 60.8935 72.9278 60.8935Z" fill="#0066FF"/>
<path d="M28.5435 74.3049C30.0567 74.3049 31.2672 73.4011 31.6708 71.8947H30.8133C30.4602 72.9492 29.6027 73.5517 28.5435 73.5517C27.1312 73.5517 25.9711 72.3968 25.9711 70.6896C25.9711 68.9823 27.1312 67.8274 28.5435 67.8274C29.6027 67.8274 30.4602 68.43 30.8133 69.4342H31.6708C31.2672 67.9781 30.0567 67.0742 28.5435 67.0742C26.6772 67.0742 25.1641 68.5304 25.1641 70.6896C25.1641 72.8488 26.6772 74.3049 28.5435 74.3049ZM34.8532 74.3049C36.215 74.3049 37.2743 73.2505 37.2743 71.6939C37.2743 70.1372 36.215 69.0828 34.8532 69.0828C33.4913 69.0828 32.4321 70.1372 32.4321 71.6939C32.4321 73.2505 33.4913 74.3049 34.8532 74.3049ZM34.8532 73.602C33.9453 73.602 33.1887 72.8488 33.1887 71.6939C33.1887 70.5389 33.9453 69.7857 34.8532 69.7857C35.7611 69.7857 36.5177 70.5389 36.5177 71.6939C36.5177 72.8488 35.7611 73.602 34.8532 73.602ZM39.1362 74.2045V71.1917C39.1362 70.4385 39.7919 69.7857 40.599 69.7857C41.3556 69.7857 41.9608 70.3883 41.9608 71.1917V74.2045H42.7174V71.1917C42.7174 69.9364 41.8599 69.0828 40.6998 69.0828C39.9634 69.0828 39.4086 69.4543 39.1867 69.7355H39.1362L39.0353 69.1832H38.3796V74.2045H39.1362ZM44.8895 74.2045V71.1917C44.8895 70.4385 45.5452 69.7857 46.3522 69.7857C47.1088 69.7857 47.7141 70.3883 47.7141 71.1917V74.2045H48.4707V71.1917C48.4707 69.9364 47.6132 69.0828 46.4531 69.0828C45.7167 69.0828 45.1618 69.4543 44.9399 69.7355H44.8895L44.7886 69.1832H44.1329V74.2045H44.8895ZM52.0046 74.3049C53.0639 74.3049 53.8205 73.7526 54.1735 72.7985H53.3665C53.1143 73.3007 52.6099 73.602 52.0046 73.602C51.1572 73.602 50.441 72.9994 50.3401 72.0453H54.2744C54.2946 71.9851 54.3249 71.7842 54.3249 71.493C54.3249 70.087 53.3161 69.0828 52.0046 69.0828C50.6428 69.0828 49.5835 70.1372 49.5835 71.6939C49.5835 73.2505 50.6428 74.3049 52.0046 74.3049ZM50.3401 71.3424C50.441 70.4385 51.0967 69.7857 52.0046 69.7857C52.8621 69.7857 53.5178 70.4385 53.5683 71.3424H50.3401ZM57.5507 74.3049C58.6604 74.3049 59.5179 73.6522 59.7701 72.5475H59.0135C58.8117 73.2505 58.2569 73.602 57.5507 73.602C56.6428 73.602 55.8865 72.8488 55.8865 71.6939C55.8865 70.5389 56.6428 69.7857 57.5507 69.7857C58.2569 69.7857 58.8117 70.1372 59.0135 70.79H59.7701C59.5179 69.7355 58.6604 69.0828 57.5507 69.0828C56.1889 69.0828 55.1299 70.1372 55.1299 71.6939C55.1299 73.2505 56.1889 74.3049 57.5507 74.3049ZM63.0021 74.2045V73.5015H62.1447C61.9429 73.5015 61.842 73.4011 61.842 73.2003V69.8862H63.0021V69.1832H61.842V67.7772H61.0854V69.1832H60.2784V69.8862H61.0854V73.3509C61.0854 73.853 61.4385 74.2045 61.9933 74.2045H63.0021ZM66.0823 74.3049C67.1415 74.3049 67.8981 73.7526 68.2512 72.7985H67.4442C67.192 73.3007 66.6876 73.602 66.0823 73.602C65.2349 73.602 64.5187 72.9994 64.4178 72.0453H68.3521C68.3723 71.9851 68.4025 71.7842 68.4025 71.493C68.4025 70.087 67.3937 69.0828 66.0823 69.0828C64.7205 69.0828 63.6612 70.1372 63.6612 71.6939C63.6612 73.2505 64.7205 74.3049 66.0823 74.3049ZM64.4178 71.3424C64.5187 70.4385 65.1744 69.7857 66.0823 69.7857C66.9398 69.7857 67.5955 70.4385 67.6459 71.3424H64.4178ZM71.5281 74.3049C72.2343 74.3049 72.7387 74.0037 73.1422 73.5015H73.1926L73.2935 74.2045H73.9492V67.1746H73.1926V69.8862H73.1422C72.7387 69.384 72.2343 69.0828 71.5281 69.0828C70.2167 69.0828 69.2079 70.1372 69.2079 71.6939C69.2079 73.2505 70.2167 74.3049 71.5281 74.3049ZM71.5785 73.602C70.7211 73.602 69.9645 72.8488 69.9645 71.6939C69.9645 70.5389 70.7211 69.7857 71.5785 69.7857C72.436 69.7857 73.1926 70.5389 73.1926 71.6939C73.1926 72.8488 72.436 73.602 71.5785 73.602Z" fill="#031A34"/>
<path d="M175.23 66.4234C175.23 66.5327 175.182 66.6365 175.098 66.7102C174.927 66.8563 174.668 66.8457 174.51 66.6878L171.467 63.5953L168.481 66.6856C168.325 66.8452 168.065 66.8563 167.894 66.7113C167.728 66.5712 167.711 66.3297 167.857 66.1701C167.86 66.1673 167.862 66.164 167.865 66.1612L171.156 62.7567C171.235 62.6747 171.346 62.6289 171.462 62.6289C171.577 62.6278 171.689 62.673 171.769 62.7533L175.12 66.1589C175.191 66.2303 175.23 66.3252 175.23 66.4234Z" fill="#031A34"/>
<path d="M181.582 48.2617H22.4172C20.0957 48.2617 18.2139 50.1352 18.2139 52.4462V76.995C18.2139 79.306 20.0957 81.1794 22.4172 81.1794H181.582C183.903 81.1794 185.785 79.306 185.785 76.995V52.4462C185.785 50.1352 183.903 48.2617 181.582 48.2617Z" stroke="#D1D5E4"/>
<g filter="url(#filter1_dd_1959_93016)">
<path d="M181.582 79.2266H22.4171C19.9409 79.2266 17.9336 81.2249 17.9336 83.69V164.031C17.9336 166.497 19.9409 168.495 22.4171 168.495H181.582C184.058 168.495 186.065 166.497 186.065 164.031V83.69C186.065 81.2249 184.058 79.2266 181.582 79.2266Z" fill="#FEFEFF"/>
<path d="M186.065 83.6914H17.9336V110.472H186.065V83.6914Z" fill="#0066FF" fill-opacity="0.16"/>
<path d="M42.0325 92.0586H34.1863C33.5673 92.0586 33.0654 92.5582 33.0654 93.1744V100.985C33.0654 101.602 33.5673 102.101 34.1863 102.101H42.0325C42.6515 102.101 43.1533 101.602 43.1533 100.985V93.1744C43.1533 92.5582 42.6515 92.0586 42.0325 92.0586Z" fill="#0066FF"/>
<path d="M36.9888 99.5336L34.7471 97.3019L35.5317 96.5208L36.9888 97.9714L40.6877 94.2891L41.4723 95.0702L36.9888 99.5336Z" fill="#F2F4FF"/>
<path d="M58.8062 101.086C60.3194 101.086 61.5299 100.182 61.9335 98.676H61.076C60.7229 99.7304 59.8654 100.333 58.8062 100.333C57.3939 100.333 56.2338 99.1781 56.2338 97.4708C56.2338 95.7636 57.3939 94.6087 58.8062 94.6087C59.8654 94.6087 60.7229 95.2112 61.076 96.2155H61.9335C61.5299 94.7593 60.3194 93.8555 58.8062 93.8555C56.9399 93.8555 55.4268 95.3117 55.4268 97.4708C55.4268 99.63 56.9399 101.086 58.8062 101.086ZM65.1156 101.086C66.4775 101.086 67.5367 100.032 67.5367 98.4751C67.5367 96.9185 66.4775 95.864 65.1156 95.864C63.7538 95.864 62.6945 96.9185 62.6945 98.4751C62.6945 100.032 63.7538 101.086 65.1156 101.086ZM65.1156 100.383C64.2077 100.383 63.4511 99.63 63.4511 98.4751C63.4511 97.3202 64.2077 96.567 65.1156 96.567C66.0236 96.567 66.7801 97.3202 66.7801 98.4751C66.7801 99.63 66.0236 100.383 65.1156 100.383ZM69.3991 100.986V97.973C69.3991 97.2198 70.0548 96.567 70.8618 96.567C71.6184 96.567 72.2237 97.1696 72.2237 97.973V100.986H72.9803V97.973C72.9803 96.7176 72.1228 95.864 70.9627 95.864C70.2263 95.864 69.6714 96.2356 69.4495 96.5168H69.3991L69.2982 95.9644H68.6425V100.986H69.3991ZM75.152 100.986V97.973C75.152 97.2198 75.8077 96.567 76.6147 96.567C77.3713 96.567 77.9766 97.1696 77.9766 97.973V100.986H78.7332V97.973C78.7332 96.7176 77.8757 95.864 76.7156 95.864C75.9792 95.864 75.4244 96.2356 75.2024 96.5168H75.152L75.0511 95.9644H74.3954V100.986H75.152ZM82.2673 101.086C83.3266 101.086 84.0832 100.534 84.4362 99.5798H83.6292C83.377 100.082 82.8726 100.383 82.2673 100.383C81.4199 100.383 80.7037 99.7807 80.6028 98.8266H84.5371C84.5573 98.7663 84.5876 98.5655 84.5876 98.2742C84.5876 96.8683 83.5788 95.864 82.2673 95.864C80.9055 95.864 79.8462 96.9185 79.8462 98.4751C79.8462 100.032 80.9055 101.086 82.2673 101.086ZM80.6028 98.1236C80.7037 97.2198 81.3594 96.567 82.2673 96.567C83.1248 96.567 83.7805 97.2198 83.831 98.1236H80.6028ZM87.8134 101.086C88.9231 101.086 89.7806 100.433 90.0328 99.3287H89.2762C89.0744 100.032 88.5196 100.383 87.8134 100.383C86.9055 100.383 86.1489 99.63 86.1489 98.4751C86.1489 97.3202 86.9055 96.567 87.8134 96.567C88.5196 96.567 89.0744 96.9185 89.2762 97.5713H90.0328C89.7806 96.5168 88.9231 95.864 87.8134 95.864C86.4516 95.864 85.3923 96.9185 85.3923 98.4751C85.3923 100.032 86.4516 101.086 87.8134 101.086ZM93.2648 100.986V100.283H92.4074C92.2056 100.283 92.1047 100.182 92.1047 99.9815V96.6674H93.2648V95.9644H92.1047V94.5585H91.3481V95.9644H90.5411V96.6674H91.3481V100.132C91.3481 100.634 91.7012 100.986 92.256 100.986H93.2648ZM96.345 101.086C97.4042 101.086 98.1608 100.534 98.5139 99.5798H97.7069C97.4547 100.082 96.9503 100.383 96.345 100.383C95.4976 100.383 94.7814 99.7807 94.6805 98.8266H98.6148C98.635 98.7663 98.6652 98.5655 98.6652 98.2742C98.6652 96.8683 97.6564 95.864 96.345 95.864C94.9831 95.864 93.9239 96.9185 93.9239 98.4751C93.9239 100.032 94.9831 101.086 96.345 101.086ZM94.6805 98.1236C94.7814 97.2198 95.4371 96.567 96.345 96.567C97.2025 96.567 97.8582 97.2198 97.9086 98.1236H94.6805ZM101.791 101.086C102.497 101.086 103.001 100.785 103.405 100.283H103.455L103.556 100.986H104.212V93.9559H103.455V96.6674H103.405C103.001 96.1653 102.497 95.864 101.791 95.864C100.479 95.864 99.4706 96.9185 99.4706 98.4751C99.4706 100.032 100.479 101.086 101.791 101.086ZM101.841 100.383C100.984 100.383 100.227 99.63 100.227 98.4751C100.227 97.3202 100.984 96.567 101.841 96.567C102.699 96.567 103.455 97.3202 103.455 98.4751C103.455 99.63 102.699 100.383 101.841 100.383Z" fill="#031A34"/>
<path d="M186.065 110.469H17.9336V137.249H186.065V110.469Z" fill="#FEFEFF"/>
<path d="M42.0326 119.398H34.1864C33.8769 119.398 33.626 119.648 33.626 119.956V127.767C33.626 128.075 33.8769 128.325 34.1864 128.325H42.0326C42.3421 128.325 42.593 128.075 42.593 127.767V119.956C42.593 119.648 42.3421 119.398 42.0326 119.398Z" stroke="#031A34" stroke-width="2"/>
<path d="M58.1001 127.764C60.0673 127.764 61.4796 126.308 61.4796 124.249C61.4796 122.191 60.0673 120.734 58.1001 120.734H55.7295V127.764H58.1001ZM56.5365 121.488H58.1001C59.5629 121.488 60.6726 122.592 60.6726 124.249C60.6726 125.906 59.5629 127.011 58.1001 127.011H56.5365V121.488ZM63.0757 121.759C63.3784 121.759 63.5801 121.558 63.5801 121.257C63.5801 120.955 63.3784 120.754 63.0757 120.754C62.7731 120.754 62.5713 120.955 62.5713 121.257C62.5713 121.558 62.7731 121.759 63.0757 121.759ZM63.449 127.764V122.743H62.6924V127.764H63.449ZM66.4737 127.865C67.7851 127.865 68.4408 127.212 68.4408 126.408C68.4408 125.605 67.9869 125.133 66.9781 124.952L66.1206 124.802C65.5153 124.691 65.3136 124.45 65.3136 124.099C65.3136 123.697 65.6666 123.345 66.4232 123.345C67.1798 123.345 67.6338 123.747 67.6338 124.199H68.3904C68.3904 123.396 67.6338 122.642 66.4232 122.642C65.1623 122.642 64.557 123.295 64.557 124.099C64.557 124.892 65.0412 125.344 65.9693 125.505L66.8268 125.655C67.432 125.766 67.6842 126.007 67.6842 126.408C67.6842 126.81 67.2807 127.162 66.4737 127.162C65.6666 127.162 65.2127 126.76 65.2127 126.308H64.4561C64.4561 127.111 65.2127 127.865 66.4737 127.865ZM71.618 127.865C72.7276 127.865 73.5851 127.212 73.8373 126.107H73.0807C72.8789 126.81 72.3241 127.162 71.618 127.162C70.71 127.162 69.9534 126.408 69.9534 125.254C69.9534 124.099 70.71 123.345 71.618 123.345C72.3241 123.345 72.8789 123.697 73.0807 124.35H73.8373C73.5851 123.295 72.7276 122.642 71.618 122.642C70.2561 122.642 69.1969 123.697 69.1969 125.254C69.1969 126.81 70.2561 127.865 71.618 127.865ZM77.0167 127.865C78.3785 127.865 79.4378 126.81 79.4378 125.254C79.4378 123.697 78.3785 122.642 77.0167 122.642C75.6548 122.642 74.5956 123.697 74.5956 125.254C74.5956 126.81 75.6548 127.865 77.0167 127.865ZM77.0167 127.162C76.1088 127.162 75.3522 126.408 75.3522 125.254C75.3522 124.099 76.1088 123.345 77.0167 123.345C77.9246 123.345 78.6812 124.099 78.6812 125.254C78.6812 126.408 77.9246 127.162 77.0167 127.162ZM81.2995 127.764V124.751C81.2995 123.998 81.9553 123.345 82.7623 123.345C83.5189 123.345 84.1242 123.948 84.1242 124.751V127.764H84.8808V124.751C84.8808 123.496 84.0233 122.642 82.8632 122.642C82.1268 122.642 81.5719 123.014 81.35 123.295H81.2995L81.1987 122.743H80.5429V127.764H81.2995ZM87.053 127.764V124.751C87.053 123.998 87.7087 123.345 88.5158 123.345C89.2724 123.345 89.8776 123.948 89.8776 124.751V127.764H90.6342V124.751C90.6342 123.496 89.7768 122.642 88.6166 122.642C87.8802 122.642 87.3254 123.014 87.1035 123.295H87.053L86.9521 122.743H86.2964V127.764H87.053ZM94.1678 127.865C95.227 127.865 95.9836 127.312 96.3367 126.358H95.5297C95.2775 126.86 94.7731 127.162 94.1678 127.162C93.3204 127.162 92.6042 126.559 92.5033 125.605H96.4376C96.4578 125.545 96.488 125.344 96.488 125.053C96.488 123.647 95.4792 122.642 94.1678 122.642C92.8059 122.642 91.7467 123.697 91.7467 125.254C91.7467 126.81 92.8059 127.865 94.1678 127.865ZM92.5033 124.902C92.6042 123.998 93.2599 123.345 94.1678 123.345C95.0253 123.345 95.681 123.998 95.7314 124.902H92.5033ZM99.7145 127.865C100.824 127.865 101.682 127.212 101.934 126.107H101.177C100.975 126.81 100.421 127.162 99.7145 127.162C98.8066 127.162 98.05 126.408 98.05 125.254C98.05 124.099 98.8066 123.345 99.7145 123.345C100.421 123.345 100.975 123.697 101.177 124.35H101.934C101.682 123.295 100.824 122.642 99.7145 122.642C98.3526 122.642 97.2934 123.697 97.2934 125.254C97.2934 126.81 98.3526 127.865 99.7145 127.865ZM105.166 127.764V127.061H104.308C104.107 127.061 104.006 126.961 104.006 126.76V123.446H105.166V122.743H104.006V121.337H103.249V122.743H102.442V123.446H103.249V126.911C103.249 127.413 103.602 127.764 104.157 127.764H105.166ZM108.245 127.865C109.305 127.865 110.061 127.312 110.414 126.358H109.607C109.355 126.86 108.851 127.162 108.245 127.162C107.398 127.162 106.682 126.559 106.581 125.605H110.515C110.535 125.545 110.566 125.344 110.566 125.053C110.566 123.647 109.557 122.642 108.245 122.642C106.884 122.642 105.824 123.697 105.824 125.254C105.824 126.81 106.884 127.865 108.245 127.865ZM106.581 124.902C106.682 123.998 107.338 123.345 108.245 123.345C109.103 123.345 109.759 123.998 109.809 124.902H106.581ZM113.691 127.865C114.397 127.865 114.902 127.563 115.305 127.061H115.356L115.457 127.764H116.112V120.734H115.356V123.446H115.305C114.902 122.944 114.397 122.642 113.691 122.642C112.38 122.642 111.371 123.697 111.371 125.254C111.371 126.81 112.38 127.865 113.691 127.865ZM113.742 127.162C112.884 127.162 112.128 126.408 112.128 125.254C112.128 124.099 112.884 123.345 113.742 123.345C114.599 123.345 115.356 124.099 115.356 125.254C115.356 126.408 114.599 127.162 113.742 127.162Z" fill="#031A34"/>
<path d="M186.065 137.25H17.9336V164.03H186.065V137.25Z" fill="#FEFEFF"/>
<path d="M42.0326 146.18H34.1864C33.8769 146.18 33.626 146.429 33.626 146.738V154.549C33.626 154.857 33.8769 155.107 34.1864 155.107H42.0326C42.3421 155.107 42.593 154.857 42.593 154.549V146.738C42.593 146.429 42.3421 146.18 42.0326 146.18Z" stroke="#031A34" stroke-width="2"/>
<path d="M58.0503 154.649C59.7148 154.649 60.6227 153.795 60.6227 152.64C60.6227 151.586 60.0174 150.983 58.6051 150.732L57.4954 150.531C56.6985 150.391 56.3353 149.979 56.3353 149.427C56.3353 148.724 56.8901 148.171 57.9494 148.171C59.1095 148.171 59.7652 148.824 59.7652 149.577H60.5722C60.5722 148.372 59.5634 147.418 57.9494 147.418C56.4362 147.418 55.5283 148.272 55.5283 149.427C55.5283 150.431 56.1235 151.023 57.2432 151.234L58.6051 151.485C59.4121 151.636 59.8156 152.038 59.8156 152.64C59.8156 153.343 59.3112 153.895 58.0503 153.895C56.8397 153.895 56.184 153.243 56.184 152.49H55.377C55.377 153.644 56.3857 154.649 58.0503 154.649ZM63.853 154.649C64.5895 154.649 65.1241 154.287 65.3662 153.996H65.4167L65.5175 154.548H66.1733V149.527H65.4167V152.54C65.4167 153.293 64.761 153.946 63.9539 153.946C63.1973 153.946 62.5921 153.343 62.5921 152.54V149.527H61.8355V152.54C61.8355 153.795 62.6929 154.649 63.853 154.649ZM69.203 154.649C70.5144 154.649 71.1701 153.996 71.1701 153.193C71.1701 152.389 70.7162 151.917 69.7074 151.736L68.8499 151.586C68.2446 151.475 68.0429 151.234 68.0429 150.883C68.0429 150.481 68.396 150.129 69.1526 150.129C69.9092 150.129 70.3631 150.531 70.3631 150.983H71.1197C71.1197 150.18 70.3631 149.427 69.1526 149.427C67.8916 149.427 67.2863 150.079 67.2863 150.883C67.2863 151.676 67.7705 152.128 68.6986 152.289L69.5561 152.439C70.1614 152.55 70.4135 152.791 70.4135 153.193C70.4135 153.594 70.01 153.946 69.203 153.946C68.396 153.946 67.942 153.544 67.942 153.092H67.1854C67.1854 153.896 67.942 154.649 69.203 154.649ZM72.9854 156.557V153.845H73.0358C73.4394 154.347 73.9438 154.649 74.6499 154.649C75.9613 154.649 76.9701 153.594 76.9701 152.038C76.9701 150.481 75.9613 149.427 74.6499 149.427C73.9438 149.427 73.4394 149.728 73.0358 150.23H72.9854L72.8845 149.527H72.2288V156.557H72.9854ZM74.5995 153.946C73.742 153.946 72.9854 153.193 72.9854 152.038C72.9854 150.883 73.742 150.129 74.5995 150.129C75.4569 150.129 76.2135 150.883 76.2135 152.038C76.2135 153.193 75.4569 153.946 74.5995 153.946ZM80.1994 154.649C81.2586 154.649 82.0152 154.096 82.3683 153.142H81.5613C81.3091 153.644 80.8047 153.946 80.1994 153.946C79.352 153.946 78.6358 153.343 78.5349 152.389H82.4692C82.4893 152.329 82.5196 152.128 82.5196 151.837C82.5196 150.431 81.5108 149.427 80.1994 149.427C78.8375 149.427 77.7783 150.481 77.7783 152.038C77.7783 153.594 78.8375 154.649 80.1994 154.649ZM78.5349 151.686C78.6358 150.782 79.2915 150.129 80.1994 150.129C81.0569 150.129 81.7126 150.782 81.763 151.686H78.5349ZM84.3836 154.548V151.535C84.3836 150.782 85.0393 150.129 85.8464 150.129C86.603 150.129 87.2082 150.732 87.2082 151.535V154.548H87.9648V151.535C87.9648 150.28 87.1074 149.427 85.9473 149.427C85.2108 149.427 84.656 149.798 84.4341 150.079H84.3836L84.2827 149.527H83.627V154.548H84.3836ZM91.3981 154.649C92.1042 154.649 92.6086 154.347 93.0122 153.845H93.0626L93.1635 154.548H93.8192V147.518H93.0626V150.23H93.0122C92.6086 149.728 92.1042 149.427 91.3981 149.427C90.0867 149.427 89.0779 150.481 89.0779 152.038C89.0779 153.594 90.0867 154.649 91.3981 154.649ZM91.4485 153.946C90.5911 153.946 89.8345 153.193 89.8345 152.038C89.8345 150.883 90.5911 150.129 91.4485 150.129C92.306 150.129 93.0626 150.883 93.0626 152.038C93.0626 153.193 92.306 153.946 91.4485 153.946ZM97.3998 154.649C98.4591 154.649 99.2157 154.096 99.5687 153.142H98.7617C98.5095 153.644 98.0051 153.946 97.3998 153.946C96.5525 153.946 95.8362 153.343 95.7353 152.389H99.6696C99.6898 152.329 99.7201 152.128 99.7201 151.837C99.7201 150.431 98.7113 149.427 97.3998 149.427C96.038 149.427 94.9787 150.481 94.9787 152.038C94.9787 153.594 96.038 154.649 97.3998 154.649ZM95.7353 151.686C95.8362 150.782 96.4919 150.129 97.3998 150.129C98.2573 150.129 98.913 150.782 98.9635 151.686H95.7353ZM102.845 154.649C103.551 154.649 104.056 154.347 104.459 153.845H104.51L104.61 154.548H105.266V147.518H104.51V150.23H104.459C104.056 149.728 103.551 149.427 102.845 149.427C101.534 149.427 100.525 150.481 100.525 152.038C100.525 153.594 101.534 154.649 102.845 154.649ZM102.896 153.946C102.038 153.946 101.281 153.193 101.281 152.038C101.281 150.883 102.038 150.129 102.896 150.129C103.753 150.129 104.51 150.883 104.51 152.038C104.51 153.193 103.753 153.946 102.896 153.946Z" fill="#031A34"/>
</g>
<path d="M128.48 118.056H124.107C123.888 118.056 123.742 117.913 123.742 117.699C123.742 117.163 123.487 116.842 123.087 116.342C122.868 116.092 122.613 115.771 122.358 115.378C121.665 114.307 121.046 113.021 120.9 112.557C120.754 112.093 120.863 111.771 121.009 111.593C121.155 111.379 121.446 111.272 121.775 111.272C122.212 111.272 122.649 111.629 123.05 112.093V108.415C123.05 107.808 123.524 107.344 124.144 107.344C124.763 107.344 125.237 107.808 125.237 108.415V109.915C125.346 109.879 125.456 109.843 125.601 109.843C126.002 109.843 126.33 110.058 126.513 110.343C126.658 110.236 126.841 110.2 127.023 110.2C127.533 110.2 127.934 110.522 128.08 110.986C128.189 110.95 128.335 110.914 128.48 110.914C129.1 110.914 129.574 111.379 129.574 111.986V113.057C129.574 113.985 129.392 114.735 129.21 115.449C129.027 116.163 128.845 116.842 128.845 117.699C128.845 117.913 128.699 118.056 128.48 118.056Z" fill="#FEFEFF"/>
<path fill-rule="evenodd" clip-rule="evenodd" d="M124.107 118.056H128.48C128.699 118.056 128.845 117.913 128.845 117.699C128.845 116.875 129.013 116.216 129.188 115.532C129.195 115.505 129.202 115.477 129.21 115.449C129.392 114.735 129.574 113.985 129.574 113.057V111.986C129.574 111.379 129.1 110.914 128.48 110.914C128.335 110.914 128.189 110.95 128.08 110.986C127.934 110.522 127.533 110.2 127.023 110.2C126.841 110.2 126.658 110.236 126.513 110.343C126.33 110.058 126.002 109.843 125.601 109.843C125.456 109.843 125.346 109.879 125.237 109.915V108.415C125.237 107.808 124.763 107.344 124.144 107.344C123.524 107.344 123.05 107.808 123.05 108.415V112.093C122.649 111.629 122.212 111.272 121.775 111.272C121.446 111.272 121.155 111.379 121.009 111.593C120.863 111.771 120.754 112.093 120.9 112.557C121.046 113.021 121.665 114.307 122.358 115.378C122.613 115.771 122.868 116.092 123.087 116.342C123.487 116.842 123.742 117.163 123.742 117.699C123.742 117.913 123.888 118.056 124.107 118.056ZM128.116 117.342H124.435C124.362 116.735 123.997 116.342 123.597 115.914C123.542 115.842 123.487 115.773 123.432 115.704C123.269 115.496 123.105 115.289 122.941 115.021C122.212 113.878 121.665 112.736 121.556 112.343C121.519 112.164 121.519 112.057 121.556 112.021C121.592 111.986 121.665 111.986 121.738 111.986C121.993 111.986 122.685 112.664 123.014 113.485V113.771C123.014 113.985 123.16 114.128 123.378 114.128C123.597 114.128 123.742 113.985 123.742 113.771V108.415C123.742 108.201 123.888 108.058 124.107 108.058C124.326 108.058 124.472 108.201 124.472 108.415V111.629C124.472 111.843 124.617 111.986 124.836 111.986C125.054 111.986 125.2 111.843 125.2 111.629V110.914C125.2 110.7 125.346 110.557 125.565 110.557C125.784 110.557 125.929 110.7 125.929 110.914V111.986C125.929 112.2 126.075 112.343 126.294 112.343C126.513 112.343 126.658 112.2 126.658 111.986V111.272C126.658 111.057 126.804 110.914 127.023 110.914C127.241 110.914 127.387 111.057 127.387 111.272V112.343C127.387 112.557 127.533 112.7 127.752 112.7C127.97 112.7 128.116 112.557 128.116 112.343V111.986C128.116 111.771 128.262 111.629 128.48 111.629C128.699 111.629 128.845 111.771 128.845 111.986V113.057C128.845 113.845 128.677 114.503 128.502 115.185C128.495 115.214 128.488 115.242 128.48 115.271C128.456 115.38 128.43 115.488 128.404 115.597C128.277 116.134 128.146 116.689 128.116 117.342Z" fill="#031A34"/>
</g>
<defs>
<filter id="filter0_dd_1959_93016" x="-1.73633" y="-0.875" width="207.473" height="103.941" filterUnits="userSpaceOnUse" color-interpolation-filters="sRGB">
<feFlood flood-opacity="0" result="BackgroundImageFix"/>
<feColorMatrix in="SourceAlpha" type="matrix" values="0 0 0 0 0 0 0 0 0 0 0 0 0 0 0 0 0 0 127 0" result="hardAlpha"/>
<feOffset dy="2"/>
<feGaussianBlur stdDeviation="3"/>
<feComposite in2="hardAlpha" operator="out"/>
<feColorMatrix type="matrix" values="0 0 0 0 0 0 0 0 0 0 0 0 0 0 0 0 0 0 0.15 0"/>
<feBlend mode="normal" in2="BackgroundImageFix" result="effect1_dropShadow_1959_93016"/>
<feColorMatrix in="SourceAlpha" type="matrix" values="0 0 0 0 0 0 0 0 0 0 0 0 0 0 0 0 0 0 127 0" result="hardAlpha"/>
<feOffset dy="1"/>
<feGaussianBlur stdDeviation="1"/>
<feComposite in2="hardAlpha" operator="out"/>
<feColorMatrix type="matrix" values="0 0 0 0 0 0 0 0 0 0 0 0 0 0 0 0 0 0 0.3 0"/>
<feBlend mode="normal" in2="effect1_dropShadow_1959_93016" result="effect2_dropShadow_1959_93016"/>
<feBlend mode="normal" in="SourceGraphic" in2="effect2_dropShadow_1959_93016" result="shape"/>
</filter>
<filter id="filter1_dd_1959_93016" x="5.93359" y="75.2266" width="192.132" height="113.27" filterUnits="userSpaceOnUse" color-interpolation-filters="sRGB">
<feFlood flood-opacity="0" result="BackgroundImageFix"/>
<feColorMatrix in="SourceAlpha" type="matrix" values="0 0 0 0 0 0 0 0 0 0 0 0 0 0 0 0 0 0 127 0" result="hardAlpha"/>
<feOffset dy="4"/>
<feGaussianBlur stdDeviation="2"/>
<feComposite in2="hardAlpha" operator="out"/>
<feColorMatrix type="matrix" values="0 0 0 0 0 0 0 0 0 0 0 0 0 0 0 0 0 0 0.3 0"/>
<feBlend mode="normal" in2="BackgroundImageFix" result="effect1_dropShadow_1959_93016"/>
<feColorMatrix in="SourceAlpha" type="matrix" values="0 0 0 0 0 0 0 0 0 0 0 0 0 0 0 0 0 0 127 0" result="hardAlpha"/>
<feOffset dy="8"/>
<feGaussianBlur stdDeviation="6"/>
<feComposite in2="hardAlpha" operator="out"/>
<feColorMatrix type="matrix" values="0 0 0 0 0 0 0 0 0 0 0 0 0 0 0 0 0 0 0.15 0"/>
<feBlend mode="normal" in2="effect1_dropShadow_1959_93016" result="effect2_dropShadow_1959_93016"/>
<feBlend mode="normal" in="SourceGraphic" in2="effect2_dropShadow_1959_93016" result="shape"/>
</filter>
<linearGradient id="paint0_linear_1959_93016" x1="66.6921" y1="18.9678" x2="92.5062" y2="26.4012" gradientUnits="userSpaceOnUse">
<stop stop-color="#0066FF"/>
<stop offset="1" stop-color="#59C2C9"/>
</linearGradient>
<clipPath id="clip0_1959_93016">
<rect width="204" height="183" fill="white"/>
</clipPath>
</defs>
</svg>
