<svg width="561" height="132" viewBox="0 0 561 132" fill="none" xmlns="http://www.w3.org/2000/svg">
<g filter="url(#filter0_dd_1959_92972)">
<path d="M539.381 4.19141H17.7373C11.5748 4.19141 6.5791 9.19445 6.5791 15.366V60.0644C6.5791 66.236 11.5748 71.239 17.7373 71.239H539.381C545.544 71.239 550.539 66.236 550.539 60.0644V15.366C550.539 9.19445 545.544 4.19141 539.381 4.19141Z" fill="#FEFEFF"/>
<path d="M539.381 4.53906H17.7372C11.7673 4.53906 6.92773 9.38576 6.92773 15.3645V60.0629C6.92773 66.0416 11.7673 70.8883 17.7372 70.8883H539.381C545.351 70.8883 550.19 66.0416 550.19 60.0629V15.3645C550.19 9.38576 545.351 4.53906 539.381 4.53906Z" stroke="#D1D5E4"/>
</g>
<path d="M40.0536 60.0617C52.3786 60.0617 62.3699 50.0556 62.3699 37.7125C62.3699 25.3694 52.3786 15.3633 40.0536 15.3633C27.7287 15.3633 17.7373 25.3694 17.7373 37.7125C17.7373 50.0556 27.7287 60.0617 40.0536 60.0617Z" fill="#F2F4FF"/>
<path d="M43.8327 33.9915H45.0223C45.5048 33.9915 45.8174 34.3045 45.8193 34.7896V39.6883C45.8193 40.1735 45.5068 40.4865 45.0223 40.4865H43.8327V42.2942C43.8327 43.8416 43.0923 44.5928 41.5667 44.5928H36.5561C35.0305 44.5928 34.29 43.8416 34.29 42.2942V33.1385C34.29 31.6126 35.0519 30.8398 36.5561 30.8398H41.5667C42.3383 30.8398 42.8989 31.0296 43.2779 31.4209C43.651 31.8043 43.8327 32.3658 43.8327 33.1385V33.9915ZM39.0545 42.8693C39.2655 42.8693 39.4355 42.8126 39.5526 42.6932C39.6582 42.5837 39.7187 42.4213 39.7206 42.2002C39.7206 41.7444 39.4589 41.5312 39.0545 41.5312C38.6502 41.5312 38.3884 41.7425 38.3884 42.2002C38.3884 42.4194 38.449 42.5837 38.5564 42.6932C38.6736 42.8126 38.8435 42.8693 39.0545 42.8693ZM45.2313 39.6883V34.7877C45.2313 34.6234 45.1844 34.5764 45.0203 34.5764H42.9536L41.6253 35.5722V39.6883C41.6253 39.8526 41.6721 39.8996 41.8362 39.8996H45.0203C45.1844 39.8996 45.2313 39.8526 45.2313 39.6883Z" fill="white"/>
<path d="M43.8327 33.9915H45.0223C45.5048 33.9915 45.8174 34.3045 45.8193 34.7896V39.6883C45.8193 40.1735 45.5068 40.4865 45.0223 40.4865H43.8327V42.2942C43.8327 43.8416 43.0923 44.5928 41.5667 44.5928H36.5561C35.0305 44.5928 34.29 43.8416 34.29 42.2942V33.1385C34.29 31.6126 35.0519 30.8398 36.5561 30.8398H41.5667C42.3383 30.8398 42.8989 31.0296 43.2779 31.4209C43.651 31.8043 43.8327 32.3658 43.8327 33.1385V33.9915ZM39.0545 42.8693C39.2655 42.8693 39.4355 42.8126 39.5526 42.6932C39.6582 42.5837 39.7187 42.4213 39.7206 42.2002C39.7206 41.7444 39.4589 41.5312 39.0545 41.5312C38.6502 41.5312 38.3884 41.7425 38.3884 42.2002C38.3884 42.4194 38.449 42.5837 38.5564 42.6932C38.6736 42.8126 38.8435 42.8693 39.0545 42.8693ZM45.2313 39.6883V34.7877C45.2313 34.6234 45.1844 34.5764 45.0203 34.5764H42.9536L41.6253 35.5722V39.6883C41.6253 39.8526 41.6721 39.8996 41.8362 39.8996H45.0203C45.1844 39.8996 45.2313 39.8526 45.2313 39.6883Z" fill="url(#paint0_linear_1959_92972)"/>
<path d="M44.6147 36.5586C44.7222 36.5586 44.8101 36.6467 44.8101 36.7542V39.229C44.8101 39.3366 44.7222 39.4247 44.6147 39.4247H42.2608C42.1534 39.4247 42.0654 39.3366 42.0654 39.229V36.7542C42.0654 36.6467 42.1534 36.5586 42.2608 36.5586H44.6147ZM43.6321 38.6401H43.2395V39.0333H43.6321V38.6401ZM42.4581 37.7344V38.2489H44.4194V37.7344H42.4581ZM44.4194 36.9499H44.0228V37.3431H44.4174L44.4194 36.9499ZM42.8488 36.9499H42.4581V37.3431H42.8488V36.9499ZM42.8488 38.6401H42.4581V39.0333H42.8488V38.6401ZM44.0228 39.0333H44.4194V38.6401H44.0228V39.0333ZM43.2395 36.9499V37.3431H43.6321V36.9499H43.2395Z" fill="white"/>
<path d="M44.6147 36.5586C44.7222 36.5586 44.8101 36.6467 44.8101 36.7542V39.229C44.8101 39.3366 44.7222 39.4247 44.6147 39.4247H42.2608C42.1534 39.4247 42.0654 39.3366 42.0654 39.229V36.7542C42.0654 36.6467 42.1534 36.5586 42.2608 36.5586H44.6147ZM43.6321 38.6401H43.2395V39.0333H43.6321V38.6401ZM42.4581 37.7344V38.2489H44.4194V37.7344H42.4581ZM44.4194 36.9499H44.0228V37.3431H44.4174L44.4194 36.9499ZM42.8488 36.9499H42.4581V37.3431H42.8488V36.9499ZM42.8488 38.6401H42.4581V39.0333H42.8488V38.6401ZM44.0228 39.0333H44.4194V38.6401H44.0228V39.0333ZM43.2395 36.9499V37.3431H43.6321V36.9499H43.2395Z" fill="url(#paint1_linear_1959_92972)"/>
<path d="M77.6077 28.6365C80.0178 28.6365 81.8506 26.7759 81.8506 24.2365C81.8506 21.6971 80.0178 19.8365 77.6077 19.8365H74.4443V28.6365H77.6077ZM76.1264 21.4457H77.6077C79.0513 21.4457 80.181 22.5771 80.181 24.2365C80.181 25.8959 79.0513 27.0274 77.6077 27.0274H76.1264V21.4457ZM86.1067 28.7622C87.839 28.7622 88.7805 27.6559 89.0692 26.7759H87.4624C87.2616 27.0902 86.7846 27.4422 86.1067 27.4422C85.228 27.4422 84.5376 26.8262 84.4372 25.9714H89.1822C89.2073 25.8708 89.2449 25.6194 89.2449 25.3177C89.2449 23.4948 87.8892 22.1371 86.1067 22.1371C84.2614 22.1371 82.868 23.5325 82.868 25.4559C82.868 27.3668 84.2614 28.7622 86.1067 28.7622ZM84.4372 24.9154C84.5627 24.0857 85.1778 23.4445 86.1067 23.4445C86.9729 23.4445 87.5879 24.0857 87.6758 24.9154H84.4372ZM93.9809 28.6365L96.1651 22.2628H94.5207L93.0143 26.7634H92.7632L91.2569 22.2628H89.6125L91.7967 28.6365H93.9809ZM97.8004 21.3577C98.3277 21.3577 98.7294 20.9805 98.7294 20.4777C98.7294 19.9622 98.3277 19.5977 97.8004 19.5977C97.2732 19.5977 96.8841 19.9622 96.8841 20.4777C96.8841 20.9805 97.2732 21.3577 97.8004 21.3577ZM98.5913 28.6365V22.2628H97.0096V28.6365H98.5913ZM103.085 28.7622C104.867 28.7622 105.884 27.5428 106.122 26.2605H104.528C104.365 26.8262 103.913 27.3039 103.085 27.3039C102.181 27.3039 101.428 26.5622 101.428 25.4559C101.428 24.3371 102.181 23.6079 103.085 23.6079C103.913 23.6079 104.365 24.0857 104.528 24.6011H106.122C105.884 23.3565 104.867 22.1371 103.085 22.1371C101.239 22.1371 99.8459 23.5325 99.8459 25.4559C99.8459 27.3668 101.239 28.7622 103.085 28.7622ZM110.231 28.7622C111.964 28.7622 112.905 27.6559 113.194 26.7759H111.587C111.386 27.0902 110.909 27.4422 110.231 27.4422C109.353 27.4422 108.662 26.8262 108.562 25.9714H113.307C113.332 25.8708 113.37 25.6194 113.37 25.3177C113.37 23.4948 112.014 22.1371 110.231 22.1371C108.386 22.1371 106.993 23.5325 106.993 25.4559C106.993 27.3668 108.386 28.7622 110.231 28.7622ZM108.562 24.9154C108.687 24.0857 109.302 23.4445 110.231 23.4445C111.097 23.4445 111.713 24.0857 111.8 24.9154H108.562ZM116.935 28.7622C118.781 28.7622 119.672 27.8697 119.672 26.8137C119.672 25.7325 119.007 25.0788 117.626 24.8651L116.609 24.7017C116.031 24.6011 115.78 24.3999 115.78 24.0857C115.78 23.7462 116.132 23.3942 116.873 23.3942C117.626 23.3942 118.04 23.7714 118.04 24.1737H119.584C119.584 23.2559 118.655 22.1371 116.873 22.1371C115.115 22.1371 114.211 23.0548 114.211 24.1108C114.211 25.1291 114.914 25.7451 116.27 25.9714L117.262 26.1348C117.889 26.2354 118.103 26.4617 118.103 26.8262C118.103 27.1782 117.751 27.5051 116.935 27.5051C116.094 27.5051 115.705 27.0902 115.705 26.7005H114.161C114.161 27.5051 114.902 28.7622 116.935 28.7622ZM126.952 31.2765C128.885 31.2765 130.027 30.1451 130.027 28.4731V22.2628H128.659L128.533 22.9542H128.471C128.082 22.4765 127.479 22.1371 126.638 22.1371C125.006 22.1371 123.751 23.3942 123.751 25.2045C123.751 27.0148 125.006 28.2719 126.638 28.2719C127.429 28.2719 128.069 27.9325 128.383 27.5805H128.446V28.4605C128.446 29.3279 127.856 29.8937 126.952 29.8937C125.998 29.8937 125.596 29.3405 125.533 28.9382H123.927C123.964 29.8434 124.793 31.2765 126.952 31.2765ZM126.889 26.8639C126.023 26.8639 125.333 26.1851 125.333 25.2045C125.333 24.2239 126.023 23.5451 126.889 23.5451C127.755 23.5451 128.446 24.2239 128.446 25.2045C128.446 26.1851 127.755 26.8639 126.889 26.8639ZM133.186 28.6365V25.0034C133.186 24.1737 133.6 23.7588 134.403 23.7588H135.47V22.2628H134.303C133.713 22.2628 133.349 22.5142 133.161 22.8159H133.098L132.972 22.2628H131.604V28.6365H133.186ZM139.211 28.7622C141.056 28.7622 142.45 27.3668 142.45 25.4559C142.45 23.5325 141.056 22.1371 139.211 22.1371C137.353 22.1371 135.973 23.5325 135.973 25.4559C135.973 27.3668 137.353 28.7622 139.211 28.7622ZM139.211 27.2914C138.295 27.2914 137.542 26.5622 137.542 25.4559C137.542 24.3371 138.295 23.6079 139.211 23.6079C140.115 23.6079 140.868 24.3371 140.868 25.4559C140.868 26.5622 140.115 27.2914 139.211 27.2914ZM146.202 28.7622C147.068 28.7622 147.733 28.3851 148.034 28.0331H148.097L148.223 28.6365H149.578V22.2628H147.997V25.8834C147.997 26.6628 147.419 27.2662 146.616 27.2662C145.838 27.2662 145.273 26.6879 145.273 25.8834V22.2628H143.691V26.0971C143.691 27.7062 144.746 28.7622 146.202 28.7622ZM152.738 31.1508V27.9954H152.801C153.115 28.3977 153.73 28.7622 154.596 28.7622C156.228 28.7622 157.546 27.4297 157.546 25.4559C157.546 23.4822 156.228 22.1371 154.596 22.1371C153.717 22.1371 153.077 22.5017 152.713 22.9794H152.65L152.525 22.2628H151.157V31.1508H152.738ZM154.358 27.3039C153.466 27.3039 152.738 26.5874 152.738 25.4559C152.738 24.3119 153.466 23.6079 154.358 23.6079C155.249 23.6079 155.964 24.3119 155.964 25.4559C155.964 26.5874 155.249 27.3039 154.358 27.3039ZM163.611 28.6365V25.0285C163.611 24.2365 164.189 23.6457 164.992 23.6457C165.783 23.6457 166.335 24.2239 166.335 25.0285V28.6365H167.917V24.8148C167.917 23.2057 166.862 22.1371 165.406 22.1371C164.452 22.1371 163.825 22.5771 163.586 22.8788H163.523L163.398 22.2628H162.03V28.6365H163.611ZM171.467 28.7622C172.396 28.7622 173.049 28.3348 173.287 28.0205H173.35L173.476 28.6365H174.844V24.5759C174.844 23.1679 173.802 22.1371 172.12 22.1371C170.438 22.1371 169.522 23.1554 169.421 24.1737H170.965C171.053 23.8217 171.417 23.4445 172.12 23.4445C172.81 23.4445 173.262 23.9097 173.262 24.5759V24.7142H171.769C170.011 24.7142 169.17 25.5817 169.17 26.8011C169.17 27.9074 170.049 28.7622 171.467 28.7622ZM171.743 27.4925C171.103 27.4925 170.752 27.1657 170.752 26.6754C170.752 26.1977 171.103 25.8457 171.932 25.8457H173.262V26.0342C173.262 26.9268 172.697 27.4925 171.743 27.4925ZM177.966 28.6365V24.8777C177.966 24.1611 178.481 23.6457 179.146 23.6457C179.786 23.6457 180.226 24.0982 180.226 24.8777V28.6365H181.807V24.8777C181.807 24.1611 182.335 23.6457 182.975 23.6457C183.628 23.6457 184.067 24.0982 184.067 24.8777V28.6365H185.636V24.6891C185.636 23.2057 184.632 22.1371 183.301 22.1371C182.322 22.1371 181.607 22.6525 181.33 23.0799H181.268C181.054 22.6902 180.439 22.1371 179.498 22.1371C178.77 22.1371 178.167 22.5519 177.941 22.8788H177.878L177.753 22.2628H176.385V28.6365H177.966ZM190.097 28.7622C191.83 28.7622 192.771 27.6559 193.06 26.7759H191.453C191.252 27.0902 190.775 27.4422 190.097 27.4422C189.219 27.4422 188.528 26.8262 188.428 25.9714H193.173C193.198 25.8708 193.235 25.6194 193.235 25.3177C193.235 23.4948 191.88 22.1371 190.097 22.1371C188.252 22.1371 186.859 23.5325 186.859 25.4559C186.859 27.3668 188.252 28.7622 190.097 28.7622ZM188.428 24.9154C188.553 24.0857 189.168 23.4445 190.097 23.4445C190.963 23.4445 191.578 24.0857 191.666 24.9154H188.428Z" fill="#031A34"/>
<path d="M77.5672 50.2871V43.8952H79.8658V42.4648H73.7734V43.8952H76.072V50.2871H77.5672ZM82.5075 50.3988C84.1477 50.3988 85.3863 49.1584 85.3863 47.4599C85.3863 45.7502 84.1477 44.5098 82.5075 44.5098C80.8561 44.5098 79.6287 45.7502 79.6287 47.4599C79.6287 49.1584 80.8561 50.3988 82.5075 50.3988ZM82.5075 49.0914C81.6929 49.0914 81.0235 48.4433 81.0235 47.4599C81.0235 46.4654 81.6929 45.8172 82.5075 45.8172C83.3109 45.8172 83.9804 46.4654 83.9804 47.4599C83.9804 48.4433 83.3109 49.0914 82.5075 49.0914ZM89.5385 50.2871V49.0132H88.6236C88.3669 49.0132 88.2553 48.9014 88.2553 48.6444V45.9513H89.5385V44.6215H88.2553V42.923H86.8494V44.6215H85.9568V45.9513H86.8494V48.9349C86.8494 49.773 87.3627 50.2871 88.2888 50.2871H89.5385ZM92.3064 50.3988C93.1321 50.3988 93.7124 50.0189 93.9244 49.7395H93.9802L94.0917 50.2871H95.308V46.6777C95.308 45.4261 94.3819 44.5098 92.8867 44.5098C91.3915 44.5098 90.5769 45.4149 90.4877 46.3201H91.8601C91.9382 46.0072 92.2618 45.672 92.8867 45.672C93.5004 45.672 93.9021 46.0854 93.9021 46.6777V46.8006H92.5742C91.0121 46.8006 90.2645 47.5716 90.2645 48.6556C90.2645 49.6389 91.0456 50.3988 92.3064 50.3988ZM92.5519 49.2702C91.9829 49.2702 91.6704 48.9796 91.6704 48.5438C91.6704 48.1192 91.9829 47.8063 92.7193 47.8063H93.9021V47.9739C93.9021 48.7673 93.3999 49.2702 92.5519 49.2702ZM98.1401 50.2871V42.4648H96.7341V50.2871H98.1401ZM100.301 46.1972C100.781 46.1972 101.149 45.8284 101.149 45.3479C101.149 44.8786 100.781 44.521 100.301 44.521C99.8326 44.521 99.4756 44.8786 99.4756 45.3479C99.4756 45.8284 99.8326 46.1972 100.301 46.1972ZM100.301 50.3429C100.781 50.3429 101.149 49.9742 101.149 49.5048C101.149 49.0355 100.781 48.6667 100.301 48.6667C99.8326 48.6667 99.4756 49.0355 99.4756 49.5048C99.4756 49.9742 99.8326 50.3429 100.301 50.3429Z" fill="#031A34"/>
<path d="M109.82 50.2855L110.266 48.2182H111.996L111.549 50.2855H112.386L112.821 48.2182H114.395L114.562 47.436H112.989L113.446 45.3128H115.008L115.176 44.5306H113.614L114.06 42.4633H113.223L112.777 44.5306H111.047L111.494 42.4633H110.657L110.222 44.5306H108.648L108.481 45.3128H110.054L109.597 47.436H108.035L107.867 48.2182H109.429L108.983 50.2855H109.82ZM110.88 45.3128H112.609L112.163 47.436H110.434L110.88 45.3128ZM121.369 50.3973C123.21 50.3973 124.215 49.4474 124.215 48.1624C124.215 46.989 123.545 46.3185 121.983 46.0392L120.756 45.8157C119.874 45.6592 119.472 45.2011 119.472 44.5865C119.472 43.8043 120.086 43.1897 121.258 43.1897C122.541 43.1897 123.266 43.916 123.266 44.7541H124.159C124.159 43.4132 123.043 42.3516 121.258 42.3516C119.584 42.3516 118.58 43.3014 118.58 44.5865C118.58 45.7039 119.238 46.3632 120.477 46.5979L121.983 46.8773C122.876 47.0449 123.322 47.4919 123.322 48.1624C123.322 48.9446 122.764 49.5592 121.369 49.5592C120.03 49.5592 119.305 48.8328 119.305 47.9947H118.412C118.412 49.2798 119.528 50.3973 121.369 50.3973ZM126.56 50.2855V42.4633H125.667V50.2855H126.56ZM129.241 50.2855V43.6366H129.464L131.807 50.2855H133.146L135.489 43.6366H135.712V50.2855H136.605V42.4633H134.987L132.588 49.2798H132.365L129.966 42.4633H128.348V50.2855H129.241ZM144.37 50.3973C146.043 50.3973 147.382 49.3916 147.829 47.7154H146.88C146.49 48.8887 145.541 49.5592 144.37 49.5592C142.808 49.5592 141.524 48.2741 141.524 46.3744C141.524 44.4747 142.808 43.1897 144.37 43.1897C145.541 43.1897 146.49 43.8601 146.88 44.9776H147.829C147.382 43.3573 146.043 42.3516 144.37 42.3516C142.305 42.3516 140.632 43.9719 140.632 46.3744C140.632 48.777 142.305 50.3973 144.37 50.3973ZM150.735 50.3973C151.627 50.3973 152.252 49.9503 152.464 49.6151H152.52L152.632 50.2855H153.357V46.7097C153.357 45.3687 152.52 44.5865 151.181 44.5865C149.786 44.5865 149.005 45.4246 148.949 46.3185H149.786C149.842 45.8157 150.344 45.3687 151.181 45.3687C152.018 45.3687 152.52 45.8716 152.52 46.7097V46.8773H151.014C149.452 46.8773 148.782 47.6036 148.782 48.6652C148.782 49.6709 149.563 50.3973 150.735 50.3973ZM150.735 49.6151C150.009 49.6151 149.619 49.2239 149.619 48.6652C149.619 48.1065 150.009 47.6595 151.014 47.6595H152.52V47.883C152.52 48.9446 151.851 49.6151 150.735 49.6151ZM155.759 50.2855V46.7097C155.759 45.9274 156.206 45.4805 156.987 45.4805H157.824V44.6982H156.875C156.262 44.6982 156.038 44.9217 155.815 45.257H155.759L155.648 44.6982H154.923V50.2855H155.759ZM160.837 50.3973C161.618 50.3973 162.176 50.062 162.622 49.5033H162.678L162.79 50.2855H163.515V42.4633H162.678V45.4805H162.622C162.176 44.9217 161.618 44.5865 160.837 44.5865C159.386 44.5865 158.271 45.7598 158.271 47.4919C158.271 49.2239 159.386 50.3973 160.837 50.3973ZM160.893 49.6151C159.944 49.6151 159.108 48.777 159.108 47.4919C159.108 46.2068 159.944 45.3687 160.893 45.3687C161.841 45.3687 162.678 46.2068 162.678 47.4919C162.678 48.777 161.841 49.6151 160.893 49.6151ZM166.918 50.3973C168.368 50.3973 169.093 49.6709 169.093 48.777C169.093 47.883 168.591 47.3578 167.475 47.1566L166.527 46.989C165.858 46.8661 165.634 46.5979 165.634 46.2068C165.634 45.7598 166.025 45.3687 166.862 45.3687C167.699 45.3687 168.201 45.8157 168.201 46.3185H169.038C169.038 45.4246 168.201 44.5865 166.862 44.5865C165.467 44.5865 164.797 45.3128 164.797 46.2068C164.797 47.0896 165.333 47.5925 166.36 47.7712L167.308 47.9389C167.978 48.0618 168.257 48.33 168.257 48.777C168.257 49.2239 167.81 49.6151 166.918 49.6151C166.025 49.6151 165.523 49.1681 165.523 48.6652H164.686C164.686 49.5592 165.523 50.3973 166.918 50.3973Z" fill="#6E7894"/>
<path d="M180.926 37.7147V54.4766H181.623V37.7147H180.926Z" fill="white"/>
<path d="M180.926 37.7147V54.4766H181.623V37.7147H180.926Z" fill="url(#paint2_linear_1959_92972)"/>
<mask id="mask0_1959_92972" style="mask-type:luminance" maskUnits="userSpaceOnUse" x="192" y="37" width="18" height="18">
<path d="M209.518 37.7148H192.781V54.4767H209.518V37.7148Z" fill="white"/>
</mask>
<g mask="url(#mask0_1959_92972)">
<path d="M194.218 44.741C194.574 45.0972 195.139 45.1321 195.522 44.8108C198.779 42.1289 203.507 42.1289 206.771 44.8038C207.161 45.1251 207.733 45.0972 208.089 44.741C208.5 44.3289 208.473 43.6445 208.019 43.2743C204.037 40.0127 198.277 40.0127 194.288 43.2743C193.834 43.6375 193.8 44.3219 194.218 44.741ZM199.63 50.1607L200.655 51.1873C200.927 51.4597 201.366 51.4597 201.638 51.1873L202.663 50.1607C202.991 49.8324 202.921 49.2667 202.503 49.0502C201.652 48.6102 200.634 48.6102 199.776 49.0502C199.379 49.2667 199.302 49.8324 199.63 50.1607ZM197.028 47.5556C197.37 47.8978 197.907 47.9327 198.305 47.6464C200.006 46.4381 202.294 46.4381 203.995 47.6464C204.393 47.9257 204.93 47.8978 205.272 47.5556L205.279 47.5486C205.697 47.1296 205.669 46.4172 205.188 46.0749C202.789 44.3359 199.518 44.3359 197.112 46.0749C196.631 46.4242 196.603 47.1296 197.028 47.5556Z" fill="#03A9F4"/>
</g>
<path d="M217.217 50.2871L217.664 48.2198H219.393L218.947 50.2871H219.784L220.219 48.2198H221.792L221.96 47.4375H220.386L220.844 45.3144H222.406L222.573 44.5321H221.011L221.457 42.4648H220.621L220.174 44.5321H218.445L218.891 42.4648H218.054L217.619 44.5321H216.046L215.878 45.3144H217.452L216.994 47.4375H215.432L215.265 48.2198H216.827L216.38 50.2871H217.217ZM218.277 45.3144H220.007L219.561 47.4375H217.831L218.277 45.3144ZM228.432 50.3988C229.659 50.3988 230.608 49.6725 230.887 48.4433H230.05C229.827 49.2255 229.213 49.6166 228.432 49.6166C227.428 49.6166 226.591 48.7785 226.591 47.4934C226.591 46.2083 227.428 45.3702 228.432 45.3702C229.213 45.3702 229.827 45.7614 230.05 46.4877H230.887C230.608 45.3144 229.659 44.588 228.432 44.588C226.926 44.588 225.754 45.7614 225.754 47.4934C225.754 49.2255 226.926 50.3988 228.432 50.3988ZM234.403 50.3988C235.909 50.3988 237.081 49.2255 237.081 47.4934C237.081 45.7614 235.909 44.588 234.403 44.588C232.897 44.588 231.725 45.7614 231.725 47.4934C231.725 49.2255 232.897 50.3988 234.403 50.3988ZM234.403 49.6166C233.399 49.6166 232.562 48.7785 232.562 47.4934C232.562 46.2083 233.399 45.3702 234.403 45.3702C235.407 45.3702 236.244 46.2083 236.244 47.4934C236.244 48.7785 235.407 49.6166 234.403 49.6166ZM239.14 50.2871V46.9347C239.14 46.0966 239.866 45.3702 240.758 45.3702C241.595 45.3702 242.265 46.0407 242.265 46.9347V50.2871H243.101V46.9347C243.101 45.5379 242.153 44.588 240.87 44.588C240.055 44.588 239.442 45.0015 239.196 45.3144H239.14L239.029 44.6998H238.303V50.2871H239.14ZM245.504 50.2871V46.9347C245.504 46.0966 246.229 45.3702 247.122 45.3702C247.959 45.3702 248.628 46.0407 248.628 46.9347V50.2871H249.465V46.9347C249.465 45.5379 248.517 44.588 247.233 44.588C246.419 44.588 245.805 45.0015 245.56 45.3144H245.504L245.392 44.6998H244.667V50.2871H245.504ZM253.374 50.3988C254.546 50.3988 255.382 49.7842 255.773 48.7226H254.88C254.601 49.2814 254.043 49.6166 253.374 49.6166C252.437 49.6166 251.644 48.9461 251.533 47.8845H255.885C255.907 47.8175 255.94 47.594 255.94 47.2699C255.94 45.7055 254.824 44.588 253.374 44.588C251.868 44.588 250.696 45.7614 250.696 47.4934C250.696 49.2255 251.868 50.3988 253.374 50.3988ZM251.533 47.1023C251.644 46.0966 252.37 45.3702 253.374 45.3702C254.322 45.3702 255.048 46.0966 255.103 47.1023H251.533ZM259.509 50.3988C260.736 50.3988 261.685 49.6725 261.964 48.4433H261.127C260.904 49.2255 260.29 49.6166 259.509 49.6166C258.505 49.6166 257.668 48.7785 257.668 47.4934C257.668 46.2083 258.505 45.3702 259.509 45.3702C260.29 45.3702 260.904 45.7614 261.127 46.4877H261.964C261.685 45.3144 260.736 44.588 259.509 44.588C258.002 44.588 256.831 45.7614 256.831 47.4934C256.831 49.2255 258.002 50.3988 259.509 50.3988ZM265.538 50.2871V49.5048H264.59C264.367 49.5048 264.255 49.3931 264.255 49.1696V45.482H265.538V44.6998H264.255V43.1353H263.418V44.6998H262.526V45.482H263.418V49.3372C263.418 49.896 263.809 50.2871 264.423 50.2871H265.538ZM268.945 50.3988C270.117 50.3988 270.954 49.7842 271.344 48.7226H270.451C270.173 49.2814 269.615 49.6166 268.945 49.6166C268.008 49.6166 267.216 48.9461 267.104 47.8845H271.456C271.478 47.8175 271.512 47.594 271.512 47.2699C271.512 45.7055 270.396 44.588 268.945 44.588C267.439 44.588 266.267 45.7614 266.267 47.4934C266.267 49.2255 267.439 50.3988 268.945 50.3988ZM267.104 47.1023C267.216 46.0966 267.941 45.3702 268.945 45.3702C269.894 45.3702 270.619 46.0966 270.675 47.1023H267.104ZM274.968 50.3988C275.75 50.3988 276.307 50.0636 276.754 49.5048H276.81L276.921 50.2871H277.646V42.4648H276.81V45.482H276.754C276.307 44.9233 275.75 44.588 274.968 44.588C273.518 44.588 272.402 45.7614 272.402 47.4934C272.402 49.2255 273.518 50.3988 274.968 50.3988ZM275.024 49.6166C274.076 49.6166 273.239 48.7785 273.239 47.4934C273.239 46.2083 274.076 45.3702 275.024 45.3702C275.973 45.3702 276.81 46.2083 276.81 47.4934C276.81 48.7785 275.973 49.6166 275.024 49.6166Z" fill="#031A34"/>
<mask id="mask1_1959_92972" style="mask-type:luminance" maskUnits="userSpaceOnUse" x="289" y="37" width="18" height="18">
<path d="M306.454 37.7148H289.717V54.4767H306.454V37.7148Z" fill="white"/>
</mask>
<g mask="url(#mask1_1959_92972)">
<path d="M303.707 44.7964C304.097 45.1177 304.669 45.0898 305.025 44.7336C305.436 44.3215 305.408 43.6371 304.955 43.2669C302.451 41.2136 299.236 40.4523 296.203 40.9901L298.009 42.799C300.024 42.778 302.054 43.4415 303.707 44.7964ZM302.124 46.0745C301.58 45.6764 300.987 45.3761 300.366 45.1666L302.423 47.2269C302.591 46.8218 302.493 46.3399 302.124 46.0745ZM299.446 49.0498C298.595 48.6098 297.577 48.6098 296.719 49.0498C296.307 49.2663 296.231 49.832 296.558 50.1602L297.584 51.1869C297.856 51.4593 298.295 51.4593 298.567 51.1869L299.592 50.1602C299.934 49.832 299.864 49.2663 299.446 49.0498ZM303.442 50.2161L292.59 39.3488C292.318 39.0764 291.879 39.0764 291.607 39.3488C291.335 39.6212 291.335 40.0612 291.607 40.3336L293.239 41.9748C292.535 42.3241 291.851 42.7501 291.223 43.2669C290.77 43.6371 290.742 44.3215 291.154 44.7336C291.509 45.0898 292.074 45.1247 292.458 44.8034C293.155 44.2307 293.922 43.7837 294.724 43.4555L296.28 45.0129C295.491 45.2225 294.738 45.5717 294.055 46.0675C293.574 46.4167 293.546 47.1221 293.964 47.5412L293.971 47.5482C294.313 47.8904 294.85 47.9253 295.247 47.639C296.077 47.0523 297.047 46.759 298.016 46.738L302.458 51.1869C302.73 51.4593 303.17 51.4593 303.442 51.1869C303.714 50.9285 303.714 50.4885 303.442 50.2161Z" fill="#F44336"/>
</g>
<path d="M314.154 50.2871L314.6 48.2198H316.33L315.883 50.2871H316.72L317.155 48.2198H318.729L318.896 47.4375H317.323L317.78 45.3144H319.342L319.51 44.5321H317.948L318.394 42.4648H317.557L317.111 44.5321H315.381L315.828 42.4648H314.991L314.556 44.5321H312.982L312.815 45.3144H314.388L313.931 47.4375H312.369L312.201 48.2198H313.763L313.317 50.2871H314.154ZM315.214 45.3144H316.943L316.497 47.4375H314.768L315.214 45.3144ZM325.257 50.3988C326.038 50.3988 326.596 50.0636 327.042 49.5048H327.098L327.21 50.2871H327.935V42.4648H327.098V45.482H327.042C326.596 44.9233 326.038 44.588 325.257 44.588C323.806 44.588 322.691 45.7614 322.691 47.4934C322.691 49.2255 323.806 50.3988 325.257 50.3988ZM325.313 49.6166C324.364 49.6166 323.527 48.7785 323.527 47.4934C323.527 46.2083 324.364 45.3702 325.313 45.3702C326.261 45.3702 327.098 46.2083 327.098 47.4934C327.098 48.7785 326.261 49.6166 325.313 49.6166ZM329.976 43.6047C330.311 43.6047 330.534 43.3812 330.534 43.0459C330.534 42.7107 330.311 42.4872 329.976 42.4872C329.641 42.4872 329.418 42.7107 329.418 43.0459C329.418 43.3812 329.641 43.6047 329.976 43.6047ZM330.389 50.2871V44.6998H329.552V50.2871H330.389ZM333.735 50.3988C335.186 50.3988 335.911 49.6725 335.911 48.7785C335.911 47.8845 335.409 47.3593 334.293 47.1582L333.344 46.9906C332.675 46.8676 332.452 46.5995 332.452 46.2083C332.452 45.7614 332.842 45.3702 333.679 45.3702C334.516 45.3702 335.018 45.8172 335.018 46.3201H335.855C335.855 45.4261 335.018 44.588 333.679 44.588C332.284 44.588 331.615 45.3144 331.615 46.2083C331.615 47.0911 332.151 47.594 333.177 47.7728L334.126 47.9404C334.795 48.0633 335.074 48.3315 335.074 48.7785C335.074 49.2255 334.628 49.6166 333.735 49.6166C332.842 49.6166 332.34 49.1696 332.34 48.6667H331.503C331.503 49.5607 332.34 50.3988 333.735 50.3988ZM339.425 50.3988C340.652 50.3988 341.601 49.6725 341.88 48.4433H341.043C340.82 49.2255 340.206 49.6166 339.425 49.6166C338.421 49.6166 337.584 48.7785 337.584 47.4934C337.584 46.2083 338.421 45.3702 339.425 45.3702C340.206 45.3702 340.82 45.7614 341.043 46.4877H341.88C341.601 45.3144 340.652 44.588 339.425 44.588C337.919 44.588 336.747 45.7614 336.747 47.4934C336.747 49.2255 337.919 50.3988 339.425 50.3988ZM345.396 50.3988C346.902 50.3988 348.074 49.2255 348.074 47.4934C348.074 45.7614 346.902 44.588 345.396 44.588C343.89 44.588 342.718 45.7614 342.718 47.4934C342.718 49.2255 343.89 50.3988 345.396 50.3988ZM345.396 49.6166C344.392 49.6166 343.555 48.7785 343.555 47.4934C343.555 46.2083 344.392 45.3702 345.396 45.3702C346.4 45.3702 347.237 46.2083 347.237 47.4934C347.237 48.7785 346.4 49.6166 345.396 49.6166ZM350.134 50.2871V46.9347C350.134 46.0966 350.859 45.3702 351.752 45.3702C352.589 45.3702 353.258 46.0407 353.258 46.9347V50.2871H354.094V46.9347C354.094 45.5379 353.147 44.588 351.864 44.588C351.049 44.588 350.435 45.0015 350.19 45.3144H350.134L350.022 44.6998H349.297V50.2871H350.134ZM356.498 50.2871V46.9347C356.498 46.0966 357.223 45.3702 358.116 45.3702C358.952 45.3702 359.622 46.0407 359.622 46.9347V50.2871H360.459V46.9347C360.459 45.5379 359.51 44.588 358.227 44.588C357.413 44.588 356.799 45.0015 356.553 45.3144H356.498L356.386 44.6998H355.661V50.2871H356.498ZM364.368 50.3988C365.539 50.3988 366.376 49.7842 366.767 48.7226H365.874C365.595 49.2814 365.037 49.6166 364.368 49.6166C363.43 49.6166 362.637 48.9461 362.527 47.8845H366.878C366.901 47.8175 366.934 47.594 366.934 47.2699C366.934 45.7055 365.818 44.588 364.368 44.588C362.861 44.588 361.69 45.7614 361.69 47.4934C361.69 49.2255 362.861 50.3988 364.368 50.3988ZM362.527 47.1023C362.637 46.0966 363.363 45.3702 364.368 45.3702C365.316 45.3702 366.041 46.0966 366.097 47.1023H362.527ZM370.502 50.3988C371.729 50.3988 372.678 49.6725 372.957 48.4433H372.12C371.897 49.2255 371.283 49.6166 370.502 49.6166C369.498 49.6166 368.661 48.7785 368.661 47.4934C368.661 46.2083 369.498 45.3702 370.502 45.3702C371.283 45.3702 371.897 45.7614 372.12 46.4877H372.957C372.678 45.3144 371.729 44.588 370.502 44.588C368.995 44.588 367.824 45.7614 367.824 47.4934C367.824 49.2255 368.995 50.3988 370.502 50.3988ZM376.532 50.2871V49.5048H375.584C375.361 49.5048 375.249 49.3931 375.249 49.1696V45.482H376.532V44.6998H375.249V43.1353H374.412V44.6998H373.519V45.482H374.412V49.3372C374.412 49.896 374.803 50.2871 375.416 50.2871H376.532ZM379.939 50.3988C381.11 50.3988 381.947 49.7842 382.338 48.7226H381.445C381.166 49.2814 380.608 49.6166 379.939 49.6166C379.002 49.6166 378.209 48.9461 378.098 47.8845H382.449C382.472 47.8175 382.505 47.594 382.505 47.2699C382.505 45.7055 381.389 44.588 379.939 44.588C378.432 44.588 377.261 45.7614 377.261 47.4934C377.261 49.2255 378.432 50.3988 379.939 50.3988ZM378.098 47.1023C378.209 46.0966 378.935 45.3702 379.939 45.3702C380.887 45.3702 381.613 46.0966 381.668 47.1023H378.098ZM385.962 50.3988C386.743 50.3988 387.301 50.0636 387.747 49.5048H387.803L387.915 50.2871H388.64V42.4648H387.803V45.482H387.747C387.301 44.9233 386.743 44.588 385.962 44.588C384.512 44.588 383.396 45.7614 383.396 47.4934C383.396 49.2255 384.512 50.3988 385.962 50.3988ZM386.018 49.6166C385.07 49.6166 384.233 48.7785 384.233 47.4934C384.233 46.2083 385.07 45.3702 386.018 45.3702C386.966 45.3702 387.803 46.2083 387.803 47.4934C387.803 48.7785 386.966 49.6166 386.018 49.6166Z" fill="#031A34"/>
<path d="M401.996 46.0988C401.996 40.8649 404.819 38.4141 409.665 38.4141C414.511 38.4141 417.339 40.8649 417.339 46.0988C417.339 51.3327 414.511 53.7791 409.665 53.7791C404.819 53.7791 401.996 51.3327 401.996 46.0988ZM409.665 39.6952C405.305 39.6952 403.275 41.7306 403.275 46.0988C403.275 47.9724 403.653 49.4153 404.426 50.4539L413.996 40.8693C412.955 40.0844 411.516 39.6952 409.665 39.6952ZM409.665 52.498C414.027 52.498 416.059 50.4648 416.059 46.0988C416.059 44.2558 415.673 42.8216 414.898 41.7787L405.332 51.3568C406.369 52.1219 407.803 52.498 409.665 52.498Z" fill="#031A34" fill-opacity="0.24"/>
<path d="M425.735 50.2871L426.181 48.2198H427.911L427.464 50.2871H428.301L428.736 48.2198H430.31L430.477 47.4375H428.904L429.361 45.3144H430.923L431.091 44.5321H429.529L429.975 42.4648H429.138L428.692 44.5321H426.962L427.409 42.4648H426.572L426.137 44.5321H424.563L424.396 45.3144H425.969L425.512 47.4375H423.95L423.782 48.2198H425.344L424.898 50.2871H425.735ZM426.795 45.3144H428.524L428.078 47.4375H426.349L426.795 45.3144ZM436.392 50.3988C437.842 50.3988 438.567 49.6725 438.567 48.7785C438.567 47.8845 438.065 47.3593 436.95 47.1582L436.001 46.9906C435.332 46.8676 435.108 46.5994 435.108 46.2083C435.108 45.7614 435.499 45.3702 436.336 45.3702C437.173 45.3702 437.675 45.8172 437.675 46.3201H438.512C438.512 45.4261 437.675 44.588 436.336 44.588C434.941 44.588 434.272 45.3144 434.272 46.2083C434.272 47.0911 434.807 47.594 435.834 47.7728L436.782 47.9404C437.452 48.0633 437.731 48.3315 437.731 48.7785C437.731 49.2255 437.284 49.6166 436.392 49.6166C435.499 49.6166 434.997 49.1696 434.997 48.6667H434.16C434.16 49.5607 434.997 50.3988 436.392 50.3988ZM441.97 50.3988C442.785 50.3988 443.376 49.9965 443.644 49.6725H443.7L443.811 50.2871H444.536V44.6998H443.7V48.0521C443.7 48.8902 442.974 49.6166 442.082 49.6166C441.245 49.6166 440.575 48.9461 440.575 48.0521V44.6998H439.738V48.0521C439.738 49.449 440.687 50.3988 441.97 50.3988ZM447.887 50.3988C449.338 50.3988 450.063 49.6725 450.063 48.7785C450.063 47.8845 449.561 47.3593 448.445 47.1582L447.497 46.9906C446.827 46.8676 446.604 46.5994 446.604 46.2083C446.604 45.7614 446.995 45.3702 447.832 45.3702C448.668 45.3702 449.171 45.8172 449.171 46.3201H450.007C450.007 45.4261 449.171 44.588 447.832 44.588C446.437 44.588 445.767 45.3144 445.767 46.2083C445.767 47.0911 446.303 47.594 447.329 47.7728L448.278 47.9404C448.947 48.0633 449.226 48.3315 449.226 48.7785C449.226 49.2255 448.78 49.6166 447.887 49.6166C446.995 49.6166 446.493 49.1696 446.493 48.6667H445.656C445.656 49.5607 446.493 50.3988 447.887 50.3988ZM452.071 52.522V49.5048H452.127C452.573 50.0636 453.131 50.3988 453.912 50.3988C455.363 50.3988 456.478 49.2255 456.478 47.4934C456.478 45.7614 455.363 44.588 453.912 44.588C453.131 44.588 452.573 44.9233 452.127 45.482H452.071L451.959 44.6998H451.234V52.522H452.071ZM453.856 49.6166C452.908 49.6166 452.071 48.7785 452.071 47.4934C452.071 46.2083 452.908 45.3702 453.856 45.3702C454.805 45.3702 455.642 46.2083 455.642 47.4934C455.642 48.7785 454.805 49.6166 453.856 49.6166ZM460.05 50.3988C461.222 50.3988 462.059 49.7842 462.449 48.7226H461.557C461.278 49.2814 460.72 49.6166 460.05 49.6166C459.113 49.6166 458.321 48.9461 458.209 47.8845H462.561C462.583 47.8175 462.617 47.594 462.617 47.2699C462.617 45.7055 461.501 44.588 460.05 44.588C458.544 44.588 457.372 45.7614 457.372 47.4934C457.372 49.2255 458.544 50.3988 460.05 50.3988ZM458.209 47.1023C458.321 46.0966 459.046 45.3702 460.05 45.3702C460.999 45.3702 461.724 46.0966 461.78 47.1023H458.209ZM464.679 50.2871V46.9347C464.679 46.0966 465.404 45.3702 466.297 45.3702C467.134 45.3702 467.803 46.0407 467.803 46.9347V50.2871H468.639V46.9347C468.639 45.5379 467.692 44.588 466.408 44.588C465.594 44.588 464.98 45.0015 464.735 45.3144H464.679L464.567 44.6998H463.842V50.2871H464.679ZM472.437 50.3988C473.218 50.3988 473.776 50.0636 474.223 49.5048H474.278L474.39 50.2871H475.115V42.4648H474.278V45.482H474.223C473.776 44.9233 473.218 44.588 472.437 44.588C470.987 44.588 469.871 45.7614 469.871 47.4934C469.871 49.2255 470.987 50.3988 472.437 50.3988ZM472.493 49.6166C471.545 49.6166 470.708 48.7785 470.708 47.4934C470.708 46.2083 471.545 45.3702 472.493 45.3702C473.442 45.3702 474.278 46.2083 474.278 47.4934C474.278 48.7785 473.442 49.6166 472.493 49.6166ZM479.076 50.3988C480.247 50.3988 481.084 49.7842 481.475 48.7226H480.582C480.303 49.2814 479.745 49.6166 479.076 49.6166C478.138 49.6166 477.346 48.9461 477.235 47.8845H481.586C481.609 47.8175 481.642 47.594 481.642 47.2699C481.642 45.7055 480.526 44.588 479.076 44.588C477.569 44.588 476.398 45.7614 476.398 47.4934C476.398 49.2255 477.569 50.3988 479.076 50.3988ZM477.235 47.1023C477.346 46.0966 478.072 45.3702 479.076 45.3702C480.024 45.3702 480.75 46.0966 480.805 47.1023H477.235ZM485.099 50.3988C485.88 50.3988 486.438 50.0636 486.884 49.5048H486.94L487.052 50.2871H487.777V42.4648H486.94V45.482H486.884C486.438 44.9233 485.88 44.588 485.099 44.588C483.649 44.588 482.533 45.7614 482.533 47.4934C482.533 49.2255 483.649 50.3988 485.099 50.3988ZM485.155 49.6166C484.206 49.6166 483.37 48.7785 483.37 47.4934C483.37 46.2083 484.206 45.3702 485.155 45.3702C486.103 45.3702 486.94 46.2083 486.94 47.4934C486.94 48.7785 486.103 49.6166 485.155 49.6166Z" fill="#031A34"/>
<path d="M532.797 41.438C532.688 41.438 532.584 41.3893 532.51 41.3056C532.365 41.1359 532.374 40.8773 532.533 40.7204L535.625 37.6857L532.535 34.7093C532.376 34.5535 532.365 34.2948 532.509 34.1242C532.649 33.9588 532.891 33.9418 533.05 34.0871C533.053 34.0903 533.056 34.0924 533.059 34.0956L536.464 37.3762C536.545 37.4547 536.592 37.5649 536.592 37.6804C536.592 37.796 536.548 37.9072 536.467 37.9868L533.061 41.3278C532.99 41.3987 532.895 41.4382 532.797 41.438Z" fill="#031A34"/>
<path d="M10.8061 100.571C12.6806 100.571 14.1061 99.124 14.1061 97.1489C14.1061 95.1738 12.6806 93.7267 10.8061 93.7267H8.3457V100.571H10.8061ZM9.654 94.9782H10.8061C11.9289 94.9782 12.8076 95.8582 12.8076 97.1489C12.8076 98.4396 11.9289 99.3196 10.8061 99.3196H9.654V94.9782ZM19.8376 100.571V99.3782H16.5571V97.716H19.6423V96.5622H16.5571V94.9196H19.8376V93.7267H15.2488V100.571H19.8376ZM24.5896 100.571L26.9133 93.7267H25.4976L23.7402 98.9871H23.5449L21.7875 93.7267H20.3718L22.7053 100.571H24.5896ZM28.971 100.571V93.7267H27.6627V100.571H28.971ZM33.4161 100.669C35.2125 100.669 36.2474 99.3489 36.5013 98.0973H35.1832C34.9977 98.772 34.4022 99.4174 33.4161 99.4174C32.303 99.4174 31.4146 98.5178 31.4146 97.1489C31.4146 95.78 32.303 94.8805 33.4161 94.8805C34.3729 94.8805 34.988 95.5062 35.1832 96.1516H36.5013C36.2377 94.9294 35.1832 93.6289 33.4161 93.6289C31.5708 93.6289 30.1063 95.076 30.1063 97.1489C30.1063 99.2218 31.5708 100.669 33.4161 100.669ZM42.1198 100.571V99.3782H38.8393V97.716H41.9245V96.5622H38.8393V94.9196H42.1198V93.7267H37.531V100.571H42.1198ZM49.0475 97.9311H50.6975L50.6878 97.98C50.6292 98.6253 49.9458 99.4174 48.8718 99.4174C47.749 99.4174 46.8605 98.5276 46.8605 97.1489C46.8605 95.7702 47.749 94.8805 48.8718 94.8805C49.6626 94.8805 50.3168 95.3596 50.5999 95.9756H51.9473C51.6251 94.8218 50.5511 93.6289 48.8718 93.6289C47.0363 93.6289 45.5522 95.076 45.5522 97.1489C45.5522 99.2218 47.0167 100.669 48.8718 100.669C49.7993 100.669 50.5218 100.209 50.8635 99.7889H50.9123L51.01 100.571H51.9961V96.9827H49.0475V97.9311ZM56.6404 98.1951C57.6949 98.1951 58.5834 97.276 58.5834 96.0049C58.5834 94.6556 57.6754 93.7267 56.4452 93.7267H53.2916V100.571H54.5999V98.2245H54.9514L57.1384 100.571H58.7591L56.5037 98.1951H56.6404ZM54.5999 94.9489H56.3866C56.8748 94.9489 57.2848 95.3694 57.2848 95.9951C57.2848 96.6111 56.8748 97.0316 56.3866 97.0316H54.5999V94.9489ZM62.8206 100.669C64.6561 100.669 66.1206 99.2218 66.1206 97.1489C66.1206 95.076 64.6561 93.6289 62.8206 93.6289C60.9753 93.6289 59.5108 95.076 59.5108 97.1489C59.5108 99.2218 60.9753 100.669 62.8206 100.669ZM62.8206 99.4174C61.7076 99.4174 60.8191 98.5178 60.8191 97.1489C60.8191 95.78 61.7076 94.8805 62.8206 94.8805C63.9239 94.8805 64.8221 95.78 64.8221 97.1489C64.8221 98.5178 63.9239 99.4174 62.8206 99.4174ZM70.0035 100.669C71.6831 100.669 72.8157 99.5445 72.8157 97.7845V93.7267H71.5171V97.7845C71.5171 98.7427 70.8532 99.4174 70.0035 99.4174C69.1541 99.4174 68.4902 98.7427 68.4902 97.7845V93.7267H67.1917V97.7845C67.1917 99.5445 68.3242 100.669 70.0035 100.669ZM75.4901 100.571V98.3222H77.2866C78.5363 98.3222 79.4443 97.4129 79.4443 96.0147C79.4443 94.636 78.5363 93.7267 77.2866 93.7267H74.1818V100.571H75.4901ZM75.4901 94.9782H77.228C77.7357 94.9782 78.136 95.3791 78.136 96.0245C78.136 96.6698 77.7357 97.0707 77.228 97.0707H75.4901V94.9782ZM35.0857 114.539V113.288H31.9029V107.695H30.5946V114.539H35.0857ZM38.5886 114.637C40.4241 114.637 41.8886 113.19 41.8886 111.117C41.8886 109.044 40.4241 107.597 38.5886 107.597C36.7433 107.597 35.2788 109.044 35.2788 111.117C35.2788 113.19 36.7433 114.637 38.5886 114.637ZM38.5886 113.386C37.4755 113.386 36.5871 112.486 36.5871 111.117C36.5871 109.748 37.4755 108.849 38.5886 108.849C39.6918 108.849 40.5901 109.748 40.5901 111.117C40.5901 112.486 39.6918 113.386 38.5886 113.386ZM46.2205 111.899H47.8705L47.8608 111.948C47.8022 112.594 47.1188 113.386 46.0448 113.386C44.922 113.386 44.0335 112.496 44.0335 111.117C44.0335 109.739 44.922 108.849 46.0448 108.849C46.8356 108.849 47.4898 109.328 47.7729 109.944H49.1203C48.7981 108.79 47.7241 107.597 46.0448 107.597C44.2093 107.597 42.7252 109.044 42.7252 111.117C42.7252 113.19 44.1898 114.637 46.0448 114.637C46.9723 114.637 47.6948 114.178 48.0365 113.757H48.0853L48.183 114.539H49.1691V110.951H46.2205V111.899ZM53.4815 114.637C55.317 114.637 56.7815 113.19 56.7815 111.117C56.7815 109.044 55.317 107.597 53.4815 107.597C51.6362 107.597 50.1717 109.044 50.1717 111.117C50.1717 113.19 51.6362 114.637 53.4815 114.637ZM53.4815 113.386C52.3685 113.386 51.48 112.486 51.48 111.117C51.48 109.748 52.3685 108.849 53.4815 108.849C54.5848 108.849 55.483 109.748 55.483 111.117C55.483 112.486 54.5848 113.386 53.4815 113.386Z" fill="#59C2C9"/>
<path d="M100.13 114.54V108.947H102.141V107.695H96.8105V108.947H98.8218V114.54H100.13ZM105.894 114.638C107.729 114.638 109.194 113.191 109.194 111.118C109.194 109.045 107.729 107.598 105.894 107.598C104.049 107.598 102.584 109.045 102.584 111.118C102.584 113.191 104.049 114.638 105.894 114.638ZM105.894 113.386C104.781 113.386 103.892 112.487 103.892 111.118C103.892 109.749 104.781 108.849 105.894 108.849C106.997 108.849 107.895 109.749 107.895 111.118C107.895 112.487 106.997 113.386 105.894 113.386ZM112.954 114.54V108.947H114.966V107.695H109.635V108.947H111.646V114.54H112.954ZM121.305 114.54L118.874 107.695H116.989L114.568 114.54H115.984L116.491 113.044H119.381L119.889 114.54H121.305ZM117.839 109.084H118.034L118.981 111.88H116.892L117.839 109.084ZM126.465 114.54V113.288H123.283V107.695H121.974V114.54H126.465ZM135.463 114.54L133.032 107.695H131.148L128.726 114.54H130.142L130.65 113.044H133.54L134.047 114.54H135.463ZM131.997 109.084H132.192L133.139 111.88H131.05L131.997 109.084ZM137.442 114.54V109.798H137.637L139.228 114.54H140.595L142.187 109.798H142.382V114.54H143.69V107.695H141.62L140.009 112.516H139.814L138.203 107.695H136.133V114.54H137.442ZM148.132 114.638C149.967 114.638 151.432 113.191 151.432 111.118C151.432 109.045 149.967 107.598 148.132 107.598C146.287 107.598 144.822 109.045 144.822 111.118C144.822 113.191 146.287 114.638 148.132 114.638ZM148.132 113.386C147.019 113.386 146.13 112.487 146.13 111.118C146.13 109.749 147.019 108.849 148.132 108.849C149.235 108.849 150.133 109.749 150.133 111.118C150.133 112.487 149.235 113.386 148.132 113.386ZM155.315 114.638C156.994 114.638 158.127 113.513 158.127 111.753V107.695H156.828V111.753C156.828 112.711 156.164 113.386 155.315 113.386C154.465 113.386 153.802 112.711 153.802 111.753V107.695H152.503V111.753C152.503 113.513 153.636 114.638 155.315 114.638ZM160.801 114.54V109.827H160.996L163.447 114.54H165.156V107.695H163.857V112.408H163.662L161.201 107.695H159.493V114.54H160.801ZM169.408 114.54V108.947H171.42V107.695H166.089V108.947H168.1V114.54H169.408ZM177.479 114.638C179.315 114.638 180.779 113.191 180.779 111.118C180.779 109.045 179.315 107.598 177.479 107.598C175.634 107.598 174.169 109.045 174.169 111.118C174.169 113.191 175.634 114.638 177.479 114.638ZM177.479 113.386C176.366 113.386 175.478 112.487 175.478 111.118C175.478 109.749 176.366 108.849 177.479 108.849C178.582 108.849 179.481 109.749 179.481 111.118C179.481 112.487 178.582 113.386 177.479 113.386ZM183.217 114.54V111.724H186.205V110.56H183.217V108.888H186.439V107.695H181.909V114.54H183.217ZM117.826 128.606C119.563 128.606 120.471 127.706 120.471 126.553C120.471 125.428 119.886 124.841 118.519 124.597L117.445 124.401C116.771 124.274 116.517 124.03 116.517 123.619C116.517 123.13 116.927 122.72 117.728 122.72C118.607 122.72 119.124 123.238 119.124 123.834H120.423C120.423 122.524 119.446 121.566 117.728 121.566C116.127 121.566 115.219 122.465 115.219 123.619C115.219 124.665 115.805 125.262 116.976 125.477L118.128 125.692C118.88 125.829 119.173 126.132 119.173 126.553C119.173 127.041 118.782 127.452 117.826 127.452C116.878 127.452 116.371 126.953 116.371 126.347H115.072C115.072 127.599 116.078 128.606 117.826 128.606ZM122.921 128.508V121.664H121.612V128.508H122.921ZM125.657 128.508V123.766H125.852L127.444 128.508H128.811L130.402 123.766H130.597V128.508H131.906V121.664H129.836L128.225 126.484H128.03L126.419 121.664H124.349V128.508H125.657ZM138.854 128.606C140.651 128.606 141.686 127.286 141.94 126.034H140.622C140.436 126.709 139.841 127.354 138.854 127.354C137.741 127.354 136.853 126.455 136.853 125.086C136.853 123.717 137.741 122.817 138.854 122.817C139.811 122.817 140.426 123.443 140.622 124.089H141.94C141.676 122.866 140.622 121.566 138.854 121.566C137.009 121.566 135.545 123.013 135.545 125.086C135.545 127.159 137.009 128.606 138.854 128.606ZM148.773 128.508L146.342 121.664H144.458L142.037 128.508H143.452L143.96 127.012H146.85L147.358 128.508H148.773ZM145.307 123.052H145.503L146.45 125.849H144.36L145.307 123.052ZM152.792 126.132C153.847 126.132 154.735 125.213 154.735 123.942C154.735 122.593 153.827 121.664 152.597 121.664H149.444V128.508H150.752V126.161H151.103L153.29 128.508H154.911L152.656 126.132H152.792ZM150.752 122.886H152.539C153.027 122.886 153.437 123.306 153.437 123.932C153.437 124.548 153.027 124.969 152.539 124.969H150.752V122.886ZM158.416 128.508C160.291 128.508 161.716 127.061 161.716 125.086C161.716 123.111 160.291 121.664 158.416 121.664H155.956V128.508H158.416ZM157.264 122.915H158.416C159.539 122.915 160.418 123.795 160.418 125.086C160.418 126.377 159.539 127.257 158.416 127.257H157.264V122.915ZM165.241 128.606C166.979 128.606 167.887 127.706 167.887 126.553C167.887 125.428 167.301 124.841 165.934 124.597L164.86 124.401C164.186 124.274 163.932 124.03 163.932 123.619C163.932 123.13 164.342 122.72 165.143 122.72C166.022 122.72 166.539 123.238 166.539 123.834H167.838C167.838 122.524 166.861 121.566 165.143 121.566C163.542 121.566 162.634 122.465 162.634 123.619C162.634 124.665 163.22 125.262 164.391 125.477L165.543 125.692C166.295 125.829 166.588 126.132 166.588 126.553C166.588 127.041 166.198 127.452 165.241 127.452C164.294 127.452 163.786 126.953 163.786 126.347H162.487C162.487 127.599 163.493 128.606 165.241 128.606Z" fill="#59C2C9"/>
<path d="M241.205 107.653C242.943 107.653 243.851 106.754 243.851 105.6C243.851 104.476 243.266 103.889 241.899 103.644L240.825 103.449C240.151 103.322 239.897 103.077 239.897 102.667C239.897 102.178 240.307 101.767 241.108 101.767C241.987 101.767 242.504 102.285 242.504 102.882H243.802C243.802 101.572 242.826 100.613 241.108 100.613C239.507 100.613 238.599 101.513 238.599 102.667C238.599 103.713 239.184 104.309 240.356 104.524L241.508 104.74C242.26 104.876 242.553 105.18 242.553 105.6C242.553 106.089 242.162 106.5 241.205 106.5C240.258 106.5 239.751 106.001 239.751 105.395H238.452C238.452 106.646 239.458 107.653 241.205 107.653ZM246.301 107.556V100.711H244.992V107.556H246.301ZM249.037 107.556V102.813H249.232L250.824 107.556H252.191L253.782 102.813H253.977V107.556H255.286V100.711H253.216L251.605 105.532H251.41L249.799 100.711H247.729V107.556H249.037ZM262.234 107.653C264.031 107.653 265.066 106.333 265.32 105.082H264.002C263.816 105.756 263.22 106.402 262.234 106.402C261.121 106.402 260.233 105.502 260.233 104.133C260.233 102.764 261.121 101.865 262.234 101.865C263.191 101.865 263.806 102.491 264.002 103.136H265.32C265.056 101.914 264.002 100.613 262.234 100.613C260.389 100.613 258.925 102.06 258.925 104.133C258.925 106.206 260.389 107.653 262.234 107.653ZM272.153 107.556L269.722 100.711H267.838L265.417 107.556H266.832L267.34 106.06H270.23L270.738 107.556H272.153ZM268.687 102.1H268.883L269.83 104.896H267.74L268.687 102.1ZM276.172 105.18C277.227 105.18 278.115 104.26 278.115 102.989C278.115 101.64 277.207 100.711 275.977 100.711H272.823V107.556H274.132V105.209H274.483L276.67 107.556H278.291L276.036 105.18H276.172ZM274.132 101.933H275.918C276.407 101.933 276.817 102.354 276.817 102.98C276.817 103.596 276.407 104.016 275.918 104.016H274.132V101.933ZM281.796 107.556C283.671 107.556 285.096 106.108 285.096 104.133C285.096 102.158 283.671 100.711 281.796 100.711H279.336V107.556H281.796ZM280.644 101.963H281.796C282.919 101.963 283.798 102.843 283.798 104.133C283.798 105.424 282.919 106.304 281.796 106.304H280.644V101.963ZM288.621 107.653C290.359 107.653 291.266 106.754 291.266 105.6C291.266 104.476 290.681 103.889 289.314 103.644L288.24 103.449C287.566 103.322 287.312 103.077 287.312 102.667C287.312 102.178 287.722 101.767 288.523 101.767C289.402 101.767 289.919 102.285 289.919 102.882H291.218C291.218 101.572 290.241 100.613 288.523 100.613C286.922 100.613 286.014 101.513 286.014 102.667C286.014 103.713 286.6 104.309 287.771 104.524L288.923 104.74C289.675 104.876 289.968 105.18 289.968 105.6C289.968 106.089 289.577 106.5 288.621 106.5C287.674 106.5 287.166 106.001 287.166 105.395H285.867C285.867 106.646 286.873 107.653 288.621 107.653ZM297.297 107.653C299.035 107.653 299.943 106.754 299.943 105.6C299.943 104.476 299.358 103.889 297.991 103.644L296.917 103.449C296.243 103.322 295.989 103.077 295.989 102.667C295.989 102.178 296.399 101.767 297.2 101.767C298.079 101.767 298.596 102.285 298.596 102.882H299.895C299.895 101.572 298.918 100.613 297.2 100.613C295.599 100.613 294.691 101.513 294.691 102.667C294.691 103.713 295.276 104.309 296.448 104.524L297.6 104.74C298.352 104.876 298.645 105.18 298.645 105.6C298.645 106.089 298.254 106.5 297.297 106.5C296.35 106.5 295.843 106.001 295.843 105.395H294.544C294.544 106.646 295.55 107.653 297.297 107.653ZM303.715 107.556V101.963H305.726V100.711H300.395V101.963H302.407V107.556H303.715ZM312.065 107.556L309.634 100.711H307.75L305.329 107.556H306.744L307.252 106.06H310.142L310.65 107.556H312.065ZM308.599 102.1H308.795L309.742 104.896H307.652L308.599 102.1ZM314.975 107.556V101.963H316.986V100.711H311.655V101.963H313.667V107.556H314.975ZM320.665 107.653C322.345 107.653 323.477 106.529 323.477 104.769V100.711H322.179V104.769C322.179 105.727 321.515 106.402 320.665 106.402C319.816 106.402 319.152 105.727 319.152 104.769V100.711H317.854V104.769C317.854 106.529 318.986 107.653 320.665 107.653ZM327.226 107.653C328.964 107.653 329.872 106.754 329.872 105.6C329.872 104.476 329.287 103.889 327.92 103.644L326.846 103.449C326.172 103.322 325.918 103.077 325.918 102.667C325.918 102.178 326.328 101.767 327.129 101.767C328.008 101.767 328.525 102.285 328.525 102.882H329.824C329.824 101.572 328.847 100.613 327.129 100.613C325.528 100.613 324.62 101.513 324.62 102.667C324.62 103.713 325.205 104.309 326.377 104.524L327.529 104.74C328.281 104.876 328.574 105.18 328.574 105.6C328.574 106.089 328.183 106.5 327.226 106.5C326.279 106.5 325.772 106.001 325.772 105.395H324.473C324.473 106.646 325.479 107.653 327.226 107.653Z" fill="#59C2C9"/>
<path d="M503.825 90.7938L506.149 83.9493H504.733L502.976 89.2098H502.781L501.023 83.9493H499.607L501.941 90.7938H503.825ZM508.206 90.7938V83.9493H506.898V90.7938H508.206ZM514.223 90.7938V89.6009H510.943V87.9387H514.028V86.7849H510.943V85.1422H514.223V83.9493H509.634V90.7938H514.223ZM518.272 90.7938L519.444 86.1493H519.639L520.82 90.7938H522.607L524.277 83.9493H522.861L521.728 88.7209H521.533L520.293 83.9493H518.799L517.56 88.7209H517.364L516.222 83.9493H514.806L516.486 90.7938H518.272ZM530.6 88.1538H532.25L532.24 88.2027C532.182 88.848 531.498 89.64 530.424 89.64C529.301 89.64 528.413 88.7502 528.413 87.3716C528.413 85.9929 529.301 85.1031 530.424 85.1031C531.215 85.1031 531.869 85.5822 532.152 86.1982H533.5C533.177 85.0445 532.103 83.8516 530.424 83.8516C528.589 83.8516 527.105 85.2987 527.105 87.3716C527.105 89.4445 528.569 90.8916 530.424 90.8916C531.352 90.8916 532.074 90.432 532.416 90.0116H532.465L532.562 90.7938H533.548V87.2053H530.6V88.1538ZM538.193 88.4178C539.247 88.4178 540.136 87.4987 540.136 86.2276C540.136 84.8782 539.228 83.9493 537.998 83.9493H534.844V90.7938H536.152V88.4471H536.504L538.691 90.7938H540.312L538.056 88.4178H538.193ZM536.152 85.1716H537.939C538.427 85.1716 538.837 85.592 538.837 86.2178C538.837 86.8338 538.427 87.2542 537.939 87.2542H536.152V85.1716ZM544.373 90.8916C546.209 90.8916 547.673 89.4445 547.673 87.3716C547.673 85.2987 546.209 83.8516 544.373 83.8516C542.528 83.8516 541.063 85.2987 541.063 87.3716C541.063 89.4445 542.528 90.8916 544.373 90.8916ZM544.373 89.64C543.26 89.64 542.372 88.7405 542.372 87.3716C542.372 86.0027 543.26 85.1031 544.373 85.1031C545.477 85.1031 546.375 86.0027 546.375 87.3716C546.375 88.7405 545.477 89.64 544.373 89.64ZM551.556 90.8916C553.235 90.8916 554.367 89.7671 554.367 88.0071V83.9493H553.069V88.0071C553.069 88.9653 552.405 89.64 551.556 89.64C550.706 89.64 550.042 88.9653 550.042 88.0071V83.9493H548.744V88.0071C548.744 89.7671 549.876 90.8916 551.556 90.8916ZM557.043 90.7938V88.5449H558.839C560.089 88.5449 560.997 87.6356 560.997 86.2373C560.997 84.8587 560.089 83.9493 558.839 83.9493H555.734V90.7938H557.043ZM557.043 85.2009H558.781C559.288 85.2009 559.689 85.6018 559.689 86.2471C559.689 86.8925 559.288 87.2933 558.781 87.2933H557.043V85.2009ZM525.539 104.762C527.414 104.762 528.839 103.315 528.839 101.34C528.839 99.3647 527.414 97.9176 525.539 97.9176H523.079V104.762H525.539ZM524.387 99.1692H525.539C526.662 99.1692 527.54 100.049 527.54 101.34C527.54 102.63 526.662 103.51 525.539 103.51H524.387V99.1692ZM534.57 104.762V103.569H531.29V101.907H534.375V100.753H531.29V99.1105H534.57V97.9176H529.981V104.762H534.57ZM538.609 104.762V99.1692H540.621V97.9176H535.29V99.1692H537.301V104.762H538.609ZM546.96 104.762L544.529 97.9176H542.644L540.223 104.762H541.639L542.146 103.266H545.036L545.544 104.762H546.96ZM543.494 99.306H543.689L544.636 102.102H542.547L543.494 99.306ZM548.938 104.762V97.9176H547.63V104.762H548.938ZM554.857 104.762V103.51H551.674V97.9176H550.366V104.762H554.857ZM557.926 104.86C559.663 104.86 560.571 103.96 560.571 102.806C560.571 101.682 559.986 101.095 558.619 100.851L557.545 100.655C556.871 100.528 556.617 100.284 556.617 99.8732C556.617 99.3843 557.027 98.9736 557.828 98.9736C558.707 98.9736 559.224 99.4918 559.224 100.088H560.523C560.523 98.778 559.546 97.8198 557.828 97.8198C556.227 97.8198 555.319 98.7194 555.319 99.8732C555.319 100.919 555.905 101.516 557.076 101.731L558.228 101.946C558.98 102.083 559.273 102.386 559.273 102.806C559.273 103.295 558.882 103.706 557.926 103.706C556.978 103.706 556.471 103.207 556.471 102.601H555.172C555.172 103.853 556.178 104.86 557.926 104.86Z" fill="#59C2C9"/>
<path d="M137.892 94.7776C138.164 95.0507 138.606 95.0507 138.878 94.7776L143.316 90.3329C143.589 90.0605 143.589 89.6177 143.316 89.3453C143.044 89.0722 142.602 89.0722 142.33 89.3453L138.385 93.2962L134.44 89.3453C134.168 89.0722 133.726 89.0722 133.454 89.3453C133.181 89.6177 133.181 90.0605 133.454 90.3329L137.892 94.7776ZM137.687 55.8711V94.2838H139.082V55.8711H137.687Z" fill="white"/>
<path d="M137.892 94.7776C138.164 95.0507 138.606 95.0507 138.878 94.7776L143.316 90.3329C143.589 90.0605 143.589 89.6177 143.316 89.3453C143.044 89.0722 142.602 89.0722 142.33 89.3453L138.385 93.2962L134.44 89.3453C134.168 89.0722 133.726 89.0722 133.454 89.3453C133.181 89.6177 133.181 90.0605 133.454 90.3329L137.892 94.7776ZM137.687 55.8711V94.2838H139.082V55.8711H137.687Z" fill="url(#paint3_linear_1959_92972)"/>
<path d="M38.8631 80.8093C39.1354 81.0824 39.577 81.0824 39.8493 80.8093L44.2875 76.3646C44.5598 76.0922 44.5598 75.6494 44.2875 75.3771C44.0151 75.104 43.5736 75.104 43.3013 75.3771L39.3562 79.328L35.4112 75.3771C35.1389 75.104 34.6973 75.104 34.4249 75.3771C34.1526 75.6494 34.1526 76.0922 34.4249 76.3646L38.8631 80.8093ZM38.6588 55.8711V80.3155H40.0536V55.8711H38.6588Z" fill="white"/>
<path d="M38.8631 80.8093C39.1354 81.0824 39.577 81.0824 39.8493 80.8093L44.2875 76.3646C44.5598 76.0922 44.5598 75.6494 44.2875 75.3771C44.0151 75.104 43.5736 75.104 43.3013 75.3771L39.3562 79.328L35.4112 75.3771C35.1389 75.104 34.6973 75.104 34.4249 75.3771C34.1526 75.6494 34.1526 76.0922 34.4249 76.3646L38.8631 80.8093ZM38.6588 55.8711V80.3155H40.0536V55.8711H38.6588Z" fill="url(#paint4_linear_1959_92972)"/>
<path d="M278.764 83.6046C279.036 83.8777 279.478 83.8777 279.75 83.6046L284.188 79.1599C284.461 78.8875 284.461 78.4447 284.188 78.1723C283.916 77.8992 283.474 77.8992 283.202 78.1723L279.257 82.1232L275.312 78.1723C275.04 77.8992 274.598 77.8992 274.326 78.1723C274.053 78.4447 274.053 78.8875 274.326 79.1599L278.764 83.6046ZM278.559 57.2695V83.1108H279.954V57.2695H278.559Z" fill="white"/>
<path d="M278.764 83.6046C279.036 83.8777 279.478 83.8777 279.75 83.6046L284.188 79.1599C284.461 78.8875 284.461 78.4447 284.188 78.1723C283.916 77.8992 283.474 77.8992 283.202 78.1723L279.257 82.1232L275.312 78.1723C275.04 77.8992 274.598 77.8992 274.326 78.1723C274.053 78.4447 274.053 78.8875 274.326 79.1599L278.764 83.6046ZM278.559 57.2695V83.1108H279.954V57.2695H278.559Z" fill="url(#paint5_linear_1959_92972)"/>
<path d="M535.401 75.9234C535.673 76.1965 536.116 76.1965 536.388 75.9234L540.826 71.4787C541.098 71.2063 541.098 70.7635 540.826 70.4911C540.554 70.2181 540.112 70.2181 539.84 70.4911L535.894 74.4421L531.949 70.4911C531.677 70.2181 531.235 70.2181 530.963 70.4911C530.691 70.7635 530.691 71.2063 530.963 71.4787L535.401 75.9234ZM535.197 51.6836V75.4296H536.592V51.6836H535.197Z" fill="white"/>
<path d="M535.401 75.9234C535.673 76.1965 536.116 76.1965 536.388 75.9234L540.826 71.4787C541.098 71.2063 541.098 70.7635 540.826 70.4911C540.554 70.2181 540.112 70.2181 539.84 70.4911L535.894 74.4421L531.949 70.4911C531.677 70.2181 531.235 70.2181 530.963 70.4911C530.691 70.7635 530.691 71.2063 530.963 71.4787L535.401 75.9234ZM535.197 51.6836V75.4296H536.592V51.6836H535.197Z" fill="url(#paint6_linear_1959_92972)"/>
<defs>
<filter id="filter0_dd_1959_92972" x="0.427734" y="0.0390625" width="556.263" height="79.3477" filterUnits="userSpaceOnUse" color-interpolation-filters="sRGB">
<feFlood flood-opacity="0" result="BackgroundImageFix"/>
<feColorMatrix in="SourceAlpha" type="matrix" values="0 0 0 0 0 0 0 0 0 0 0 0 0 0 0 0 0 0 127 0" result="hardAlpha"/>
<feOffset dy="2"/>
<feGaussianBlur stdDeviation="3"/>
<feComposite in2="hardAlpha" operator="out"/>
<feColorMatrix type="matrix" values="0 0 0 0 0 0 0 0 0 0 0 0 0 0 0 0 0 0 0.15 0"/>
<feBlend mode="normal" in2="BackgroundImageFix" result="effect1_dropShadow_1959_92972"/>
<feColorMatrix in="SourceAlpha" type="matrix" values="0 0 0 0 0 0 0 0 0 0 0 0 0 0 0 0 0 0 127 0" result="hardAlpha"/>
<feOffset dy="1"/>
<feGaussianBlur stdDeviation="1"/>
<feComposite in2="hardAlpha" operator="out"/>
<feColorMatrix type="matrix" values="0 0 0 0 0 0 0 0 0 0 0 0 0 0 0 0 0 0 0.3 0"/>
<feBlend mode="normal" in2="effect1_dropShadow_1959_92972" result="effect2_dropShadow_1959_92972"/>
<feBlend mode="normal" in="SourceGraphic" in2="effect2_dropShadow_1959_92972" result="shape"/>
</filter>
<linearGradient id="paint0_linear_1959_92972" x1="34.29" y1="30.8398" x2="47.4276" y2="32.602" gradientUnits="userSpaceOnUse">
<stop stop-color="#0066FF"/>
<stop offset="1" stop-color="#59C2C9"/>
</linearGradient>
<linearGradient id="paint1_linear_1959_92972" x1="34.2907" y1="30.8383" x2="47.4283" y2="32.6005" gradientUnits="userSpaceOnUse">
<stop stop-color="#0066FF"/>
<stop offset="1" stop-color="#59C2C9"/>
</linearGradient>
<linearGradient id="paint2_linear_1959_92972" x1="180.926" y1="54.4766" x2="185.662" y2="53.2451" gradientUnits="userSpaceOnUse">
<stop stop-color="#0066FF"/>
<stop offset="1" stop-color="#59C2C9"/>
</linearGradient>
<linearGradient id="paint3_linear_1959_92972" x1="138.385" y1="55.8711" x2="133.393" y2="56.4375" gradientUnits="userSpaceOnUse">
<stop stop-color="#0066FF"/>
<stop offset="1" stop-color="#59C2C9"/>
</linearGradient>
<linearGradient id="paint4_linear_1959_92972" x1="39.3562" y1="55.8711" x2="34.456" y2="56.7448" gradientUnits="userSpaceOnUse">
<stop stop-color="#0066FF"/>
<stop offset="1" stop-color="#59C2C9"/>
</linearGradient>
<linearGradient id="paint5_linear_1959_92972" x1="279.257" y1="57.2695" x2="274.341" y2="58.0988" gradientUnits="userSpaceOnUse">
<stop stop-color="#0066FF"/>
<stop offset="1" stop-color="#59C2C9"/>
</linearGradient>
<linearGradient id="paint6_linear_1959_92972" x1="535.894" y1="51.6836" x2="531.003" y2="52.5814" gradientUnits="userSpaceOnUse">
<stop stop-color="#0066FF"/>
<stop offset="1" stop-color="#59C2C9"/>
</linearGradient>
</defs>
</svg>
