<svg width="110" height="28" viewBox="0 0 110 28" fill="none" xmlns="http://www.w3.org/2000/svg">
<path d="M91.1655 0.5H14.1665C6.7104 0.5 0.666016 6.54438 0.666016 14.0005C0.666016 21.4566 6.7104 27.501 14.1665 27.501H91.1655C98.6216 27.501 104.666 21.4566 104.666 14.0005C104.666 6.54438 98.6216 0.5 91.1655 0.5Z" fill="#FFCDD2"/>
<path d="M20.4522 19.4996V17.7076H15.8882V9.69959H14.0122V19.4996H20.4522ZM22.4515 11.3936C23.0395 11.3936 23.4875 10.9736 23.4875 10.4136C23.4875 9.83959 23.0395 9.43359 22.4515 9.43359C21.8635 9.43359 21.4295 9.83959 21.4295 10.4136C21.4295 10.9736 21.8635 11.3936 22.4515 11.3936ZM23.3335 19.4996V12.4016H21.5695V19.4996H23.3335ZM26.8608 19.4996V15.4816C26.8608 14.5996 27.5048 13.9416 28.4008 13.9416C29.2828 13.9416 29.8988 14.5856 29.8988 15.4816V19.4996H31.6628V15.2436C31.6628 13.4516 30.4868 12.2616 28.8628 12.2616C27.7988 12.2616 27.0988 12.7516 26.8328 13.0876H26.7628L26.6228 12.4016H25.0968V19.4996H26.8608ZM35.216 19.4996V16.1816L38.002 19.4996H40.046L36.98 15.8876L39.906 12.4016H37.862L35.216 15.5936V9.69959H33.452V19.4996H35.216ZM47.3351 19.6396C49.2671 19.6396 50.3171 18.4076 50.6391 17.4276H48.8471C48.6231 17.7776 48.0911 18.1696 47.3351 18.1696C46.3551 18.1696 45.5851 17.4836 45.4731 16.5316H50.7651C50.7931 16.4196 50.8351 16.1396 50.8351 15.8036C50.8351 13.7736 49.3231 12.2616 47.3351 12.2616C45.2771 12.2616 43.7231 13.8156 43.7231 15.9576C43.7231 18.0856 45.2771 19.6396 47.3351 19.6396ZM45.4731 15.3556C45.6131 14.4316 46.2991 13.7176 47.3351 13.7176C48.3011 13.7176 48.9871 14.4316 49.0851 15.3556H45.4731ZM53.0404 19.4996L54.5524 17.1336H54.8324L56.3444 19.4996H58.3184L55.9384 15.8876L58.2064 12.4016H56.2324L54.8324 14.6276H54.5524L53.1384 12.4016H51.1784L53.4464 15.8876L51.0664 19.4996H53.0404ZM60.9585 22.2996V18.7856H61.0285C61.3785 19.2336 62.0645 19.6396 63.0305 19.6396C64.8505 19.6396 66.3205 18.1556 66.3205 15.9576C66.3205 13.7596 64.8505 12.2616 63.0305 12.2616C62.0505 12.2616 61.3365 12.6676 60.9305 13.1996H60.8605L60.7205 12.4016H59.1945V22.2996H60.9585ZM62.7645 18.0156C61.7705 18.0156 60.9585 17.2176 60.9585 15.9576C60.9585 14.6836 61.7705 13.8996 62.7645 13.8996C63.7585 13.8996 64.5565 14.6836 64.5565 15.9576C64.5565 17.2176 63.7585 18.0156 62.7645 18.0156ZM68.6078 11.3936C69.1958 11.3936 69.6438 10.9736 69.6438 10.4136C69.6438 9.83959 69.1958 9.43359 68.6078 9.43359C68.0198 9.43359 67.5858 9.83959 67.5858 10.4136C67.5858 10.9736 68.0198 11.3936 68.6078 11.3936ZM69.4898 19.4996V12.4016H67.7258V19.4996H69.4898ZM73.0171 19.4996V15.4536C73.0171 14.5296 73.4791 14.0676 74.3751 14.0676H75.5651V12.4016H74.2631C73.6051 12.4016 73.1991 12.6816 72.9891 13.0176H72.9191L72.7791 12.4016H71.2531V19.4996H73.0171ZM79.7374 19.6396C81.6694 19.6396 82.7194 18.4076 83.0414 17.4276H81.2494C81.0254 17.7776 80.4934 18.1696 79.7374 18.1696C78.7574 18.1696 77.9874 17.4836 77.8754 16.5316H83.1674C83.1954 16.4196 83.2374 16.1396 83.2374 15.8036C83.2374 13.7736 81.7254 12.2616 79.7374 12.2616C77.6794 12.2616 76.1254 13.8156 76.1254 15.9576C76.1254 18.0856 77.6794 19.6396 79.7374 19.6396ZM77.8754 15.3556C78.0154 14.4316 78.7014 13.7176 79.7374 13.7176C80.7034 13.7176 81.3894 14.4316 81.4874 15.3556H77.8754ZM87.5362 19.6396C88.5442 19.6396 89.2442 19.2336 89.6642 18.7016H89.7342L89.8742 19.4996H91.3862V9.69959H89.6222V13.1436H89.5522C89.2022 12.6956 88.5022 12.2616 87.5362 12.2616C85.7162 12.2616 84.2602 13.7596 84.2602 15.9576C84.2602 18.1556 85.7162 19.6396 87.5362 19.6396ZM87.8302 18.0156C86.8362 18.0156 86.0242 17.2176 86.0242 15.9576C86.0242 14.6836 86.8362 13.8996 87.8302 13.8996C88.8242 13.8996 89.6222 14.6836 89.6222 15.9576C89.6222 17.2176 88.8242 18.0156 87.8302 18.0156Z" fill="#D32F2F"/>
</svg>
