<svg width="520" height="233" viewBox="0 0 520 233" fill="none" xmlns="http://www.w3.org/2000/svg">
<g clip-path="url(#clip0_1722_87460)">
<g filter="url(#filter0_dd_1722_87460)">
<path d="M504.884 2.26953H15.1165C8.43767 2.26953 3.02344 7.68863 3.02344 14.3734V217.114C3.02344 223.798 8.43767 229.218 15.1165 229.218H504.884C511.563 229.218 516.977 223.798 516.977 217.114V14.3734C516.977 7.68863 511.563 2.26953 504.884 2.26953Z" fill="#FEFEFF"/>
<path d="M39.7955 52.1984C43.9011 52.1984 46.885 49.1905 46.885 44.7847C46.885 40.3789 43.9011 37.3711 39.7955 37.3711H35.0762V52.1984H39.7955ZM36.4094 38.6208H39.7955C43.0545 38.6208 45.5518 41.0567 45.5518 44.7847C45.5518 48.5127 43.0545 50.9486 39.7955 50.9486H36.4094V38.6208ZM53.958 52.4102C56.1166 52.4102 57.7038 51.2452 58.4022 49.2329H57.0689C56.5187 50.5038 55.3336 51.224 53.958 51.224C52.011 51.224 50.4026 49.7836 50.2122 47.496H58.6561C58.6773 47.3477 58.7196 46.9876 58.7196 46.4793C58.7196 43.535 56.6668 41.3956 53.958 41.3956C51.1433 41.3956 48.9636 43.6197 48.9636 46.9029C48.9636 50.1861 51.1433 52.4102 53.958 52.4102ZM50.2122 46.3098C50.4026 44.1069 51.9264 42.5818 53.958 42.5818C55.905 42.5818 57.3864 44.1069 57.471 46.3098H50.2122ZM62.5898 52.1984V37.3711H61.3412V52.1984H62.5898ZM70.2021 52.4102C72.3607 52.4102 73.9479 51.2452 74.6463 49.2329H73.313C72.7628 50.5038 71.5777 51.224 70.2021 51.224C68.2551 51.224 66.6467 49.7836 66.4563 47.496H74.9002C74.9214 47.3477 74.9637 46.9876 74.9637 46.4793C74.9637 43.535 72.9109 41.3956 70.2021 41.3956C67.3874 41.3956 65.2077 43.6197 65.2077 46.9029C65.2077 50.1861 67.3874 52.4102 70.2021 52.4102ZM66.4563 46.3098C66.6467 44.1069 68.1705 42.5818 70.2021 42.5818C72.1491 42.5818 73.6305 44.1069 73.7151 46.3098H66.4563ZM81.7802 52.1984V51.0122H79.9813C79.4734 51.0122 79.1983 50.7368 79.1983 50.2285V42.7936H81.7802V41.6075H79.1983V38.642H77.9497V41.6075H76.2567V42.7936H77.9497V50.4615C77.9497 51.5205 78.6269 52.1984 79.7697 52.1984H81.7802ZM88.2651 52.4102C90.4237 52.4102 92.0109 51.2452 92.7093 49.2329H91.376C90.8258 50.5038 89.6406 51.224 88.2651 51.224C86.3181 51.224 84.7097 49.7836 84.5192 47.496H92.9632C92.9844 47.3477 93.0267 46.9876 93.0267 46.4793C93.0267 43.535 90.9739 41.3956 88.2651 41.3956C85.4504 41.3956 83.2706 43.6197 83.2706 46.9029C83.2706 50.1861 85.4504 52.4102 88.2651 52.4102ZM84.5192 46.3098C84.7097 44.1069 86.2334 42.5818 88.2651 42.5818C90.212 42.5818 91.6934 44.1069 91.7781 46.3098H84.5192ZM104.402 52.4102C106.074 52.4102 107.238 51.4782 107.745 50.758H107.851L108.021 52.1984H109.1V41.6075H107.851V47.962C107.851 49.7625 106.37 51.224 104.571 51.224C102.814 51.224 101.502 49.8684 101.502 47.962V41.6075H100.233V47.962C100.233 50.6733 102.01 52.4102 104.402 52.4102ZM115.561 52.4102C118.207 52.4102 119.561 51.0545 119.561 49.4024C119.561 47.7714 118.63 46.7758 116.577 46.4157L114.757 46.098C113.382 45.865 112.916 45.2719 112.916 44.4035C112.916 43.4079 113.741 42.5818 115.455 42.5818C117.148 42.5818 118.207 43.535 118.207 44.6788H119.455C119.455 42.9631 117.889 41.3956 115.455 41.3956C112.916 41.3956 111.646 42.7513 111.646 44.4035C111.646 46.0556 112.662 46.9665 114.524 47.2842L116.344 47.6019C117.678 47.8349 118.312 48.428 118.312 49.4024C118.312 50.3979 117.36 51.224 115.561 51.224C113.741 51.224 112.704 50.2285 112.704 49.127H111.435C111.435 50.8427 113.001 52.4102 115.561 52.4102ZM126.333 52.4102C128.492 52.4102 130.079 51.2452 130.777 49.2329H129.444C128.894 50.5038 127.709 51.224 126.333 51.224C124.386 51.224 122.778 49.7836 122.587 47.496H131.031C131.052 47.3477 131.095 46.9876 131.095 46.4793C131.095 43.535 129.042 41.3956 126.333 41.3956C123.518 41.3956 121.339 43.6197 121.339 46.9029C121.339 50.1861 123.518 52.4102 126.333 52.4102ZM122.587 46.3098C122.778 44.1069 124.302 42.5818 126.333 42.5818C128.28 42.5818 129.762 44.1069 129.846 46.3098H122.587ZM134.859 52.1984V45.1236C134.859 43.6621 135.684 42.7936 137.123 42.7936H138.922V41.6075H136.975C135.896 41.6075 135.409 41.9675 134.965 42.6665H134.859L134.668 41.6075H133.61V52.1984H134.859ZM148.192 52.4102C149.885 52.4102 151.155 51.5841 151.663 50.6309H151.79L151.959 52.1984H153.038V45.399C153.038 42.8572 151.472 41.3956 149.039 41.3956C146.436 41.3956 145.018 42.9631 144.912 44.6788H146.182C146.287 43.535 147.282 42.5818 149.039 42.5818C150.732 42.5818 151.79 43.6197 151.79 45.399V45.8862H148.721C145.906 45.8862 144.594 47.1995 144.594 49.1905C144.594 51.0969 146.055 52.4102 148.192 52.4102ZM148.192 51.224C146.711 51.224 145.864 50.4191 145.864 49.1905C145.864 47.9408 146.753 47.0724 148.721 47.0724H151.79V47.5595C151.79 49.6777 150.52 51.224 148.192 51.224ZM160.474 52.4102C162.738 52.4102 164.516 51.0334 165.045 48.7034H163.797C163.331 50.3767 162.04 51.224 160.474 51.224C158.442 51.224 156.771 49.5295 156.771 46.9029C156.771 44.2764 158.442 42.5818 160.474 42.5818C162.04 42.5818 163.331 43.4291 163.797 44.9965H165.045C164.516 42.7725 162.738 41.3956 160.474 41.3956C157.702 41.3956 155.522 43.5985 155.522 46.9029C155.522 50.2073 157.702 52.4102 160.474 52.4102ZM171.717 52.4102C173.981 52.4102 175.759 51.0334 176.288 48.7034H175.039C174.574 50.3767 173.283 51.224 171.717 51.224C169.685 51.224 168.013 49.5295 168.013 46.9029C168.013 44.2764 169.685 42.5818 171.717 42.5818C173.283 42.5818 174.574 43.4291 175.039 44.9965H176.288C175.759 42.7725 173.981 41.3956 171.717 41.3956C168.944 41.3956 166.765 43.5985 166.765 46.9029C166.765 50.2073 168.944 52.4102 171.717 52.4102ZM182.959 52.4102C185.732 52.4102 187.912 50.2073 187.912 46.9029C187.912 43.5985 185.732 41.3956 182.959 41.3956C180.187 41.3956 178.007 43.5985 178.007 46.9029C178.007 50.2073 180.187 52.4102 182.959 52.4102ZM182.959 51.224C180.928 51.224 179.256 49.5295 179.256 46.9029C179.256 44.2764 180.928 42.5818 182.959 42.5818C184.991 42.5818 186.663 44.2764 186.663 46.9029C186.663 49.5295 184.991 51.224 182.959 51.224ZM194.55 52.4102C196.222 52.4102 197.386 51.4782 197.894 50.758H197.999L198.169 52.1984H199.248V41.6075H197.999V47.962C197.999 49.7625 196.518 51.224 194.719 51.224C192.963 51.224 191.651 49.8684 191.651 47.962V41.6075H190.381V47.962C190.381 50.6733 192.158 52.4102 194.55 52.4102ZM203.721 52.1984V45.8438C203.721 44.0434 205.181 42.5818 207.001 42.5818C208.737 42.5818 210.07 43.9375 210.07 45.8438V52.1984H211.318V45.8438C211.318 43.1325 209.562 41.3956 207.149 41.3956C205.499 41.3956 204.292 42.3276 203.827 43.0478H203.721L203.53 41.6075H202.472V52.1984H203.721ZM218.822 52.1984V51.0122H217.023C216.515 51.0122 216.24 50.7368 216.24 50.2285V42.7936H218.822V41.6075H216.24V38.642H214.992V41.6075H213.299V42.7936H214.992V50.4615C214.992 51.5205 215.669 52.1984 216.812 52.1984H218.822Z" fill="#031A34"/>
<path d="M43.0814 84.7284L39.0756 74.1375H37.2617L33.2559 84.7284H34.5407L35.5535 82.005H40.7838L41.7966 84.7284H43.0814ZM38.0175 75.4235H38.3198L40.3605 80.8703H35.9768L38.0175 75.4235ZM45.2792 84.7284V79.8868C45.2792 78.8277 45.8838 78.2226 46.942 78.2226H48.0757V77.1635H46.7908C45.9594 77.1635 45.6571 77.4661 45.3548 77.92H45.2792L45.128 77.1635H44.1455V84.7284H45.2792ZM52.3095 84.8797C53.8967 84.8797 55.0304 84.0476 55.5595 82.6102H54.3502C53.9723 83.3667 53.2164 83.8206 52.3095 83.8206C51.0397 83.8206 49.9665 82.9128 49.8153 81.4755H55.7106C55.7409 81.3847 55.7862 81.0821 55.7862 80.6433C55.7862 78.5252 54.2746 77.0122 52.3095 77.0122C50.2688 77.0122 48.6816 78.6008 48.6816 80.9459C48.6816 83.2911 50.2688 84.8797 52.3095 84.8797ZM49.8153 80.4164C49.9665 79.0547 50.949 78.0713 52.3095 78.0713C53.5944 78.0713 54.5769 79.0547 54.6525 80.4164H49.8153ZM63.5823 83.4424H63.28L60.9369 77.1635H59.7276L62.8265 85.3336L62.5241 86.2414C62.4486 86.4683 62.2974 86.6953 61.9951 86.6953H60.559V87.7544H62.0707C62.9021 87.7544 63.2648 87.3913 63.5067 86.6953L66.9079 77.1635H65.6986L63.5823 83.4424ZM71.1458 84.8797C73.1865 84.8797 74.7737 83.2911 74.7737 80.9459C74.7737 78.6008 73.1865 77.0122 71.1458 77.0122C69.1051 77.0122 67.5179 78.6008 67.5179 80.9459C67.5179 83.2911 69.1051 84.8797 71.1458 84.8797ZM71.1458 83.8206C69.7853 83.8206 68.6516 82.6859 68.6516 80.9459C68.6516 79.206 69.7853 78.0713 71.1458 78.0713C72.5063 78.0713 73.64 79.206 73.64 80.9459C73.64 82.6859 72.5063 83.8206 71.1458 83.8206ZM79.4535 84.8797C80.557 84.8797 81.3581 84.335 81.7209 83.8963H81.7965L81.9477 84.7284H82.9302V77.1635H81.7965V81.7024C81.7965 82.8372 80.8139 83.8206 79.6046 83.8206C78.4709 83.8206 77.5639 82.9128 77.5639 81.7024V77.1635H76.4302V81.7024C76.4302 83.5937 77.7151 84.8797 79.4535 84.8797ZM90.9532 84.8797C92.9183 84.8797 93.9009 83.8963 93.9009 82.6859C93.9009 81.4755 93.2206 80.7644 91.709 80.492L90.4241 80.2651C89.5171 80.0987 89.2148 79.7355 89.2148 79.206C89.2148 78.6008 89.7439 78.0713 90.8776 78.0713C92.0113 78.0713 92.6916 78.6765 92.6916 79.3573H93.8253C93.8253 78.1469 92.6916 77.0122 90.8776 77.0122C88.9881 77.0122 88.0811 77.9956 88.0811 79.206C88.0811 80.4013 88.8067 81.0821 90.1974 81.3242L91.4823 81.5511C92.3892 81.7176 92.7671 82.0807 92.7671 82.6859C92.7671 83.2911 92.1625 83.8206 90.9532 83.8206C89.7439 83.8206 89.0636 83.2154 89.0636 82.5346H87.9299C87.9299 83.745 89.0636 84.8797 90.9532 84.8797ZM98.5113 84.8797C99.6148 84.8797 100.416 84.335 100.779 83.8963H100.854L101.006 84.7284H101.988V77.1635H100.854V81.7024C100.854 82.8372 99.8718 83.8206 98.6625 83.8206C97.5288 83.8206 96.6218 82.9128 96.6218 81.7024V77.1635H95.4881V81.7024C95.4881 83.5937 96.7729 84.8797 98.5113 84.8797ZM105.243 84.7284V79.8868C105.243 78.8277 105.847 78.2226 106.905 78.2226H108.039V77.1635H106.754C105.923 77.1635 105.621 77.4661 105.318 77.92H105.243L105.091 77.1635H104.109V84.7284H105.243ZM112.272 84.8797C113.86 84.8797 114.993 84.0476 115.522 82.6102H114.313C113.935 83.3667 113.179 83.8206 112.272 83.8206C111.003 83.8206 109.929 82.9128 109.778 81.4755H115.674C115.704 81.3847 115.749 81.0821 115.749 80.6433C115.749 78.5252 114.238 77.0122 112.272 77.0122C110.232 77.0122 108.645 78.6008 108.645 80.9459C108.645 83.2911 110.232 84.8797 112.272 84.8797ZM109.778 80.4164C109.929 79.0547 110.912 78.0713 112.272 78.0713C113.557 78.0713 114.54 79.0547 114.615 80.4164H109.778ZM123.545 83.4424H123.243L120.9 77.1635H119.691L122.79 85.3336L122.487 86.2414C122.412 86.4683 122.261 86.6953 121.958 86.6953H120.522V87.7544H122.034C122.865 87.7544 123.228 87.3913 123.47 86.6953L126.871 77.1635H125.662L123.545 83.4424ZM131.109 84.8797C133.15 84.8797 134.737 83.2911 134.737 80.9459C134.737 78.6008 133.15 77.0122 131.109 77.0122C129.068 77.0122 127.481 78.6008 127.481 80.9459C127.481 83.2911 129.068 84.8797 131.109 84.8797ZM131.109 83.8206C129.748 83.8206 128.615 82.6859 128.615 80.9459C128.615 79.206 129.748 78.0713 131.109 78.0713C132.469 78.0713 133.603 79.206 133.603 80.9459C133.603 82.6859 132.469 83.8206 131.109 83.8206ZM139.417 84.8797C140.52 84.8797 141.321 84.335 141.684 83.8963H141.76L141.911 84.7284H142.893V77.1635H141.76V81.7024C141.76 82.8372 140.777 83.8206 139.568 83.8206C138.434 83.8206 137.527 82.9128 137.527 81.7024V77.1635H136.393V81.7024C136.393 83.5937 137.678 84.8797 139.417 84.8797ZM151.377 84.7284L152.965 78.6008H153.267L154.854 84.7284H156.819L158.86 77.1635H157.651L155.988 83.518H155.686L154.023 77.1635H152.209L150.546 83.518H150.244L148.581 77.1635H147.372L149.412 84.7284H151.377ZM162.341 84.8797C163.55 84.8797 164.396 84.2745 164.684 83.8206H164.759L164.91 84.7284H165.893V79.8868C165.893 78.0713 164.759 77.0122 162.945 77.0122C161.056 77.0122 159.998 78.1469 159.922 79.3573H161.056C161.131 78.6765 161.812 78.0713 162.945 78.0713C164.079 78.0713 164.759 78.7521 164.759 79.8868V80.1138H162.718C160.602 80.1138 159.695 81.0972 159.695 82.5346C159.695 83.8963 160.753 84.8797 162.341 84.8797ZM162.341 83.8206C161.358 83.8206 160.829 83.2911 160.829 82.5346C160.829 81.7781 161.358 81.1729 162.718 81.1729H164.759V81.4755C164.759 82.9128 163.852 83.8206 162.341 83.8206ZM169.147 84.7284V80.1894C169.147 79.0547 170.13 78.0713 171.339 78.0713C172.473 78.0713 173.38 78.979 173.38 80.1894V84.7284H174.514V80.1894C174.514 78.2982 173.229 77.0122 171.49 77.0122C170.387 77.0122 169.556 77.572 169.223 77.9956H169.147L168.996 77.1635H168.014V84.7284H169.147ZM179.888 84.7284V83.6693H178.603C178.3 83.6693 178.149 83.518 178.149 83.2154V78.2226H179.888V77.1635H178.149V75.0453H177.015V77.1635H175.806V78.2226H177.015V83.4424C177.015 84.1989 177.545 84.7284 178.376 84.7284H179.888ZM187.918 84.7284V83.6693H186.633C186.331 83.6693 186.18 83.518 186.18 83.2154V78.2226H187.918V77.1635H186.18V75.0453H185.046V77.1635H183.837V78.2226H185.046V83.4424C185.046 84.1989 185.575 84.7284 186.406 84.7284H187.918ZM192.534 84.8797C194.575 84.8797 196.162 83.2911 196.162 80.9459C196.162 78.6008 194.575 77.0122 192.534 77.0122C190.493 77.0122 188.906 78.6008 188.906 80.9459C188.906 83.2911 190.493 84.8797 192.534 84.8797ZM192.534 83.8206C191.173 83.8206 190.04 82.6859 190.04 80.9459C190.04 79.206 191.173 78.0713 192.534 78.0713C193.894 78.0713 195.028 79.206 195.028 80.9459C195.028 82.6859 193.894 83.8206 192.534 83.8206ZM204.325 84.8797C205.383 84.8797 206.139 84.4258 206.744 83.6693H206.819L206.971 84.7284H207.953V74.1375H206.819V78.2226H206.744C206.139 77.4661 205.383 77.0122 204.325 77.0122C202.36 77.0122 200.849 78.6008 200.849 80.9459C200.849 83.2911 202.36 84.8797 204.325 84.8797ZM204.401 83.8206C203.116 83.8206 201.982 82.6859 201.982 80.9459C201.982 79.206 203.116 78.0713 204.401 78.0713C205.686 78.0713 206.819 79.206 206.819 80.9459C206.819 82.6859 205.686 83.8206 204.401 83.8206ZM213.319 84.8797C214.906 84.8797 216.04 84.0476 216.569 82.6102H215.359C214.982 83.3667 214.226 83.8206 213.319 83.8206C212.049 83.8206 210.976 82.9128 210.825 81.4755H216.72C216.75 81.3847 216.795 81.0821 216.795 80.6433C216.795 78.5252 215.284 77.0122 213.319 77.0122C211.278 77.0122 209.691 78.6008 209.691 80.9459C209.691 83.2911 211.278 84.8797 213.319 84.8797ZM210.825 80.4164C210.976 79.0547 211.958 78.0713 213.319 78.0713C214.604 78.0713 215.586 79.0547 215.662 80.4164H210.825ZM219.665 84.7284V74.1375H218.531V84.7284H219.665ZM225.025 84.8797C226.612 84.8797 227.746 84.0476 228.275 82.6102H227.065C226.688 83.3667 225.932 83.8206 225.025 83.8206C223.755 83.8206 222.682 82.9128 222.531 81.4755H228.426C228.456 81.3847 228.502 81.0821 228.502 80.6433C228.502 78.5252 226.99 77.0122 225.025 77.0122C222.984 77.0122 221.397 78.6008 221.397 80.9459C221.397 83.2911 222.984 84.8797 225.025 84.8797ZM222.531 80.4164C222.682 79.0547 223.664 78.0713 225.025 78.0713C226.31 78.0713 227.292 79.0547 227.368 80.4164H222.531ZM233.415 84.7284V83.6693H232.13C231.828 83.6693 231.677 83.518 231.677 83.2154V78.2226H233.415V77.1635H231.677V75.0453H230.543V77.1635H229.334V78.2226H230.543V83.4424C230.543 84.1989 231.072 84.7284 231.903 84.7284H233.415ZM238.03 84.8797C239.617 84.8797 240.751 84.0476 241.28 82.6102H240.071C239.693 83.3667 238.937 83.8206 238.03 83.8206C236.76 83.8206 235.687 82.9128 235.536 81.4755H241.431C241.461 81.3847 241.507 81.0821 241.507 80.6433C241.507 78.5252 239.995 77.0122 238.03 77.0122C235.989 77.0122 234.402 78.6008 234.402 80.9459C234.402 83.2911 235.989 84.8797 238.03 84.8797ZM235.536 80.4164C235.687 79.0547 236.67 78.0713 238.03 78.0713C239.315 78.0713 240.298 79.0547 240.373 80.4164H235.536ZM249.757 84.7284V83.6693H248.472C248.169 83.6693 248.018 83.518 248.018 83.2154V78.2226H249.757V77.1635H248.018V75.0453H246.884V77.1635H245.675V78.2226H246.884V83.4424C246.884 84.1989 247.413 84.7284 248.245 84.7284H249.757ZM252.702 84.7284V80.1894C252.702 79.0547 253.684 78.0713 254.894 78.0713C256.027 78.0713 256.934 78.979 256.934 80.1894V84.7284H258.068V80.1894C258.068 78.2982 256.783 77.0122 255.045 77.0122C253.941 77.0122 253.11 77.572 252.777 77.9956H252.702V74.1375H251.568V84.7284H252.702ZM263.362 84.8797C264.949 84.8797 266.083 84.0476 266.612 82.6102H265.403C265.025 83.3667 264.269 83.8206 263.362 83.8206C262.092 83.8206 261.019 82.9128 260.868 81.4755H266.763C266.793 81.3847 266.839 81.0821 266.839 80.6433C266.839 78.5252 265.327 77.0122 263.362 77.0122C261.321 77.0122 259.734 78.6008 259.734 80.9459C259.734 83.2911 261.321 84.8797 263.362 84.8797ZM260.868 80.4164C261.019 79.0547 262.001 78.0713 263.362 78.0713C264.647 78.0713 265.629 79.0547 265.705 80.4164H260.868ZM275.005 84.8797C276.109 84.8797 276.91 84.335 277.273 83.8963H277.348L277.499 84.7284H278.482V77.1635H277.348V81.7024C277.348 82.8372 276.366 83.8206 275.156 83.8206C274.023 83.8206 273.116 82.9128 273.116 81.7024V77.1635H271.982V81.7024C271.982 83.5937 273.267 84.8797 275.005 84.8797ZM283.021 84.8797C284.987 84.8797 285.969 83.8963 285.969 82.6859C285.969 81.4755 285.289 80.7644 283.777 80.492L282.492 80.2651C281.585 80.0987 281.283 79.7355 281.283 79.206C281.283 78.6008 281.812 78.0713 282.946 78.0713C284.08 78.0713 284.76 78.6765 284.76 79.3573H285.893C285.893 78.1469 284.76 77.0122 282.946 77.0122C281.056 77.0122 280.149 77.9956 280.149 79.206C280.149 80.4013 280.875 81.0821 282.266 81.3242L283.55 81.5511C284.457 81.7176 284.835 82.0807 284.835 82.6859C284.835 83.2911 284.231 83.8206 283.021 83.8206C281.812 83.8206 281.132 83.2154 281.132 82.5346H279.998C279.998 83.745 281.132 84.8797 283.021 84.8797ZM290.731 84.8797C292.318 84.8797 293.452 84.0476 293.981 82.6102H292.771C292.393 83.3667 291.638 83.8206 290.731 83.8206C289.461 83.8206 288.388 82.9128 288.237 81.4755H294.132C294.162 81.3847 294.207 81.0821 294.207 80.6433C294.207 78.5252 292.696 77.0122 290.731 77.0122C288.69 77.0122 287.103 78.6008 287.103 80.9459C287.103 83.2911 288.69 84.8797 290.731 84.8797ZM288.237 80.4164C288.388 79.0547 289.37 78.0713 290.731 78.0713C292.016 78.0713 292.998 79.0547 293.074 80.4164H288.237ZM297.001 84.7284V79.8868C297.001 78.8277 297.606 78.2226 298.664 78.2226H299.797V77.1635H298.513C297.681 77.1635 297.379 77.4661 297.077 77.92H297.001L296.85 77.1635H295.867V84.7284H297.001ZM307.216 84.8797C308.319 84.8797 309.12 84.335 309.483 83.8963H309.559L309.71 84.7284H310.693V77.1635H309.559V81.7024C309.559 82.8372 308.576 83.8206 307.367 83.8206C306.233 83.8206 305.326 82.9128 305.326 81.7024V77.1635H304.192V81.7024C304.192 83.5937 305.477 84.8797 307.216 84.8797ZM315.233 84.8797C317.198 84.8797 318.18 83.8963 318.18 82.6859C318.18 81.4755 317.5 80.7644 315.988 80.492L314.704 80.2651C313.797 80.0987 313.494 79.7355 313.494 79.206C313.494 78.6008 314.023 78.0713 315.157 78.0713C316.291 78.0713 316.971 78.6765 316.971 79.3573H318.105C318.105 78.1469 316.971 77.0122 315.157 77.0122C313.268 77.0122 312.361 77.9956 312.361 79.206C312.361 80.4013 313.086 81.0821 314.477 81.3242L315.762 81.5511C316.669 81.7176 317.047 82.0807 317.047 82.6859C317.047 83.2911 316.442 83.8206 315.233 83.8206C314.023 83.8206 313.343 83.2154 313.343 82.5346H312.209C312.209 83.745 313.343 84.8797 315.233 84.8797ZM322.941 84.8797C324.528 84.8797 325.662 84.0476 326.191 82.6102H324.982C324.604 83.3667 323.848 83.8206 322.941 83.8206C321.671 83.8206 320.598 82.9128 320.447 81.4755H326.342C326.373 81.3847 326.418 81.0821 326.418 80.6433C326.418 78.5252 324.906 77.0122 322.941 77.0122C320.901 77.0122 319.313 78.6008 319.313 80.9459C319.313 83.2911 320.901 84.8797 322.941 84.8797ZM320.447 80.4164C320.598 79.0547 321.581 78.0713 322.941 78.0713C324.226 78.0713 325.209 79.0547 325.284 80.4164H320.447ZM329.211 84.7284V79.8868C329.211 78.8277 329.816 78.2226 330.874 78.2226H332.008V77.1635H330.723C329.892 77.1635 329.589 77.4661 329.287 77.92H329.211L329.06 77.1635H328.078V84.7284H329.211ZM334.349 84.7284V80.1894C334.349 79.0547 335.331 78.0713 336.541 78.0713C337.674 78.0713 338.581 78.979 338.581 80.1894V84.7284H339.715V80.1894C339.715 78.2982 338.43 77.0122 336.692 77.0122C335.588 77.0122 334.757 77.572 334.424 77.9956H334.349L334.198 77.1635H333.215V84.7284H334.349ZM344.179 84.8797C345.388 84.8797 346.235 84.2745 346.522 83.8206H346.597L346.749 84.7284H347.731V79.8868C347.731 78.0713 346.597 77.0122 344.783 77.0122C342.894 77.0122 341.836 78.1469 341.76 79.3573H342.894C342.97 78.6765 343.65 78.0713 344.783 78.0713C345.917 78.0713 346.597 78.7521 346.597 79.8868V80.1138H344.557C342.44 80.1138 341.533 81.0972 341.533 82.5346C341.533 83.8963 342.592 84.8797 344.179 84.8797ZM344.179 83.8206C343.196 83.8206 342.667 83.2911 342.667 82.5346C342.667 81.7781 343.196 81.1729 344.557 81.1729H346.597V81.4755C346.597 82.9128 345.69 83.8206 344.179 83.8206ZM350.985 84.7284V79.9625C350.985 78.9034 351.892 78.0713 352.874 78.0713C353.933 78.0713 354.613 78.8277 354.613 79.9625V84.7284H355.747V79.9625C355.747 78.9034 356.654 78.0713 357.636 78.0713C358.694 78.0713 359.374 78.8277 359.374 79.9625V84.7284H360.508V79.9625C360.508 78.2226 359.374 77.0122 357.787 77.0122C356.578 77.0122 355.656 77.7384 355.293 78.2982H355.217C354.961 77.7384 354.19 77.0122 353.026 77.0122C352.149 77.0122 351.393 77.572 351.061 77.9956H350.985L350.834 77.1635H349.851V84.7284H350.985ZM365.795 84.8797C367.382 84.8797 368.516 84.0476 369.045 82.6102H367.836C367.458 83.3667 366.702 83.8206 365.795 83.8206C364.525 83.8206 363.452 82.9128 363.301 81.4755H369.196C369.227 81.3847 369.272 81.0821 369.272 80.6433C369.272 78.5252 367.76 77.0122 365.795 77.0122C363.754 77.0122 362.167 78.6008 362.167 80.9459C362.167 83.2911 363.754 84.8797 365.795 84.8797ZM363.301 80.4164C363.452 79.0547 364.435 78.0713 365.795 78.0713C367.08 78.0713 368.063 79.0547 368.138 80.4164H363.301ZM377.741 87.7544C376.229 85.6362 375.549 83.2154 375.549 80.719C375.549 78.2226 376.229 75.8018 377.741 73.6836H376.531C375.095 75.8018 374.415 78.2226 374.415 80.719C374.415 83.2154 375.095 85.6362 376.531 87.7544H377.741ZM383.038 84.8797C385.23 84.8797 387.12 82.9885 387.12 79.4329C387.12 75.8774 385.23 73.9862 383.038 73.9862C380.846 73.9862 378.957 75.8774 378.957 79.4329C378.957 82.9885 380.846 84.8797 383.038 84.8797ZM383.038 83.745C381.527 83.745 380.166 82.3076 380.166 79.4329C380.166 76.5583 381.527 75.1209 383.038 75.1209C384.55 75.1209 385.91 76.5583 385.91 79.4329C385.91 82.3076 384.55 83.745 383.038 83.745ZM391.812 84.7284V74.1375H390.602V74.894C390.602 75.1966 390.451 75.3479 390.149 75.3479H388.335V76.407H390.602V84.7284H391.812ZM400.503 84.7284V83.5937H395.59V83.518L398.991 79.9625C399.732 79.1909 400.276 78.4495 400.276 77.1635C400.276 75.2722 398.916 73.9862 397.026 73.9862C395.137 73.9862 393.776 75.4235 393.776 77.3904H394.985C394.985 76.0287 395.892 75.1209 397.026 75.1209C398.235 75.1209 399.067 75.9531 399.067 77.1635C399.067 77.9956 398.764 78.4949 398.16 79.1303L393.852 83.745V84.7284H400.503ZM405.116 84.8797C407.156 84.8797 408.592 83.518 408.592 81.8537C408.592 80.4769 407.564 79.6145 406.778 79.3573V79.2816C407.489 79.0244 408.441 78.2074 408.441 76.9214C408.441 75.2722 407.081 73.9862 405.116 73.9862C403.15 73.9862 401.79 75.3479 401.79 76.8609H402.999C402.999 75.9531 403.906 75.1209 405.116 75.1209C406.4 75.1209 407.232 75.9531 407.232 76.8911C407.232 77.92 406.476 78.7521 405.116 78.7521H404.435V79.8868H405.116C406.476 79.8868 407.383 80.719 407.383 81.8537C407.383 82.9128 406.476 83.745 405.116 83.745C403.68 83.745 402.848 82.9128 402.848 81.9294H401.639C401.639 83.518 402.999 84.8797 405.116 84.8797ZM415.845 84.7284V82.3076H417.206V81.2485H415.845V74.1375H413.88L409.723 81.3998V82.3076H414.636V84.7284H415.845ZM411.235 81.1729L414.333 75.7261H414.636V81.2485H411.235V81.1729ZM421.741 84.8797C423.857 84.8797 425.369 83.3667 425.369 81.2788C425.369 79.206 423.782 77.693 421.968 77.693C421.137 77.693 420.381 77.92 419.852 78.3739H419.776L420.109 75.2722H424.764V74.1375H419.096L418.491 79.7355H419.776C420.23 79.1303 420.985 78.8277 421.817 78.8277C423.177 78.8277 424.16 79.8112 424.16 81.2788C424.16 82.6859 423.102 83.745 421.741 83.745C420.607 83.745 419.701 83.0641 419.474 81.9294H418.264C418.491 83.8206 420.003 84.8797 421.741 84.8797ZM430.364 84.8797C432.405 84.8797 433.992 83.2911 433.992 81.3242C433.992 79.3573 432.481 77.92 430.591 77.92C430.198 77.92 429.805 78.0107 429.608 78.0713H429.533L432.027 74.1375H430.667L427.341 79.2816C427.039 79.7355 426.736 80.5677 426.736 81.3242C426.736 83.2911 428.324 84.8797 430.364 84.8797ZM430.364 83.745C429.004 83.745 427.946 82.6859 427.946 81.3242C427.946 79.9625 429.004 78.9034 430.364 78.9034C431.725 78.9034 432.783 79.9625 432.783 81.3242C432.783 82.6859 431.725 83.745 430.364 83.745ZM437.235 84.7284L441.014 75.1209V74.1375H434.363V75.2722H439.668L435.95 84.7284H437.235ZM445.702 84.8797C447.818 84.8797 449.179 83.4272 449.179 81.8537C449.179 80.4769 448.226 79.5691 447.516 79.2816V79.206C448.136 78.9185 448.952 78.1015 448.952 76.9365C448.952 75.2722 447.592 73.9862 445.702 73.9862C443.812 73.9862 442.452 75.2722 442.452 76.9365C442.452 78.1015 443.268 78.9185 443.888 79.206V79.2816C443.178 79.5691 442.225 80.4769 442.225 81.8537C442.225 83.4424 443.586 84.8797 445.702 84.8797ZM445.702 78.7521C444.417 78.7521 443.661 77.92 443.661 76.9365C443.661 75.9531 444.417 75.1209 445.702 75.1209C446.987 75.1209 447.743 75.9531 447.743 76.9365C447.743 77.92 446.987 78.7521 445.702 78.7521ZM445.702 83.745C444.417 83.745 443.435 82.9128 443.435 81.7781C443.435 80.6433 444.417 79.8112 445.702 79.8112C446.987 79.8112 447.969 80.6433 447.969 81.7781C447.969 82.9128 446.987 83.745 445.702 83.745ZM453.858 84.7284L457.184 79.5842C457.486 79.1303 457.788 78.2982 457.788 77.5417C457.788 75.5748 456.201 73.9862 454.16 73.9862C452.12 73.9862 450.532 75.5748 450.532 77.5417C450.532 79.5086 452.044 80.9459 453.934 80.9459C454.327 80.9459 454.72 80.8552 454.916 80.7946H454.992L452.498 84.7284H453.858ZM454.16 79.9625C452.8 79.9625 451.742 78.9034 451.742 77.5417C451.742 76.18 452.8 75.1209 454.16 75.1209C455.521 75.1209 456.579 76.18 456.579 77.5417C456.579 78.9034 455.521 79.9625 454.16 79.9625ZM459.973 87.7544C461.409 85.6362 462.09 83.2154 462.09 80.719C462.09 78.2226 461.409 75.8018 459.973 73.6836H458.764C460.276 75.8018 460.956 78.2226 460.956 80.719C460.956 83.2154 460.276 85.6362 458.764 87.7544H459.973ZM467.387 82.3076V81.3998C467.387 80.7946 467.538 80.3407 468.445 79.8868C469.503 79.3573 470.184 78.4495 470.184 77.0878C470.184 75.3479 468.823 73.9862 466.858 73.9862C464.893 73.9862 463.532 75.2722 463.532 76.9365H464.742C464.742 75.9531 465.573 75.1209 466.858 75.1209C468.067 75.1209 468.974 75.9531 468.974 77.0878C468.974 77.9956 468.596 78.6008 467.841 78.979C466.631 79.5842 466.178 80.1894 466.178 81.3998V82.3076H467.387ZM466.782 84.804C467.236 84.804 467.538 84.5014 467.538 84.0476C467.538 83.5937 467.236 83.2911 466.782 83.2911C466.329 83.2911 466.027 83.5937 466.027 84.0476C466.027 84.5014 466.329 84.804 466.782 84.804Z" fill="#031A34"/>
<path d="M37.5413 116.501C40.1942 116.501 42.0988 114.526 42.0988 111.735C42.0988 108.943 40.1942 106.969 37.5413 106.969H34.3442V116.501H37.5413ZM35.4325 107.99H37.5413C39.5139 107.99 41.0105 109.488 41.0105 111.735C41.0105 113.981 39.5139 115.479 37.5413 115.479H35.4325V107.99ZM46.591 116.637C48.0195 116.637 49.0398 115.888 49.516 114.594H48.4276C48.0875 115.275 47.4073 115.684 46.591 115.684C45.4482 115.684 44.4823 114.867 44.3462 113.573H49.652C49.6793 113.491 49.7201 113.219 49.7201 112.824C49.7201 110.918 48.3596 109.556 46.591 109.556C44.7544 109.556 43.3259 110.986 43.3259 113.096C43.3259 115.207 44.7544 116.637 46.591 116.637ZM44.3462 112.62C44.4823 111.394 45.3666 110.509 46.591 110.509C47.7474 110.509 48.6317 111.394 48.6997 112.62H44.3462ZM52.3023 116.501V106.969H51.282V116.501H52.3023ZM57.1267 116.637C58.5552 116.637 59.5755 115.888 60.0517 114.594H58.9633C58.6232 115.275 57.943 115.684 57.1267 115.684C55.9839 115.684 55.018 114.867 54.8819 113.573H60.1877C60.2149 113.491 60.2557 113.219 60.2557 112.824C60.2557 110.918 58.8953 109.556 57.1267 109.556C55.29 109.556 53.8616 110.986 53.8616 113.096C53.8616 115.207 55.29 116.637 57.1267 116.637ZM54.8819 112.62C55.018 111.394 55.9023 110.509 57.1267 110.509C58.2831 110.509 59.1674 111.394 59.2354 112.62H54.8819ZM64.6778 116.501V115.547H63.5214C63.2493 115.547 63.1132 115.411 63.1132 115.139V110.645H64.6778V109.692H63.1132V107.786H62.0929V109.692H61.0045V110.645H62.0929V115.343C62.0929 116.024 62.5691 116.501 63.3173 116.501H64.6778ZM66.7572 108.358C67.1653 108.358 67.4374 108.085 67.4374 107.677C67.4374 107.268 67.1653 106.996 66.7572 106.996C66.349 106.996 66.0769 107.268 66.0769 107.677C66.0769 108.085 66.349 108.358 66.7572 108.358ZM67.2606 116.501V109.692H66.2402V116.501H67.2606ZM70.1834 116.501V112.416C70.1834 111.394 71.0677 110.509 72.156 110.509C73.1764 110.509 73.9927 111.326 73.9927 112.416V116.501H75.013V112.416C75.013 110.713 73.8566 109.556 72.2921 109.556C71.2989 109.556 70.5507 110.06 70.2514 110.441H70.1834L70.0473 109.692H69.163V116.501H70.1834ZM79.8472 119.36C81.7518 119.36 82.9082 118.203 82.9082 116.501V109.692H82.0239L81.8879 110.577H81.8199C81.3437 109.964 80.5274 109.556 79.6431 109.556C77.8745 109.556 76.5141 110.918 76.5141 112.892C76.5141 114.867 77.8745 116.228 79.6431 116.228C80.5274 116.228 81.2757 115.888 81.8199 115.275H81.8879V116.501C81.8879 117.658 81.0716 118.407 79.8472 118.407C78.5548 118.407 77.8745 117.726 77.8065 117.045H76.7862C76.8542 118.203 77.9425 119.36 79.8472 119.36ZM79.7111 115.275C78.4867 115.275 77.5344 114.322 77.5344 112.892C77.5344 111.462 78.4867 110.509 79.7111 110.509C80.9356 110.509 81.8879 111.462 81.8879 112.892C81.8879 114.322 80.9356 115.275 79.7111 115.275ZM90.7445 116.501V115.547H89.5881C89.316 115.547 89.18 115.411 89.18 115.139V110.645H90.7445V109.692H89.18V107.786H88.1596V109.692H87.0713V110.645H88.1596V115.343C88.1596 116.024 88.6358 116.501 89.3841 116.501H90.7445ZM93.3952 116.501V112.416C93.3952 111.394 94.2795 110.509 95.3678 110.509C96.3882 110.509 97.2045 111.326 97.2045 112.416V116.501H98.2248V112.416C98.2248 110.713 97.0684 109.556 95.5039 109.556C94.5107 109.556 93.7625 110.06 93.4632 110.441H93.3952V106.969H92.3748V116.501H93.3952ZM100.649 108.358C101.058 108.358 101.33 108.085 101.33 107.677C101.33 107.268 101.058 106.996 100.649 106.996C100.241 106.996 99.9692 107.268 99.9692 107.677C99.9692 108.085 100.241 108.358 100.649 108.358ZM101.153 116.501V109.692H100.132V116.501H101.153ZM105.232 116.637C107.001 116.637 107.885 115.752 107.885 114.662C107.885 113.573 107.273 112.933 105.912 112.688L104.756 112.484C103.94 112.334 103.667 112.007 103.667 111.53C103.667 110.986 104.144 110.509 105.164 110.509C106.184 110.509 106.797 111.054 106.797 111.667H107.817C107.817 110.577 106.797 109.556 105.164 109.556C103.463 109.556 102.647 110.441 102.647 111.53C102.647 112.606 103.3 113.219 104.552 113.437L105.708 113.641C106.524 113.791 106.865 114.118 106.865 114.662C106.865 115.207 106.32 115.684 105.232 115.684C104.144 115.684 103.531 115.139 103.531 114.526H102.511C102.511 115.615 103.531 116.637 105.232 116.637ZM114.557 116.637C115.646 116.637 116.407 116.092 116.666 115.684H116.734L116.87 116.501H117.754V112.143C117.754 110.509 116.734 109.556 115.101 109.556C113.401 109.556 112.448 110.577 112.38 111.667H113.401C113.469 111.054 114.081 110.509 115.101 110.509C116.122 110.509 116.734 111.122 116.734 112.143V112.347H114.897C112.993 112.347 112.176 113.233 112.176 114.526C112.176 115.752 113.129 116.637 114.557 116.637ZM114.557 115.684C113.673 115.684 113.197 115.207 113.197 114.526C113.197 113.845 113.673 113.301 114.897 113.301H116.734V113.573C116.734 114.867 115.918 115.684 114.557 115.684ZM122.52 116.637C124.016 116.637 125.173 115.752 125.512 114.254H124.492C124.22 115.207 123.472 115.684 122.52 115.684C121.295 115.684 120.275 114.662 120.275 113.096C120.275 111.53 121.295 110.509 122.52 110.509C123.472 110.509 124.22 110.986 124.492 111.871H125.512C125.173 110.441 124.016 109.556 122.52 109.556C120.683 109.556 119.255 110.986 119.255 113.096C119.255 115.207 120.683 116.637 122.52 116.637ZM129.8 116.637C131.296 116.637 132.453 115.752 132.793 114.254H131.772C131.5 115.207 130.752 115.684 129.8 115.684C128.575 115.684 127.555 114.662 127.555 113.096C127.555 111.53 128.575 110.509 129.8 110.509C130.752 110.509 131.5 110.986 131.772 111.871H132.793C132.453 110.441 131.296 109.556 129.8 109.556C127.963 109.556 126.535 110.986 126.535 113.096C126.535 115.207 127.963 116.637 129.8 116.637ZM137.08 116.637C138.917 116.637 140.346 115.207 140.346 113.096C140.346 110.986 138.917 109.556 137.08 109.556C135.244 109.556 133.815 110.986 133.815 113.096C133.815 115.207 135.244 116.637 137.08 116.637ZM137.08 115.684C135.856 115.684 134.836 114.662 134.836 113.096C134.836 111.53 135.856 110.509 137.08 110.509C138.305 110.509 139.325 111.53 139.325 113.096C139.325 114.662 138.305 115.684 137.08 115.684ZM144.557 116.637C145.55 116.637 146.271 116.147 146.598 115.752H146.666L146.802 116.501H147.686V109.692H146.666V113.777C146.666 114.798 145.781 115.684 144.693 115.684C143.673 115.684 142.856 114.867 142.856 113.777V109.692H141.836V113.777C141.836 115.479 142.992 116.637 144.557 116.637ZM150.616 116.501V112.416C150.616 111.394 151.5 110.509 152.588 110.509C153.609 110.509 154.425 111.326 154.425 112.416V116.501H155.445V112.416C155.445 110.713 154.289 109.556 152.724 109.556C151.731 109.556 150.983 110.06 150.684 110.441H150.616L150.48 109.692H149.595V116.501H150.616ZM160.282 116.501V115.547H159.126C158.854 115.547 158.718 115.411 158.718 115.139V110.645H160.282V109.692H158.718V107.786H157.698V109.692H156.609V110.645H157.698V115.343C157.698 116.024 158.174 116.501 158.922 116.501H160.282ZM167.305 116.501L168.734 110.986H169.006L170.435 116.501H172.203L174.04 109.692H172.951L171.455 115.411H171.183L169.686 109.692H168.054L166.557 115.411H166.285L164.789 109.692H163.7L165.537 116.501H167.305ZM175.714 108.358C176.122 108.358 176.394 108.085 176.394 107.677C176.394 107.268 176.122 106.996 175.714 106.996C175.306 106.996 175.034 107.268 175.034 107.677C175.034 108.085 175.306 108.358 175.714 108.358ZM176.217 116.501V109.692H175.197V116.501H176.217ZM179.208 116.501V106.969H178.188V116.501H179.208ZM182.264 116.501V106.969H181.243V116.501H182.264ZM188.387 116.501V112.143C188.387 111.19 188.932 110.645 189.884 110.645H190.904V109.692H189.748C189 109.692 188.727 109.964 188.455 110.373H188.387L188.251 109.692H187.367V116.501H188.387ZM194.714 116.637C196.143 116.637 197.163 115.888 197.639 114.594H196.551C196.211 115.275 195.531 115.684 194.714 115.684C193.572 115.684 192.606 114.867 192.47 113.573H197.775C197.803 113.491 197.843 113.219 197.843 112.824C197.843 110.918 196.483 109.556 194.714 109.556C192.878 109.556 191.449 110.986 191.449 113.096C191.449 115.207 192.878 116.637 194.714 116.637ZM192.47 112.62C192.606 111.394 193.49 110.509 194.714 110.509C195.871 110.509 196.755 111.394 196.823 112.62H192.47ZM200.358 116.501V112.211C200.358 111.258 201.174 110.509 202.059 110.509C203.011 110.509 203.623 111.19 203.623 112.211V116.501H204.643V112.211C204.643 111.258 205.46 110.509 206.344 110.509C207.296 110.509 207.909 111.19 207.909 112.211V116.501H208.929V112.211C208.929 110.645 207.909 109.556 206.48 109.556C205.392 109.556 204.562 110.21 204.235 110.713H204.167C203.936 110.21 203.242 109.556 202.195 109.556C201.406 109.556 200.725 110.06 200.426 110.441H200.358L200.222 109.692H199.338V116.501H200.358ZM213.687 116.637C215.523 116.637 216.952 115.207 216.952 113.096C216.952 110.986 215.523 109.556 213.687 109.556C211.85 109.556 210.422 110.986 210.422 113.096C210.422 115.207 211.85 116.637 213.687 116.637ZM213.687 115.684C212.462 115.684 211.442 114.662 211.442 113.096C211.442 111.53 212.462 110.509 213.687 110.509C214.911 110.509 215.932 111.53 215.932 113.096C215.932 114.662 214.911 115.684 213.687 115.684ZM221.574 116.501L224.023 109.692H222.935L220.894 115.411H220.622L218.581 109.692H217.493L219.942 116.501H221.574ZM227.836 116.637C229.264 116.637 230.284 115.888 230.761 114.594H229.672C229.332 115.275 228.652 115.684 227.836 115.684C226.693 115.684 225.727 114.867 225.591 113.573H230.897C230.924 113.491 230.965 113.219 230.965 112.824C230.965 110.918 229.604 109.556 227.836 109.556C225.999 109.556 224.57 110.986 224.57 113.096C224.57 115.207 225.999 116.637 227.836 116.637ZM225.591 112.62C225.727 111.394 226.611 110.509 227.836 110.509C228.992 110.509 229.876 111.394 229.944 112.62H225.591ZM237.703 116.637C238.791 116.637 239.553 116.092 239.811 115.684H239.879L240.016 116.501H240.9V112.143C240.9 110.509 239.879 109.556 238.247 109.556C236.546 109.556 235.594 110.577 235.526 111.667H236.546C236.614 111.054 237.227 110.509 238.247 110.509C239.267 110.509 239.879 111.122 239.879 112.143V112.347H238.043C236.138 112.347 235.322 113.233 235.322 114.526C235.322 115.752 236.274 116.637 237.703 116.637ZM237.703 115.684C236.818 115.684 236.342 115.207 236.342 114.526C236.342 113.845 236.818 113.301 238.043 113.301H239.879V113.573C239.879 114.867 239.063 115.684 237.703 115.684ZM243.897 116.501V106.969H242.876V116.501H243.897ZM246.952 116.501V106.969H245.932V116.501H246.952ZM254.851 116.501V115.547H253.694C253.422 115.547 253.286 115.411 253.286 115.139V110.645H254.851V109.692H253.286V107.786H252.266V109.692H251.177V110.645H252.266V115.343C252.266 116.024 252.742 116.501 253.49 116.501H254.851ZM257.501 116.501V112.416C257.501 111.394 258.386 110.509 259.474 110.509C260.494 110.509 261.311 111.326 261.311 112.416V116.501H262.331V112.416C262.331 110.713 261.175 109.556 259.61 109.556C258.617 109.556 257.869 110.06 257.569 110.441H257.501V106.969H256.481V116.501H257.501ZM267.096 116.637C268.524 116.637 269.544 115.888 270.021 114.594H268.932C268.592 115.275 267.912 115.684 267.096 115.684C265.953 115.684 264.987 114.867 264.851 113.573H270.157C270.184 113.491 270.225 113.219 270.225 112.824C270.225 110.918 268.864 109.556 267.096 109.556C265.259 109.556 263.83 110.986 263.83 113.096C263.83 115.207 265.259 116.637 267.096 116.637ZM264.851 112.62C264.987 111.394 265.871 110.509 267.096 110.509C268.252 110.509 269.136 111.394 269.204 112.62H264.851ZM275.371 108.358C275.779 108.358 276.051 108.085 276.051 107.677C276.051 107.268 275.779 106.996 275.371 106.996C274.963 106.996 274.691 107.268 274.691 107.677C274.691 108.085 274.963 108.358 275.371 108.358ZM275.874 116.501V109.692H274.854V116.501H275.874ZM278.797 116.501V112.416C278.797 111.394 279.681 110.509 280.77 110.509C281.79 110.509 282.606 111.326 282.606 112.416V116.501H283.627V112.416C283.627 110.713 282.47 109.556 280.906 109.556C279.913 109.556 279.164 110.06 278.865 110.441H278.797L278.661 109.692H277.777V116.501H278.797ZM286.899 116.501V110.645H288.328V109.692H286.899V108.603C286.899 108.33 287.035 108.194 287.308 108.194H288.328V107.241H287.103C286.355 107.241 285.879 107.718 285.879 108.399V109.692H284.791V110.645H285.879V116.501H286.899ZM292.205 116.637C294.042 116.637 295.47 115.207 295.47 113.096C295.47 110.986 294.042 109.556 292.205 109.556C290.369 109.556 288.94 110.986 288.94 113.096C288.94 115.207 290.369 116.637 292.205 116.637ZM292.205 115.684C290.981 115.684 289.96 114.662 289.96 113.096C289.96 111.53 290.981 110.509 292.205 110.509C293.43 110.509 294.45 111.53 294.45 113.096C294.45 114.662 293.43 115.684 292.205 115.684ZM297.982 116.501V112.143C297.982 111.19 298.526 110.645 299.478 110.645H300.499V109.692H299.342C298.594 109.692 298.322 109.964 298.05 110.373H297.982L297.846 109.692H296.962V116.501H297.982ZM302.605 116.501V112.211C302.605 111.258 303.422 110.509 304.306 110.509C305.258 110.509 305.87 111.19 305.87 112.211V116.501H306.891V112.211C306.891 111.258 307.707 110.509 308.591 110.509C309.544 110.509 310.156 111.19 310.156 112.211V116.501H311.176V112.211C311.176 110.645 310.156 109.556 308.727 109.556C307.639 109.556 306.809 110.21 306.483 110.713H306.415C306.183 110.21 305.489 109.556 304.442 109.556C303.653 109.556 302.973 110.06 302.673 110.441H302.605L302.469 109.692H301.585V116.501H302.605ZM315.186 116.637C316.274 116.637 317.036 116.092 317.294 115.684H317.362L317.499 116.501H318.383V112.143C318.383 110.509 317.362 109.556 315.73 109.556C314.029 109.556 313.077 110.577 313.009 111.667H314.029C314.097 111.054 314.71 110.509 315.73 110.509C316.75 110.509 317.362 111.122 317.362 112.143V112.347H315.526C313.621 112.347 312.805 113.233 312.805 114.526C312.805 115.752 313.757 116.637 315.186 116.637ZM315.186 115.684C314.301 115.684 313.825 115.207 313.825 114.526C313.825 113.845 314.301 113.301 315.526 113.301H317.362V113.573C317.362 114.867 316.546 115.684 315.186 115.684ZM323.219 116.501V115.547H322.063C321.791 115.547 321.655 115.411 321.655 115.139V110.645H323.219V109.692H321.655V107.786H320.634V109.692H319.546V110.645H320.634V115.343C320.634 116.024 321.111 116.501 321.859 116.501H323.219ZM325.299 108.358C325.707 108.358 325.979 108.085 325.979 107.677C325.979 107.268 325.707 106.996 325.299 106.996C324.89 106.996 324.618 107.268 324.618 107.677C324.618 108.085 324.89 108.358 325.299 108.358ZM325.802 116.501V109.692H324.782V116.501H325.802ZM330.561 116.637C332.398 116.637 333.826 115.207 333.826 113.096C333.826 110.986 332.398 109.556 330.561 109.556C328.725 109.556 327.296 110.986 327.296 113.096C327.296 115.207 328.725 116.637 330.561 116.637ZM330.561 115.684C329.337 115.684 328.316 114.662 328.316 113.096C328.316 111.53 329.337 110.509 330.561 110.509C331.786 110.509 332.806 111.53 332.806 113.096C332.806 114.662 331.786 115.684 330.561 115.684ZM336.338 116.501V112.416C336.338 111.394 337.222 110.509 338.311 110.509C339.331 110.509 340.147 111.326 340.147 112.416V116.501H341.168V112.416C341.168 110.713 340.011 109.556 338.447 109.556C337.454 109.556 336.705 110.06 336.406 110.441H336.338L336.202 109.692H335.318V116.501H336.338ZM347.442 116.501V110.645H348.871V109.692H347.442V108.603C347.442 108.33 347.578 108.194 347.851 108.194H348.871V107.241H347.646C346.898 107.241 346.422 107.718 346.422 108.399V109.692H345.334V110.645H346.422V116.501H347.442ZM351.178 116.501V112.143C351.178 111.19 351.722 110.645 352.674 110.645H353.694V109.692H352.538C351.79 109.692 351.518 109.964 351.246 110.373H351.178L351.042 109.692H350.157V116.501H351.178ZM357.505 116.637C359.342 116.637 360.77 115.207 360.77 113.096C360.77 110.986 359.342 109.556 357.505 109.556C355.669 109.556 354.24 110.986 354.24 113.096C354.24 115.207 355.669 116.637 357.505 116.637ZM357.505 115.684C356.281 115.684 355.26 114.662 355.26 113.096C355.26 111.53 356.281 110.509 357.505 110.509C358.73 110.509 359.75 111.53 359.75 113.096C359.75 114.662 358.73 115.684 357.505 115.684ZM363.281 116.501V112.211C363.281 111.258 364.097 110.509 364.982 110.509C365.934 110.509 366.546 111.19 366.546 112.211V116.501H367.567V112.211C367.567 111.258 368.383 110.509 369.267 110.509C370.22 110.509 370.832 111.19 370.832 112.211V116.501H371.852V112.211C371.852 110.645 370.832 109.556 369.403 109.556C368.315 109.556 367.485 110.21 367.159 110.713H367.091C366.859 110.21 366.165 109.556 365.118 109.556C364.329 109.556 363.649 110.06 363.349 110.441H363.281L363.145 109.692H362.261V116.501H363.281ZM379.684 116.501V115.547H378.527C378.255 115.547 378.119 115.411 378.119 115.139V110.645H379.684V109.692H378.119V107.786H377.099V109.692H376.011V110.645H377.099V115.343C377.099 116.024 377.575 116.501 378.323 116.501H379.684ZM382.335 116.501V112.416C382.335 111.394 383.219 110.509 384.307 110.509C385.328 110.509 386.144 111.326 386.144 112.416V116.501H387.164V112.416C387.164 110.713 386.008 109.556 384.443 109.556C383.45 109.556 382.702 110.06 382.403 110.441H382.335V106.969H381.314V116.501H382.335ZM389.589 108.358C389.997 108.358 390.269 108.085 390.269 107.677C390.269 107.268 389.997 106.996 389.589 106.996C389.181 106.996 388.909 107.268 388.909 107.677C388.909 108.085 389.181 108.358 389.589 108.358ZM390.092 116.501V109.692H389.072V116.501H390.092ZM394.171 116.637C395.94 116.637 396.824 115.752 396.824 114.662C396.824 113.573 396.212 112.933 394.852 112.688L393.695 112.484C392.879 112.334 392.607 112.007 392.607 111.53C392.607 110.986 393.083 110.509 394.103 110.509C395.124 110.509 395.736 111.054 395.736 111.667H396.756C396.756 110.577 395.736 109.556 394.103 109.556C392.403 109.556 391.586 110.441 391.586 111.53C391.586 112.606 392.239 113.219 393.491 113.437L394.647 113.641C395.464 113.791 395.804 114.118 395.804 114.662C395.804 115.207 395.26 115.684 394.171 115.684C393.083 115.684 392.471 115.139 392.471 114.526H391.45C391.45 115.615 392.471 116.637 394.171 116.637ZM404.109 116.637C405.102 116.637 405.823 116.147 406.149 115.752H406.217L406.354 116.501H407.238V109.692H406.217V113.777C406.217 114.798 405.333 115.684 404.245 115.684C403.224 115.684 402.408 114.867 402.408 113.777V109.692H401.388V113.777C401.388 115.479 402.544 116.637 404.109 116.637ZM411.323 116.637C413.092 116.637 413.976 115.752 413.976 114.662C413.976 113.573 413.364 112.933 412.003 112.688L410.847 112.484C410.031 112.334 409.759 112.007 409.759 111.53C409.759 110.986 410.235 110.509 411.255 110.509C412.275 110.509 412.888 111.054 412.888 111.667H413.908C413.908 110.577 412.888 109.556 411.255 109.556C409.554 109.556 408.738 110.441 408.738 111.53C408.738 112.606 409.391 113.219 410.643 113.437L411.799 113.641C412.615 113.791 412.956 114.118 412.956 114.662C412.956 115.207 412.411 115.684 411.323 115.684C410.235 115.684 409.622 115.139 409.622 114.526H408.602C408.602 115.615 409.622 116.637 411.323 116.637ZM418.261 116.637C419.69 116.637 420.71 115.888 421.186 114.594H420.098C419.758 115.275 419.078 115.684 418.261 115.684C417.119 115.684 416.153 114.867 416.017 113.573H421.322C421.35 113.491 421.39 113.219 421.39 112.824C421.39 110.918 420.03 109.556 418.261 109.556C416.425 109.556 414.996 110.986 414.996 113.096C414.996 115.207 416.425 116.637 418.261 116.637ZM416.017 112.62C416.153 111.394 417.037 110.509 418.261 110.509C419.418 110.509 420.302 111.394 420.37 112.62H416.017ZM423.904 116.501V112.143C423.904 111.19 424.448 110.645 425.401 110.645H426.421V109.692H425.265C424.517 109.692 424.244 109.964 423.972 110.373H423.904L423.768 109.692H422.884V116.501H423.904ZM427.439 116.569C427.847 116.569 428.119 116.296 428.119 115.888C428.119 115.479 427.847 115.207 427.439 115.207C427.031 115.207 426.759 115.479 426.759 115.888C426.759 116.296 427.031 116.569 427.439 116.569ZM436.015 116.501V107.99H439.145V106.969H431.798V107.99H434.927V116.501H436.015ZM441.523 116.501V112.416C441.523 111.394 442.407 110.509 443.496 110.509C444.516 110.509 445.332 111.326 445.332 112.416V116.501H446.353V112.416C446.353 110.713 445.196 109.556 443.632 109.556C442.639 109.556 441.89 110.06 441.591 110.441H441.523V106.969H440.503V116.501H441.523ZM448.777 108.358C449.185 108.358 449.457 108.085 449.457 107.677C449.457 107.268 449.185 106.996 448.777 106.996C448.368 106.996 448.096 107.268 448.096 107.677C448.096 108.085 448.368 108.358 448.777 108.358ZM449.28 116.501V109.692H448.26V116.501H449.28ZM453.359 116.637C455.128 116.637 456.012 115.752 456.012 114.662C456.012 113.573 455.4 112.933 454.039 112.688L452.883 112.484C452.067 112.334 451.795 112.007 451.795 111.53C451.795 110.986 452.271 110.509 453.291 110.509C454.311 110.509 454.924 111.054 454.924 111.667H455.944C455.944 110.577 454.924 109.556 453.291 109.556C451.591 109.556 450.774 110.441 450.774 111.53C450.774 112.606 451.427 113.219 452.679 113.437L453.835 113.641C454.652 113.791 454.992 114.118 454.992 114.662C454.992 115.207 454.447 115.684 453.359 115.684C452.271 115.684 451.659 115.139 451.659 114.526H450.638C450.638 115.615 451.659 116.637 453.359 116.637ZM36.3168 134.793C37.4052 134.793 38.1671 134.248 38.4256 133.839H38.4936L38.6296 134.656H39.5139V130.299C39.5139 128.665 38.4936 127.712 36.861 127.712C35.1605 127.712 34.2081 128.733 34.1401 129.822H35.1605C35.2285 129.21 35.8407 128.665 36.861 128.665C37.8814 128.665 38.4936 129.278 38.4936 130.299V130.503H36.657C34.7523 130.503 33.936 131.388 33.936 132.682C33.936 133.907 34.8884 134.793 36.3168 134.793ZM36.3168 133.839C35.4325 133.839 34.9564 133.363 34.9564 132.682C34.9564 132.001 35.4325 131.456 36.657 131.456H38.4936V131.729C38.4936 133.022 37.6773 133.839 36.3168 133.839ZM44.2793 134.793C45.7758 134.793 46.9322 133.907 47.2723 132.41H46.2519C45.9799 133.363 45.2316 133.839 44.2793 133.839C43.0549 133.839 42.0345 132.818 42.0345 131.252C42.0345 129.686 43.0549 128.665 44.2793 128.665C45.2316 128.665 45.9799 129.142 46.2519 130.027H47.2723C46.9322 128.597 45.7758 127.712 44.2793 127.712C42.4426 127.712 41.0142 129.142 41.0142 131.252C41.0142 133.363 42.4426 134.793 44.2793 134.793ZM51.6311 134.656V133.703H50.4748C50.2027 133.703 50.0666 133.567 50.0666 133.295V128.801H51.6311V127.848H50.0666V125.942H49.0463V127.848H47.9579V128.801H49.0463V133.499C49.0463 134.18 49.5224 134.656 50.2707 134.656H51.6311ZM53.7105 126.514C54.1186 126.514 54.3907 126.241 54.3907 125.833C54.3907 125.424 54.1186 125.152 53.7105 125.152C53.3023 125.152 53.0302 125.424 53.0302 125.833C53.0302 126.241 53.3023 126.514 53.7105 126.514ZM54.2138 134.656V127.848H53.1935V134.656H54.2138ZM58.9734 134.793C60.81 134.793 62.2385 133.363 62.2385 131.252C62.2385 129.142 60.81 127.712 58.9734 127.712C57.1367 127.712 55.7082 129.142 55.7082 131.252C55.7082 133.363 57.1367 134.793 58.9734 134.793ZM58.9734 133.839C57.7489 133.839 56.7286 132.818 56.7286 131.252C56.7286 129.686 57.7489 128.665 58.9734 128.665C60.1978 128.665 61.2181 129.686 61.2181 131.252C61.2181 132.818 60.1978 133.839 58.9734 133.839ZM64.7495 134.656V130.571C64.7495 129.55 65.6338 128.665 66.7222 128.665C67.7425 128.665 68.5588 129.482 68.5588 130.571V134.656H69.5792V130.571C69.5792 128.869 68.4228 127.712 66.8582 127.712C65.8651 127.712 65.1168 128.216 64.8175 128.597H64.7495L64.6135 127.848H63.7292V134.656H64.7495ZM77.4807 134.793C78.9773 134.793 80.1337 133.907 80.4738 132.41H79.4534C79.1813 133.363 78.4331 133.839 77.4807 133.839C76.2563 133.839 75.2358 132.818 75.2358 131.252C75.2358 129.686 76.2563 128.665 77.4807 128.665C78.4331 128.665 79.1813 129.142 79.4534 130.027H80.4738C80.1337 128.597 78.9773 127.712 77.4807 127.712C75.6441 127.712 74.2154 129.142 74.2154 131.252C74.2154 133.363 75.6441 134.793 77.4807 134.793ZM84.0125 134.793C85.1009 134.793 85.8627 134.248 86.1212 133.839H86.1892L86.3253 134.656H87.2096V130.299C87.2096 128.665 86.1892 127.712 84.5567 127.712C82.8561 127.712 81.9038 128.733 81.8357 129.822H82.8561C82.9241 129.21 83.5363 128.665 84.5567 128.665C85.577 128.665 86.1892 129.278 86.1892 130.299V130.503H84.3526C82.448 130.503 81.6317 131.388 81.6317 132.682C81.6317 133.907 82.584 134.793 84.0125 134.793ZM84.0125 133.839C83.1282 133.839 82.652 133.363 82.652 132.682C82.652 132.001 83.1282 131.456 84.3526 131.456H86.1892V131.729C86.1892 133.022 85.373 133.839 84.0125 133.839ZM90.1384 134.656V130.571C90.1384 129.55 91.0227 128.665 92.111 128.665C93.1314 128.665 93.9477 129.482 93.9477 130.571V134.656H94.968V130.571C94.968 128.869 93.8116 127.712 92.2471 127.712C91.2539 127.712 90.5057 128.216 90.2064 128.597H90.1384L90.0023 127.848H89.118V134.656H90.1384ZM97.8975 134.656V130.571C97.8975 129.55 98.7819 128.665 99.8702 128.665C100.891 128.665 101.707 129.482 101.707 130.571V134.656H102.727V130.571C102.727 128.869 101.571 127.712 100.006 127.712C99.0131 127.712 98.2649 128.216 97.9656 128.597H97.8975L97.7615 127.848H96.8772V134.656H97.8975ZM107.493 134.793C109.33 134.793 110.758 133.363 110.758 131.252C110.758 129.142 109.33 127.712 107.493 127.712C105.657 127.712 104.228 129.142 104.228 131.252C104.228 133.363 105.657 134.793 107.493 134.793ZM107.493 133.839C106.269 133.839 105.249 132.818 105.249 131.252C105.249 129.686 106.269 128.665 107.493 128.665C108.718 128.665 109.738 129.686 109.738 131.252C109.738 132.818 108.718 133.839 107.493 133.839ZM115.177 134.656V133.703H114.021C113.748 133.703 113.612 133.567 113.612 133.295V128.801H115.177V127.848H113.612V125.942H112.592V127.848H111.504V128.801H112.592V133.499C112.592 134.18 113.068 134.656 113.816 134.656H115.177ZM122.942 134.793C124.711 134.793 126.071 133.363 126.071 131.252C126.071 129.142 124.711 127.712 122.942 127.712C121.99 127.712 121.31 128.12 120.765 128.801H120.697V125.125H119.677V134.656H120.561L120.697 133.703H120.765C121.31 134.384 121.99 134.793 122.942 134.793ZM122.874 133.839C121.718 133.839 120.697 132.818 120.697 131.252C120.697 129.686 121.718 128.665 122.874 128.665C124.031 128.665 125.051 129.686 125.051 131.252C125.051 132.818 124.031 133.839 122.874 133.839ZM130.424 134.793C131.852 134.793 132.873 134.044 133.349 132.75H132.261C131.921 133.431 131.24 133.839 130.424 133.839C129.281 133.839 128.315 133.022 128.179 131.729H133.485C133.512 131.647 133.553 131.375 133.553 130.98C133.553 129.073 132.193 127.712 130.424 127.712C128.587 127.712 127.159 129.142 127.159 131.252C127.159 133.363 128.587 134.793 130.424 134.793ZM128.179 130.776C128.315 129.55 129.2 128.665 130.424 128.665C131.58 128.665 132.465 129.55 132.533 130.776H128.179ZM140.903 134.793C141.896 134.793 142.618 134.302 142.944 133.907H143.012L143.148 134.656H144.032V127.848H143.012V131.933C143.012 132.954 142.128 133.839 141.039 133.839C140.019 133.839 139.203 133.022 139.203 131.933V127.848H138.182V131.933C138.182 133.635 139.339 134.793 140.903 134.793ZM146.962 134.656V130.571C146.962 129.55 147.846 128.665 148.935 128.665C149.955 128.665 150.771 129.482 150.771 130.571V134.656H151.792V130.571C151.792 128.869 150.635 127.712 149.071 127.712C148.078 127.712 147.329 128.216 147.03 128.597H146.962L146.826 127.848H145.942V134.656H146.962ZM156.422 134.793C157.374 134.793 158.054 134.384 158.598 133.703H158.666L158.803 134.656H159.687V125.125H158.666V128.801H158.598C158.054 128.12 157.374 127.712 156.422 127.712C154.653 127.712 153.293 129.142 153.293 131.252C153.293 133.363 154.653 134.793 156.422 134.793ZM156.49 133.839C155.333 133.839 154.313 132.818 154.313 131.252C154.313 129.686 155.333 128.665 156.49 128.665C157.646 128.665 158.666 129.686 158.666 131.252C158.666 132.818 157.646 133.839 156.49 133.839ZM164.516 134.793C166.352 134.793 167.781 133.363 167.781 131.252C167.781 129.142 166.352 127.712 164.516 127.712C162.679 127.712 161.251 129.142 161.251 131.252C161.251 133.363 162.679 134.793 164.516 134.793ZM164.516 133.839C163.291 133.839 162.271 132.818 162.271 131.252C162.271 129.686 163.291 128.665 164.516 128.665C165.74 128.665 166.761 129.686 166.761 131.252C166.761 132.818 165.74 133.839 164.516 133.839ZM170.292 134.656V130.571C170.292 129.55 171.176 128.665 172.264 128.665C173.285 128.665 174.101 129.482 174.101 130.571V134.656H175.121V130.571C175.121 128.869 173.965 127.712 172.4 127.712C171.407 127.712 170.659 128.216 170.36 128.597H170.292L170.156 127.848H169.271V134.656H170.292ZM179.887 134.793C181.316 134.793 182.336 134.044 182.812 132.75H181.724C181.384 133.431 180.704 133.839 179.887 133.839C178.745 133.839 177.779 133.022 177.643 131.729H182.949C182.976 131.647 183.017 131.375 183.017 130.98C183.017 129.073 181.656 127.712 179.887 127.712C178.051 127.712 176.622 129.142 176.622 131.252C176.622 133.363 178.051 134.793 179.887 134.793ZM177.643 130.776C177.779 129.55 178.663 128.665 179.887 128.665C181.044 128.665 181.928 129.55 181.996 130.776H177.643ZM184.986 134.724C185.394 134.724 185.666 134.452 185.666 134.044C185.666 133.635 185.394 133.363 184.986 133.363C184.578 133.363 184.306 133.635 184.306 134.044C184.306 134.452 184.578 134.724 184.986 134.724Z" fill="#6E7894"/>
<path d="M303.309 186.234C305.812 186.234 307.255 184.396 307.608 182.653H305.772C305.513 183.592 304.683 184.491 303.309 184.491C301.758 184.491 300.52 183.238 300.52 181.332C300.52 179.425 301.758 178.173 303.309 178.173C304.642 178.173 305.5 179.044 305.772 179.943H307.608C307.241 178.241 305.772 176.43 303.309 176.43C300.738 176.43 298.697 178.445 298.697 181.332C298.697 184.219 300.738 186.234 303.309 186.234ZM311.084 186.234C312.09 186.234 312.798 185.771 313.056 185.43H313.124L313.26 186.098H314.743V181.699C314.743 180.174 313.614 179.058 311.791 179.058C309.968 179.058 308.975 180.161 308.866 181.264H310.539C310.635 180.882 311.029 180.474 311.791 180.474C312.539 180.474 313.029 180.978 313.029 181.699V181.849H311.41C309.505 181.849 308.594 182.789 308.594 184.11C308.594 185.308 309.546 186.234 311.084 186.234ZM311.383 184.859C310.689 184.859 310.308 184.504 310.308 183.973C310.308 183.456 310.689 183.075 311.587 183.075H313.029V183.279C313.029 184.246 312.417 184.859 311.383 184.859ZM318.128 186.098V182.19C318.128 181.332 318.754 180.692 319.624 180.692C320.481 180.692 321.08 181.318 321.08 182.19V186.098H322.794V181.958C322.794 180.215 321.651 179.058 320.073 179.058C319.039 179.058 318.359 179.534 318.101 179.861H318.032L317.896 179.194H316.414V186.098H318.128ZM327.621 186.234C329.553 186.234 330.655 184.913 330.913 183.524H329.185C329.008 184.137 328.519 184.654 327.621 184.654C326.641 184.654 325.825 183.851 325.825 182.653C325.825 181.441 326.641 180.651 327.621 180.651C328.519 180.651 329.008 181.168 329.185 181.727H330.913C330.655 180.379 329.553 179.058 327.621 179.058C325.621 179.058 324.111 180.569 324.111 182.653C324.111 184.722 325.621 186.234 327.621 186.234ZM335.366 186.234C337.244 186.234 338.264 185.036 338.577 184.082H336.836C336.618 184.423 336.101 184.804 335.366 184.804C334.414 184.804 333.666 184.137 333.557 183.211H338.699C338.727 183.102 338.767 182.83 338.767 182.503C338.767 180.528 337.298 179.058 335.366 179.058C333.366 179.058 331.856 180.569 331.856 182.653C331.856 184.722 333.366 186.234 335.366 186.234ZM333.557 182.067C333.693 181.168 334.36 180.474 335.366 180.474C336.305 180.474 336.972 181.168 337.067 182.067H333.557ZM341.897 186.098V176.566H340.183V186.098H341.897Z" fill="white"/>
<path d="M303.309 186.234C305.812 186.234 307.255 184.396 307.608 182.653H305.772C305.513 183.592 304.683 184.491 303.309 184.491C301.758 184.491 300.52 183.238 300.52 181.332C300.52 179.425 301.758 178.173 303.309 178.173C304.642 178.173 305.5 179.044 305.772 179.943H307.608C307.241 178.241 305.772 176.43 303.309 176.43C300.738 176.43 298.697 178.445 298.697 181.332C298.697 184.219 300.738 186.234 303.309 186.234ZM311.084 186.234C312.09 186.234 312.798 185.771 313.056 185.43H313.124L313.26 186.098H314.743V181.699C314.743 180.174 313.614 179.058 311.791 179.058C309.968 179.058 308.975 180.161 308.866 181.264H310.539C310.635 180.882 311.029 180.474 311.791 180.474C312.539 180.474 313.029 180.978 313.029 181.699V181.849H311.41C309.505 181.849 308.594 182.789 308.594 184.11C308.594 185.308 309.546 186.234 311.084 186.234ZM311.383 184.859C310.689 184.859 310.308 184.504 310.308 183.973C310.308 183.456 310.689 183.075 311.587 183.075H313.029V183.279C313.029 184.246 312.417 184.859 311.383 184.859ZM318.128 186.098V182.19C318.128 181.332 318.754 180.692 319.624 180.692C320.481 180.692 321.08 181.318 321.08 182.19V186.098H322.794V181.958C322.794 180.215 321.651 179.058 320.073 179.058C319.039 179.058 318.359 179.534 318.101 179.861H318.032L317.896 179.194H316.414V186.098H318.128ZM327.621 186.234C329.553 186.234 330.655 184.913 330.913 183.524H329.185C329.008 184.137 328.519 184.654 327.621 184.654C326.641 184.654 325.825 183.851 325.825 182.653C325.825 181.441 326.641 180.651 327.621 180.651C328.519 180.651 329.008 181.168 329.185 181.727H330.913C330.655 180.379 329.553 179.058 327.621 179.058C325.621 179.058 324.111 180.569 324.111 182.653C324.111 184.722 325.621 186.234 327.621 186.234ZM335.366 186.234C337.244 186.234 338.264 185.036 338.577 184.082H336.836C336.618 184.423 336.101 184.804 335.366 184.804C334.414 184.804 333.666 184.137 333.557 183.211H338.699C338.727 183.102 338.767 182.83 338.767 182.503C338.767 180.528 337.298 179.058 335.366 179.058C333.366 179.058 331.856 180.569 331.856 182.653C331.856 184.722 333.366 186.234 335.366 186.234ZM333.557 182.067C333.693 181.168 334.36 180.474 335.366 180.474C336.305 180.474 336.972 181.168 337.067 182.067H333.557ZM341.897 186.098V176.566H340.183V186.098H341.897Z" fill="url(#paint0_linear_1722_87460)"/>
<path d="M353.721 163.211H287.21C277.504 163.211 269.637 171.086 269.637 180.8C269.637 190.514 277.504 198.389 287.21 198.389H353.721C363.426 198.389 371.294 190.514 371.294 180.8C371.294 171.086 363.426 163.211 353.721 163.211Z" stroke="white" stroke-width="1.5"/>
<path d="M353.721 163.211H287.21C277.504 163.211 269.637 171.086 269.637 180.8C269.637 190.514 277.504 198.389 287.21 198.389H353.721C363.426 198.389 371.294 190.514 371.294 180.8C371.294 171.086 363.426 163.211 353.721 163.211Z" stroke="url(#paint1_linear_1722_87460)" stroke-width="1.5"/>
<path d="M468.605 162.645H402.094C392.076 162.645 383.954 170.773 383.954 180.801C383.954 190.828 392.076 198.957 402.094 198.957H468.605C478.623 198.957 486.745 190.828 486.745 180.801C486.745 170.773 478.623 162.645 468.605 162.645Z" fill="#F44336"/>
<path d="M418.866 186.098C421.478 186.098 423.464 184.083 423.464 181.332C423.464 178.582 421.478 176.566 418.866 176.566H415.438V186.098H418.866ZM417.261 178.309H418.866C420.43 178.309 421.655 179.535 421.655 181.332C421.655 183.13 420.43 184.355 418.866 184.355H417.261V178.309ZM428.076 186.234C429.954 186.234 430.974 185.036 431.287 184.083H429.545C429.328 184.423 428.811 184.805 428.076 184.805C427.124 184.805 426.376 184.137 426.267 183.211H431.409C431.437 183.103 431.477 182.83 431.477 182.503C431.477 180.529 430.008 179.058 428.076 179.058C426.076 179.058 424.566 180.57 424.566 182.653C424.566 184.723 426.076 186.234 428.076 186.234ZM426.267 182.068C426.403 181.169 427.069 180.474 428.076 180.474C429.015 180.474 429.682 181.169 429.777 182.068H426.267ZM434.607 186.098V176.566H432.893V186.098H434.607ZM439.542 186.234C441.419 186.234 442.44 185.036 442.753 184.083H441.011C440.794 184.423 440.277 184.805 439.542 184.805C438.59 184.805 437.841 184.137 437.732 183.211H442.875C442.902 183.103 442.943 182.83 442.943 182.503C442.943 180.529 441.474 179.058 439.542 179.058C437.542 179.058 436.032 180.57 436.032 182.653C436.032 184.723 437.542 186.234 439.542 186.234ZM437.732 182.068C437.869 181.169 438.535 180.474 439.542 180.474C440.481 180.474 441.147 181.169 441.242 182.068H437.732ZM448.009 186.098V184.546H446.893C446.58 184.546 446.444 184.41 446.444 184.097V180.815H448.009V179.194H446.444V177.125H444.73V179.194H443.641V180.815H444.73V184.451C444.73 185.472 445.356 186.098 446.485 186.098H448.009ZM452.363 186.234C454.24 186.234 455.261 185.036 455.573 184.083H453.832C453.614 184.423 453.097 184.805 452.363 184.805C451.41 184.805 450.662 184.137 450.553 183.211H455.696C455.723 183.103 455.764 182.83 455.764 182.503C455.764 180.529 454.295 179.058 452.363 179.058C450.363 179.058 448.853 180.57 448.853 182.653C448.853 184.723 450.363 186.234 452.363 186.234ZM450.553 182.068C450.689 181.169 451.356 180.474 452.363 180.474C453.301 180.474 453.968 181.169 454.063 182.068H450.553Z" fill="#F2F4FF"/>
<path d="M493.426 33.9316C493.64 34.0947 493.947 34.0783 494.143 33.8827C494.356 33.6694 494.356 33.3233 494.143 33.11L490.54 29.5037L494.142 25.8978L494.191 25.8419C494.354 25.6277 494.338 25.3207 494.142 25.1251C493.929 24.9117 493.584 24.9117 493.37 25.1251L489.767 28.731L486.164 25.1249L486.109 25.076C485.895 24.913 485.589 24.9293 485.393 25.1249C485.18 25.3383 485.18 25.6843 485.393 25.8976L488.996 29.5037L485.393 33.1102L485.344 33.1662C485.18 33.3803 485.197 33.6873 485.393 33.8829C485.606 34.0963 485.951 34.0963 486.164 33.8829L489.767 30.2765L493.37 33.8827L493.426 33.9316Z" fill="#031A34"/>
<path d="M504.884 2.64844H15.1165C8.6464 2.64844 3.40137 7.89819 3.40137 14.3741V217.114C3.40137 223.59 8.6464 228.84 15.1165 228.84H504.884C511.354 228.84 516.599 223.59 516.599 217.114V14.3741C516.599 7.89819 511.354 2.64844 504.884 2.64844Z" stroke="#D1D5E4"/>
</g>
</g>
<defs>
<filter id="filter0_dd_1722_87460" x="-0.0986328" y="0.148438" width="520.197" height="233.191" filterUnits="userSpaceOnUse" color-interpolation-filters="sRGB">
<feFlood flood-opacity="0" result="BackgroundImageFix"/>
<feColorMatrix in="SourceAlpha" type="matrix" values="0 0 0 0 0 0 0 0 0 0 0 0 0 0 0 0 0 0 127 0" result="hardAlpha"/>
<feOffset dy="1"/>
<feGaussianBlur stdDeviation="1.5"/>
<feComposite in2="hardAlpha" operator="out"/>
<feColorMatrix type="matrix" values="0 0 0 0 0 0 0 0 0 0 0 0 0 0 0 0 0 0 0.15 0"/>
<feBlend mode="normal" in2="BackgroundImageFix" result="effect1_dropShadow_1722_87460"/>
<feColorMatrix in="SourceAlpha" type="matrix" values="0 0 0 0 0 0 0 0 0 0 0 0 0 0 0 0 0 0 127 0" result="hardAlpha"/>
<feOffset dy="1"/>
<feGaussianBlur stdDeviation="1"/>
<feComposite in2="hardAlpha" operator="out"/>
<feColorMatrix type="matrix" values="0 0 0 0 0 0 0 0 0 0 0 0 0 0 0 0 0 0 0.3 0"/>
<feBlend mode="normal" in2="effect1_dropShadow_1722_87460" result="effect2_dropShadow_1722_87460"/>
<feBlend mode="normal" in="SourceGraphic" in2="effect2_dropShadow_1722_87460" result="shape"/>
</filter>
<linearGradient id="paint0_linear_1722_87460" x1="297.791" y1="171.724" x2="343.151" y2="189.852" gradientUnits="userSpaceOnUse">
<stop stop-color="#0066FF"/>
<stop offset="1" stop-color="#59C2C9"/>
</linearGradient>
<linearGradient id="paint1_linear_1722_87460" x1="269.07" y1="162.644" x2="368.011" y2="207.456" gradientUnits="userSpaceOnUse">
<stop stop-color="#0066FF"/>
<stop offset="1" stop-color="#59C2C9"/>
</linearGradient>
<clipPath id="clip0_1722_87460">
<rect width="520" height="233" fill="white"/>
</clipPath>
</defs>
</svg>
