<svg width="110" height="28" viewBox="0 0 110 28" fill="none" xmlns="http://www.w3.org/2000/svg">
<path d="M95.1655 0.5H14.1665C6.7104 0.5 0.666016 6.54438 0.666016 14.0005C0.666016 21.4566 6.7104 27.501 14.1665 27.501H95.1655C102.622 27.501 108.666 21.4566 108.666 14.0005C108.666 6.54438 102.622 0.5 95.1655 0.5Z" fill="#FFECB3"/>
<path d="M20.1417 19.4996V17.7076H15.5777V9.69959H13.7017V19.4996H20.1417ZM22.141 11.3936C22.729 11.3936 23.177 10.9736 23.177 10.4136C23.177 9.83959 22.729 9.43359 22.141 9.43359C21.553 9.43359 21.119 9.83959 21.119 10.4136C21.119 10.9736 21.553 11.3936 22.141 11.3936ZM23.023 19.4996V12.4016H21.259V19.4996H23.023ZM26.5503 19.4996V15.4816C26.5503 14.5996 27.1943 13.9416 28.0903 13.9416C28.9723 13.9416 29.5883 14.5856 29.5883 15.4816V19.4996H31.3523V15.2436C31.3523 13.4516 30.1763 12.2616 28.5523 12.2616C27.4883 12.2616 26.7883 12.7516 26.5223 13.0876H26.4523L26.3123 12.4016H24.7863V19.4996H26.5503ZM34.9055 19.4996V16.1816L37.6915 19.4996H39.7355L36.6695 15.8876L39.5955 12.4016H37.5515L34.9055 15.5936V9.69959H33.1415V19.4996H34.9055ZM45.5405 22.2996V18.7856H45.6105C45.9605 19.2336 46.6465 19.6396 47.6125 19.6396C49.4325 19.6396 50.9025 18.1556 50.9025 15.9576C50.9025 13.7596 49.4325 12.2616 47.6125 12.2616C46.6325 12.2616 45.9185 12.6676 45.5125 13.1996H45.4425L45.3025 12.4016H43.7765V22.2996H45.5405ZM47.3465 18.0156C46.3525 18.0156 45.5405 17.2176 45.5405 15.9576C45.5405 14.6836 46.3525 13.8996 47.3465 13.8996C48.3405 13.8996 49.1385 14.6836 49.1385 15.9576C49.1385 17.2176 48.3405 18.0156 47.3465 18.0156ZM55.5558 19.6396C57.4878 19.6396 58.5378 18.4076 58.8598 17.4276H57.0678C56.8438 17.7776 56.3118 18.1696 55.5558 18.1696C54.5758 18.1696 53.8058 17.4836 53.6938 16.5316H58.9858C59.0138 16.4196 59.0558 16.1396 59.0558 15.8036C59.0558 13.7736 57.5438 12.2616 55.5558 12.2616C53.4978 12.2616 51.9438 13.8156 51.9438 15.9576C51.9438 18.0856 53.4978 19.6396 55.5558 19.6396ZM53.6938 15.3556C53.8338 14.4316 54.5198 13.7176 55.5558 13.7176C56.5218 13.7176 57.2078 14.4316 57.3058 15.3556H53.6938ZM62.2065 19.4996V15.4816C62.2065 14.5996 62.8505 13.9416 63.7465 13.9416C64.6285 13.9416 65.2445 14.5856 65.2445 15.4816V19.4996H67.0085V15.2436C67.0085 13.4516 65.8325 12.2616 64.2085 12.2616C63.1445 12.2616 62.4445 12.7516 62.1785 13.0876H62.1085L61.9685 12.4016H60.4425V19.4996H62.2065ZM71.6397 19.6396C72.6477 19.6396 73.3477 19.2336 73.7677 18.7016H73.8377L73.9777 19.4996H75.4897V9.69959H73.7257V13.1436H73.6557C73.3057 12.6956 72.6057 12.2616 71.6397 12.2616C69.8197 12.2616 68.3637 13.7596 68.3637 15.9576C68.3637 18.1556 69.8197 19.6396 71.6397 19.6396ZM71.9337 18.0156C70.9397 18.0156 70.1277 17.2176 70.1277 15.9576C70.1277 14.6836 70.9397 13.8996 71.9337 13.8996C72.9277 13.8996 73.7257 14.6836 73.7257 15.9576C73.7257 17.2176 72.9277 18.0156 71.9337 18.0156ZM78.2093 11.3936C78.7973 11.3936 79.2453 10.9736 79.2453 10.4136C79.2453 9.83959 78.7973 9.43359 78.2093 9.43359C77.6213 9.43359 77.1873 9.83959 77.1873 10.4136C77.1873 10.9736 77.6213 11.3936 78.2093 11.3936ZM79.0913 19.4996V12.4016H77.3273V19.4996H79.0913ZM82.6187 19.4996V15.4816C82.6187 14.5996 83.2627 13.9416 84.1587 13.9416C85.0407 13.9416 85.6567 14.5856 85.6567 15.4816V19.4996H87.4207V15.2436C87.4207 13.4516 86.2447 12.2616 84.6207 12.2616C83.5567 12.2616 82.8567 12.7516 82.5907 13.0876H82.5207L82.3807 12.4016H80.8547V19.4996H82.6187ZM92.3458 22.4396C94.5018 22.4396 95.7758 21.1796 95.7758 19.3176V12.4016H94.2498L94.1098 13.1716H94.0398C93.6058 12.6396 92.9338 12.2616 91.9958 12.2616C90.1758 12.2616 88.7758 13.6616 88.7758 15.6776C88.7758 17.6936 90.1758 19.0936 91.9958 19.0936C92.8778 19.0936 93.5918 18.7156 93.9418 18.3236H94.0118V19.3036C94.0118 20.2696 93.3538 20.8996 92.3458 20.8996C91.2818 20.8996 90.8338 20.2836 90.7638 19.8356H88.9718C89.0138 20.8436 89.9378 22.4396 92.3458 22.4396ZM92.2758 17.5256C91.3098 17.5256 90.5398 16.7696 90.5398 15.6776C90.5398 14.5856 91.3098 13.8296 92.2758 13.8296C93.2418 13.8296 94.0118 14.5856 94.0118 15.6776C94.0118 16.7696 93.2418 17.5256 92.2758 17.5256Z" fill="#FFA000"/>
</svg>
