<svg width="462" height="100" viewBox="0 0 462 100" fill="none" xmlns="http://www.w3.org/2000/svg">
<path d="M5.04021 71.1805C2.61021 71.1805 0.720215 69.2905 0.720215 66.5005C0.720215 63.7105 2.61021 61.8205 5.04021 61.8205C7.47021 61.8205 9.36021 63.7105 9.36021 66.5005C9.36021 69.2905 7.47021 71.1805 5.04021 71.1805ZM5.04021 69.9205C6.66021 69.9205 8.01021 68.5705 8.01021 66.5005C8.01021 64.4305 6.66021 63.0805 5.04021 63.0805C3.42021 63.0805 2.07021 64.4305 2.07021 66.5005C2.07021 68.5705 3.42021 69.9205 5.04021 69.9205ZM12.6825 74.6005H11.3325V62.0005H12.5025L12.6825 63.2605H12.7725C13.4925 62.3605 14.3925 61.8205 15.6525 61.8205C17.9925 61.8205 19.7925 63.7105 19.7925 66.5005C19.7925 69.2905 17.9925 71.1805 15.6525 71.1805C14.3925 71.1805 13.4925 70.6405 12.7725 69.7405H12.6825V74.6005ZM15.5625 69.9205C17.0925 69.9205 18.4425 68.5705 18.4425 66.5005C18.4425 64.4305 17.0925 63.0805 15.5625 63.0805C14.0325 63.0805 12.6825 64.4305 12.6825 66.5005C12.6825 68.5705 14.0325 69.9205 15.5625 69.9205ZM25.5539 71.1805C23.1239 71.1805 21.2339 69.2905 21.2339 66.5005C21.2339 63.7105 23.1239 61.8205 25.5539 61.8205C27.8939 61.8205 29.6939 63.6205 29.6939 66.1405C29.6939 66.6625 29.6399 67.0225 29.6039 67.1305H22.5839C22.7639 68.8405 24.0419 69.9205 25.5539 69.9205C26.6339 69.9205 27.5339 69.3805 27.9839 68.4805H29.4239C28.7939 70.1905 27.4439 71.1805 25.5539 71.1805ZM22.5839 65.8705H28.3439C28.2539 64.2505 27.0839 63.0805 25.5539 63.0805C23.9339 63.0805 22.7639 64.2505 22.5839 65.8705ZM33.0204 71.0005H31.6704V62.0005H32.8404L33.0204 62.9005H33.1104C33.4704 62.3605 33.8304 62.0005 34.8204 62.0005H36.3504V63.2605H35.0004C33.7404 63.2605 33.0204 63.9805 33.0204 65.2405V71.0005ZM40.4018 71.1805C38.5118 71.1805 37.2518 70.0105 37.2518 68.3905C37.2518 66.6805 38.3318 65.5105 40.8518 65.5105H43.2818V65.2405C43.2818 63.8905 42.4718 63.0805 41.1218 63.0805C39.7718 63.0805 38.9618 63.8005 38.8718 64.6105H37.5218C37.6118 63.1705 38.8718 61.8205 41.1218 61.8205C43.2818 61.8205 44.6318 63.0805 44.6318 65.2405V71.0005H43.4618L43.2818 69.9205H43.1918C42.8498 70.4605 41.8418 71.1805 40.4018 71.1805ZM40.4018 69.9205C42.2018 69.9205 43.2818 68.8405 43.2818 67.1305V66.7705H40.8518C39.2318 66.7705 38.6018 67.4905 38.6018 68.3905C38.6018 69.2905 39.2318 69.9205 40.4018 69.9205ZM51.0309 71.0005H49.2309C48.2409 71.0005 47.6109 70.3705 47.6109 69.4705V63.2605H46.1709V62.0005H47.6109V59.4805H48.9609V62.0005H51.0309V63.2605H48.9609V69.2005C48.9609 69.5605 49.1409 69.7405 49.5009 69.7405H51.0309V71.0005ZM56.5265 71.1805C54.0965 71.1805 52.2065 69.2905 52.2065 66.5005C52.2065 63.7105 54.0965 61.8205 56.5265 61.8205C58.9565 61.8205 60.8465 63.7105 60.8465 66.5005C60.8465 69.2905 58.9565 71.1805 56.5265 71.1805ZM56.5265 69.9205C58.1465 69.9205 59.4965 68.5705 59.4965 66.5005C59.4965 64.4305 58.1465 63.0805 56.5265 63.0805C54.9065 63.0805 53.5565 64.4305 53.5565 66.5005C53.5565 68.5705 54.9065 69.9205 56.5265 69.9205ZM64.1688 71.0005H62.8188V62.0005H63.9888L64.1688 62.9005H64.2588C64.6188 62.3605 64.9788 62.0005 65.9688 62.0005H67.4988V63.2605H66.1488C64.8888 63.2605 64.1688 63.9805 64.1688 65.2405V71.0005ZM70.286 71.0005H68.936V62.0005H70.106L70.286 62.9905H70.376C70.772 62.4865 71.762 61.8205 73.076 61.8205C75.146 61.8205 76.676 63.3505 76.676 65.6005V71.0005H75.326V65.6005C75.326 64.1605 74.246 63.0805 72.896 63.0805C71.456 63.0805 70.286 64.2505 70.286 65.6005V71.0005ZM81.9916 71.1805C80.1016 71.1805 78.8416 70.0105 78.8416 68.3905C78.8416 66.6805 79.9216 65.5105 82.4416 65.5105H84.8716V65.2405C84.8716 63.8905 84.0616 63.0805 82.7116 63.0805C81.3616 63.0805 80.5516 63.8005 80.4616 64.6105H79.1116C79.2016 63.1705 80.4616 61.8205 82.7116 61.8205C84.8716 61.8205 86.2216 63.0805 86.2216 65.2405V71.0005H85.0516L84.8716 69.9205H84.7816C84.4396 70.4605 83.4316 71.1805 81.9916 71.1805ZM81.9916 69.9205C83.7916 69.9205 84.8716 68.8405 84.8716 67.1305V66.7705H82.4416C80.8216 66.7705 80.1916 67.4905 80.1916 68.3905C80.1916 69.2905 80.8216 69.9205 81.9916 69.9205ZM90.0965 71.0005H88.7465V62.0005H89.9165L90.0965 62.9905H90.1865C90.5825 62.4865 91.4825 61.8205 92.5265 61.8205C93.9125 61.8205 94.8305 62.6845 95.1365 63.3505H95.2265C95.6585 62.6845 96.7565 61.8205 98.1965 61.8205C100.086 61.8205 101.436 63.2605 101.436 65.3305V71.0005H100.086V65.3305C100.086 63.9805 99.2765 63.0805 98.0165 63.0805C96.8465 63.0805 95.7665 64.0705 95.7665 65.3305V71.0005H94.4165V65.3305C94.4165 63.9805 93.6065 63.0805 92.3465 63.0805C91.1765 63.0805 90.0965 64.0705 90.0965 65.3305V71.0005ZM107.731 71.1805C105.301 71.1805 103.411 69.2905 103.411 66.5005C103.411 63.7105 105.301 61.8205 107.731 61.8205C110.071 61.8205 111.871 63.6205 111.871 66.1405C111.871 66.6625 111.817 67.0225 111.781 67.1305H104.761C104.941 68.8405 106.219 69.9205 107.731 69.9205C108.811 69.9205 109.711 69.3805 110.161 68.4805H111.601C110.971 70.1905 109.621 71.1805 107.731 71.1805ZM104.761 65.8705H110.521C110.431 64.2505 109.261 63.0805 107.731 63.0805C106.111 63.0805 104.941 64.2505 104.761 65.8705Z" fill="#0066FF"/>
<mask id="mask0_1717_84774" style="mask-type:luminance" maskUnits="userSpaceOnUse" x="145" y="44" width="41" height="40">
<path d="M185.6 64C185.6 52.9543 176.646 44 165.6 44C154.554 44 145.6 52.9543 145.6 64C145.6 75.0457 154.554 84 165.6 84C176.646 84 185.6 75.0457 185.6 64Z" fill="white"/>
</mask>
<g mask="url(#mask0_1717_84774)">
<path d="M185.6 44H145.6V84H185.6V44Z" fill="#D1D5E4" fill-opacity="0.1"/>
<path d="M169.844 59.7584H173.987C174.791 59.7584 175.446 60.4139 175.443 61.2178V72.3831C175.443 73.187 174.788 73.8425 173.984 73.8425H162.821C162.018 73.8425 161.362 73.187 161.362 72.3831V68.2402H157.272C156.441 68.2402 155.763 67.5623 155.763 66.7304V55.666C155.763 54.8341 156.441 54.1562 157.272 54.1562H168.334C169.166 54.1562 169.844 54.8341 169.844 55.666V59.7584ZM157.034 55.6632V66.7276C157.034 66.8593 157.138 66.9629 157.27 66.9629H168.331C168.46 66.9629 168.567 66.8565 168.567 66.7276V55.6632C168.567 55.5343 168.46 55.4279 168.331 55.4279H157.27C157.141 55.4279 157.034 55.5343 157.034 55.6632Z" fill="#0066FF"/>
</g>
<path d="M178.848 97.5984H171.045C170.655 97.5984 170.394 97.3424 170.394 96.9584C170.394 95.9984 169.939 95.4224 169.224 94.5264C168.834 94.0784 168.378 93.5024 167.923 92.7984C166.688 90.8784 165.582 88.5744 165.322 87.7424C165.062 86.9104 165.257 86.3344 165.517 86.0144C165.777 85.6304 166.298 85.4384 166.883 85.4384C167.663 85.4384 168.443 86.0784 169.159 86.9104V80.3184C169.159 79.2304 170.004 78.3984 171.11 78.3984C172.215 78.3984 173.061 79.2304 173.061 80.3184V83.0064C173.256 82.9424 173.451 82.8784 173.711 82.8784C174.426 82.8784 175.012 83.2624 175.337 83.7744C175.597 83.5824 175.922 83.5184 176.247 83.5184C177.158 83.5184 177.873 84.0944 178.133 84.9264C178.328 84.8624 178.588 84.7984 178.848 84.7984C179.954 84.7984 180.799 85.6304 180.799 86.7184V88.6384C180.799 90.3024 180.474 91.6464 180.149 92.9264C179.824 94.2064 179.499 95.4224 179.499 96.9584C179.499 97.3424 179.238 97.5984 178.848 97.5984Z" fill="#FEFEFF"/>
<path fill-rule="evenodd" clip-rule="evenodd" d="M171.045 97.5984H178.848C179.238 97.5984 179.499 97.3424 179.499 96.9584C179.499 95.4816 179.799 94.3005 180.111 93.074C180.124 93.0249 180.136 92.9757 180.149 92.9264C180.474 91.6464 180.799 90.3024 180.799 88.6384V86.7184C180.799 85.6304 179.954 84.7984 178.848 84.7984C178.588 84.7984 178.328 84.8624 178.133 84.9264C177.873 84.0944 177.158 83.5184 176.247 83.5184C175.922 83.5184 175.597 83.5824 175.337 83.7744C175.012 83.2624 174.426 82.8784 173.711 82.8784C173.451 82.8784 173.256 82.9424 173.061 83.0064V80.3184C173.061 79.2304 172.215 78.3984 171.11 78.3984C170.004 78.3984 169.159 79.2304 169.159 80.3184V86.9104C168.443 86.0784 167.663 85.4384 166.883 85.4384C166.298 85.4384 165.777 85.6304 165.517 86.0144C165.257 86.3344 165.062 86.9104 165.322 87.7424C165.582 88.5744 166.688 90.8784 167.923 92.7984C168.378 93.5024 168.834 94.0784 169.224 94.5264C169.939 95.4224 170.394 95.9984 170.394 96.9584C170.394 97.3424 170.655 97.5984 171.045 97.5984ZM178.198 96.3184H171.63C171.5 95.2304 170.85 94.5264 170.134 93.7584C170.037 93.6304 169.939 93.5064 169.842 93.3824C169.549 93.0104 169.256 92.6384 168.964 92.1584C167.663 90.1104 166.688 88.0624 166.493 87.3584C166.428 87.0384 166.428 86.8464 166.493 86.7824C166.558 86.7184 166.688 86.7184 166.818 86.7184C167.273 86.7184 168.508 87.9344 169.094 89.4064V89.9184C169.094 90.3024 169.354 90.5584 169.744 90.5584C170.134 90.5584 170.394 90.3024 170.394 89.9184V80.3184C170.394 79.9344 170.654 79.6784 171.045 79.6784C171.435 79.6784 171.695 79.9344 171.695 80.3184V86.0784C171.695 86.4624 171.955 86.7184 172.345 86.7184C172.735 86.7184 172.996 86.4624 172.996 86.0784V84.7984C172.996 84.4144 173.256 84.1584 173.646 84.1584C174.036 84.1584 174.296 84.4144 174.296 84.7984V86.7184C174.296 87.1024 174.556 87.3584 174.946 87.3584C175.337 87.3584 175.597 87.1024 175.597 86.7184V85.4384C175.597 85.0544 175.857 84.7984 176.247 84.7984C176.637 84.7984 176.897 85.0544 176.897 85.4384V87.3584C176.897 87.7424 177.157 87.9984 177.548 87.9984C177.938 87.9984 178.198 87.7424 178.198 87.3584V86.7184C178.198 86.3344 178.458 86.0784 178.848 86.0784C179.238 86.0784 179.499 86.3344 179.499 86.7184V88.6384C179.499 90.0514 179.199 91.2286 178.887 92.4528C178.874 92.5039 178.861 92.5551 178.848 92.6064C178.804 92.8008 178.759 92.9952 178.713 93.1908C178.486 94.1545 178.252 95.148 178.198 96.3184Z" fill="#031A34"/>
<path d="M278.54 72.1805C276.11 72.1805 274.22 70.2905 274.22 67.5005C274.22 64.7105 276.11 62.8205 278.54 62.8205C280.97 62.8205 282.86 64.7105 282.86 67.5005C282.86 70.2905 280.97 72.1805 278.54 72.1805ZM278.54 70.9205C280.16 70.9205 281.51 69.5705 281.51 67.5005C281.51 65.4305 280.16 64.0805 278.54 64.0805C276.92 64.0805 275.57 65.4305 275.57 67.5005C275.57 69.5705 276.92 70.9205 278.54 70.9205ZM286.183 75.6005H284.833V63.0005H286.003L286.183 64.2605H286.273C286.993 63.3605 287.893 62.8205 289.153 62.8205C291.493 62.8205 293.293 64.7105 293.293 67.5005C293.293 70.2905 291.493 72.1805 289.153 72.1805C287.893 72.1805 286.993 71.6405 286.273 70.7405H286.183V75.6005ZM289.063 70.9205C290.593 70.9205 291.943 69.5705 291.943 67.5005C291.943 65.4305 290.593 64.0805 289.063 64.0805C287.533 64.0805 286.183 65.4305 286.183 67.5005C286.183 69.5705 287.533 70.9205 289.063 70.9205ZM299.054 72.1805C296.624 72.1805 294.734 70.2905 294.734 67.5005C294.734 64.7105 296.624 62.8205 299.054 62.8205C301.394 62.8205 303.194 64.6205 303.194 67.1405C303.194 67.6625 303.14 68.0225 303.104 68.1305H296.084C296.264 69.8405 297.542 70.9205 299.054 70.9205C300.134 70.9205 301.034 70.3805 301.484 69.4805H302.924C302.294 71.1905 300.944 72.1805 299.054 72.1805ZM296.084 66.8705H301.844C301.754 65.2505 300.584 64.0805 299.054 64.0805C297.434 64.0805 296.264 65.2505 296.084 66.8705ZM306.52 72.0005H305.17V63.0005H306.34L306.52 63.9005H306.61C306.97 63.3605 307.33 63.0005 308.32 63.0005H309.85V64.2605H308.5C307.24 64.2605 306.52 64.9805 306.52 66.2405V72.0005ZM313.902 72.1805C312.012 72.1805 310.752 71.0105 310.752 69.3905C310.752 67.6805 311.832 66.5105 314.352 66.5105H316.782V66.2405C316.782 64.8905 315.972 64.0805 314.622 64.0805C313.272 64.0805 312.462 64.8005 312.372 65.6105H311.022C311.112 64.1705 312.372 62.8205 314.622 62.8205C316.782 62.8205 318.132 64.0805 318.132 66.2405V72.0005H316.962L316.782 70.9205H316.692C316.35 71.4605 315.342 72.1805 313.902 72.1805ZM313.902 70.9205C315.702 70.9205 316.782 69.8405 316.782 68.1305V67.7705H314.352C312.732 67.7705 312.102 68.4905 312.102 69.3905C312.102 70.2905 312.732 70.9205 313.902 70.9205ZM324.531 72.0005H322.731C321.741 72.0005 321.111 71.3705 321.111 70.4705V64.2605H319.671V63.0005H321.111V60.4805H322.461V63.0005H324.531V64.2605H322.461V70.2005C322.461 70.5605 322.641 70.7405 323.001 70.7405H324.531V72.0005ZM330.026 72.1805C327.596 72.1805 325.706 70.2905 325.706 67.5005C325.706 64.7105 327.596 62.8205 330.026 62.8205C332.456 62.8205 334.346 64.7105 334.346 67.5005C334.346 70.2905 332.456 72.1805 330.026 72.1805ZM330.026 70.9205C331.646 70.9205 332.996 69.5705 332.996 67.5005C332.996 65.4305 331.646 64.0805 330.026 64.0805C328.406 64.0805 327.056 65.4305 327.056 67.5005C327.056 69.5705 328.406 70.9205 330.026 70.9205ZM337.669 72.0005H336.319V63.0005H337.489L337.669 63.9005H337.759C338.119 63.3605 338.479 63.0005 339.469 63.0005H340.999V64.2605H339.649C338.389 64.2605 337.669 64.9805 337.669 66.2405V72.0005ZM343.786 72.0005H342.436V63.0005H343.606L343.786 63.9905H343.876C344.272 63.4865 345.262 62.8205 346.576 62.8205C348.646 62.8205 350.176 64.3505 350.176 66.6005V72.0005H348.826V66.6005C348.826 65.1605 347.746 64.0805 346.396 64.0805C344.956 64.0805 343.786 65.2505 343.786 66.6005V72.0005ZM355.491 72.1805C353.601 72.1805 352.341 71.0105 352.341 69.3905C352.341 67.6805 353.421 66.5105 355.941 66.5105H358.371V66.2405C358.371 64.8905 357.561 64.0805 356.211 64.0805C354.861 64.0805 354.051 64.8005 353.961 65.6105H352.611C352.701 64.1705 353.961 62.8205 356.211 62.8205C358.371 62.8205 359.721 64.0805 359.721 66.2405V72.0005H358.551L358.371 70.9205H358.281C357.939 71.4605 356.931 72.1805 355.491 72.1805ZM355.491 70.9205C357.291 70.9205 358.371 69.8405 358.371 68.1305V67.7705H355.941C354.321 67.7705 353.691 68.4905 353.691 69.3905C353.691 70.2905 354.321 70.9205 355.491 70.9205ZM363.596 72.0005H362.246V63.0005H363.416L363.596 63.9905H363.686C364.082 63.4865 364.982 62.8205 366.026 62.8205C367.412 62.8205 368.33 63.6845 368.636 64.3505H368.726C369.158 63.6845 370.256 62.8205 371.696 62.8205C373.586 62.8205 374.936 64.2605 374.936 66.3305V72.0005H373.586V66.3305C373.586 64.9805 372.776 64.0805 371.516 64.0805C370.346 64.0805 369.266 65.0705 369.266 66.3305V72.0005H367.916V66.3305C367.916 64.9805 367.106 64.0805 365.846 64.0805C364.676 64.0805 363.596 65.0705 363.596 66.3305V72.0005ZM381.231 72.1805C378.801 72.1805 376.911 70.2905 376.911 67.5005C376.911 64.7105 378.801 62.8205 381.231 62.8205C383.571 62.8205 385.371 64.6205 385.371 67.1405C385.371 67.6625 385.317 68.0225 385.281 68.1305H378.261C378.441 69.8405 379.719 70.9205 381.231 70.9205C382.311 70.9205 383.211 70.3805 383.661 69.4805H385.101C384.471 71.1905 383.121 72.1805 381.231 72.1805ZM378.261 66.8705H384.021C383.931 65.2505 382.761 64.0805 381.231 64.0805C379.611 64.0805 378.441 65.2505 378.261 66.8705Z" fill="#F2F4FF"/>
<g filter="url(#filter0_dd_1717_84774)">
<path d="M447.5 3.5H283.5C279.082 3.5 275.5 7.08172 275.5 11.5V36.501C275.5 40.9193 279.082 44.501 283.5 44.501H447.5C451.918 44.501 455.5 40.9193 455.5 36.501V11.5C455.5 7.08172 451.918 3.5 447.5 3.5Z" fill="#2D3039"/>
<path d="M289.66 29.6606C286.7 29.6606 284.3 27.3406 284.3 23.9006C284.3 20.4606 286.7 18.1406 289.66 18.1406C292.62 18.1406 295.02 20.4606 295.02 23.9006C295.02 27.3406 292.62 29.6606 289.66 29.6606ZM289.66 28.4606C291.9 28.4606 293.74 26.6206 293.74 23.9006C293.74 21.1806 291.9 19.3406 289.66 19.3406C287.42 19.3406 285.58 21.1806 285.58 23.9006C285.58 26.6206 287.42 28.4606 289.66 28.4606ZM298.132 32.7006H296.932V21.5006H297.972L298.132 22.6206H298.212C298.852 21.8206 299.652 21.3406 300.772 21.3406C302.853 21.3406 304.453 23.0206 304.453 25.5006C304.453 27.9806 302.853 29.6606 300.772 29.6606C299.652 29.6606 298.852 29.1806 298.212 28.3806H298.132V32.7006ZM300.692 28.5406C302.053 28.5406 303.253 27.3406 303.253 25.5006C303.253 23.6606 302.053 22.4606 300.692 22.4606C299.332 22.4606 298.132 23.6606 298.132 25.5006C298.132 27.3406 299.332 28.5406 300.692 28.5406ZM309.574 29.6606C307.414 29.6606 305.734 27.9806 305.734 25.5006C305.734 23.0206 307.414 21.3406 309.574 21.3406C311.654 21.3406 313.254 22.9406 313.254 25.1806C313.254 25.6446 313.206 25.9646 313.174 26.0606H306.934C307.094 27.5806 308.23 28.5406 309.574 28.5406C310.534 28.5406 311.334 28.0606 311.734 27.2606H313.014C312.454 28.7806 311.254 29.6606 309.574 29.6606ZM306.934 24.9406H312.054C311.974 23.5006 310.934 22.4606 309.574 22.4606C308.134 22.4606 307.094 23.5006 306.934 24.9406ZM316.211 29.5006H315.011V21.5006H316.051L316.211 22.3006H316.291C316.611 21.8206 316.931 21.5006 317.811 21.5006H319.171V22.6206H317.971C316.851 22.6206 316.211 23.2606 316.211 24.3806V29.5006ZM322.772 29.6606C321.092 29.6606 319.972 28.6206 319.972 27.1806C319.972 25.6606 320.932 24.6206 323.172 24.6206H325.332V24.3806C325.332 23.1806 324.612 22.4606 323.412 22.4606C322.212 22.4606 321.492 23.1006 321.412 23.8206H320.212C320.292 22.5406 321.412 21.3406 323.412 21.3406C325.332 21.3406 326.532 22.4606 326.532 24.3806V29.5006H325.492L325.332 28.5406H325.252C324.948 29.0206 324.052 29.6606 322.772 29.6606ZM322.772 28.5406C324.372 28.5406 325.332 27.5806 325.332 26.0606V25.7406H323.172C321.732 25.7406 321.172 26.3806 321.172 27.1806C321.172 27.9806 321.732 28.5406 322.772 28.5406ZM332.22 29.5006H330.62C329.74 29.5006 329.18 28.9406 329.18 28.1406V22.6206H327.9V21.5006H329.18V19.2606H330.38V21.5006H332.22V22.6206H330.38V27.9006C330.38 28.2206 330.54 28.3806 330.86 28.3806H332.22V29.5006ZM337.105 29.6606C334.945 29.6606 333.265 27.9806 333.265 25.5006C333.265 23.0206 334.945 21.3406 337.105 21.3406C339.265 21.3406 340.945 23.0206 340.945 25.5006C340.945 27.9806 339.265 29.6606 337.105 29.6606ZM337.105 28.5406C338.545 28.5406 339.745 27.3406 339.745 25.5006C339.745 23.6606 338.545 22.4606 337.105 22.4606C335.665 22.4606 334.465 23.6606 334.465 25.5006C334.465 27.3406 335.665 28.5406 337.105 28.5406ZM343.898 29.5006H342.698V21.5006H343.738L343.898 22.3006H343.978C344.298 21.8206 344.618 21.5006 345.498 21.5006H346.858V22.6206H345.658C344.538 22.6206 343.898 23.2606 343.898 24.3806V29.5006ZM352.711 29.5006H351.511V21.5006H352.551L352.711 22.3806H352.791C353.143 21.9326 354.023 21.3406 355.191 21.3406C357.031 21.3406 358.391 22.7006 358.391 24.7006V29.5006H357.191V24.7006C357.191 23.4206 356.231 22.4606 355.031 22.4606C353.751 22.4606 352.711 23.5006 352.711 24.7006V29.5006ZM363.116 29.6606C361.436 29.6606 360.316 28.6206 360.316 27.1806C360.316 25.6606 361.276 24.6206 363.516 24.6206H365.676V24.3806C365.676 23.1806 364.956 22.4606 363.756 22.4606C362.556 22.4606 361.836 23.1006 361.756 23.8206H360.556C360.636 22.5406 361.756 21.3406 363.756 21.3406C365.676 21.3406 366.876 22.4606 366.876 24.3806V29.5006H365.836L365.676 28.5406H365.596C365.292 29.0206 364.396 29.6606 363.116 29.6606ZM363.116 28.5406C364.716 28.5406 365.676 27.5806 365.676 26.0606V25.7406H363.516C362.076 25.7406 361.516 26.3806 361.516 27.1806C361.516 27.9806 362.076 28.5406 363.116 28.5406ZM370.32 29.5006H369.12V21.5006H370.16L370.32 22.3806H370.4C370.752 21.9326 371.552 21.3406 372.48 21.3406C373.712 21.3406 374.528 22.1086 374.8 22.7006H374.88C375.264 22.1086 376.24 21.3406 377.52 21.3406C379.2 21.3406 380.4 22.6206 380.4 24.4606V29.5006H379.2V24.4606C379.2 23.2606 378.48 22.4606 377.36 22.4606C376.32 22.4606 375.36 23.3406 375.36 24.4606V29.5006H374.16V24.4606C374.16 23.2606 373.44 22.4606 372.32 22.4606C371.28 22.4606 370.32 23.3406 370.32 24.4606V29.5006ZM385.996 29.6606C383.836 29.6606 382.156 27.9806 382.156 25.5006C382.156 23.0206 383.836 21.3406 385.996 21.3406C388.076 21.3406 389.676 22.9406 389.676 25.1806C389.676 25.6446 389.628 25.9646 389.596 26.0606H383.356C383.516 27.5806 384.652 28.5406 385.996 28.5406C386.956 28.5406 387.756 28.0606 388.156 27.2606H389.436C388.876 28.7806 387.676 29.6606 385.996 29.6606ZM383.356 24.9406H388.476C388.396 23.5006 387.356 22.4606 385.996 22.4606C384.556 22.4606 383.516 23.5006 383.356 24.9406ZM398.48 29.6606C396.32 29.6606 394.64 27.9806 394.64 25.5006C394.64 23.0206 396.32 21.3406 398.48 21.3406C400.24 21.3406 401.6 22.3806 402 24.0606H400.8C400.48 23.0206 399.6 22.4606 398.48 22.4606C397.04 22.4606 395.84 23.6606 395.84 25.5006C395.84 27.3406 397.04 28.5406 398.48 28.5406C399.6 28.5406 400.48 27.9806 400.8 26.8606H402C401.6 28.6206 400.24 29.6606 398.48 29.6606ZM407.043 29.6606C404.883 29.6606 403.203 27.9806 403.203 25.5006C403.203 23.0206 404.883 21.3406 407.043 21.3406C409.203 21.3406 410.883 23.0206 410.883 25.5006C410.883 27.9806 409.203 29.6606 407.043 29.6606ZM407.043 28.5406C408.483 28.5406 409.683 27.3406 409.683 25.5006C409.683 23.6606 408.483 22.4606 407.043 22.4606C405.603 22.4606 404.403 23.6606 404.403 25.5006C404.403 27.3406 405.603 28.5406 407.043 28.5406ZM413.836 32.7006H412.636V21.5006H413.676L413.836 22.6206H413.916C414.556 21.8206 415.356 21.3406 416.476 21.3406C418.556 21.3406 420.156 23.0206 420.156 25.5006C420.156 27.9806 418.556 29.6606 416.476 29.6606C415.356 29.6606 414.556 29.1806 413.916 28.3806H413.836V32.7006ZM416.396 28.5406C417.756 28.5406 418.956 27.3406 418.956 25.5006C418.956 23.6606 417.756 22.4606 416.396 22.4606C415.036 22.4606 413.836 23.6606 413.836 25.5006C413.836 27.3406 415.036 28.5406 416.396 28.5406ZM422.525 19.9326C422.045 19.9326 421.725 19.6126 421.725 19.1326C421.725 18.6526 422.045 18.3326 422.525 18.3326C423.005 18.3326 423.325 18.6526 423.325 19.1326C423.325 19.6126 423.005 19.9326 422.525 19.9326ZM423.117 29.5006H421.917V21.5006H423.117V29.5006ZM428.714 29.6606C426.554 29.6606 424.874 27.9806 424.874 25.5006C424.874 23.0206 426.554 21.3406 428.714 21.3406C430.794 21.3406 432.394 22.9406 432.394 25.1806C432.394 25.6446 432.346 25.9646 432.314 26.0606H426.074C426.234 27.5806 427.37 28.5406 428.714 28.5406C429.674 28.5406 430.474 28.0606 430.874 27.2606H432.154C431.594 28.7806 430.394 29.6606 428.714 29.6606ZM426.074 24.9406H431.194C431.114 23.5006 430.074 22.4606 428.714 22.4606C427.274 22.4606 426.234 23.5006 426.074 24.9406ZM437.351 29.6606C435.271 29.6606 433.671 27.9806 433.671 25.5006C433.671 23.0206 435.271 21.3406 437.351 21.3406C438.471 21.3406 439.271 21.8206 439.911 22.6206H439.991V18.3006H441.191V29.5006H440.151L439.991 28.3806H439.911C439.271 29.1806 438.471 29.6606 437.351 29.6606ZM437.431 28.5406C438.791 28.5406 439.991 27.3406 439.991 25.5006C439.991 23.6606 438.791 22.4606 437.431 22.4606C436.071 22.4606 434.871 23.6606 434.871 25.5006C434.871 27.3406 436.071 28.5406 437.431 28.5406ZM444.951 26.9406H443.991L443.831 23.1006V18.3006H445.111V23.1006L444.951 26.9406ZM444.471 29.5806C443.991 29.5806 443.671 29.2606 443.671 28.7806C443.671 28.3006 443.991 27.9806 444.471 27.9806C444.951 27.9806 445.271 28.3006 445.271 28.7806C445.271 29.2606 444.951 29.5806 444.471 29.5806Z" fill="#F2F4FF"/>
<mask id="mask1_1717_84774" style="mask-type:luminance" maskUnits="userSpaceOnUse" x="351" y="43" width="28" height="17">
<path d="M351 43.5H379V59.5H351V43.5Z" fill="white"/>
</mask>
<g mask="url(#mask1_1717_84774)">
<path d="M357.722 43H372.278L366.061 49.2175C365.475 49.8033 364.525 49.8033 363.939 49.2175L357.722 43Z" fill="#2D3039" stroke="#6E7894"/>
</g>
<path d="M447.5 4H283.5C279.358 4 276 7.35786 276 11.5V36.501C276 40.6431 279.358 44.001 283.5 44.001H447.5C451.642 44.001 455 40.6431 455 36.501V11.5C455 7.35786 451.642 4 447.5 4Z" stroke="#242424"/>
</g>
<defs>
<filter id="filter0_dd_1717_84774" x="272.5" y="1.5" width="186" height="52.6562" filterUnits="userSpaceOnUse" color-interpolation-filters="sRGB">
<feFlood flood-opacity="0" result="BackgroundImageFix"/>
<feColorMatrix in="SourceAlpha" type="matrix" values="0 0 0 0 0 0 0 0 0 0 0 0 0 0 0 0 0 0 127 0" result="hardAlpha"/>
<feOffset dy="1"/>
<feGaussianBlur stdDeviation="1"/>
<feComposite in2="hardAlpha" operator="out"/>
<feColorMatrix type="matrix" values="0 0 0 0 0.431373 0 0 0 0 0.470588 0 0 0 0 0.580392 0 0 0 0.3 0"/>
<feBlend mode="normal" in2="BackgroundImageFix" result="effect1_dropShadow_1717_84774"/>
<feColorMatrix in="SourceAlpha" type="matrix" values="0 0 0 0 0 0 0 0 0 0 0 0 0 0 0 0 0 0 127 0" result="hardAlpha"/>
<feOffset dy="1"/>
<feGaussianBlur stdDeviation="1.5"/>
<feComposite in2="hardAlpha" operator="out"/>
<feColorMatrix type="matrix" values="0 0 0 0 0.431373 0 0 0 0 0.470588 0 0 0 0 0.580392 0 0 0 0.15 0"/>
<feBlend mode="normal" in2="effect1_dropShadow_1717_84774" result="effect2_dropShadow_1717_84774"/>
<feBlend mode="normal" in="SourceGraphic" in2="effect2_dropShadow_1717_84774" result="shape"/>
</filter>
</defs>
</svg>
