<svg width="110" height="28" viewBox="0 0 110 28" fill="none" xmlns="http://www.w3.org/2000/svg">
<path d="M75.4995 0.5H34.5005C27.0444 0.5 21 6.54438 21 14.0005C21 21.4566 27.0444 27.501 34.5005 27.501H75.4995C82.9556 27.501 89 21.4566 89 14.0005C89 6.54438 82.9556 0.5 75.4995 0.5Z" fill="#C8E6C9"/>
<path d="M40.44 19.4996H34V9.69959H35.876V17.7076H40.44V19.4996ZM42.4392 11.3936C41.8512 11.3936 41.4172 10.9736 41.4172 10.4136C41.4172 9.83959 41.8512 9.43359 42.4392 9.43359C43.0272 9.43359 43.4752 9.83959 43.4752 10.4136C43.4752 10.9736 43.0272 11.3936 42.4392 11.3936ZM43.3212 19.4996H41.5572V12.4016H43.3212V19.4996ZM46.8486 19.4996H45.0846V12.4016H46.6106L46.7506 13.0876H46.8206C47.0866 12.7516 47.7866 12.2616 48.8506 12.2616C50.4746 12.2616 51.6506 13.4516 51.6506 15.2436V19.4996H49.8866V15.4816C49.8866 14.5856 49.2706 13.9416 48.3886 13.9416C47.4926 13.9416 46.8486 14.5996 46.8486 15.4816V19.4996ZM55.2037 19.4996H53.4397V9.69959H55.2037V15.5936L57.8497 12.4016H59.8937L56.9677 15.8876L60.0337 19.4996H57.9897L55.2037 16.1816V19.4996ZM63.7271 19.6396C61.6691 19.6396 60.1151 18.0856 60.1151 15.9576C60.1151 13.8156 61.6691 12.2616 63.7271 12.2616C65.7151 12.2616 67.2271 13.7736 67.2271 15.8036C67.2271 16.1396 67.1851 16.4196 67.1571 16.5316H61.8651C61.9771 17.4836 62.7471 18.1696 63.7271 18.1696C64.4831 18.1696 65.0151 17.7776 65.2391 17.4276H67.0311C66.7091 18.4076 65.6591 19.6396 63.7271 19.6396ZM61.8651 15.3556H65.4771C65.3791 14.4316 64.6931 13.7176 63.7271 13.7176C62.6911 13.7176 62.0051 14.4316 61.8651 15.3556ZM71.5259 19.6396C69.7059 19.6396 68.2499 18.1556 68.2499 15.9576C68.2499 13.7596 69.7059 12.2616 71.5259 12.2616C72.4919 12.2616 73.1919 12.6956 73.5419 13.1436H73.6119V9.69959H75.3759V19.4996H73.8639L73.7239 18.7016H73.6539C73.2339 19.2336 72.5339 19.6396 71.5259 19.6396ZM71.8199 18.0156C72.8139 18.0156 73.6119 17.2176 73.6119 15.9576C73.6119 14.6836 72.8139 13.8996 71.8199 13.8996C70.8259 13.8996 70.0139 14.6836 70.0139 15.9576C70.0139 17.2176 70.8259 18.0156 71.8199 18.0156Z" fill="#388E3C"/>
</svg>
