<svg width="560" height="104" viewBox="0 0 560 104" fill="none" xmlns="http://www.w3.org/2000/svg">
<g filter="url(#filter0_dd_1661_87974)">
<path d="M536 6H24C15.1634 6 8 13.1634 8 22V78C8 86.8366 15.1634 94 24 94H536C544.837 94 552 86.8366 552 78V22C552 13.1634 544.837 6 536 6Z" fill="#FEFEFF"/>
<path d="M536 6.5H24C15.4396 6.5 8.5 13.4396 8.5 22V78C8.5 86.5604 15.4396 93.5 24 93.5H536C544.56 93.5 551.5 86.5604 551.5 78V22C551.5 13.4396 544.56 6.5 536 6.5Z" stroke="#D1D5E4"/>
</g>
<path d="M46.8859 60.628C47.0331 60.3936 47.0363 60.0997 46.9047 59.8372L36.5824 39.4533C36.4383 39.1688 36.1782 39 35.8868 39C35.5953 39 35.3352 39.1719 35.1942 39.4564L25.0914 59.8372C24.9597 60.0997 24.9723 60.3936 25.1164 60.6249C25.2606 60.8562 25.5269 61 25.8246 61H46.1776C46.4753 61 46.7386 60.8625 46.8859 60.628ZM35.3791 57.3115C35.3791 56.9176 35.6047 56.6925 35.9996 56.6925C36.3944 56.6925 36.62 56.9176 36.62 57.3115C36.62 57.7053 36.3913 57.9304 35.9996 57.9304C35.6079 57.9304 35.3791 57.7053 35.3791 57.3115ZM36.6294 54.9483C36.6294 55.289 36.3537 55.5641 36.0121 55.5641C35.6705 55.5641 35.3948 55.289 35.3948 54.9483V46.3396C35.3948 45.9989 35.6705 45.7238 36.0121 45.7238C36.3537 45.7238 36.6294 45.9989 36.6294 46.3396V54.9483Z" fill="#F44336"/>
<path d="M77.7399 43.0011L72.7599 29.0011H68.8999L63.9399 43.0011H66.8399L67.8799 39.9411H73.7999L74.8399 43.0011H77.7399ZM70.6399 31.8411H71.0399L72.9799 37.5611H68.6999L70.6399 31.8411ZM81.5322 43.0011V29.0011H79.0122V43.0011H81.5322ZM88.7866 43.2011C91.5466 43.2011 93.0466 41.4411 93.5066 40.0411H90.9466C90.6266 40.5411 89.8666 41.1011 88.7866 41.1011C87.3866 41.1011 86.2866 40.1211 86.1266 38.7611H93.6866C93.7266 38.6011 93.7866 38.2011 93.7866 37.7211C93.7866 34.8211 91.6266 32.6611 88.7866 32.6611C85.8466 32.6611 83.6266 34.8811 83.6266 37.9411C83.6266 40.9811 85.8466 43.2011 88.7866 43.2011ZM86.1266 37.0811C86.3266 35.7611 87.3066 34.7411 88.7866 34.7411C90.1666 34.7411 91.1466 35.7611 91.2866 37.0811H86.1266ZM98.2877 43.0011V37.2211C98.2877 35.9011 98.9477 35.2411 100.228 35.2411H101.928V32.8611H100.068C99.1277 32.8611 98.5477 33.2611 98.2477 33.7411H98.1477L97.9477 32.8611H95.7677V43.0011H98.2877ZM109.104 43.0011V40.7211H107.464C107.004 40.7211 106.804 40.5211 106.804 40.0611V35.2411H109.104V32.8611H106.804V29.8211H104.284V32.8611H102.684V35.2411H104.284V40.5811C104.284 42.0811 105.204 43.0011 106.864 43.0011H109.104ZM121.272 43.0011V40.7211H119.632C119.172 40.7211 118.972 40.5211 118.972 40.0611V35.2411H121.272V32.8611H118.972V29.8211H116.452V32.8611H114.852V35.2411H116.452V40.5811C116.452 42.0811 117.372 43.0011 119.032 43.0011H121.272ZM124.684 31.4211C125.524 31.4211 126.164 30.8211 126.164 30.0211C126.164 29.2011 125.524 28.6211 124.684 28.6211C123.844 28.6211 123.224 29.2011 123.224 30.0211C123.224 30.8211 123.844 31.4211 124.684 31.4211ZM125.944 43.0011V32.8611H123.424V43.0011H125.944ZM134.123 43.0011V40.7211H132.483C132.023 40.7211 131.823 40.5211 131.823 40.0611V35.2411H134.123V32.8611H131.823V29.8211H129.303V32.8611H127.703V35.2411H129.303V40.5811C129.303 42.0811 130.223 43.0011 131.883 43.0011H134.123ZM138.896 43.0011V29.0011H136.376V43.0011H138.896ZM146.15 43.2011C148.91 43.2011 150.41 41.4411 150.87 40.0411H148.31C147.99 40.5411 147.23 41.1011 146.15 41.1011C144.75 41.1011 143.65 40.1211 143.49 38.7611H151.05C151.09 38.6011 151.15 38.2011 151.15 37.7211C151.15 34.8211 148.99 32.6611 146.15 32.6611C143.21 32.6611 140.99 34.8811 140.99 37.9411C140.99 40.9811 143.21 43.2011 146.15 43.2011ZM143.49 37.0811C143.69 35.7611 144.67 34.7411 146.15 34.7411C147.53 34.7411 148.51 35.7611 148.65 37.0811H143.49ZM160.888 43.0011V37.2611C160.888 36.0011 161.808 35.0611 163.088 35.0611C164.348 35.0611 165.228 35.9811 165.228 37.2611V43.0011H167.748V36.9211C167.748 34.3611 166.068 32.6611 163.748 32.6611C162.388 32.6611 161.368 33.3211 160.988 33.8411H160.888V29.0011H158.368V43.0011H160.888ZM174.841 43.2011C177.601 43.2011 179.101 41.4411 179.561 40.0411H177.001C176.681 40.5411 175.921 41.1011 174.841 41.1011C173.441 41.1011 172.341 40.1211 172.181 38.7611H179.741C179.781 38.6011 179.841 38.2011 179.841 37.7211C179.841 34.8211 177.681 32.6611 174.841 32.6611C171.901 32.6611 169.681 34.8811 169.681 37.9411C169.681 40.9811 171.901 43.2011 174.841 43.2011ZM172.181 37.0811C172.381 35.7611 173.361 34.7411 174.841 34.7411C176.221 34.7411 177.201 35.7611 177.341 37.0811H172.181ZM184.343 43.0011V37.2211C184.343 35.9011 185.003 35.2411 186.283 35.2411H187.983V32.8611H186.123C185.183 32.8611 184.603 33.2611 184.303 33.7411H184.203L184.003 32.8611H181.823V43.0011H184.343ZM193.943 43.2011C196.703 43.2011 198.203 41.4411 198.663 40.0411H196.103C195.783 40.5411 195.023 41.1011 193.943 41.1011C192.543 41.1011 191.443 40.1211 191.283 38.7611H198.843C198.883 38.6011 198.943 38.2011 198.943 37.7211C198.943 34.8211 196.783 32.6611 193.943 32.6611C191.003 32.6611 188.783 34.8811 188.783 37.9411C188.783 40.9811 191.003 43.2011 193.943 43.2011ZM191.283 37.0811C191.483 35.7611 192.463 34.7411 193.943 34.7411C195.323 34.7411 196.303 35.7611 196.443 37.0811H191.283Z" fill="#031A34"/>
<path d="M69.04 72.0008C72.16 72.0008 74.4 69.6808 74.4 66.4008C74.4 63.1208 72.16 60.8008 69.04 60.8008H65.28V72.0008H69.04ZM66.56 62.0008H69.04C71.36 62.0008 73.12 63.7608 73.12 66.4008C73.12 69.0408 71.36 70.8008 69.04 70.8008H66.56V62.0008ZM79.6831 72.1608C81.3631 72.1608 82.5631 71.2808 83.1231 69.7608H81.8431C81.4431 70.5608 80.6431 71.0408 79.6831 71.0408C78.3391 71.0408 77.2031 70.0808 77.0431 68.5608H83.2831C83.3151 68.4648 83.3631 68.1448 83.3631 67.6808C83.3631 65.4408 81.7631 63.8408 79.6831 63.8408C77.5231 63.8408 75.8431 65.5208 75.8431 68.0008C75.8431 70.4808 77.5231 72.1608 79.6831 72.1608ZM77.0431 67.4408C77.2031 66.0008 78.2431 64.9608 79.6831 64.9608C81.0431 64.9608 82.0831 66.0008 82.1631 67.4408H77.0431ZM88.8038 72.0008L91.6838 64.0008H90.4038L88.0038 70.7208H87.6838L85.2838 64.0008H84.0038L86.8838 72.0008H88.8038ZM93.5718 62.4328C94.0518 62.4328 94.3718 62.1128 94.3718 61.6328C94.3718 61.1528 94.0518 60.8328 93.5718 60.8328C93.0918 60.8328 92.7718 61.1528 92.7718 61.6328C92.7718 62.1128 93.0918 62.4328 93.5718 62.4328ZM94.1638 72.0008V64.0008H92.9638V72.0008H94.1638ZM99.7613 72.1608C101.521 72.1608 102.881 71.1208 103.281 69.3608H102.081C101.761 70.4808 100.881 71.0408 99.7613 71.0408C98.3213 71.0408 97.1213 69.8408 97.1213 68.0008C97.1213 66.1608 98.3213 64.9608 99.7613 64.9608C100.881 64.9608 101.761 65.5208 102.081 66.5608H103.281C102.881 64.8808 101.521 63.8408 99.7613 63.8408C97.6013 63.8408 95.9213 65.5208 95.9213 68.0008C95.9213 70.4808 97.6013 72.1608 99.7613 72.1608ZM108.324 72.1608C110.004 72.1608 111.204 71.2808 111.764 69.7608H110.484C110.084 70.5608 109.284 71.0408 108.324 71.0408C106.98 71.0408 105.844 70.0808 105.684 68.5608H111.924C111.956 68.4648 112.004 68.1448 112.004 67.6808C112.004 65.4408 110.404 63.8408 108.324 63.8408C106.164 63.8408 104.484 65.5208 104.484 68.0008C104.484 70.4808 106.164 72.1608 108.324 72.1608ZM105.684 67.4408C105.844 66.0008 106.884 64.9608 108.324 64.9608C109.684 64.9608 110.724 66.0008 110.804 67.4408H105.684ZM120.888 75.3608C123.128 75.3608 124.488 74.0008 124.488 72.0008V64.0008H123.448L123.288 65.0408H123.208C122.648 64.3208 121.688 63.8408 120.648 63.8408C118.568 63.8408 116.968 65.4408 116.968 67.7608C116.968 70.0808 118.568 71.6808 120.648 71.6808C121.688 71.6808 122.568 71.2808 123.208 70.5608H123.288V72.0008C123.288 73.3608 122.328 74.2408 120.888 74.2408C119.368 74.2408 118.568 73.4408 118.488 72.6408H117.288C117.368 74.0008 118.648 75.3608 120.888 75.3608ZM120.728 70.5608C119.288 70.5608 118.168 69.4408 118.168 67.7608C118.168 66.0808 119.288 64.9608 120.728 64.9608C122.168 64.9608 123.288 66.0808 123.288 67.7608C123.288 69.4408 122.168 70.5608 120.728 70.5608ZM127.929 72.0008V66.8808C127.929 65.7608 128.569 65.1208 129.689 65.1208H130.889V64.0008H129.529C128.649 64.0008 128.329 64.3208 128.009 64.8008H127.929L127.769 64.0008H126.729V72.0008H127.929ZM135.371 72.1608C137.531 72.1608 139.211 70.4808 139.211 68.0008C139.211 65.5208 137.531 63.8408 135.371 63.8408C133.211 63.8408 131.531 65.5208 131.531 68.0008C131.531 70.4808 133.211 72.1608 135.371 72.1608ZM135.371 71.0408C133.931 71.0408 132.731 69.8408 132.731 68.0008C132.731 66.1608 133.931 64.9608 135.371 64.9608C136.811 64.9608 138.011 66.1608 138.011 68.0008C138.011 69.8408 136.811 71.0408 135.371 71.0408ZM144.164 72.1608C145.332 72.1608 146.18 71.5848 146.564 71.1208H146.644L146.804 72.0008H147.844V64.0008H146.644V68.8008C146.644 70.0008 145.604 71.0408 144.324 71.0408C143.124 71.0408 142.164 70.0808 142.164 68.8008V64.0008H140.964V68.8008C140.964 70.8008 142.324 72.1608 144.164 72.1608ZM151.289 75.2008V70.8808H151.369C152.009 71.6808 152.809 72.1608 153.929 72.1608C156.009 72.1608 157.609 70.4808 157.609 68.0008C157.609 65.5208 156.009 63.8408 153.929 63.8408C152.809 63.8408 152.009 64.3208 151.369 65.1208H151.289L151.129 64.0008H150.089V75.2008H151.289ZM153.849 71.0408C152.489 71.0408 151.289 69.8408 151.289 68.0008C151.289 66.1608 152.489 64.9608 153.849 64.9608C155.209 64.9608 156.409 66.1608 156.409 68.0008C156.409 69.8408 155.209 71.0408 153.849 71.0408ZM164.258 72.0008V67.2008C164.258 66.0008 165.298 64.9608 166.578 64.9608C167.778 64.9608 168.738 65.9208 168.738 67.2008V72.0008H169.938V67.2008C169.938 65.2008 168.578 63.8408 166.738 63.8408C165.57 63.8408 164.69 64.4328 164.338 64.8808H164.258L164.098 64.0008H163.058V72.0008H164.258ZM174.663 72.1608C175.943 72.1608 176.839 71.5208 177.143 71.0408H177.223L177.383 72.0008H178.423V66.8808C178.423 64.9608 177.223 63.8408 175.303 63.8408C173.303 63.8408 172.183 65.0408 172.103 66.3208H173.303C173.383 65.6008 174.103 64.9608 175.303 64.9608C176.503 64.9608 177.223 65.6808 177.223 66.8808V67.1208H175.062C172.823 67.1208 171.863 68.1608 171.863 69.6808C171.863 71.1208 172.983 72.1608 174.663 72.1608ZM174.663 71.0408C173.623 71.0408 173.062 70.4808 173.062 69.6808C173.062 68.8808 173.623 68.2408 175.062 68.2408H177.223V68.5608C177.223 70.0808 176.263 71.0408 174.663 71.0408ZM181.867 72.0008V66.9608C181.867 65.8408 182.827 64.9608 183.867 64.9608C184.987 64.9608 185.707 65.7608 185.707 66.9608V72.0008H186.907V66.9608C186.907 65.8408 187.867 64.9608 188.907 64.9608C190.027 64.9608 190.747 65.7608 190.747 66.9608V72.0008H191.947V66.9608C191.947 65.1208 190.747 63.8408 189.067 63.8408C187.787 63.8408 186.811 64.6088 186.427 65.2008H186.347C186.075 64.6088 185.259 63.8408 184.027 63.8408C183.099 63.8408 182.299 64.4328 181.947 64.8808H181.867L181.707 64.0008H180.667V72.0008H181.867ZM197.543 72.1608C199.223 72.1608 200.423 71.2808 200.983 69.7608H199.703C199.303 70.5608 198.503 71.0408 197.543 71.0408C196.199 71.0408 195.062 70.0808 194.903 68.5608H201.142C201.175 68.4648 201.223 68.1448 201.223 67.6808C201.223 65.4408 199.623 63.8408 197.543 63.8408C195.383 63.8408 193.703 65.5208 193.703 68.0008C193.703 70.4808 195.383 72.1608 197.543 72.1608ZM194.903 67.4408C195.062 66.0008 196.103 64.9608 197.543 64.9608C198.903 64.9608 199.943 66.0008 200.023 67.4408H194.903Z" fill="#6E7894"/>
<path d="M210 54V78H211V54H210Z" fill="white"/>
<path d="M210 54V78H211V54H210Z" fill="url(#paint0_linear_1661_87974)"/>
<path d="M223.96 72.1606C226.6 72.1606 228.04 70.8006 228.04 68.9606C228.04 67.2806 227.08 66.3206 224.84 65.9206L223.08 65.6006C221.816 65.3766 221.24 64.7206 221.24 63.8406C221.24 62.7206 222.12 61.8406 223.8 61.8406C225.64 61.8406 226.68 62.8806 226.68 64.0806H227.96C227.96 62.1606 226.36 60.6406 223.8 60.6406C221.4 60.6406 219.96 62.0006 219.96 63.8406C219.96 65.4406 220.904 66.3846 222.68 66.7206L224.84 67.1206C226.12 67.3606 226.76 68.0006 226.76 68.9606C226.76 70.0806 225.96 70.9606 223.96 70.9606C222.04 70.9606 221 69.9206 221 68.7206H219.72C219.72 70.5606 221.32 72.1606 223.96 72.1606ZM230.572 62.4326C231.052 62.4326 231.372 62.1126 231.372 61.6326C231.372 61.1526 231.052 60.8326 230.572 60.8326C230.092 60.8326 229.772 61.1526 229.772 61.6326C229.772 62.1126 230.092 62.4326 230.572 62.4326ZM231.164 72.0006V64.0006H229.964V72.0006H231.164ZM237.001 72.0006V70.8806H235.641C235.321 70.8806 235.161 70.7206 235.161 70.4006V65.1206H237.001V64.0006H235.161V61.7606H233.961V64.0006H232.681V65.1206H233.961V70.6406C233.961 71.4406 234.521 72.0006 235.401 72.0006H237.001ZM241.886 72.1606C243.566 72.1606 244.766 71.2806 245.326 69.7606H244.046C243.646 70.5606 242.846 71.0406 241.886 71.0406C240.542 71.0406 239.406 70.0806 239.246 68.5606H245.486C245.518 68.4646 245.566 68.1446 245.566 67.6806C245.566 65.4406 243.966 63.8406 241.886 63.8406C239.726 63.8406 238.046 65.5206 238.046 68.0006C238.046 70.4806 239.726 72.1606 241.886 72.1606ZM239.246 67.4406C239.406 66.0006 240.446 64.9606 241.886 64.9606C243.246 64.9606 244.286 66.0006 244.366 67.4406H239.246ZM252.211 72.0006V67.2006C252.211 66.0006 253.251 64.9606 254.531 64.9606C255.731 64.9606 256.691 65.9206 256.691 67.2006V72.0006H257.891V67.2006C257.891 65.2006 256.531 63.8406 254.691 63.8406C253.523 63.8406 252.643 64.4326 252.291 64.8806H252.211L252.051 64.0006H251.011V72.0006H252.211ZM262.616 72.1606C263.896 72.1606 264.792 71.5206 265.096 71.0406H265.176L265.336 72.0006H266.376V66.8806C266.376 64.9606 265.176 63.8406 263.256 63.8406C261.256 63.8406 260.136 65.0406 260.056 66.3206H261.256C261.336 65.6006 262.056 64.9606 263.256 64.9606C264.456 64.9606 265.176 65.6806 265.176 66.8806V67.1206H263.016C260.776 67.1206 259.816 68.1606 259.816 69.6806C259.816 71.1206 260.936 72.1606 262.616 72.1606ZM262.616 71.0406C261.576 71.0406 261.016 70.4806 261.016 69.6806C261.016 68.8806 261.576 68.2406 263.016 68.2406H265.176V68.5606C265.176 70.0806 264.216 71.0406 262.616 71.0406ZM269.82 72.0006V66.9606C269.82 65.8406 270.78 64.9606 271.82 64.9606C272.94 64.9606 273.66 65.7606 273.66 66.9606V72.0006H274.86V66.9606C274.86 65.8406 275.82 64.9606 276.86 64.9606C277.98 64.9606 278.7 65.7606 278.7 66.9606V72.0006H279.9V66.9606C279.9 65.1206 278.7 63.8406 277.02 63.8406C275.74 63.8406 274.764 64.6086 274.38 65.2006H274.3C274.028 64.6086 273.212 63.8406 271.98 63.8406C271.052 63.8406 270.252 64.4326 269.9 64.8806H269.82L269.66 64.0006H268.62V72.0006H269.82ZM285.496 72.1606C287.176 72.1606 288.376 71.2806 288.936 69.7606H287.656C287.256 70.5606 286.456 71.0406 285.496 71.0406C284.152 71.0406 283.016 70.0806 282.856 68.5606H289.096C289.128 68.4646 289.176 68.1446 289.176 67.6806C289.176 65.4406 287.576 63.8406 285.496 63.8406C283.336 63.8406 281.656 65.5206 281.656 68.0006C281.656 70.4806 283.336 72.1606 285.496 72.1606ZM282.856 67.4406C283.016 66.0006 284.056 64.9606 285.496 64.9606C286.856 64.9606 287.896 66.0006 287.976 67.4406H282.856Z" fill="#6E7894"/>
<path d="M298 54V78H299V54H298Z" fill="white"/>
<path d="M298 54V78H299V54H298Z" fill="url(#paint1_linear_1661_87974)"/>
<path d="M311.08 72.0003V60.8003H309.8V61.6003C309.8 61.9203 309.64 62.0803 309.32 62.0803H307.4V63.2003H309.8V72.0003H311.08ZM313.559 75.2003L317.959 60.3203H316.759L312.359 75.2003H313.559ZM320.513 72.0003V66.9603H325.953V65.7603H320.513V62.0003H326.273V60.8003H319.233V72.0003H320.513ZM335.48 72.0003V70.8003H329.56V66.9603H335.16V65.7603H329.56V62.0003H335.48V60.8003H328.28V72.0003H335.48ZM342.599 72.0003C344.279 72.0003 345.639 70.6403 345.639 68.8803C345.639 67.5363 344.871 66.6723 344.279 66.4003V66.3203C344.791 66.0163 345.479 65.1523 345.479 63.9203C345.479 62.1603 344.119 60.8003 342.439 60.8003H337.639V72.0003H342.599ZM338.919 62.0003H342.439C343.399 62.0003 344.199 62.8003 344.199 63.9203C344.199 65.0403 343.399 65.8403 342.439 65.8403H338.919V62.0003ZM338.919 66.9603H342.599C343.559 66.9603 344.359 67.7603 344.359 68.8803C344.359 70.0003 343.559 70.8003 342.599 70.8003H338.919V66.9603ZM347.794 75.2003L352.194 60.3203H350.994L346.594 75.2003H347.794ZM360.108 72.0003V70.8003H354.908V70.7203L358.508 66.9603C359.292 66.1443 359.868 65.3603 359.868 64.0003C359.868 62.0003 358.428 60.6403 356.428 60.6403C354.428 60.6403 352.988 62.1603 352.988 64.2403H354.268C354.268 62.8003 355.228 61.8403 356.428 61.8403C357.708 61.8403 358.588 62.7203 358.588 64.0003C358.588 64.8803 358.268 65.4083 357.628 66.0803L353.068 70.9603V72.0003H360.108ZM365.95 72.1603C368.27 72.1603 370.27 70.1603 370.27 66.4003C370.27 62.6403 368.27 60.6403 365.95 60.6403C363.63 60.6403 361.63 62.6403 361.63 66.4003C361.63 70.1603 363.63 72.1603 365.95 72.1603ZM365.95 70.9603C364.35 70.9603 362.91 69.4403 362.91 66.4003C362.91 63.3603 364.35 61.8403 365.95 61.8403C367.55 61.8403 368.99 63.3603 368.99 66.4003C368.99 69.4403 367.55 70.9603 365.95 70.9603ZM378.764 72.0003V70.8003H373.564V70.7203L377.164 66.9603C377.948 66.1443 378.524 65.3603 378.524 64.0003C378.524 62.0003 377.084 60.6403 375.084 60.6403C373.084 60.6403 371.644 62.1603 371.644 64.2403H372.924C372.924 62.8003 373.884 61.8403 375.084 61.8403C376.364 61.8403 377.244 62.7203 377.244 64.0003C377.244 64.8803 376.924 65.4083 376.284 66.0803L371.724 70.9603V72.0003H378.764ZM383.646 72.1603C385.806 72.1603 387.326 70.7203 387.326 68.9603C387.326 67.5043 386.238 66.5923 385.406 66.3203V66.2403C386.158 65.9683 387.166 65.1043 387.166 63.7443C387.166 62.0003 385.726 60.6403 383.646 60.6403C381.566 60.6403 380.126 62.0803 380.126 63.6803H381.406C381.406 62.7203 382.366 61.8403 383.646 61.8403C385.006 61.8403 385.886 62.7203 385.886 63.7123C385.886 64.8003 385.086 65.6803 383.646 65.6803H382.926V66.8803H383.646C385.086 66.8803 386.046 67.7603 386.046 68.9603C386.046 70.0803 385.086 70.9603 383.646 70.9603C382.126 70.9603 381.246 70.0803 381.246 69.0403H379.966C379.966 70.7203 381.406 72.1603 383.646 72.1603ZM395.658 72.0003V60.8003H394.378V61.6003C394.378 61.9203 394.218 62.0803 393.898 62.0803H391.978V63.2003H394.378V72.0003H395.658ZM401.018 72.0003V60.8003H399.738V61.6003C399.738 61.9203 399.578 62.0803 399.258 62.0803H397.338V63.2003H399.738V72.0003H401.018ZM403.977 65.5203C404.457 65.5203 404.777 65.2003 404.777 64.7203C404.777 64.2403 404.457 63.9203 403.977 63.9203C403.497 63.9203 403.177 64.2403 403.177 64.7203C403.177 65.2003 403.497 65.5203 403.977 65.5203ZM403.977 72.0803C404.457 72.0803 404.777 71.7603 404.777 71.2803C404.777 70.8003 404.457 70.4803 403.977 70.4803C403.497 70.4803 403.177 70.8003 403.177 71.2803C403.177 71.7603 403.497 72.0803 403.977 72.0803ZM409.736 72.0003V60.8003H408.456V61.6003C408.456 61.9203 408.296 62.0803 407.976 62.0803H406.056V63.2003H408.456V72.0003H409.736ZM415.096 72.0003V60.8003H413.816V61.6003C413.816 61.9203 413.656 62.0803 413.336 62.0803H411.416V63.2003H413.816V72.0003H415.096ZM430.15 72.0003L425.91 60.8003H423.99L419.75 72.0003H421.11L422.182 69.1203H427.718L428.79 72.0003H430.15ZM424.79 62.1603H425.11L427.27 67.9203H422.63L424.79 62.1603ZM432.716 72.0003V62.4803H433.036L436.396 72.0003H438.316L441.676 62.4803H441.996V72.0003H443.276V60.8003H440.956L437.516 70.5603H437.196L433.756 60.8003H431.436V72.0003H432.716Z" fill="#6E7894"/>
<path d="M503.5 50C503.5 39.2304 494.77 30.5 484 30.5C473.23 30.5 464.5 39.2304 464.5 50C464.5 60.7696 473.23 69.5 484 69.5C494.77 69.5 503.5 60.7696 503.5 50Z" fill="#FEFBFF"/>
<mask id="mask0_1661_87974" style="mask-type:luminance" maskUnits="userSpaceOnUse" x="464" y="30" width="40" height="40">
<path d="M504 50C504 38.9543 495.046 30 484 30C472.954 30 464 38.9543 464 50C464 61.0457 472.954 70 484 70C495.046 70 504 61.0457 504 50Z" fill="white"/>
</mask>
<g mask="url(#mask0_1661_87974)">
<path d="M482 48.25C482.38 48.25 482.693 48.5322 482.743 48.8982L482.75 49V55C482.75 55.4142 482.414 55.75 482 55.75C481.62 55.75 481.307 55.4678 481.257 55.1018L481.25 55V49C481.25 48.5858 481.586 48.25 482 48.25Z" fill="#031A34"/>
<path d="M486.743 48.8982C486.693 48.5322 486.38 48.25 486 48.25C485.586 48.25 485.25 48.5858 485.25 49V55L485.257 55.1018C485.307 55.4678 485.62 55.75 486 55.75C486.414 55.75 486.75 55.4142 486.75 55V49L486.743 48.8982Z" fill="#031A34"/>
<path d="M488.745 42.447C488.667 41.2298 487.702 40.25 486.5 40.25H481.5L481.345 40.2555C480.165 40.3393 479.25 41.3706 479.25 42.607V44.25H475L474.898 44.2568C474.532 44.3065 474.25 44.6203 474.25 45C474.25 45.4142 474.586 45.75 475 45.75H476.25V56.5C476.25 58.2952 477.705 59.75 479.5 59.75H488.5C490.295 59.75 491.75 58.2952 491.75 56.5V45.75H493L493.102 45.7432C493.468 45.6935 493.75 45.3797 493.75 45C493.75 44.5858 493.414 44.25 493 44.25H488.75V42.607L488.745 42.447ZM487.25 44.25H480.75V42.607L480.756 42.4974C480.804 42.0679 481.129 41.75 481.5 41.75H486.5L486.592 41.7565C486.953 41.8081 487.25 42.1603 487.25 42.607V44.25ZM477.75 45.75H490.25V56.5C490.25 57.4668 489.467 58.25 488.5 58.25H479.5L479.356 58.2442C478.457 58.1712 477.75 57.4184 477.75 56.5V45.75Z" fill="#031A34"/>
</g>
<path d="M503.5 50C503.5 39.2304 494.77 30.5 484 30.5C473.23 30.5 464.5 39.2304 464.5 50C464.5 60.7696 473.23 69.5 484 69.5C494.77 69.5 503.5 60.7696 503.5 50Z" stroke="#D1D5E4"/>
<path d="M526.559 55.3347C526.403 55.3347 526.253 55.2649 526.148 55.145C525.939 54.9021 525.953 54.5318 526.18 54.3072L530.614 49.962L526.183 45.7003C525.955 45.4772 525.939 45.1069 526.146 44.8626C526.347 44.6258 526.694 44.6015 526.922 44.8095C526.926 44.814 526.931 44.8171 526.935 44.8216L531.817 49.5189C531.934 49.6312 532 49.789 532 49.9544C532.001 50.1199 531.937 50.2792 531.821 50.3931L526.938 55.1768C526.836 55.2783 526.7 55.3349 526.559 55.3347Z" fill="#031A34"/>
<defs>
<filter id="filter0_dd_1661_87974" x="2" y="2" width="556" height="100" filterUnits="userSpaceOnUse" color-interpolation-filters="sRGB">
<feFlood flood-opacity="0" result="BackgroundImageFix"/>
<feColorMatrix in="SourceAlpha" type="matrix" values="0 0 0 0 0 0 0 0 0 0 0 0 0 0 0 0 0 0 127 0" result="hardAlpha"/>
<feOffset dy="2"/>
<feGaussianBlur stdDeviation="3"/>
<feComposite in2="hardAlpha" operator="out"/>
<feColorMatrix type="matrix" values="0 0 0 0 0 0 0 0 0 0 0 0 0 0 0 0 0 0 0.15 0"/>
<feBlend mode="normal" in2="BackgroundImageFix" result="effect1_dropShadow_1661_87974"/>
<feColorMatrix in="SourceAlpha" type="matrix" values="0 0 0 0 0 0 0 0 0 0 0 0 0 0 0 0 0 0 127 0" result="hardAlpha"/>
<feOffset dy="1"/>
<feGaussianBlur stdDeviation="1"/>
<feComposite in2="hardAlpha" operator="out"/>
<feColorMatrix type="matrix" values="0 0 0 0 0 0 0 0 0 0 0 0 0 0 0 0 0 0 0.3 0"/>
<feBlend mode="normal" in2="effect1_dropShadow_1661_87974" result="effect2_dropShadow_1661_87974"/>
<feBlend mode="normal" in="SourceGraphic" in2="effect2_dropShadow_1661_87974" result="shape"/>
</filter>
<linearGradient id="paint0_linear_1661_87974" x1="210" y1="78" x2="216.79" y2="76.2319" gradientUnits="userSpaceOnUse">
<stop stop-color="#0066FF"/>
<stop offset="1" stop-color="#59C2C9"/>
</linearGradient>
<linearGradient id="paint1_linear_1661_87974" x1="298" y1="78" x2="304.79" y2="76.2319" gradientUnits="userSpaceOnUse">
<stop stop-color="#0066FF"/>
<stop offset="1" stop-color="#59C2C9"/>
</linearGradient>
</defs>
</svg>
