<svg width="356" height="36" viewBox="0 0 356 36" fill="none" xmlns="http://www.w3.org/2000/svg">
<path d="M18.2857 24.0001C21.3577 24.0001 23.6937 21.6321 23.6937 18.4001C23.6937 15.1681 21.3577 12.8001 18.2857 12.8001H14.2537V24.0001H18.2857ZM16.3977 14.8481H18.2857C20.1257 14.8481 21.5657 16.2881 21.5657 18.4001C21.5657 20.5121 20.1257 21.9521 18.2857 21.9521H16.3977V14.8481ZM26.4142 14.7361C27.0862 14.7361 27.5982 14.2561 27.5982 13.6161C27.5982 12.9601 27.0862 12.4961 26.4142 12.4961C25.7422 12.4961 25.2462 12.9601 25.2462 13.6161C25.2462 14.2561 25.7422 14.7361 26.4142 14.7361ZM27.4222 24.0001V15.8881H25.4062V24.0001H27.4222ZM32.3974 24.1601C34.7494 24.1601 35.8854 23.0241 35.8854 21.6801C35.8854 20.3041 35.0374 19.4721 33.2774 19.2001L31.9814 18.9921C31.2454 18.8641 30.9254 18.6081 30.9254 18.2081C30.9254 17.7761 31.3734 17.3281 32.3174 17.3281C33.2774 17.3281 33.8054 17.8081 33.8054 18.3201H35.7734C35.7734 17.1521 34.5894 15.7281 32.3174 15.7281C30.0774 15.7281 28.9254 16.8961 28.9254 18.2401C28.9254 19.5361 29.8214 20.3201 31.5494 20.6081L32.8134 20.8161C33.6134 20.9441 33.8854 21.2321 33.8854 21.6961C33.8854 22.1441 33.4374 22.5601 32.3974 22.5601C31.3254 22.5601 30.8294 22.0321 30.8294 21.5361H28.8614C28.8614 22.5601 29.8054 24.1601 32.3974 24.1601ZM39.4066 24.0001V19.2161C39.4066 18.3041 40.0626 17.6481 40.9106 17.6481C41.7266 17.6481 42.2866 18.2241 42.2866 19.2161V24.0001H44.3026V19.2161C44.3026 18.3041 44.9746 17.6481 45.7906 17.6481C46.6226 17.6481 47.1826 18.2241 47.1826 19.2161V24.0001H49.1826V18.9761C49.1826 17.0881 47.9026 15.7281 46.2066 15.7281C44.9586 15.7281 44.0466 16.3841 43.6946 16.9281H43.6146C43.3426 16.4321 42.5586 15.7281 41.3586 15.7281C40.4306 15.7281 39.6626 16.2561 39.3746 16.6721H39.2946L39.1346 15.8881H37.3906V24.0001H39.4066ZM52.1642 14.7361C52.8362 14.7361 53.3482 14.2561 53.3482 13.6161C53.3482 12.9601 52.8362 12.4961 52.1642 12.4961C51.4922 12.4961 50.9962 12.9601 50.9962 13.6161C50.9962 14.2561 51.4922 14.7361 52.1642 14.7361ZM53.1722 24.0001V15.8881H51.1562V24.0001H53.1722ZM58.1474 24.1601C60.4994 24.1601 61.6354 23.0241 61.6354 21.6801C61.6354 20.3041 60.7874 19.4721 59.0274 19.2001L57.7314 18.9921C56.9954 18.8641 56.6754 18.6081 56.6754 18.2081C56.6754 17.7761 57.1234 17.3281 58.0674 17.3281C59.0274 17.3281 59.5554 17.8081 59.5554 18.3201H61.5234C61.5234 17.1521 60.3394 15.7281 58.0674 15.7281C55.8274 15.7281 54.6754 16.8961 54.6754 18.2401C54.6754 19.5361 55.5714 20.3201 57.2994 20.6081L58.5634 20.8161C59.3634 20.9441 59.6354 21.2321 59.6354 21.6961C59.6354 22.1441 59.1874 22.5601 58.1474 22.5601C57.0754 22.5601 56.5794 22.0321 56.5794 21.5361H54.6114C54.6114 22.5601 55.5554 24.1601 58.1474 24.1601ZM66.1006 24.1601C68.4526 24.1601 69.5886 23.0241 69.5886 21.6801C69.5886 20.3041 68.7406 19.4721 66.9806 19.2001L65.6846 18.9921C64.9486 18.8641 64.6286 18.6081 64.6286 18.2081C64.6286 17.7761 65.0766 17.3281 66.0206 17.3281C66.9806 17.3281 67.5086 17.8081 67.5086 18.3201H69.4766C69.4766 17.1521 68.2926 15.7281 66.0206 15.7281C63.7806 15.7281 62.6286 16.8961 62.6286 18.2401C62.6286 19.5361 63.5246 20.3201 65.2526 20.6081L66.5166 20.8161C67.3166 20.9441 67.5886 21.2321 67.5886 21.6961C67.5886 22.1441 67.1406 22.5601 66.1006 22.5601C65.0286 22.5601 64.5326 22.0321 64.5326 21.5361H62.5646C62.5646 22.5601 63.5086 24.1601 66.1006 24.1601ZM77.7631 24.1601C78.9471 24.1601 79.7791 23.6161 80.0831 23.2161H80.1631L80.3231 24.0001H82.0671V18.8321C82.0671 17.0401 80.7391 15.7281 78.5951 15.7281C76.4511 15.7281 75.2831 17.0241 75.1551 18.3201H77.1231C77.2351 17.8721 77.6991 17.3921 78.5951 17.3921C79.4751 17.3921 80.0511 17.9841 80.0511 18.8321V19.0081H78.1471C75.9071 19.0081 74.8351 20.1121 74.8351 21.6641C74.8351 23.0721 75.9551 24.1601 77.7631 24.1601ZM78.1151 22.5441C77.2991 22.5441 76.8511 22.1281 76.8511 21.5041C76.8511 20.8961 77.2991 20.4481 78.3551 20.4481H80.0511V20.6881C80.0511 21.8241 79.3311 22.5441 78.1151 22.5441ZM86.1272 24.0001V12.8001H84.1112V24.0001H86.1272ZM90.3147 24.0001V12.8001H88.2987V24.0001H90.3147Z" fill="white"/>
<path d="M18.2857 24.0001C21.3577 24.0001 23.6937 21.6321 23.6937 18.4001C23.6937 15.1681 21.3577 12.8001 18.2857 12.8001H14.2537V24.0001H18.2857ZM16.3977 14.8481H18.2857C20.1257 14.8481 21.5657 16.2881 21.5657 18.4001C21.5657 20.5121 20.1257 21.9521 18.2857 21.9521H16.3977V14.8481ZM26.4142 14.7361C27.0862 14.7361 27.5982 14.2561 27.5982 13.6161C27.5982 12.9601 27.0862 12.4961 26.4142 12.4961C25.7422 12.4961 25.2462 12.9601 25.2462 13.6161C25.2462 14.2561 25.7422 14.7361 26.4142 14.7361ZM27.4222 24.0001V15.8881H25.4062V24.0001H27.4222ZM32.3974 24.1601C34.7494 24.1601 35.8854 23.0241 35.8854 21.6801C35.8854 20.3041 35.0374 19.4721 33.2774 19.2001L31.9814 18.9921C31.2454 18.8641 30.9254 18.6081 30.9254 18.2081C30.9254 17.7761 31.3734 17.3281 32.3174 17.3281C33.2774 17.3281 33.8054 17.8081 33.8054 18.3201H35.7734C35.7734 17.1521 34.5894 15.7281 32.3174 15.7281C30.0774 15.7281 28.9254 16.8961 28.9254 18.2401C28.9254 19.5361 29.8214 20.3201 31.5494 20.6081L32.8134 20.8161C33.6134 20.9441 33.8854 21.2321 33.8854 21.6961C33.8854 22.1441 33.4374 22.5601 32.3974 22.5601C31.3254 22.5601 30.8294 22.0321 30.8294 21.5361H28.8614C28.8614 22.5601 29.8054 24.1601 32.3974 24.1601ZM39.4066 24.0001V19.2161C39.4066 18.3041 40.0626 17.6481 40.9106 17.6481C41.7266 17.6481 42.2866 18.2241 42.2866 19.2161V24.0001H44.3026V19.2161C44.3026 18.3041 44.9746 17.6481 45.7906 17.6481C46.6226 17.6481 47.1826 18.2241 47.1826 19.2161V24.0001H49.1826V18.9761C49.1826 17.0881 47.9026 15.7281 46.2066 15.7281C44.9586 15.7281 44.0466 16.3841 43.6946 16.9281H43.6146C43.3426 16.4321 42.5586 15.7281 41.3586 15.7281C40.4306 15.7281 39.6626 16.2561 39.3746 16.6721H39.2946L39.1346 15.8881H37.3906V24.0001H39.4066ZM52.1642 14.7361C52.8362 14.7361 53.3482 14.2561 53.3482 13.6161C53.3482 12.9601 52.8362 12.4961 52.1642 12.4961C51.4922 12.4961 50.9962 12.9601 50.9962 13.6161C50.9962 14.2561 51.4922 14.7361 52.1642 14.7361ZM53.1722 24.0001V15.8881H51.1562V24.0001H53.1722ZM58.1474 24.1601C60.4994 24.1601 61.6354 23.0241 61.6354 21.6801C61.6354 20.3041 60.7874 19.4721 59.0274 19.2001L57.7314 18.9921C56.9954 18.8641 56.6754 18.6081 56.6754 18.2081C56.6754 17.7761 57.1234 17.3281 58.0674 17.3281C59.0274 17.3281 59.5554 17.8081 59.5554 18.3201H61.5234C61.5234 17.1521 60.3394 15.7281 58.0674 15.7281C55.8274 15.7281 54.6754 16.8961 54.6754 18.2401C54.6754 19.5361 55.5714 20.3201 57.2994 20.6081L58.5634 20.8161C59.3634 20.9441 59.6354 21.2321 59.6354 21.6961C59.6354 22.1441 59.1874 22.5601 58.1474 22.5601C57.0754 22.5601 56.5794 22.0321 56.5794 21.5361H54.6114C54.6114 22.5601 55.5554 24.1601 58.1474 24.1601ZM66.1006 24.1601C68.4526 24.1601 69.5886 23.0241 69.5886 21.6801C69.5886 20.3041 68.7406 19.4721 66.9806 19.2001L65.6846 18.9921C64.9486 18.8641 64.6286 18.6081 64.6286 18.2081C64.6286 17.7761 65.0766 17.3281 66.0206 17.3281C66.9806 17.3281 67.5086 17.8081 67.5086 18.3201H69.4766C69.4766 17.1521 68.2926 15.7281 66.0206 15.7281C63.7806 15.7281 62.6286 16.8961 62.6286 18.2401C62.6286 19.5361 63.5246 20.3201 65.2526 20.6081L66.5166 20.8161C67.3166 20.9441 67.5886 21.2321 67.5886 21.6961C67.5886 22.1441 67.1406 22.5601 66.1006 22.5601C65.0286 22.5601 64.5326 22.0321 64.5326 21.5361H62.5646C62.5646 22.5601 63.5086 24.1601 66.1006 24.1601ZM77.7631 24.1601C78.9471 24.1601 79.7791 23.6161 80.0831 23.2161H80.1631L80.3231 24.0001H82.0671V18.8321C82.0671 17.0401 80.7391 15.7281 78.5951 15.7281C76.4511 15.7281 75.2831 17.0241 75.1551 18.3201H77.1231C77.2351 17.8721 77.6991 17.3921 78.5951 17.3921C79.4751 17.3921 80.0511 17.9841 80.0511 18.8321V19.0081H78.1471C75.9071 19.0081 74.8351 20.1121 74.8351 21.6641C74.8351 23.0721 75.9551 24.1601 77.7631 24.1601ZM78.1151 22.5441C77.2991 22.5441 76.8511 22.1281 76.8511 21.5041C76.8511 20.8961 77.2991 20.4481 78.3551 20.4481H80.0511V20.6881C80.0511 21.8241 79.3311 22.5441 78.1151 22.5441ZM86.1272 24.0001V12.8001H84.1112V24.0001H86.1272ZM90.3147 24.0001V12.8001H88.2987V24.0001H90.3147Z" fill="url(#paint0_linear_1678_87997)"/>
<path d="M113.662 13.2196H117.441C117.719 13.2196 117.943 13.446 117.945 13.7215C117.945 13.9992 117.719 14.2233 117.444 14.2233H116.23V23.4857C116.23 24.326 115.975 24.9959 115.473 25.4768C114.761 26.1584 113.79 26.2028 113.548 26.2028C113.526 26.2028 113.51 26.2016 113.501 26.2009C113.498 26.2006 113.494 26.2004 113.494 26.2004H105.959C105.095 26.2004 104.414 25.939 103.935 25.4278C103.194 24.6364 103.252 23.5347 103.256 23.4644V23.4623L103.254 14.2233H102.04C101.762 14.2233 101.538 13.9992 101.538 13.7215C101.538 13.4437 101.762 13.2196 102.04 13.2196H105.817V11.7093C105.817 11.0557 106.008 10.5515 106.384 10.2107C106.9 9.74154 107.549 9.78822 107.621 9.79989L111.895 9.79522C112.565 9.79522 112.964 10.073 113.181 10.3064C113.706 10.869 113.669 11.6626 113.662 11.7513V13.2196ZM106.818 13.2196H112.661V11.7187C112.668 11.5623 112.642 11.1958 112.446 10.988C112.324 10.8597 112.145 10.799 111.895 10.799L107.572 10.8013L107.57 10.8012C107.515 10.7985 107.24 10.7852 107.049 10.96C106.895 11.1024 106.818 11.3569 106.818 11.7093V13.2196ZM111.451 22.7831C111.729 22.7831 111.953 22.559 111.953 22.2812V17.1458C111.953 16.868 111.727 16.644 111.451 16.644C111.174 16.644 110.95 16.868 110.95 17.1458V22.2812C110.95 22.559 111.176 22.7831 111.451 22.7831ZM108.529 22.2812V17.1458C108.529 16.868 108.305 16.644 108.027 16.644C107.749 16.644 107.525 16.868 107.525 17.1458V22.2812C107.525 22.559 107.749 22.7831 108.027 22.7831C108.305 22.7831 108.529 22.559 108.529 22.2812Z" fill="white"/>
<path d="M113.662 13.2196H117.441C117.719 13.2196 117.943 13.446 117.945 13.7215C117.945 13.9992 117.719 14.2233 117.444 14.2233H116.23V23.4857C116.23 24.326 115.975 24.9959 115.473 25.4768C114.761 26.1584 113.79 26.2028 113.548 26.2028C113.526 26.2028 113.51 26.2016 113.501 26.2009C113.498 26.2006 113.494 26.2004 113.494 26.2004H105.959C105.095 26.2004 104.414 25.939 103.935 25.4278C103.194 24.6364 103.252 23.5347 103.256 23.4644V23.4623L103.254 14.2233H102.04C101.762 14.2233 101.538 13.9992 101.538 13.7215C101.538 13.4437 101.762 13.2196 102.04 13.2196H105.817V11.7093C105.817 11.0557 106.008 10.5515 106.384 10.2107C106.9 9.74154 107.549 9.78822 107.621 9.79989L111.895 9.79522C112.565 9.79522 112.964 10.073 113.181 10.3064C113.706 10.869 113.669 11.6626 113.662 11.7513V13.2196ZM106.818 13.2196H112.661V11.7187C112.668 11.5623 112.642 11.1958 112.446 10.988C112.324 10.8597 112.145 10.799 111.895 10.799L107.572 10.8013L107.57 10.8012C107.515 10.7985 107.24 10.7852 107.049 10.96C106.895 11.1024 106.818 11.3569 106.818 11.7093V13.2196ZM111.451 22.7831C111.729 22.7831 111.953 22.559 111.953 22.2812V17.1458C111.953 16.868 111.727 16.644 111.451 16.644C111.174 16.644 110.95 16.868 110.95 17.1458V22.2812C110.95 22.559 111.176 22.7831 111.451 22.7831ZM108.529 22.2812V17.1458C108.529 16.868 108.305 16.644 108.027 16.644C107.749 16.644 107.525 16.868 107.525 17.1458V22.2812C107.525 22.559 107.749 22.7831 108.027 22.7831C108.305 22.7831 108.529 22.559 108.529 22.2812Z" fill="url(#paint1_linear_1678_87997)"/>
<path d="M157.742 0.5H241.371V35.501H157.742C148.077 35.501 140.242 27.6658 140.242 18.0005C140.242 8.33524 148.077 0.5 157.742 0.5Z" fill="#FFFBFE"/>
<path d="M163.122 25.0867C163.221 24.9304 163.223 24.7345 163.135 24.5594L156.198 10.9702C156.101 10.7805 155.926 10.668 155.73 10.668C155.535 10.668 155.36 10.7826 155.265 10.9723L148.475 24.5594C148.387 24.7345 148.395 24.9304 148.492 25.0846C148.589 25.2388 148.768 25.3347 148.968 25.3347H162.646C162.846 25.3347 163.023 25.243 163.122 25.0867ZM155.389 22.8756C155.389 22.6131 155.541 22.463 155.806 22.463C156.072 22.463 156.223 22.6131 156.223 22.8756C156.223 23.1382 156.069 23.2883 155.806 23.2883C155.543 23.2883 155.389 23.1382 155.389 22.8756ZM156.23 21.3002C156.23 21.5273 156.044 21.7107 155.815 21.7107C155.585 21.7107 155.4 21.5273 155.4 21.3002V15.5611C155.4 15.3339 155.585 15.1505 155.815 15.1505C156.044 15.1505 156.23 15.3339 156.23 15.5611V21.3002Z" fill="#F44336"/>
<path d="M172.813 24.0001V12.8001H170.685V13.5041C170.685 13.8401 170.525 14.0001 170.189 14.0001H168.397V16.0161H170.685V24.0001H172.813ZM182.825 24.1601C185.097 24.1601 186.393 22.6081 186.697 20.9761H184.665C184.457 21.6961 183.881 22.3041 182.825 22.3041C181.673 22.3041 180.713 21.3601 180.713 19.9521C180.713 18.5281 181.673 17.6001 182.825 17.6001C183.881 17.6001 184.457 18.2081 184.665 18.8641H186.697C186.393 17.2801 185.097 15.7281 182.825 15.7281C180.473 15.7281 178.697 17.5041 178.697 19.9521C178.697 22.3841 180.473 24.1601 182.825 24.1601ZM190.239 24.0001V19.3761C190.239 18.3201 190.767 17.7921 191.791 17.7921H193.151V15.8881H191.663C190.911 15.8881 190.447 16.2081 190.207 16.5921H190.127L189.967 15.8881H188.223V24.0001H190.239ZM195.371 14.7361C196.043 14.7361 196.555 14.2561 196.555 13.6161C196.555 12.9601 196.043 12.4961 195.371 12.4961C194.699 12.4961 194.203 12.9601 194.203 13.6161C194.203 14.2561 194.699 14.7361 195.371 14.7361ZM196.379 24.0001V15.8881H194.363V24.0001H196.379ZM202.923 24.0001V22.1761H201.611C201.243 22.1761 201.083 22.0161 201.083 21.6481V17.7921H202.923V15.8881H201.083V13.4561H199.067V15.8881H197.787V17.7921H199.067V22.0641C199.067 23.2641 199.803 24.0001 201.131 24.0001H202.923ZM205.653 14.7361C206.325 14.7361 206.837 14.2561 206.837 13.6161C206.837 12.9601 206.325 12.4961 205.653 12.4961C204.981 12.4961 204.485 12.9601 204.485 13.6161C204.485 14.2561 204.981 14.7361 205.653 14.7361ZM206.661 24.0001V15.8881H204.645V24.0001H206.661ZM212.388 24.1601C214.66 24.1601 215.956 22.6081 216.26 20.9761H214.228C214.02 21.6961 213.444 22.3041 212.388 22.3041C211.236 22.3041 210.276 21.3601 210.276 19.9521C210.276 18.5281 211.236 17.6001 212.388 17.6001C213.444 17.6001 214.02 18.2081 214.228 18.8641H216.26C215.956 17.2801 214.66 15.7281 212.388 15.7281C210.036 15.7281 208.26 17.5041 208.26 19.9521C208.26 22.3841 210.036 24.1601 212.388 24.1601ZM220.345 24.1601C221.529 24.1601 222.361 23.6161 222.665 23.2161H222.745L222.905 24.0001H224.649V18.8321C224.649 17.0401 223.321 15.7281 221.177 15.7281C219.033 15.7281 217.865 17.0241 217.737 18.3201H219.705C219.817 17.8721 220.281 17.3921 221.177 17.3921C222.057 17.3921 222.633 17.9841 222.633 18.8321V19.0081H220.729C218.489 19.0081 217.417 20.1121 217.417 21.6641C217.417 23.0721 218.537 24.1601 220.345 24.1601ZM220.697 22.5441C219.881 22.5441 219.433 22.1281 219.433 21.5041C219.433 20.8961 219.881 20.4481 220.937 20.4481H222.633V20.6881C222.633 21.8241 221.913 22.5441 220.697 22.5441ZM228.709 24.0001V12.8001H226.693V24.0001H228.709Z" fill="#031A34"/>
<path d="M157.742 0.5H241.371V35.501H157.742C148.077 35.501 140.242 27.6658 140.242 18.0005C140.242 8.33524 148.077 0.5 157.742 0.5Z" stroke="#D1D5E4"/>
<path d="M242.371 0.5H338C347.665 0.5 355.5 8.33524 355.5 18.0005C355.5 27.6658 347.665 35.501 338 35.501H242.371V0.5Z" fill="#FFFBFE"/>
<path d="M257.681 10.668C257.873 10.668 258.072 10.6722 258.245 10.6764C259.692 10.7097 265.328 11.2774 265.328 18.0201C265.328 24.7796 259.686 25.3055 258.274 25.3305C258.14 25.3326 257.984 25.3347 257.828 25.3347C257.751 25.3347 257.673 25.3347 257.597 25.3326C256.112 25.3117 250.543 24.7775 250.543 17.9763C250.543 11.1856 256.059 10.6805 257.544 10.668H257.681ZM257.471 13.815V20.1467C257.471 20.4013 257.677 20.6058 257.934 20.6058C258.19 20.6058 258.396 20.3992 258.396 20.1467V13.815C258.396 13.5604 258.19 13.3559 257.934 13.3559C257.677 13.3559 257.471 13.5625 257.471 13.815ZM257.934 22.2753C258.224 22.2753 258.46 22.0416 258.46 21.7515C258.46 21.4614 258.224 21.2277 257.934 21.2277C257.643 21.2277 257.408 21.4635 257.408 21.7515C257.408 22.0416 257.643 22.2753 257.934 22.2753Z" fill="#FFC107"/>
<path d="M274.926 24.1601C277.294 24.1601 278.83 22.6401 278.83 20.8641C278.83 19.4401 277.854 18.5761 277.118 18.3201V18.2401C277.79 17.9841 278.67 17.1841 278.67 15.8881C278.67 14.0961 277.198 12.6401 274.958 12.6401C272.622 12.6401 271.086 14.1761 271.086 16.0161H273.214C273.214 15.2641 273.886 14.6561 274.894 14.6561C275.934 14.6561 276.542 15.2641 276.542 15.9521C276.542 16.7201 275.966 17.3761 274.862 17.3761H274.126V19.1681H274.862C276.014 19.1681 276.702 19.8081 276.702 20.7041C276.702 21.5041 276.046 22.1441 274.926 22.1441C273.758 22.1441 273.054 21.4561 273.054 20.6401H270.926C270.926 22.6241 272.462 24.1601 274.926 24.1601ZM288.326 24.0001L289.654 18.8001H289.974L291.302 24.0001H293.974L296.086 15.8881H293.99L292.63 21.2001H292.31L290.934 15.8881H288.694L287.318 21.2001H286.998L285.638 15.8881H283.542L285.654 24.0001H288.326ZM299.623 24.1601C300.807 24.1601 301.639 23.6161 301.943 23.2161H302.023L302.183 24.0001H303.927V18.8321C303.927 17.0401 302.599 15.7281 300.455 15.7281C298.311 15.7281 297.143 17.0241 297.015 18.3201H298.983C299.095 17.8721 299.559 17.3921 300.455 17.3921C301.335 17.3921 301.911 17.9841 301.911 18.8321V19.0081H300.007C297.767 19.0081 296.695 20.1121 296.695 21.6641C296.695 23.0721 297.815 24.1601 299.623 24.1601ZM299.975 22.5441C299.159 22.5441 298.711 22.1281 298.711 21.5041C298.711 20.8961 299.159 20.4481 300.215 20.4481H301.911V20.6881C301.911 21.8241 301.191 22.5441 299.975 22.5441ZM307.907 24.0001V19.3761C307.907 18.3201 308.435 17.7921 309.459 17.7921H310.819V15.8881H309.331C308.579 15.8881 308.115 16.2081 307.875 16.5921H307.795L307.635 15.8881H305.891V24.0001H307.907ZM314.048 24.0001V19.4081C314.048 18.4001 314.784 17.6481 315.808 17.6481C316.816 17.6481 317.52 18.3841 317.52 19.4081V24.0001H319.536V19.1361C319.536 17.0881 318.192 15.7281 316.336 15.7281C315.12 15.7281 314.32 16.2881 314.016 16.6721H313.936L313.776 15.8881H312.032V24.0001H314.048ZM322.508 14.7361C323.18 14.7361 323.692 14.2561 323.692 13.6161C323.692 12.9601 323.18 12.4961 322.508 12.4961C321.836 12.4961 321.34 12.9601 321.34 13.6161C321.34 14.2561 321.836 14.7361 322.508 14.7361ZM323.516 24.0001V15.8881H321.5V24.0001H323.516ZM327.548 24.0001V19.4081C327.548 18.4001 328.284 17.6481 329.308 17.6481C330.316 17.6481 331.02 18.3841 331.02 19.4081V24.0001H333.036V19.1361C333.036 17.0881 331.692 15.7281 329.836 15.7281C328.62 15.7281 327.82 16.2881 327.516 16.6721H327.436L327.276 15.8881H325.532V24.0001H327.548ZM338.664 27.3601C341.128 27.3601 342.584 25.9201 342.584 23.7921V15.8881H340.84L340.68 16.7681H340.6C340.104 16.1601 339.336 15.7281 338.264 15.7281C336.184 15.7281 334.584 17.3281 334.584 19.6321C334.584 21.9361 336.184 23.5361 338.264 23.5361C339.272 23.5361 340.088 23.1041 340.488 22.6561H340.568V23.7761C340.568 24.8801 339.816 25.6001 338.664 25.6001C337.448 25.6001 336.936 24.8961 336.856 24.3841H334.808C334.856 25.5361 335.912 27.3601 338.664 27.3601ZM338.584 21.7441C337.48 21.7441 336.6 20.8801 336.6 19.6321C336.6 18.3841 337.48 17.5201 338.584 17.5201C339.688 17.5201 340.568 18.3841 340.568 19.6321C340.568 20.8801 339.688 21.7441 338.584 21.7441Z" fill="#031A34"/>
<path d="M242.371 0.5H338C347.665 0.5 355.5 8.33524 355.5 18.0005C355.5 27.6658 347.665 35.501 338 35.501H242.371V0.5Z" stroke="#D1D5E4"/>
<defs>
<linearGradient id="paint0_linear_1678_87997" x1="12.7419" y1="6.00008" x2="84.4827" y2="43.7835" gradientUnits="userSpaceOnUse">
<stop stop-color="#0066FF"/>
<stop offset="1" stop-color="#59C2C9"/>
</linearGradient>
<linearGradient id="paint1_linear_1678_87997" x1="101.538" y1="9.79297" x2="120.096" y2="12.7618" gradientUnits="userSpaceOnUse">
<stop stop-color="#0066FF"/>
<stop offset="1" stop-color="#59C2C9"/>
</linearGradient>
</defs>
</svg>
