<svg width="427" height="201" viewBox="0 0 427 201" fill="none" xmlns="http://www.w3.org/2000/svg">
<path d="M425.075 86.1445H0.444336V201.002H425.075V86.1445Z" fill="#FEFBFF"/>
<path d="M211.372 125.047H18.9468V162.098H211.372V125.047Z" fill="#FEFBFF"/>
<path d="M53.6364 138.941C56.1231 138.941 58.0141 137.022 58.0141 134.402C58.0141 131.783 56.1231 129.864 53.6364 129.864H50.3726V138.941H53.6364ZM52.1081 131.523H53.6364C55.1258 131.523 56.2915 132.691 56.2915 134.402C56.2915 136.114 55.1258 137.281 53.6364 137.281H52.1081V131.523ZM62.4051 139.071C64.1924 139.071 65.1638 137.929 65.4616 137.022H63.8038C63.5966 137.346 63.1044 137.709 62.4051 137.709C61.4984 137.709 60.7861 137.074 60.6825 136.192H65.5782C65.6041 136.088 65.643 135.829 65.643 135.518C65.643 133.637 64.2442 132.237 62.4051 132.237C60.5012 132.237 59.0635 133.676 59.0635 135.66C59.0635 137.631 60.5012 139.071 62.4051 139.071ZM60.6825 135.103C60.812 134.247 61.4466 133.585 62.4051 133.585C63.2987 133.585 63.9333 134.247 64.024 135.103H60.6825ZM70.5296 138.941L72.7831 132.366H71.0865L69.5323 137.009H69.2732L67.719 132.366H66.0224L68.276 138.941H70.5296ZM74.4707 131.433C75.0146 131.433 75.4291 131.044 75.4291 130.525C75.4291 129.993 75.0146 129.617 74.4707 129.617C73.9267 129.617 73.5252 129.993 73.5252 130.525C73.5252 131.044 73.9267 131.433 74.4707 131.433ZM75.2866 138.941V132.366H73.6547V138.941H75.2866ZM79.9228 139.071C81.7619 139.071 82.811 137.813 83.0571 136.49H81.4122C81.2438 137.074 80.7776 137.566 79.9228 137.566C78.9902 137.566 78.2131 136.801 78.2131 135.66C78.2131 134.506 78.9902 133.754 79.9228 133.754C80.7776 133.754 81.2438 134.247 81.4122 134.778H83.0571C82.811 133.495 81.7619 132.237 79.9228 132.237C78.0189 132.237 76.5812 133.676 76.5812 135.66C76.5812 137.631 78.0189 139.071 79.9228 139.071ZM87.2966 139.071C89.084 139.071 90.0553 137.929 90.3532 137.022H88.6954C88.4882 137.346 87.996 137.709 87.2966 137.709C86.39 137.709 85.6777 137.074 85.5741 136.192H90.4698C90.4957 136.088 90.5346 135.829 90.5346 135.518C90.5346 133.637 89.1358 132.237 87.2966 132.237C85.3927 132.237 83.9551 133.676 83.9551 135.66C83.9551 137.631 85.3927 139.071 87.2966 139.071ZM85.5741 135.103C85.7036 134.247 86.3382 133.585 87.2966 133.585C88.1903 133.585 88.8249 134.247 88.9156 135.103H85.5741ZM98.1094 141.664C100.104 141.664 101.283 140.497 101.283 138.772V132.366H99.8709L99.7414 133.08H99.6766C99.2751 132.587 98.6534 132.237 97.7856 132.237C96.1019 132.237 94.8068 133.533 94.8068 135.401C94.8068 137.268 96.1019 138.565 97.7856 138.565C98.6016 138.565 99.2621 138.215 99.5859 137.852H99.6507V138.759C99.6507 139.654 99.042 140.238 98.1094 140.238C97.1251 140.238 96.7107 139.667 96.6459 139.252H94.9881C95.0269 140.186 95.8817 141.664 98.1094 141.664ZM98.0447 137.113C97.151 137.113 96.4387 136.412 96.4387 135.401C96.4387 134.389 97.151 133.689 98.0447 133.689C98.9383 133.689 99.6507 134.389 99.6507 135.401C99.6507 136.412 98.9383 137.113 98.0447 137.113ZM104.542 138.941V135.193C104.542 134.337 104.969 133.909 105.798 133.909H106.899V132.366H105.694C105.086 132.366 104.71 132.626 104.516 132.937H104.451L104.322 132.366H102.91V138.941H104.542ZM110.759 139.071C112.663 139.071 114.1 137.631 114.1 135.66C114.1 133.676 112.663 132.237 110.759 132.237C108.842 132.237 107.417 133.676 107.417 135.66C107.417 137.631 108.842 139.071 110.759 139.071ZM110.759 137.553C109.813 137.553 109.036 136.801 109.036 135.66C109.036 134.506 109.813 133.754 110.759 133.754C111.691 133.754 112.468 134.506 112.468 135.66C112.468 136.801 111.691 137.553 110.759 137.553ZM117.971 139.071C118.865 139.071 119.551 138.682 119.862 138.319H119.927L120.056 138.941H121.455V132.366H119.823V136.101C119.823 136.905 119.227 137.528 118.398 137.528C117.595 137.528 117.012 136.931 117.012 136.101V132.366H115.381V136.322C115.381 137.981 116.468 139.071 117.971 139.071ZM124.716 141.535V138.28H124.781C125.104 138.695 125.739 139.071 126.633 139.071C128.316 139.071 129.676 137.696 129.676 135.66C129.676 133.624 128.316 132.237 126.633 132.237C125.726 132.237 125.066 132.613 124.69 133.106H124.625L124.496 132.366H123.084V141.535H124.716ZM126.387 137.566C125.467 137.566 124.716 136.827 124.716 135.66C124.716 134.48 125.467 133.754 126.387 133.754C127.306 133.754 128.044 134.48 128.044 135.66C128.044 136.827 127.306 137.566 126.387 137.566ZM135.935 138.941V135.219C135.935 134.402 136.531 133.793 137.36 133.793C138.175 133.793 138.745 134.389 138.745 135.219V138.941H140.377V134.999C140.377 133.339 139.289 132.237 137.787 132.237C136.803 132.237 136.155 132.691 135.909 133.002H135.844L135.715 132.366H134.303V138.941H135.935ZM144.04 139.071C144.998 139.071 145.672 138.63 145.918 138.306H145.983L146.112 138.941H147.524V134.752C147.524 133.3 146.449 132.237 144.713 132.237C142.978 132.237 142.032 133.287 141.929 134.337H143.522C143.612 133.974 143.988 133.585 144.713 133.585C145.426 133.585 145.892 134.065 145.892 134.752V134.895H144.351C142.537 134.895 141.67 135.79 141.67 137.048C141.67 138.189 142.576 139.071 144.04 139.071ZM144.325 137.761C143.664 137.761 143.302 137.424 143.302 136.918C143.302 136.425 143.664 136.062 144.519 136.062H145.892V136.257C145.892 137.177 145.309 137.761 144.325 137.761ZM150.745 138.941V135.064C150.745 134.324 151.276 133.793 151.963 133.793C152.623 133.793 153.076 134.26 153.076 135.064V138.941H154.708V135.064C154.708 134.324 155.252 133.793 155.913 133.793C156.586 133.793 157.04 134.26 157.04 135.064V138.941H158.659V134.869C158.659 133.339 157.622 132.237 156.25 132.237C155.239 132.237 154.501 132.768 154.216 133.209H154.151C153.931 132.807 153.297 132.237 152.325 132.237C151.574 132.237 150.952 132.665 150.719 133.002H150.654L150.525 132.366H149.113V138.941H150.745ZM163.261 139.071C165.048 139.071 166.02 137.929 166.318 137.022H164.66C164.453 137.346 163.96 137.709 163.261 137.709C162.354 137.709 161.642 137.074 161.538 136.192H166.434C166.46 136.088 166.499 135.829 166.499 135.518C166.499 133.637 165.1 132.237 163.261 132.237C161.357 132.237 159.92 133.676 159.92 135.66C159.92 137.631 161.357 139.071 163.261 139.071ZM161.538 135.103C161.668 134.247 162.303 133.585 163.261 133.585C164.155 133.585 164.789 134.247 164.88 135.103H161.538Z" fill="#0066FF"/>
<path d="M97.1881 157.465V148.387H96.152V149.036C96.152 149.295 96.0225 149.425 95.7634 149.425H94.2092V150.333H96.152V157.465H97.1881ZM102.433 157.595C104.311 157.595 105.93 155.974 105.93 152.926C105.93 149.879 104.311 148.258 102.433 148.258C100.555 148.258 98.9357 149.879 98.9357 152.926C98.9357 155.974 100.555 157.595 102.433 157.595ZM102.433 156.622C101.137 156.622 99.9718 155.39 99.9718 152.926C99.9718 150.462 101.137 149.23 102.433 149.23C103.728 149.23 104.893 150.462 104.893 152.926C104.893 155.39 103.728 156.622 102.433 156.622ZM113.647 157.595C115.784 157.595 116.95 156.492 116.95 155.001C116.95 153.639 116.173 152.861 114.359 152.537L112.935 152.278C111.911 152.096 111.445 151.565 111.445 150.851C111.445 149.944 112.157 149.23 113.517 149.23C115.007 149.23 115.849 150.073 115.849 151.046H116.885C116.885 149.49 115.59 148.258 113.517 148.258C111.575 148.258 110.409 149.36 110.409 150.851C110.409 152.148 111.173 152.913 112.611 153.186L114.359 153.51C115.395 153.704 115.913 154.223 115.913 155.001C115.913 155.909 115.266 156.622 113.647 156.622C112.093 156.622 111.251 155.779 111.251 154.807H110.215C110.215 156.298 111.51 157.595 113.647 157.595ZM119.673 157.465V148.387H118.637V157.465H119.673ZM122.784 157.465V149.749H123.043L125.763 157.465H127.317L130.037 149.749H130.296V157.465H131.332V148.387H129.454L126.67 156.298H126.411L123.626 148.387H121.748V157.465H122.784ZM138.985 157.595C140.41 157.595 141.511 156.752 141.834 155.325H140.863C140.604 156.233 139.892 156.687 138.985 156.687C137.819 156.687 136.848 155.714 136.848 154.223C136.848 152.732 137.819 151.759 138.985 151.759C139.892 151.759 140.604 152.213 140.863 153.056H141.834C141.511 151.694 140.41 150.851 138.985 150.851C137.237 150.851 135.877 152.213 135.877 154.223C135.877 156.233 137.237 157.595 138.985 157.595ZM145.204 157.595C146.24 157.595 146.965 157.076 147.211 156.687H147.276L147.406 157.465H148.247V153.315C148.247 151.759 147.276 150.851 145.722 150.851C144.103 150.851 143.196 151.824 143.131 152.861H144.103C144.168 152.278 144.75 151.759 145.722 151.759C146.693 151.759 147.276 152.343 147.276 153.315V153.51H145.528C143.714 153.51 142.937 154.353 142.937 155.585C142.937 156.752 143.844 157.595 145.204 157.595ZM145.204 156.687C144.362 156.687 143.909 156.233 143.909 155.585C143.909 154.936 144.362 154.417 145.528 154.417H147.276V154.677C147.276 155.909 146.499 156.687 145.204 156.687ZM151.036 157.465V153.315C151.036 152.407 151.554 151.889 152.46 151.889H153.432V150.981H152.331C151.619 150.981 151.36 151.24 151.1 151.629H151.036L150.906 150.981H150.064V157.465H151.036ZM156.93 157.595C157.836 157.595 158.484 157.206 159.002 156.557H159.067L159.196 157.465H160.038V148.387H159.067V151.889H159.002C158.484 151.24 157.836 150.851 156.93 150.851C155.246 150.851 153.951 152.213 153.951 154.223C153.951 156.233 155.246 157.595 156.93 157.595ZM156.994 156.687C155.894 156.687 154.922 155.714 154.922 154.223C154.922 152.732 155.894 151.759 156.994 151.759C158.095 151.759 159.067 152.732 159.067 154.223C159.067 155.714 158.095 156.687 156.994 156.687ZM163.988 157.595C165.672 157.595 166.514 156.752 166.514 155.714C166.514 154.677 165.931 154.067 164.636 153.834L163.535 153.639C162.758 153.497 162.499 153.186 162.499 152.732C162.499 152.213 162.952 151.759 163.924 151.759C164.895 151.759 165.478 152.278 165.478 152.861H166.449C166.449 151.824 165.478 150.851 163.924 150.851C162.305 150.851 161.528 151.694 161.528 152.732C161.528 153.756 162.149 154.34 163.341 154.547L164.442 154.742C165.219 154.884 165.543 155.196 165.543 155.714C165.543 156.233 165.024 156.687 163.988 156.687C162.952 156.687 162.369 156.168 162.369 155.585H161.398C161.398 156.622 162.369 157.595 163.988 157.595Z" fill="#6E7894"/>
<g filter="url(#filter0_dd_1682_88049)">
<path d="M192.87 162.098C203.088 162.098 211.372 153.803 211.372 143.572C211.372 133.341 203.088 125.047 192.87 125.047C182.651 125.047 174.367 133.341 174.367 143.572C174.367 153.803 182.651 162.098 192.87 162.098Z" fill="#F2F4FF"/>
<path d="M196.279 146.393C196.279 146.111 196.46 145.93 196.74 145.93C197.02 145.93 197.202 146.111 197.202 146.393C197.202 146.566 197.135 146.67 197.079 146.727C197.022 146.786 196.916 146.855 196.74 146.855C196.565 146.855 196.459 146.786 196.402 146.727C196.344 146.67 196.279 146.566 196.279 146.393Z" fill="white"/>
<path d="M196.279 146.393C196.279 146.111 196.46 145.93 196.74 145.93C197.02 145.93 197.202 146.111 197.202 146.393C197.202 146.566 197.135 146.67 197.079 146.727C197.022 146.786 196.916 146.855 196.74 146.855C196.565 146.855 196.459 146.786 196.402 146.727C196.344 146.67 196.279 146.566 196.279 146.393Z" fill="url(#paint0_linear_1682_88049)"/>
<path d="M197.083 141.373H197.647C198.493 141.373 198.939 141.821 198.939 142.667V146.673C198.939 147.519 198.493 147.967 197.647 147.967H195.835C194.99 147.967 194.543 147.519 194.543 146.673V146.611H188.828C188.149 146.611 187.631 146.41 187.284 146.012C186.961 145.642 186.798 145.106 186.798 144.418V141.367C186.798 140.679 186.961 140.143 187.284 139.775C187.631 139.379 188.151 139.176 188.828 139.176H195.053C195.731 139.176 196.25 139.377 196.597 139.775C196.918 140.145 197.083 140.681 197.083 141.369V141.373ZM198.121 147.152C198.206 147.068 198.248 146.906 198.248 146.675V142.667C198.248 142.205 198.109 142.065 197.647 142.065H195.834C195.384 142.065 195.232 142.217 195.232 142.667V146.675C195.232 146.908 195.275 147.068 195.36 147.152C195.444 147.237 195.603 147.278 195.835 147.278H197.646C197.877 147.278 198.036 147.235 198.121 147.152Z" fill="white"/>
<path d="M197.083 141.373H197.647C198.493 141.373 198.939 141.821 198.939 142.667V146.673C198.939 147.519 198.493 147.967 197.647 147.967H195.835C194.99 147.967 194.543 147.519 194.543 146.673V146.611H188.828C188.149 146.611 187.631 146.41 187.284 146.012C186.961 145.642 186.798 145.106 186.798 144.418V141.367C186.798 140.679 186.961 140.143 187.284 139.775C187.631 139.379 188.151 139.176 188.828 139.176H195.053C195.731 139.176 196.25 139.377 196.597 139.775C196.918 140.145 197.083 140.681 197.083 141.369V141.373ZM198.121 147.152C198.206 147.068 198.248 146.906 198.248 146.675V142.667C198.248 142.205 198.109 142.065 197.647 142.065H195.834C195.384 142.065 195.232 142.217 195.232 142.667V146.675C195.232 146.908 195.275 147.068 195.36 147.152C195.444 147.237 195.603 147.278 195.835 147.278H197.646C197.877 147.278 198.036 147.235 198.121 147.152Z" fill="url(#paint1_linear_1682_88049)"/>
<path d="M193.372 147.281H190.339C190.15 147.281 189.994 147.437 189.994 147.628C189.994 147.818 190.15 147.973 190.339 147.973H193.372C193.562 147.973 193.717 147.818 193.717 147.628C193.717 147.437 193.562 147.281 193.372 147.281Z" fill="white"/>
<path d="M193.372 147.281H190.339C190.15 147.281 189.994 147.437 189.994 147.628C189.994 147.818 190.15 147.973 190.339 147.973H193.372C193.562 147.973 193.717 147.818 193.717 147.628C193.717 147.437 193.562 147.281 193.372 147.281Z" fill="url(#paint2_linear_1682_88049)"/>
</g>
<path d="M212.605 143.572C212.605 144.936 213.71 146.042 215.073 146.042C216.435 146.042 217.54 144.936 217.54 143.572C217.54 142.208 216.435 141.102 215.073 141.102C213.71 141.102 212.605 142.208 212.605 143.572ZM339.347 143.572C339.347 144.936 340.451 146.042 341.814 146.042C343.177 146.042 344.281 144.936 344.281 143.572C344.281 142.208 343.177 141.102 341.814 141.102C340.451 141.102 339.347 142.208 339.347 143.572ZM215.073 144.035H341.814V143.109H215.073V144.035Z" fill="#4CAF50"/>
<path d="M406.572 104.668H345.514V182.474H406.572V104.668Z" fill="#FEFBFF"/>
<path d="M376.044 163.949C392.393 163.949 405.647 150.679 405.647 134.309C405.647 117.938 392.393 104.668 376.044 104.668C359.694 104.668 346.44 117.938 346.44 134.309C346.44 150.679 359.694 163.949 376.044 163.949Z" fill="white"/>
<path d="M376.044 163.949C392.393 163.949 405.647 150.679 405.647 134.309C405.647 117.938 392.393 104.668 376.044 104.668C359.694 104.668 346.44 117.938 346.44 134.309C346.44 150.679 359.694 163.949 376.044 163.949Z" fill="url(#paint3_linear_1682_88049)" fill-opacity="0.1"/>
<path d="M370.336 125.191H381.743C382.332 125.191 382.868 125.723 382.871 126.304V142.313C382.871 142.904 382.344 143.426 381.746 143.426H377.999V138.325C377.999 138.115 377.831 137.946 377.624 137.946H374.459C374.251 137.946 374.083 138.115 374.083 138.325V143.426H370.336C369.738 143.426 369.211 142.907 369.211 142.313V126.304C369.211 125.723 369.748 125.191 370.336 125.191ZM374.85 130.78C375.058 130.78 375.227 130.611 375.227 130.401V127.978C375.227 127.767 375.058 127.599 374.85 127.599H372.456C372.249 127.599 372.08 127.767 372.08 127.978V130.401C372.08 130.609 372.249 130.78 372.456 130.78H374.85ZM379.96 130.401V127.978C379.96 127.767 379.792 127.599 379.585 127.599H377.191C376.983 127.599 376.815 127.767 376.815 127.978V130.401C376.815 130.609 376.983 130.78 377.191 130.78H379.585C379.792 130.78 379.96 130.611 379.96 130.401ZM379.96 135.16V132.734C379.96 132.527 379.792 132.355 379.585 132.355H377.191C376.983 132.355 376.815 132.524 376.815 132.734V135.16C376.815 135.367 376.983 135.539 377.191 135.539H379.585C379.792 135.539 379.96 135.37 379.96 135.16ZM375.227 135.16V132.734C375.227 132.527 375.058 132.355 374.85 132.355H372.456C372.249 132.355 372.08 132.524 372.08 132.734V135.16C372.08 135.367 372.249 135.539 372.456 135.539H374.85C375.058 135.539 375.227 135.37 375.227 135.16Z" fill="#0066FF"/>
<path d="M350.094 177.973C352.399 177.973 353.604 176.78 353.604 175.25C353.604 173.758 352.827 172.98 351.013 172.656L349.589 172.397C348.695 172.228 348.358 171.904 348.358 171.359C348.358 170.711 348.902 170.166 349.964 170.166C351.13 170.166 351.816 170.854 351.816 171.645H353.539C353.539 169.907 352.244 168.636 349.964 168.636C347.84 168.636 346.636 169.829 346.636 171.359C346.636 172.747 347.413 173.538 348.967 173.823L350.495 174.109C351.493 174.29 351.881 174.692 351.881 175.25C351.881 175.898 351.363 176.443 350.094 176.443C348.837 176.443 348.164 175.781 348.164 174.977H346.441C346.441 176.637 347.775 177.973 350.094 177.973ZM355.803 170.335C356.347 170.335 356.761 169.946 356.761 169.427C356.761 168.896 356.347 168.52 355.803 168.52C355.259 168.52 354.857 168.896 354.857 169.427C354.857 169.946 355.259 170.335 355.803 170.335ZM356.619 177.843V171.269H354.987V177.843H356.619ZM361.916 177.843V176.365H360.854C360.556 176.365 360.426 176.235 360.426 175.937V172.812H361.916V171.269H360.426V169.298H358.795V171.269H357.758V172.812H358.795V176.274C358.795 177.247 359.39 177.843 360.465 177.843H361.916ZM366.061 177.973C367.849 177.973 368.82 176.832 369.118 175.924H367.46C367.253 176.248 366.761 176.611 366.061 176.611C365.155 176.611 364.442 175.976 364.339 175.094H369.235C369.26 174.99 369.299 174.731 369.299 174.42C369.299 172.54 367.9 171.139 366.061 171.139C364.157 171.139 362.72 172.578 362.72 174.562C362.72 176.534 364.157 177.973 366.061 177.973ZM364.339 174.005C364.468 173.149 365.103 172.488 366.061 172.488C366.955 172.488 367.59 173.149 367.68 174.005H364.339ZM375.541 177.843V174.122C375.541 173.305 376.137 172.695 376.966 172.695C377.782 172.695 378.352 173.292 378.352 174.122V177.843H379.983V173.901C379.983 172.241 378.896 171.139 377.393 171.139C376.409 171.139 375.761 171.593 375.515 171.904H375.45L375.321 171.269H373.909V177.843H375.541ZM383.646 177.973C384.604 177.973 385.278 177.532 385.524 177.208H385.589L385.718 177.843H387.13V173.655C387.13 172.202 386.055 171.139 384.32 171.139C382.584 171.139 381.639 172.189 381.535 173.24H383.128C383.219 172.877 383.594 172.488 384.32 172.488C385.032 172.488 385.498 172.967 385.498 173.655V173.797H383.957C382.144 173.797 381.276 174.692 381.276 175.95C381.276 177.091 382.182 177.973 383.646 177.973ZM383.931 176.663C383.27 176.663 382.908 176.326 382.908 175.82C382.908 175.328 383.27 174.964 384.125 174.964H385.498V175.159C385.498 176.08 384.915 176.663 383.931 176.663ZM390.351 177.843V173.966C390.351 173.227 390.882 172.695 391.569 172.695C392.229 172.695 392.683 173.162 392.683 173.966V177.843H394.315V173.966C394.315 173.227 394.859 172.695 395.519 172.695C396.193 172.695 396.646 173.162 396.646 173.966V177.843H398.265V173.771C398.265 172.241 397.229 171.139 395.856 171.139C394.846 171.139 394.107 171.671 393.822 172.112H393.758C393.537 171.71 392.903 171.139 391.931 171.139C391.18 171.139 390.559 171.567 390.325 171.904H390.261L390.131 171.269H388.719V177.843H390.351ZM402.867 177.973C404.655 177.973 405.626 176.832 405.924 175.924H404.266C404.059 176.248 403.567 176.611 402.867 176.611C401.961 176.611 401.248 175.976 401.145 175.094H406.04C406.066 174.99 406.105 174.731 406.105 174.42C406.105 172.54 404.706 171.139 402.867 171.139C400.963 171.139 399.526 172.578 399.526 174.562C399.526 176.534 400.963 177.973 402.867 177.973ZM401.145 174.005C401.274 173.149 401.909 172.488 402.867 172.488C403.761 172.488 404.396 173.149 404.486 174.005H401.145Z" fill="#031A34"/>
<g filter="url(#filter1_dd_1682_88049)">
<path d="M385.295 2.77734H165.116C161.029 2.77734 157.715 6.09498 157.715 10.1875V121.341C157.715 125.434 161.029 128.752 165.116 128.752H385.295C389.382 128.752 392.696 125.434 392.696 121.341V10.1875C392.696 6.09498 389.382 2.77734 385.295 2.77734Z" fill="#FEFEFF"/>
<path d="M169.808 27.0071C167.159 27.0071 165.634 25.4806 165.634 23.5836H167.603C167.603 24.5025 168.372 25.2583 169.808 25.2583C171.259 25.2583 171.851 24.6359 171.851 23.8948C171.851 23.2576 171.407 22.7981 170.267 22.5907L168.52 22.2646C166.744 21.9386 165.856 21.0345 165.856 19.4488C165.856 17.7 167.233 16.3365 169.66 16.3365C172.265 16.3365 173.745 17.7889 173.745 19.7748H171.777C171.777 18.8708 170.992 18.0853 169.66 18.0853C168.446 18.0853 167.825 18.7078 167.825 19.4488C167.825 20.0712 168.21 20.4417 169.231 20.6344L170.859 20.9308C172.931 21.3013 173.82 22.1905 173.82 23.8948C173.82 25.6436 172.443 27.0071 169.808 27.0071ZM176.333 18.278C175.711 18.278 175.253 17.8334 175.253 17.2405C175.253 16.6329 175.711 16.2031 176.333 16.2031C176.955 16.2031 177.428 16.6329 177.428 17.2405C177.428 17.8334 176.955 18.278 176.333 18.278ZM177.266 26.8589H175.401V19.345H177.266V26.8589ZM183.32 26.8589H181.662C180.433 26.8589 179.752 26.1772 179.752 25.0656V21.1086H178.568V19.345H179.752V17.0923H181.617V19.345H183.32V21.1086H181.617V24.6803C181.617 25.0212 181.765 25.1694 182.106 25.1694H183.32V26.8589ZM188.057 27.0071C185.881 27.0071 184.238 25.3621 184.238 23.1094C184.238 20.8419 185.881 19.1968 188.057 19.1968C190.159 19.1968 191.758 20.7974 191.758 22.9463C191.758 23.302 191.713 23.5984 191.684 23.717H186.088C186.207 24.7248 187.021 25.451 188.057 25.451C188.856 25.451 189.419 25.036 189.656 24.6655H191.55C191.21 25.7029 190.1 27.0071 188.057 27.0071ZM186.088 22.4721H189.907C189.804 21.494 189.078 20.7381 188.057 20.7381C186.962 20.7381 186.236 21.494 186.088 22.4721ZM198.89 26.8589H197.025V19.345H198.639L198.787 20.0712H198.861C199.142 19.7155 199.882 19.1968 201.007 19.1968C202.724 19.1968 203.967 20.4565 203.967 22.3535V26.8589H202.102V22.6055C202.102 21.657 201.451 20.9753 200.518 20.9753C199.571 20.9753 198.89 21.6718 198.89 22.6055V26.8589ZM208.154 27.0071C206.481 27.0071 205.445 25.9993 205.445 24.6951C205.445 23.2576 206.436 22.235 208.509 22.235H210.27V22.072C210.27 21.2865 209.737 20.7381 208.923 20.7381C208.094 20.7381 207.665 21.1827 207.561 21.5977H205.741C205.859 20.3973 206.94 19.1968 208.923 19.1968C210.907 19.1968 212.135 20.4121 212.135 22.072V26.8589H210.522L210.374 26.1327H210.3C210.019 26.5032 209.249 27.0071 208.154 27.0071ZM208.479 25.5103C209.604 25.5103 210.27 24.8433 210.27 23.7911V23.5688H208.701C207.724 23.5688 207.31 23.9838 207.31 24.5469C207.31 25.1249 207.724 25.5103 208.479 25.5103ZM215.817 26.8589H213.952V19.345H215.566L215.714 20.0712H215.788C216.054 19.6859 216.765 19.1968 217.623 19.1968C218.733 19.1968 219.458 19.8489 219.71 20.3083H219.784C220.11 19.8045 220.953 19.1968 222.108 19.1968C223.677 19.1968 224.861 20.4565 224.861 22.2053V26.8589H223.011V22.4276C223.011 21.5088 222.493 20.9753 221.723 20.9753C220.968 20.9753 220.347 21.5829 220.347 22.4276V26.8589H218.482V22.4276C218.482 21.5088 217.963 20.9753 217.209 20.9753C216.424 20.9753 215.817 21.5829 215.817 22.4276V26.8589ZM230.121 27.0071C227.946 27.0071 226.303 25.3621 226.303 23.1094C226.303 20.8419 227.946 19.1968 230.121 19.1968C232.223 19.1968 233.822 20.7974 233.822 22.9463C233.822 23.302 233.777 23.5984 233.748 23.717H228.153C228.271 24.7248 229.085 25.451 230.121 25.451C230.921 25.451 231.483 25.036 231.72 24.6655H233.615C233.274 25.7029 232.164 27.0071 230.121 27.0071ZM228.153 22.4721H231.972C231.868 21.494 231.143 20.7381 230.121 20.7381C229.026 20.7381 228.301 21.494 228.153 22.4721Z" fill="#031A34"/>
<path d="M241.901 10.1876V32.418H242.826V10.1876H241.901Z" fill="white"/>
<path d="M241.901 10.1876V32.418H242.826V10.1876H241.901Z" fill="url(#paint4_linear_1682_88049)"/>
<path d="M255.038 26.8589H251.308V16.4847H255.038C257.88 16.4847 260.041 18.6781 260.041 21.6718C260.041 24.6655 257.88 26.8589 255.038 26.8589ZM253.291 18.3817V24.9619H255.038C256.74 24.9619 258.072 23.6281 258.072 21.6718C258.072 19.7155 256.74 18.3817 255.038 18.3817H253.291ZM265.06 27.0071C262.884 27.0071 261.241 25.3621 261.241 23.1094C261.241 20.8419 262.884 19.1968 265.06 19.1968C267.161 19.1968 268.76 20.7974 268.76 22.9463C268.76 23.302 268.716 23.5984 268.686 23.717H263.091C263.209 24.7248 264.023 25.451 265.06 25.451C265.859 25.451 266.421 25.036 266.658 24.6655H268.553C268.212 25.7029 267.102 27.0071 265.06 27.0071ZM263.091 22.4721H266.91C266.806 21.494 266.081 20.7381 265.06 20.7381C263.964 20.7381 263.239 21.494 263.091 22.4721ZM274.344 26.8589H271.769L269.193 19.345H271.132L272.908 24.6507H273.204L274.981 19.345H276.92L274.344 26.8589ZM278.848 18.278C278.227 18.278 277.768 17.8334 277.768 17.2405C277.768 16.6329 278.227 16.2031 278.848 16.2031C279.47 16.2031 279.944 16.6329 279.944 17.2405C279.944 17.8334 279.47 18.278 278.848 18.278ZM279.781 26.8589H277.916V19.345H279.781V26.8589ZM285.079 27.0071C282.903 27.0071 281.26 25.3621 281.26 23.1094C281.26 20.8419 282.903 19.1968 285.079 19.1968C287.181 19.1968 288.38 20.6344 288.661 22.1016H286.781C286.589 21.494 286.056 20.9308 285.079 20.9308C284.013 20.9308 283.125 21.7904 283.125 23.1094C283.125 24.4136 284.013 25.288 285.079 25.288C286.056 25.288 286.589 24.7248 286.781 24.0579H288.661C288.38 25.5695 287.181 27.0071 285.079 27.0071ZM293.507 27.0071C291.331 27.0071 289.688 25.3621 289.688 23.1094C289.688 20.8419 291.331 19.1968 293.507 19.1968C295.609 19.1968 297.207 20.7974 297.207 22.9463C297.207 23.302 297.163 23.5984 297.133 23.717H291.538C291.657 24.7248 292.471 25.451 293.507 25.451C294.306 25.451 294.869 25.036 295.106 24.6655H297C296.66 25.7029 295.55 27.0071 293.507 27.0071ZM291.538 22.4721H295.357C295.254 21.494 294.528 20.7381 293.507 20.7381C292.412 20.7381 291.686 21.494 291.538 22.4721ZM305.865 29.9712C303.319 29.9712 302.342 28.2817 302.298 27.2146H304.192C304.266 27.6888 304.74 28.3409 305.865 28.3409C306.931 28.3409 307.626 27.674 307.626 26.6514V25.614H307.552C307.182 26.029 306.427 26.4291 305.495 26.4291C303.57 26.4291 302.09 24.9471 302.09 22.813C302.09 20.6788 303.57 19.1968 305.495 19.1968C306.486 19.1968 307.197 19.597 307.656 20.1601H307.73L307.878 19.345H309.491V26.6662C309.491 28.6373 308.144 29.9712 305.865 29.9712ZM305.791 24.7692C306.812 24.7692 307.626 23.9689 307.626 22.813C307.626 21.657 306.812 20.8567 305.791 20.8567C304.769 20.8567 303.955 21.657 303.955 22.813C303.955 23.9689 304.769 24.7692 305.791 24.7692ZM313.216 26.8589H311.351V19.345H312.964L313.112 19.9971H313.186C313.408 19.6414 313.837 19.345 314.533 19.345H315.91V21.1086H314.652C313.704 21.1086 313.216 21.5977 313.216 22.5758V26.8589ZM320.321 27.0071C318.13 27.0071 316.502 25.3621 316.502 23.1094C316.502 20.8419 318.13 19.1968 320.321 19.1968C322.497 19.1968 324.14 20.8419 324.14 23.1094C324.14 25.3621 322.497 27.0071 320.321 27.0071ZM320.321 25.2731C321.386 25.2731 322.275 24.4136 322.275 23.1094C322.275 21.7904 321.386 20.9308 320.321 20.9308C319.24 20.9308 318.352 21.7904 318.352 23.1094C318.352 24.4136 319.24 25.2731 320.321 25.2731ZM328.564 27.0071C326.847 27.0071 325.603 25.7622 325.603 23.8652V19.345H327.468V23.6133C327.468 24.5618 328.134 25.2435 329.052 25.2435C329.999 25.2435 330.68 24.5321 330.68 23.6133V19.345H332.545V26.8589H330.947L330.799 26.1475H330.725C330.369 26.5625 329.585 27.0071 328.564 27.0071ZM336.271 29.823H334.406V19.345H336.019L336.167 20.1898H336.241C336.67 19.6266 337.425 19.1968 338.461 19.1968C340.386 19.1968 341.94 20.7826 341.94 23.1094C341.94 25.4362 340.386 27.0071 338.461 27.0071C337.44 27.0071 336.715 26.5773 336.345 26.1031H336.271V29.823ZM338.18 25.288C339.231 25.288 340.075 24.4432 340.075 23.1094C340.075 21.7607 339.231 20.9308 338.18 20.9308C337.129 20.9308 336.271 21.7607 336.271 23.1094C336.271 24.4432 337.129 25.288 338.18 25.288ZM349.093 26.8589H347.228V19.345H348.841L348.989 20.0712H349.063C349.345 19.7155 350.085 19.1968 351.21 19.1968C352.927 19.1968 354.17 20.4565 354.17 22.3535V26.8589H352.305V22.6055C352.305 21.657 351.654 20.9753 350.721 20.9753C349.774 20.9753 349.093 21.6718 349.093 22.6055V26.8589ZM358.356 27.0071C356.684 27.0071 355.647 25.9993 355.647 24.6951C355.647 23.2576 356.639 22.235 358.711 22.235H360.473V22.072C360.473 21.2865 359.94 20.7381 359.126 20.7381C358.297 20.7381 357.868 21.1827 357.764 21.5977H355.943C356.062 20.3973 357.142 19.1968 359.126 19.1968C361.109 19.1968 362.338 20.4121 362.338 22.072V26.8589H360.724L360.576 26.1327H360.502C360.221 26.5032 359.451 27.0071 358.356 27.0071ZM358.682 25.5103C359.807 25.5103 360.473 24.8433 360.473 23.7911V23.5688H358.904C357.927 23.5688 357.512 23.9838 357.512 24.5469C357.512 25.1249 357.927 25.5103 358.682 25.5103ZM366.02 26.8589H364.155V19.345H365.768L365.916 20.0712H365.99C366.257 19.6859 366.967 19.1968 367.826 19.1968C368.936 19.1968 369.661 19.8489 369.913 20.3083H369.987C370.312 19.8045 371.156 19.1968 372.311 19.1968C373.88 19.1968 375.064 20.4565 375.064 22.2053V26.8589H373.214V22.4276C373.214 21.5088 372.696 20.9753 371.926 20.9753C371.171 20.9753 370.549 21.5829 370.549 22.4276V26.8589H368.684V22.4276C368.684 21.5088 368.166 20.9753 367.411 20.9753C366.627 20.9753 366.02 21.5829 366.02 22.4276V26.8589ZM380.323 27.0071C378.147 27.0071 376.504 25.3621 376.504 23.1094C376.504 20.8419 378.147 19.1968 380.323 19.1968C382.425 19.1968 384.024 20.7974 384.024 22.9463C384.024 23.302 383.979 23.5984 383.95 23.717H378.354C378.473 24.7248 379.287 25.451 380.323 25.451C381.122 25.451 381.685 25.036 381.922 24.6655H383.816C383.476 25.7029 382.366 27.0071 380.323 27.0071ZM378.354 22.4721H382.173C382.07 21.494 381.344 20.7381 380.323 20.7381C379.228 20.7381 378.502 21.494 378.354 22.4721Z" fill="#031A34"/>
<path d="M168.891 49.0922H167.706V40.9411H165.486V39.9037H167.262C167.558 39.9037 167.706 39.7555 167.706 39.4591V38.718H168.891V49.0922ZM174.884 49.2404C172.738 49.2404 170.888 47.3879 170.888 43.9051C170.888 40.4224 172.738 38.5698 174.884 38.5698C177.031 38.5698 178.881 40.4224 178.881 43.9051C178.881 47.3879 177.031 49.2404 174.884 49.2404ZM174.884 48.1289C176.365 48.1289 177.697 46.721 177.697 43.9051C177.697 41.0893 176.365 39.6814 174.884 39.6814C173.404 39.6814 172.072 41.0893 172.072 43.9051C172.072 46.721 173.404 48.1289 174.884 48.1289ZM180.812 52.0563H179.702L183.772 38.2734H184.882L180.812 52.0563ZM188.65 49.0922H187.466V40.9411H185.246V39.9037H187.022C187.318 39.9037 187.466 39.7555 187.466 39.4591V38.718H188.65V49.0922ZM194.645 49.2404C192.499 49.2404 190.648 47.3879 190.648 43.9051C190.648 40.4224 192.499 38.5698 194.645 38.5698C196.791 38.5698 198.641 40.4224 198.641 43.9051C198.641 47.3879 196.791 49.2404 194.645 49.2404ZM194.645 48.1289C196.125 48.1289 197.457 46.721 197.457 43.9051C197.457 41.0893 196.125 39.6814 194.645 39.6814C193.165 39.6814 191.833 41.0893 191.833 43.9051C191.833 46.721 193.165 48.1289 194.645 48.1289ZM207.018 49.2404C205.019 49.2404 203.465 47.6843 203.465 45.3872C203.465 43.09 205.019 41.5339 207.018 41.5339C208.646 41.5339 209.904 42.4972 210.273 44.0533H209.164C208.868 43.09 208.054 42.5713 207.018 42.5713C205.685 42.5713 204.575 43.6828 204.575 45.3872C204.575 47.0915 205.685 48.203 207.018 48.203C208.054 48.203 208.868 47.6843 209.164 46.6469H210.273C209.904 48.2771 208.646 49.2404 207.018 49.2404ZM214.938 49.2404C212.94 49.2404 211.386 47.6843 211.386 45.3872C211.386 43.09 212.94 41.5339 214.938 41.5339C216.937 41.5339 218.491 43.09 218.491 45.3872C218.491 47.6843 216.937 49.2404 214.938 49.2404ZM214.938 48.203C216.271 48.203 217.381 47.0915 217.381 45.3872C217.381 43.6828 216.271 42.5713 214.938 42.5713C213.606 42.5713 212.496 43.6828 212.496 45.3872C212.496 47.0915 213.606 48.203 214.938 48.203ZM221.223 49.0922H220.113V41.6821H221.075L221.223 42.4972H221.297C221.622 42.0822 222.437 41.5339 223.517 41.5339C225.219 41.5339 226.477 42.7936 226.477 44.6462V49.0922H225.367V44.6462C225.367 43.4605 224.479 42.5713 223.369 42.5713C222.185 42.5713 221.223 43.5346 221.223 44.6462V49.0922ZM229.664 49.0922H228.554V41.6821H229.516L229.664 42.4972H229.739C230.064 42.0822 230.878 41.5339 231.959 41.5339C233.661 41.5339 234.919 42.7936 234.919 44.6462V49.0922H233.809V44.6462C233.809 43.4605 232.921 42.5713 231.811 42.5713C230.627 42.5713 229.664 43.5346 229.664 44.6462V49.0922ZM240.104 49.2404C238.106 49.2404 236.552 47.6843 236.552 45.3872C236.552 43.09 238.106 41.5339 240.104 41.5339C242.029 41.5339 243.509 43.0159 243.509 45.0908C243.509 45.5206 243.465 45.817 243.435 45.9059H237.662C237.81 47.3138 238.861 48.203 240.104 48.203C240.993 48.203 241.733 47.7584 242.103 47.0174H243.287C242.769 48.4253 241.659 49.2404 240.104 49.2404ZM237.662 44.8685H242.399C242.325 43.5346 241.363 42.5713 240.104 42.5713C238.772 42.5713 237.81 43.5346 237.662 44.8685ZM248.243 49.2404C246.245 49.2404 244.69 47.6843 244.69 45.3872C244.69 43.09 246.245 41.5339 248.243 41.5339C249.871 41.5339 251.129 42.4972 251.499 44.0533H250.389C250.093 43.09 249.279 42.5713 248.243 42.5713C246.911 42.5713 245.8 43.6828 245.8 45.3872C245.8 47.0915 246.911 48.203 248.243 48.203C249.279 48.203 250.093 47.6843 250.389 46.6469H251.499C251.129 48.2771 249.871 49.2404 248.243 49.2404ZM256.241 49.0922H254.761C253.947 49.0922 253.429 48.5735 253.429 47.8325V42.7195H252.245V41.6821H253.429V39.6073H254.539V41.6821H256.241V42.7195H254.539V47.6102C254.539 47.9066 254.687 48.0548 254.983 48.0548H256.241V49.0922ZM260.761 49.2404C258.762 49.2404 257.208 47.6843 257.208 45.3872C257.208 43.09 258.762 41.5339 260.761 41.5339C262.685 41.5339 264.165 43.0159 264.165 45.0908C264.165 45.5206 264.121 45.817 264.091 45.9059H258.318C258.466 47.3138 259.517 48.203 260.761 48.203C261.649 48.203 262.389 47.7584 262.759 47.0174H263.943C263.425 48.4253 262.315 49.2404 260.761 49.2404ZM258.318 44.8685H263.055C262.981 43.5346 262.019 42.5713 260.761 42.5713C259.428 42.5713 258.466 43.5346 258.318 44.8685ZM268.751 49.2404C266.827 49.2404 265.346 47.6843 265.346 45.3872C265.346 43.09 266.827 41.5339 268.751 41.5339C269.787 41.5339 270.527 41.9785 271.119 42.7195H271.193V38.718H272.303V49.0922H271.341L271.193 48.0548H271.119C270.527 48.7958 269.787 49.2404 268.751 49.2404ZM268.825 48.203C270.083 48.203 271.193 47.0915 271.193 45.3872C271.193 43.6828 270.083 42.5713 268.825 42.5713C267.567 42.5713 266.457 43.6828 266.457 45.3872C266.457 47.0915 267.567 48.203 268.825 48.203ZM281.413 49.2404C278.971 49.2404 277.49 47.7584 277.49 46.0541H278.675C278.675 47.1656 279.637 48.1289 281.413 48.1289C283.263 48.1289 284.003 47.3138 284.003 46.2764C284.003 45.3872 283.411 44.7944 282.227 44.5721L280.229 44.2015C278.586 43.8903 277.712 43.0159 277.712 41.5339C277.712 39.8296 279.045 38.5698 281.265 38.5698C283.633 38.5698 285.113 39.9778 285.113 41.7562H283.929C283.929 40.6447 282.967 39.6814 281.265 39.6814C279.711 39.6814 278.897 40.4965 278.897 41.5339C278.897 42.349 279.43 42.9566 280.599 43.1641L282.227 43.4605C284.299 43.831 285.187 44.7203 285.187 46.2764C285.187 47.9807 283.855 49.2404 281.413 49.2404ZM288.3 49.0922H287.115V38.718H288.3V49.0922ZM291.856 49.0922H290.672V38.718H292.818L296 47.7584H296.296L299.479 38.718H301.625V49.0922H300.441V40.2742H300.145L297.036 49.0922H295.26L292.152 40.2742H291.856V49.0922ZM310.37 49.2404C308.372 49.2404 306.818 47.6843 306.818 45.3872C306.818 43.09 308.372 41.5339 310.37 41.5339C311.998 41.5339 313.257 42.4972 313.627 44.0533H312.516C312.22 43.09 311.406 42.5713 310.37 42.5713C309.038 42.5713 307.928 43.6828 307.928 45.3872C307.928 47.0915 309.038 48.203 310.37 48.203C311.406 48.203 312.22 47.6843 312.516 46.6469H313.627C313.257 48.2771 311.998 49.2404 310.37 49.2404ZM317.478 49.2404C315.924 49.2404 314.888 48.2771 314.888 46.9433C314.888 45.5354 315.776 44.5721 317.848 44.5721H319.846V44.3498C319.846 43.2382 319.18 42.5713 318.07 42.5713C316.96 42.5713 316.294 43.1641 316.22 43.831H315.11C315.184 42.6454 316.22 41.5339 318.07 41.5339C319.846 41.5339 320.956 42.5713 320.956 44.3498V49.0922H319.994L319.846 48.203H319.772C319.491 48.6476 318.662 49.2404 317.478 49.2404ZM317.478 48.203C318.958 48.203 319.846 47.3138 319.846 45.9059V45.6095H317.848C316.516 45.6095 315.998 46.2023 315.998 46.9433C315.998 47.6843 316.516 48.203 317.478 48.203ZM324.142 49.0922H323.032V41.6821H323.994L324.142 42.4231H324.216C324.512 41.9785 324.809 41.6821 325.623 41.6821H326.881V42.7195H325.771C324.735 42.7195 324.142 43.3123 324.142 44.3498V49.0922ZM330.878 49.2404C328.954 49.2404 327.474 47.6843 327.474 45.3872C327.474 43.09 328.954 41.5339 330.878 41.5339C331.914 41.5339 332.654 41.9785 333.247 42.7195H333.321V38.718H334.431V49.0922H333.469L333.321 48.0548H333.247C332.654 48.7958 331.914 49.2404 330.878 49.2404ZM330.952 48.203C332.21 48.203 333.321 47.0915 333.321 45.3872C333.321 43.6828 332.21 42.5713 330.952 42.5713C329.694 42.5713 328.584 43.6828 328.584 45.3872C328.584 47.0915 329.694 48.203 330.952 48.203ZM338.945 49.2404C337.095 49.2404 335.985 48.1289 335.985 46.9433H337.095C337.095 47.6102 337.761 48.203 338.945 48.203C340.129 48.203 340.722 47.6843 340.722 47.0915C340.722 46.4987 340.352 46.143 339.463 45.98L338.205 45.7577C336.843 45.5206 336.133 44.8536 336.133 43.6828C336.133 42.4972 337.021 41.5339 338.871 41.5339C340.648 41.5339 341.758 42.6454 341.758 43.831H340.648C340.648 43.1641 339.981 42.5713 338.871 42.5713C337.761 42.5713 337.243 43.09 337.243 43.6828C337.243 44.2015 337.539 44.5572 338.427 44.7203L339.685 44.9426C341.166 45.2093 341.832 45.9059 341.832 47.0915C341.832 48.2771 340.87 49.2404 338.945 49.2404Z" fill="#4CAF50"/>
<path d="M169.714 83.4946C167.486 83.4946 165.984 82.0033 165.984 79.6691V74.2875H167.706V79.6691C167.706 80.9399 168.587 81.8347 169.714 81.8347C170.841 81.8347 171.721 80.9399 171.721 79.6691V74.2875H173.444V79.6691C173.444 82.0033 171.942 83.4946 169.714 83.4946ZM176.992 83.3649H175.256V74.2875H179.375C181.033 74.2875 182.237 75.4935 182.237 77.3219C182.237 79.1763 181.033 80.3823 179.375 80.3823H176.992V83.3649ZM176.992 75.9473V78.7224H179.297C179.971 78.7224 180.502 78.1908 180.502 77.3349C180.502 76.479 179.971 75.9473 179.297 75.9473H176.992ZM189.663 83.3649H183.705V74.2875H185.441V81.705H189.663V83.3649ZM192.563 83.3649H190.827V74.2875H192.563V83.3649ZM196.192 83.3649H194.456V74.2875H196.723L199.987 80.5379H200.246V74.2875H201.968V83.3649H199.702L196.451 77.1144H196.192V83.3649ZM205.602 83.3649H203.867V74.2875H205.602V78.3075L208.646 74.2875H210.757L207.351 78.7613L211.016 83.3649H208.892L205.602 79.1763V83.3649ZM212.395 85.9584H210.763L214.325 73.8984H215.957L212.395 85.9584ZM220.171 83.3649H216.907V74.2875H220.171C222.658 74.2875 224.549 76.2067 224.549 78.8262C224.549 81.4457 222.658 83.3649 220.171 83.3649ZM218.643 75.9473V81.705H220.171C221.66 81.705 222.826 80.5379 222.826 78.8262C222.826 77.1144 221.66 75.9473 220.171 75.9473H218.643ZM230.066 83.4946C227.618 83.4946 225.675 81.5753 225.675 78.8262C225.675 76.077 227.618 74.1578 230.066 74.1578C232.501 74.1578 234.444 76.077 234.444 78.8262C234.444 81.5753 232.501 83.4946 230.066 83.4946ZM230.066 81.8347C231.53 81.8347 232.721 80.6417 232.721 78.8262C232.721 77.0107 231.53 75.8177 230.066 75.8177C228.59 75.8177 227.411 77.0107 227.411 78.8262C227.411 80.6417 228.59 81.8347 230.066 81.8347ZM239.698 83.3649H237.328L235.101 74.2875H236.979L238.494 80.6157H238.753L240.398 74.2875H242.379L244.024 80.6157H244.283L245.786 74.2875H247.664L245.449 83.3649H243.079L241.512 77.2052H241.253L239.698 83.3649ZM250.465 83.3649H248.729V74.2875H250.996L254.26 80.5379H254.519V74.2875H256.241V83.3649H253.975L250.724 77.1144H250.465V83.3649ZM264.098 83.3649H258.14V74.2875H259.875V81.705H264.098V83.3649ZM266.997 83.3649H265.261V74.2875H266.997V83.3649ZM270.626 83.3649H268.891V74.2875H271.157L274.421 80.5379H274.68V74.2875H276.403V83.3649H274.136L270.885 77.1144H270.626V83.3649ZM280.036 83.3649H278.301V74.2875H280.036V78.3075L283.08 74.2875H285.191L281.785 78.7613L285.45 83.3649H283.326L280.036 79.1763V83.3649ZM292.441 83.3649H290.706V75.9473H288.038V74.2875H295.109V75.9473H292.441V83.3649ZM298.073 83.3649H296.337V74.2875H298.073V77.9184H302.088V74.2875H303.81V83.3649H302.088V79.6691H298.073V83.3649ZM310.14 80.2137H309.959L312.95 83.3649H310.8L307.899 80.2526H307.433V83.3649H305.697V74.2875H309.881C311.513 74.2875 312.717 75.5194 312.717 77.309C312.717 78.9948 311.539 80.2137 310.14 80.2137ZM307.433 75.9084V78.6706H309.803C310.451 78.6706 310.995 78.113 310.995 77.296C310.995 76.466 310.451 75.9084 309.803 75.9084H307.433ZM318.337 83.4946C315.89 83.4946 313.947 81.5753 313.947 78.8262C313.947 76.077 315.89 74.1578 318.337 74.1578C320.772 74.1578 322.715 76.077 322.715 78.8262C322.715 81.5753 320.772 83.4946 318.337 83.4946ZM318.337 81.8347C319.801 81.8347 320.993 80.6417 320.993 78.8262C320.993 77.0107 319.801 75.8177 318.337 75.8177C316.861 75.8177 315.682 77.0107 315.682 78.8262C315.682 80.6417 316.861 81.8347 318.337 81.8347ZM327.866 83.4946C325.638 83.4946 324.136 82.0033 324.136 79.6691V74.2875H325.859V79.6691C325.859 80.9399 326.739 81.8347 327.866 81.8347C328.993 81.8347 329.874 80.9399 329.874 79.6691V74.2875H331.596V79.6691C331.596 82.0033 330.094 83.4946 327.866 83.4946ZM337.658 79.8636V78.6057H341.569V83.3649H340.261L340.131 82.3275H340.067C339.613 82.8851 338.655 83.4946 337.424 83.4946C334.964 83.4946 333.021 81.5753 333.021 78.8262C333.021 76.077 334.99 74.1578 337.424 74.1578C339.652 74.1578 341.077 75.7399 341.504 77.2701H339.717C339.341 76.4531 338.474 75.8177 337.424 75.8177C335.935 75.8177 334.756 76.9977 334.756 78.8262C334.756 80.6546 335.935 81.8347 337.424 81.8347C338.849 81.8347 339.756 80.7843 339.834 79.9284L339.846 79.8636H337.658ZM345.022 83.3649H343.287V74.2875H345.022V77.9184H349.038V74.2875H350.76V83.3649H349.038V79.6691H345.022V83.3649ZM354.383 83.3649H352.647V74.2875H356.766C358.424 74.2875 359.628 75.4935 359.628 77.3219C359.628 79.1763 358.424 80.3823 356.766 80.3823H354.383V83.3649ZM354.383 75.9473V78.7224H356.688C357.362 78.7224 357.893 78.1908 357.893 77.3349C357.893 76.479 357.362 75.9473 356.688 75.9473H354.383ZM364.748 83.4946C362.52 83.4946 361.018 82.0033 361.018 79.6691V74.2875H362.74V79.6691C362.74 80.9399 363.621 81.8347 364.748 81.8347C365.875 81.8347 366.755 80.9399 366.755 79.6691V74.2875H368.478V79.6691C368.478 82.0033 366.976 83.4946 364.748 83.4946ZM374.034 83.3649H372.299V75.9473H369.631V74.2875H376.702V75.9473H374.034V83.3649Z" fill="#6E7894"/>
<path d="M250.689 95.4023H177.606C170.708 95.4023 165.116 101.001 165.116 107.907C165.116 114.814 170.708 120.412 177.606 120.412H250.689C257.587 120.412 263.179 114.814 263.179 107.907C263.179 101.001 257.587 95.4023 250.689 95.4023Z" fill="#E1F5FE"/>
<path d="M185.768 110.218L180.482 105.541C180.159 105.268 179.684 105.268 179.361 105.541L174.076 110.125C173.855 110.311 173.784 110.621 173.904 110.884C174.024 111.145 174.308 111.318 174.627 111.322L185.197 111.415C185.518 111.415 185.805 111.246 185.928 110.983C186.05 110.718 185.981 110.405 185.758 110.218H185.768Z" fill="#0066FF"/>
<path d="M197.949 113.004H191.809V111.5L195.501 107.96C195.85 107.622 196.096 107.311 196.096 106.728C196.096 106.014 195.565 105.457 194.788 105.457C194.024 105.457 193.428 106.079 193.428 106.948H191.693C191.693 105.094 192.962 103.797 194.788 103.797C196.627 103.797 197.845 105.016 197.845 106.702C197.845 107.817 197.249 108.478 196.485 109.204L194.335 111.305V111.37H197.949V113.004ZM202.28 113.134C200.259 113.134 199.197 111.837 199.055 110.423H200.778C200.894 110.968 201.412 111.5 202.28 111.5C203.187 111.5 203.808 110.877 203.808 110.008C203.808 109.14 203.2 108.517 202.293 108.517C201.619 108.517 201.166 108.815 200.959 109.114H199.21L199.728 103.927H205.013V105.535H201.218L201.024 107.337H201.088C201.36 107.143 201.827 106.974 202.487 106.974C204.21 106.974 205.531 108.271 205.531 110.008C205.531 111.824 204.223 113.134 202.28 113.134ZM210.121 113.134C208.062 113.134 206.378 111.448 206.378 108.465C206.378 105.483 208.062 103.797 210.121 103.797C212.181 103.797 213.851 105.483 213.851 108.465C213.851 111.448 212.181 113.134 210.121 113.134ZM210.121 111.474C211.17 111.474 212.116 110.488 212.116 108.465C212.116 106.442 211.17 105.457 210.121 105.457C209.059 105.457 208.101 106.442 208.101 108.465C208.101 110.488 209.059 111.474 210.121 111.474ZM220.441 113.004H218.705V103.927H221.451L223.588 110.32H223.847L225.984 103.927H228.73V113.004H226.995V106.715H226.736L224.624 113.004H222.811L220.7 106.715H220.441V113.004ZM234.104 113.134C233.185 113.134 232.537 112.758 232.161 112.265H232.097L231.967 113.004H230.555V103.927H232.187V107.117H232.252C232.576 106.702 233.223 106.3 234.104 106.3C235.788 106.3 237.148 107.687 237.148 109.723C237.148 111.759 235.788 113.134 234.104 113.134ZM233.858 111.629C234.778 111.629 235.516 110.89 235.516 109.723C235.516 108.543 234.778 107.817 233.858 107.817C232.938 107.817 232.187 108.543 232.187 109.723C232.187 110.89 232.938 111.629 233.858 111.629ZM240.079 115.598H238.447V106.429H239.858L239.988 107.168H240.053C240.428 106.676 241.089 106.3 241.995 106.3C243.679 106.3 245.039 107.687 245.039 109.723C245.039 111.759 243.679 113.134 241.995 113.134C241.102 113.134 240.467 112.758 240.143 112.343H240.079V115.598ZM241.749 111.629C242.669 111.629 243.407 110.89 243.407 109.723C243.407 108.543 242.669 107.817 241.749 107.817C240.83 107.817 240.079 108.543 240.079 109.723C240.079 110.89 240.83 111.629 241.749 111.629ZM248.735 113.134C246.637 113.134 245.873 111.837 245.873 111.007H247.466C247.466 111.409 247.867 111.837 248.735 111.837C249.577 111.837 249.939 111.5 249.939 111.137C249.939 110.761 249.719 110.527 249.072 110.423L248.048 110.255C246.65 110.021 245.924 109.386 245.924 108.336C245.924 107.246 246.857 106.3 248.67 106.3C250.509 106.3 251.468 107.454 251.468 108.4H249.875C249.875 107.985 249.447 107.596 248.67 107.596C247.906 107.596 247.543 107.96 247.543 108.31C247.543 108.634 247.802 108.841 248.398 108.945L249.447 109.114C250.872 109.334 251.558 110.008 251.558 111.124C251.558 112.213 250.639 113.134 248.735 113.134Z" fill="#0288D1"/>
<path d="M354.303 95.4023H283.069C276.172 95.4023 270.58 101.001 270.58 107.907C270.58 114.814 276.172 120.412 283.069 120.412H354.303C361.201 120.412 366.792 114.814 366.792 107.907C366.792 101.001 361.201 95.4023 354.303 95.4023Z" fill="#E1F5FE"/>
<path d="M291.4 105.87C291.26 105.596 290.978 105.425 290.671 105.43L280.11 105.336C279.787 105.33 279.493 105.503 279.372 105.767C279.246 106.032 279.315 106.347 279.542 106.534L284.821 111.211C285.144 111.484 285.618 111.484 285.941 111.211L291.22 106.626C291.439 106.442 291.512 106.134 291.4 105.87Z" fill="#0066FF"/>
<path d="M300.832 113.004H299.109V106.533H297.257V104.899H298.708C298.98 104.899 299.109 104.769 299.109 104.497V103.927H300.832V113.004ZM305.597 113.134C303.577 113.134 302.515 111.837 302.372 110.423H304.095C304.211 110.968 304.73 111.5 305.597 111.5C306.504 111.5 307.126 110.877 307.126 110.008C307.126 109.14 306.517 108.517 305.61 108.517C304.937 108.517 304.483 108.815 304.276 109.114H302.528L303.046 103.927H308.33V105.535H304.535L304.341 107.337H304.406C304.678 107.143 305.144 106.974 305.804 106.974C307.527 106.974 308.848 108.271 308.848 110.008C308.848 111.824 307.54 113.134 305.597 113.134ZM313.439 113.134C311.379 113.134 309.696 111.448 309.696 108.465C309.696 105.483 311.379 103.797 313.439 103.797C315.498 103.797 317.169 105.483 317.169 108.465C317.169 111.448 315.498 113.134 313.439 113.134ZM313.439 111.474C314.488 111.474 315.433 110.488 315.433 108.465C315.433 106.442 314.488 105.457 313.439 105.457C312.377 105.457 311.418 106.442 311.418 108.465C311.418 110.488 312.377 111.474 313.439 111.474ZM323.759 113.004H322.024V103.927H324.769L326.907 110.32H327.166L329.303 103.927H332.048V113.004H330.313V106.715H330.054L327.943 113.004H326.129L324.018 106.715H323.759V113.004ZM337.422 113.134C336.503 113.134 335.855 112.758 335.48 112.265H335.415L335.285 113.004H333.874V103.927H335.506V107.117H335.57C335.894 106.702 336.542 106.3 337.422 106.3C339.106 106.3 340.466 107.687 340.466 109.723C340.466 111.759 339.106 113.134 337.422 113.134ZM337.176 111.629C338.096 111.629 338.834 110.89 338.834 109.723C338.834 108.543 338.096 107.817 337.176 107.817C336.257 107.817 335.506 108.543 335.506 109.723C335.506 110.89 336.257 111.629 337.176 111.629ZM343.396 115.598H341.764V106.429H343.176L343.305 107.168H343.37C343.746 106.676 344.406 106.3 345.313 106.3C346.996 106.3 348.356 107.687 348.356 109.723C348.356 111.759 346.996 113.134 345.313 113.134C344.419 113.134 343.784 112.758 343.461 112.343H343.396V115.598ZM345.067 111.629C345.986 111.629 346.724 110.89 346.724 109.723C346.724 108.543 345.986 107.817 345.067 107.817C344.147 107.817 343.396 108.543 343.396 109.723C343.396 110.89 344.147 111.629 345.067 111.629ZM352.053 113.134C349.955 113.134 349.191 111.837 349.191 111.007H350.784C350.784 111.409 351.185 111.837 352.053 111.837C352.895 111.837 353.258 111.5 353.258 111.137C353.258 110.761 353.037 110.527 352.39 110.423L351.367 110.255C349.968 110.021 349.243 109.386 349.243 108.336C349.243 107.246 350.175 106.3 351.988 106.3C353.828 106.3 354.786 107.454 354.786 108.4H353.193C353.193 107.985 352.765 107.596 351.988 107.596C351.224 107.596 350.862 107.96 350.862 108.31C350.862 108.634 351.121 108.841 351.716 108.945L352.766 109.114C354.19 109.334 354.877 110.008 354.877 111.124C354.877 112.213 353.957 113.134 352.053 113.134Z" fill="#0288D1"/>
<mask id="mask0_1682_88049" style="mask-type:luminance" maskUnits="userSpaceOnUse" x="261" y="127" width="27" height="16">
<path d="M261.791 127.828H287.695V142.648H261.791V127.828Z" fill="white"/>
</mask>
<g mask="url(#mask0_1682_88049)">
<path d="M268.01 127.363H281.476L275.725 133.122C275.182 133.665 274.304 133.665 273.761 133.122L268.01 127.363Z" fill="#FEFEFF" stroke="#6E7894"/>
</g>
<path d="M385.295 3.24219H165.116C161.284 3.24219 158.178 6.35247 158.178 10.1892V121.343C158.178 125.18 161.284 128.29 165.116 128.29H385.295C389.127 128.29 392.233 125.18 392.233 121.343V10.1892C392.233 6.35247 389.127 3.24219 385.295 3.24219Z" stroke="#6E7894"/>
</g>
<path d="M305.965 162.652H298.746C298.384 162.652 298.144 162.414 298.144 162.059C298.144 161.17 297.723 160.636 297.061 159.806C296.701 159.391 296.279 158.858 295.858 158.205C294.715 156.427 293.692 154.293 293.451 153.522C293.211 152.752 293.391 152.218 293.632 151.922C293.872 151.566 294.353 151.388 294.896 151.388C295.617 151.388 296.339 151.981 297.001 152.752V146.646C297.001 145.638 297.783 144.867 298.806 144.867C299.828 144.867 300.611 145.638 300.611 146.646V149.135C300.791 149.076 300.972 149.017 301.212 149.017C301.874 149.017 302.415 149.373 302.717 149.847C302.957 149.669 303.258 149.61 303.558 149.61C304.4 149.61 305.063 150.143 305.303 150.914C305.484 150.855 305.724 150.795 305.965 150.795C306.988 150.795 307.77 151.566 307.77 152.574V154.352C307.77 155.893 307.469 157.138 307.168 158.324C306.868 159.51 306.566 160.636 306.566 162.059C306.566 162.414 306.325 162.652 305.965 162.652Z" fill="#FEFEFF"/>
<path fill-rule="evenodd" clip-rule="evenodd" d="M298.746 162.652H305.965C306.325 162.652 306.566 162.414 306.566 162.059C306.566 160.691 306.844 159.597 307.133 158.461C307.145 158.415 307.156 158.369 307.168 158.324C307.469 157.138 307.77 155.893 307.77 154.352V152.574C307.77 151.566 306.988 150.795 305.965 150.795C305.724 150.795 305.484 150.855 305.303 150.914C305.063 150.143 304.4 149.61 303.558 149.61C303.258 149.61 302.957 149.669 302.717 149.847C302.415 149.373 301.874 149.017 301.212 149.017C300.972 149.017 300.791 149.076 300.611 149.135V146.646C300.611 145.638 299.828 144.867 298.806 144.867C297.783 144.867 297.001 145.638 297.001 146.646V152.752C296.339 151.981 295.617 151.388 294.896 151.388C294.353 151.388 293.872 151.566 293.632 151.922C293.391 152.218 293.211 152.752 293.451 153.522C293.692 154.293 294.715 156.427 295.858 158.205C296.279 158.858 296.701 159.391 297.061 159.806C297.723 160.636 298.144 161.17 298.144 162.059C298.144 162.414 298.384 162.652 298.746 162.652ZM305.363 161.466H299.287C299.167 160.458 298.565 159.806 297.903 159.095C297.813 158.976 297.723 158.861 297.632 158.746C297.362 158.402 297.091 158.057 296.821 157.613C295.617 155.716 294.715 153.819 294.534 153.167C294.474 152.87 294.474 152.692 294.534 152.633C294.594 152.574 294.715 152.574 294.835 152.574C295.256 152.574 296.399 153.7 296.941 155.064V155.538C296.941 155.893 297.182 156.131 297.542 156.131C297.903 156.131 298.144 155.893 298.144 155.538V146.646C298.144 146.29 298.384 146.053 298.746 146.053C299.107 146.053 299.347 146.29 299.347 146.646V151.981C299.347 152.337 299.588 152.574 299.949 152.574C300.309 152.574 300.55 152.337 300.55 151.981V150.795C300.55 150.44 300.791 150.202 301.152 150.202C301.513 150.202 301.754 150.44 301.754 150.795V152.574C301.754 152.929 301.994 153.167 302.355 153.167C302.717 153.167 302.957 152.929 302.957 152.574V151.388C302.957 151.032 303.198 150.795 303.558 150.795C303.919 150.795 304.16 151.032 304.16 151.388V153.167C304.16 153.522 304.4 153.759 304.762 153.759C305.123 153.759 305.363 153.522 305.363 153.167V152.574C305.363 152.218 305.604 151.981 305.965 151.981C306.325 151.981 306.566 152.218 306.566 152.574V154.352C306.566 155.661 306.289 156.751 306.001 157.885C305.989 157.932 305.977 157.98 305.965 158.028C305.924 158.207 305.882 158.388 305.839 158.569C305.63 159.461 305.413 160.381 305.363 161.466Z" fill="#031A34"/>
<defs>
<filter id="filter0_dd_1682_88049" x="171.367" y="123.047" width="43.0049" height="43.0508" filterUnits="userSpaceOnUse" color-interpolation-filters="sRGB">
<feFlood flood-opacity="0" result="BackgroundImageFix"/>
<feColorMatrix in="SourceAlpha" type="matrix" values="0 0 0 0 0 0 0 0 0 0 0 0 0 0 0 0 0 0 127 0" result="hardAlpha"/>
<feOffset dy="1"/>
<feGaussianBlur stdDeviation="1.5"/>
<feComposite in2="hardAlpha" operator="out"/>
<feColorMatrix type="matrix" values="0 0 0 0 0 0 0 0 0 0 0 0 0 0 0 0 0 0 0.15 0"/>
<feBlend mode="normal" in2="BackgroundImageFix" result="effect1_dropShadow_1682_88049"/>
<feColorMatrix in="SourceAlpha" type="matrix" values="0 0 0 0 0 0 0 0 0 0 0 0 0 0 0 0 0 0 127 0" result="hardAlpha"/>
<feOffset dy="1"/>
<feGaussianBlur stdDeviation="1"/>
<feComposite in2="hardAlpha" operator="out"/>
<feColorMatrix type="matrix" values="0 0 0 0 0 0 0 0 0 0 0 0 0 0 0 0 0 0 0.3 0"/>
<feBlend mode="normal" in2="effect1_dropShadow_1682_88049" result="effect2_dropShadow_1682_88049"/>
<feBlend mode="normal" in="SourceGraphic" in2="effect2_dropShadow_1682_88049" result="shape"/>
</filter>
<filter id="filter1_dd_1682_88049" x="154.678" y="0.742188" width="241.056" height="137.285" filterUnits="userSpaceOnUse" color-interpolation-filters="sRGB">
<feFlood flood-opacity="0" result="BackgroundImageFix"/>
<feColorMatrix in="SourceAlpha" type="matrix" values="0 0 0 0 0 0 0 0 0 0 0 0 0 0 0 0 0 0 127 0" result="hardAlpha"/>
<feOffset dy="1"/>
<feGaussianBlur stdDeviation="1.5"/>
<feComposite in2="hardAlpha" operator="out"/>
<feColorMatrix type="matrix" values="0 0 0 0 0 0 0 0 0 0 0 0 0 0 0 0 0 0 0.15 0"/>
<feBlend mode="normal" in2="BackgroundImageFix" result="effect1_dropShadow_1682_88049"/>
<feColorMatrix in="SourceAlpha" type="matrix" values="0 0 0 0 0 0 0 0 0 0 0 0 0 0 0 0 0 0 127 0" result="hardAlpha"/>
<feOffset dy="1"/>
<feGaussianBlur stdDeviation="1"/>
<feComposite in2="hardAlpha" operator="out"/>
<feColorMatrix type="matrix" values="0 0 0 0 0 0 0 0 0 0 0 0 0 0 0 0 0 0 0.3 0"/>
<feBlend mode="normal" in2="effect1_dropShadow_1682_88049" result="effect2_dropShadow_1682_88049"/>
<feBlend mode="normal" in="SourceGraphic" in2="effect2_dropShadow_1682_88049" result="shape"/>
</filter>
<linearGradient id="paint0_linear_1682_88049" x1="186.798" y1="139.174" x2="200.227" y2="142.141" gradientUnits="userSpaceOnUse">
<stop stop-color="#0066FF"/>
<stop offset="1" stop-color="#59C2C9"/>
</linearGradient>
<linearGradient id="paint1_linear_1682_88049" x1="186.798" y1="139.176" x2="200.227" y2="142.142" gradientUnits="userSpaceOnUse">
<stop stop-color="#0066FF"/>
<stop offset="1" stop-color="#59C2C9"/>
</linearGradient>
<linearGradient id="paint2_linear_1682_88049" x1="186.798" y1="139.177" x2="200.227" y2="142.144" gradientUnits="userSpaceOnUse">
<stop stop-color="#0066FF"/>
<stop offset="1" stop-color="#59C2C9"/>
</linearGradient>
<linearGradient id="paint3_linear_1682_88049" x1="346.44" y1="104.668" x2="413.411" y2="115.37" gradientUnits="userSpaceOnUse">
<stop stop-color="#0066FF"/>
<stop offset="1" stop-color="#59C2C9"/>
</linearGradient>
<linearGradient id="paint4_linear_1682_88049" x1="241.901" y1="32.418" x2="248.183" y2="30.784" gradientUnits="userSpaceOnUse">
<stop stop-color="#0066FF"/>
<stop offset="1" stop-color="#59C2C9"/>
</linearGradient>
</defs>
</svg>
