<svg width="190" height="55" viewBox="0 0 190 55" fill="none" xmlns="http://www.w3.org/2000/svg">
<rect width="190" height="55" fill="#393939"/>
<g filter="url(#filter0_dd_0_1)">
<rect x="-445" y="-261" width="680" height="808" rx="16" fill="#FFFBFE"/>
<rect x="-444.5" y="-260.5" width="679" height="807" rx="15.5" stroke="#D1D5E4"/>
</g>
<g filter="url(#filter1_dd_0_1)">
<path d="M179.053 0.957031H10.9469C5.07544 0.957031 0.315674 5.68343 0.315674 11.5137V43.8436C0.315674 49.6739 5.07544 54.4003 10.9469 54.4003H179.053C184.925 54.4003 189.684 49.6739 189.684 43.8436V11.5137C189.684 5.68343 184.925 0.957031 179.053 0.957031Z" fill="#FEFEFF"/>
<path d="M179.053 1.28516H10.947C5.25897 1.28516 0.647949 5.86385 0.647949 11.512V43.8419C0.647949 49.49 5.25897 54.0687 10.947 54.0687H179.053C184.741 54.0687 189.352 49.49 189.352 43.8419V11.512C189.352 5.86385 184.741 1.28516 179.053 1.28516Z" stroke="#D1D5E4"/>
</g>
<path d="M14.8212 21.5156H23.0142C23.4368 21.5156 23.822 21.8945 23.8239 22.3085V33.7116C23.8239 34.1331 23.4461 34.5045 23.0161 34.5045H20.3248V30.871C20.3248 30.7213 20.2038 30.6012 20.0549 30.6012H17.7824C17.6335 30.6012 17.5125 30.7213 17.5125 30.871V34.5045H14.8212C14.3912 34.5045 14.0134 34.1349 14.0134 33.7116V22.3085C14.0134 21.8945 14.3987 21.5156 14.8212 21.5156ZM18.0634 25.4966C18.2123 25.4966 18.3333 25.3765 18.3333 25.2268V23.5005C18.3333 23.3509 18.2123 23.2308 18.0634 23.2308H16.3437C16.1948 23.2308 16.0738 23.3509 16.0738 23.5005V25.2268C16.0738 25.3746 16.1948 25.4966 16.3437 25.4966H18.0634ZM21.7337 25.2268V23.5005C21.7337 23.3509 21.6128 23.2308 21.4639 23.2308H19.7441C19.5952 23.2308 19.4742 23.3509 19.4742 23.5005V25.2268C19.4742 25.3746 19.5952 25.4966 19.7441 25.4966H21.4639C21.6128 25.4966 21.7337 25.3765 21.7337 25.2268ZM21.7337 28.6163V26.8883C21.7337 26.7404 21.6128 26.6184 21.4639 26.6184H19.7441C19.5952 26.6184 19.4742 26.7386 19.4742 26.8883V28.6163C19.4742 28.7641 19.5952 28.8861 19.7441 28.8861H21.4639C21.6128 28.8861 21.7337 28.766 21.7337 28.6163ZM18.3333 28.6163V26.8883C18.3333 26.7404 18.2123 26.6184 18.0634 26.6184H16.3437C16.1948 26.6184 16.0738 26.7386 16.0738 26.8883V28.6163C16.0738 28.7641 16.1948 28.8861 16.3437 28.8861H18.0634C18.2123 28.8861 18.3333 28.766 18.3333 28.6163Z" fill="white"/>
<path d="M14.8212 21.5156H23.0142C23.4368 21.5156 23.822 21.8945 23.8239 22.3085V33.7116C23.8239 34.1331 23.4461 34.5045 23.0161 34.5045H20.3248V30.871C20.3248 30.7213 20.2038 30.6012 20.0549 30.6012H17.7824C17.6335 30.6012 17.5125 30.7213 17.5125 30.871V34.5045H14.8212C14.3912 34.5045 14.0134 34.1349 14.0134 33.7116V22.3085C14.0134 21.8945 14.3987 21.5156 14.8212 21.5156ZM18.0634 25.4966C18.2123 25.4966 18.3333 25.3765 18.3333 25.2268V23.5005C18.3333 23.3509 18.2123 23.2308 18.0634 23.2308H16.3437C16.1948 23.2308 16.0738 23.3509 16.0738 23.5005V25.2268C16.0738 25.3746 16.1948 25.4966 16.3437 25.4966H18.0634ZM21.7337 25.2268V23.5005C21.7337 23.3509 21.6128 23.2308 21.4639 23.2308H19.7441C19.5952 23.2308 19.4742 23.3509 19.4742 23.5005V25.2268C19.4742 25.3746 19.5952 25.4966 19.7441 25.4966H21.4639C21.6128 25.4966 21.7337 25.3765 21.7337 25.2268ZM21.7337 28.6163V26.8883C21.7337 26.7404 21.6128 26.6184 21.4639 26.6184H19.7441C19.5952 26.6184 19.4742 26.7386 19.4742 26.8883V28.6163C19.4742 28.7641 19.5952 28.8861 19.7441 28.8861H21.4639C21.6128 28.8861 21.7337 28.766 21.7337 28.6163ZM18.3333 28.6163V26.8883C18.3333 26.7404 18.2123 26.6184 18.0634 26.6184H16.3437C16.1948 26.6184 16.0738 26.7386 16.0738 26.8883V28.6163C16.0738 28.7641 16.1948 28.8861 16.3437 28.8861H18.0634C18.2123 28.8861 18.3333 28.766 18.3333 28.6163Z" fill="url(#paint0_linear_0_1)"/>
<path d="M41.2327 24.172C39.2592 24.172 38.0632 22.9844 38.0632 21.6186H39.02C39.02 22.5093 39.7975 23.2813 41.2327 23.2813C42.7277 23.2813 43.3257 22.6281 43.3257 21.7968C43.3257 21.0842 42.8473 20.6091 41.8905 20.431L40.2759 20.1341C38.9483 19.8847 38.2426 19.184 38.2426 17.9964C38.2426 16.6306 39.319 15.6211 41.1131 15.6211C43.0267 15.6211 44.2227 16.7493 44.2227 18.1745H43.2659C43.2659 17.2838 42.4885 16.5118 41.1131 16.5118C39.8573 16.5118 39.1994 17.165 39.1994 17.9964C39.1994 18.6495 39.63 19.1365 40.5749 19.3027L41.8905 19.5403C43.5649 19.8372 44.2825 20.5498 44.2825 21.7968C44.2825 23.1625 43.2061 24.172 41.2327 24.172ZM46.175 16.9512C45.8162 16.9512 45.577 16.7137 45.577 16.3574C45.577 16.0011 45.8162 15.7636 46.175 15.7636C46.5338 15.7636 46.773 16.0011 46.773 16.3574C46.773 16.7137 46.5338 16.9512 46.175 16.9512ZM46.6175 24.0533H45.7205V18.1151H46.6175V24.0533ZM50.9811 24.0533H49.7851C49.1273 24.0533 48.7087 23.6376 48.7087 23.0438V18.9465H47.7519V18.1151H48.7087V16.4524H49.6057V18.1151H50.9811V18.9465H49.6057V22.8656C49.6057 23.1032 49.7253 23.2219 49.9645 23.2219H50.9811V24.0533ZM54.6327 24.172C53.0181 24.172 51.7622 22.925 51.7622 21.0842C51.7622 19.2434 53.0181 17.9964 54.6327 17.9964C56.1875 17.9964 57.3835 19.184 57.3835 20.8467C57.3835 21.1911 57.3476 21.4286 57.3237 21.4999H52.6592C52.7788 22.6281 53.628 23.3407 54.6327 23.3407C55.3503 23.3407 55.9483 22.9844 56.2473 22.3906H57.2041C56.7855 23.5188 55.8885 24.172 54.6327 24.172ZM52.6592 20.6685H56.4865C56.4267 19.5997 55.6493 18.8277 54.6327 18.8277C53.5563 18.8277 52.7788 19.5997 52.6592 20.6685ZM60.6104 24.172C59.1154 24.172 58.2184 23.2813 58.2184 22.3312H59.1154C59.1154 22.8656 59.6536 23.3407 60.6104 23.3407C61.5676 23.3407 62.046 22.925 62.046 22.45C62.046 21.9749 61.747 21.6899 61.029 21.5592L60.0124 21.3811C58.9121 21.1911 58.338 20.6566 58.338 19.7184C58.338 18.7683 59.0556 17.9964 60.5506 17.9964C61.9862 17.9964 62.8832 18.8871 62.8832 19.8372H61.9862C61.9862 19.3027 61.448 18.8277 60.5506 18.8277C59.6536 18.8277 59.235 19.2434 59.235 19.7184C59.235 20.1341 59.4742 20.4191 60.1918 20.5498L61.2084 20.7279C62.4048 20.9417 62.943 21.4999 62.943 22.45C62.943 23.4001 62.1656 24.172 60.6104 24.172Z" fill="#031A34"/>
<path d="M40.236 40.5459H39.3855V34.7398H37.7908V34.0008H39.0665C39.2791 34.0008 39.3855 33.8952 39.3855 33.6841V33.1562H40.236V40.5459ZM45.0777 42.6573H44.2804V35.2676H44.9714L45.0777 36.0066H45.1309C45.5562 35.4787 46.0877 35.162 46.8319 35.162C48.214 35.162 49.2771 36.2705 49.2771 37.9068C49.2771 39.5431 48.214 40.6515 46.8319 40.6515C46.0877 40.6515 45.5562 40.3348 45.1309 39.807H45.0777V42.6573ZM46.7787 39.9125C47.6824 39.9125 48.4797 39.1208 48.4797 37.9068C48.4797 36.6927 47.6824 35.901 46.7787 35.901C45.8751 35.901 45.0777 36.6927 45.0777 37.9068C45.0777 39.1208 45.8751 39.9125 46.7787 39.9125ZM51.2978 40.5459H50.5005V33.1562H51.2978V35.8482H51.351C51.5849 35.5526 52.1696 35.162 52.9457 35.162C54.1682 35.162 55.0719 36.0593 55.0719 37.3789V40.5459H54.2746V37.3789C54.2746 36.5344 53.6367 35.901 52.8393 35.901C51.9888 35.901 51.2978 36.5872 51.2978 37.3789V40.5459ZM58.5316 39.6486L60.02 35.2676H60.8705L58.4785 41.9183C58.3084 42.4039 58.0532 42.6573 57.4685 42.6573H56.4054V41.9183H57.4154C57.628 41.9183 57.7343 41.76 57.7875 41.6016L58.0001 40.9682L55.8207 35.2676H56.6712L58.319 39.6486H58.5316ZM63.4233 40.6515C62.0944 40.6515 61.297 39.8598 61.297 39.0152H62.0944C62.0944 39.4903 62.5728 39.9125 63.4233 39.9125C64.2738 39.9125 64.6991 39.5431 64.6991 39.1208C64.6991 38.6985 64.4333 38.4452 63.7954 38.329L62.8918 38.1707C61.9137 38.0018 61.4033 37.5267 61.4033 36.6927C61.4033 35.8482 62.0413 35.162 63.3702 35.162C64.6459 35.162 65.4433 35.9538 65.4433 36.7983H64.6459C64.6459 36.3233 64.1675 35.901 63.3702 35.901C62.5728 35.901 62.2007 36.2705 62.2007 36.6927C62.2007 37.0622 62.4134 37.3156 63.0512 37.4317L63.9549 37.5901C65.018 37.7801 65.4964 38.2762 65.4964 39.1208C65.4964 39.9653 64.8054 40.6515 63.4233 40.6515ZM67.016 34.233C66.6971 34.233 66.4845 34.0219 66.4845 33.7052C66.4845 33.3885 66.6971 33.1774 67.016 33.1774C67.335 33.1774 67.5476 33.3885 67.5476 33.7052C67.5476 34.0219 67.335 34.233 67.016 34.233ZM67.4094 40.5459H66.612V35.2676H67.4094V40.5459ZM71.129 40.6515C69.6938 40.6515 68.5775 39.5431 68.5775 37.9068C68.5775 36.2705 69.6938 35.162 71.129 35.162C72.2984 35.162 73.2021 35.8482 73.4678 36.9567H72.6705C72.4579 36.2705 71.8732 35.901 71.129 35.901C70.1722 35.901 69.3748 36.6927 69.3748 37.9068C69.3748 39.1208 70.1722 39.9125 71.129 39.9125C71.8732 39.9125 72.4579 39.5431 72.6705 38.8041H73.4678C73.2021 39.9653 72.2984 40.6515 71.129 40.6515ZM76.2333 40.6515C75.117 40.6515 74.3728 39.9653 74.3728 39.0152C74.3728 38.0123 75.0107 37.3261 76.4991 37.3261H77.9343V37.1678C77.9343 36.376 77.4559 35.901 76.6585 35.901C75.8612 35.901 75.3828 36.3233 75.3296 36.7983H74.5323C74.5855 35.9538 75.3296 35.162 76.6585 35.162C77.9343 35.162 78.7316 35.901 78.7316 37.1678V40.5459H78.0406L77.9343 39.9125H77.8811C77.6791 40.2292 77.0838 40.6515 76.2333 40.6515ZM76.2333 39.9125C77.2964 39.9125 77.9343 39.2791 77.9343 38.2763V38.0651H76.4991C75.5423 38.0651 75.1702 38.4874 75.1702 39.0152C75.1702 39.5431 75.5423 39.9125 76.2333 39.9125ZM81.0738 40.5459H80.2765V33.1562H81.0738V40.5459Z" fill="#6E7894"/>
<path d="M172.78 31.53C172.676 31.53 172.577 31.4839 172.507 31.4048C172.368 31.2446 172.377 31.0003 172.528 30.8521L175.474 27.9852L172.53 25.1733C172.379 25.0261 172.368 24.7818 172.506 24.6205C172.639 24.4644 172.87 24.4483 173.021 24.5855C173.024 24.5885 173.027 24.5905 173.03 24.5936L176.274 27.6927C176.352 27.7668 176.395 27.871 176.395 27.9801C176.396 28.0893 176.354 28.1944 176.276 28.2695L173.032 31.4259C172.964 31.4928 172.874 31.5302 172.78 31.53Z" fill="#031A34"/>
<defs>
<filter id="filter0_dd_0_1" x="-453" y="-267" width="696" height="824" filterUnits="userSpaceOnUse" color-interpolation-filters="sRGB">
<feFlood flood-opacity="0" result="BackgroundImageFix"/>
<feColorMatrix in="SourceAlpha" type="matrix" values="0 0 0 0 0 0 0 0 0 0 0 0 0 0 0 0 0 0 127 0" result="hardAlpha"/>
<feMorphology radius="2" operator="dilate" in="SourceAlpha" result="effect1_dropShadow_0_1"/>
<feOffset dy="2"/>
<feGaussianBlur stdDeviation="3"/>
<feComposite in2="hardAlpha" operator="out"/>
<feColorMatrix type="matrix" values="0 0 0 0 0 0 0 0 0 0 0 0 0 0 0 0 0 0 0.15 0"/>
<feBlend mode="normal" in2="BackgroundImageFix" result="effect1_dropShadow_0_1"/>
<feColorMatrix in="SourceAlpha" type="matrix" values="0 0 0 0 0 0 0 0 0 0 0 0 0 0 0 0 0 0 127 0" result="hardAlpha"/>
<feOffset dy="1"/>
<feGaussianBlur stdDeviation="1"/>
<feComposite in2="hardAlpha" operator="out"/>
<feColorMatrix type="matrix" values="0 0 0 0 0 0 0 0 0 0 0 0 0 0 0 0 0 0 0.3 0"/>
<feBlend mode="normal" in2="effect1_dropShadow_0_1" result="effect2_dropShadow_0_1"/>
<feBlend mode="normal" in="SourceGraphic" in2="effect2_dropShadow_0_1" result="shape"/>
</filter>
<filter id="filter1_dd_0_1" x="-5.85205" y="-3.21484" width="201.704" height="65.7852" filterUnits="userSpaceOnUse" color-interpolation-filters="sRGB">
<feFlood flood-opacity="0" result="BackgroundImageFix"/>
<feColorMatrix in="SourceAlpha" type="matrix" values="0 0 0 0 0 0 0 0 0 0 0 0 0 0 0 0 0 0 127 0" result="hardAlpha"/>
<feOffset dy="2"/>
<feGaussianBlur stdDeviation="3"/>
<feComposite in2="hardAlpha" operator="out"/>
<feColorMatrix type="matrix" values="0 0 0 0 0 0 0 0 0 0 0 0 0 0 0 0 0 0 0.15 0"/>
<feBlend mode="normal" in2="BackgroundImageFix" result="effect1_dropShadow_0_1"/>
<feColorMatrix in="SourceAlpha" type="matrix" values="0 0 0 0 0 0 0 0 0 0 0 0 0 0 0 0 0 0 127 0" result="hardAlpha"/>
<feOffset dy="1"/>
<feGaussianBlur stdDeviation="1"/>
<feComposite in2="hardAlpha" operator="out"/>
<feColorMatrix type="matrix" values="0 0 0 0 0 0 0 0 0 0 0 0 0 0 0 0 0 0 0.3 0"/>
<feBlend mode="normal" in2="effect1_dropShadow_0_1" result="effect2_dropShadow_0_1"/>
<feBlend mode="normal" in="SourceGraphic" in2="effect2_dropShadow_0_1" result="shape"/>
</filter>
<linearGradient id="paint0_linear_0_1" x1="14.0134" y1="21.5157" x2="25.2297" y2="22.8711" gradientUnits="userSpaceOnUse">
<stop stop-color="#0066FF"/>
<stop offset="1" stop-color="#59C2C9"/>
</linearGradient>
</defs>
</svg>
