<svg width="100" height="4" viewBox="0 0 100 4" fill="none" xmlns="http://www.w3.org/2000/svg">
<g clip-path="url(#clip0_1682_88092)">
<path d="M0.233154 2.00043C0.233154 2.98227 1.06805 3.77821 2.09796 3.77821C3.12786 3.77821 3.96276 2.98227 3.96276 2.00043C3.96276 1.01859 3.12786 0.222656 2.09796 0.222656C1.06805 0.222656 0.233154 1.01859 0.233154 2.00043ZM96.0371 2.00043C96.0371 2.98227 96.8721 3.77821 97.9022 3.77821C98.9322 3.77821 99.7672 2.98227 99.7672 2.00043C99.7672 1.01859 98.9322 0.222657 97.9022 0.222657C96.8721 0.222657 96.0371 1.01859 96.0371 2.00043ZM2.09796 2.33377H97.9022V1.6671H2.09796V2.33377Z" fill="#FFC107"/>
</g>
<defs>
<clipPath id="clip0_1682_88092">
<rect width="100" height="4" fill="white"/>
</clipPath>
</defs>
</svg>
