<svg width="100" height="4" viewBox="0 0 100 4" fill="none" xmlns="http://www.w3.org/2000/svg">
<g clip-path="url(#clip0_1682_88096)">
<path d="M0.233154 2.00043C0.233154 2.98227 1.06805 3.77821 2.09796 3.77821C3.12786 3.77821 3.96276 2.98227 3.96276 2.00043C3.96276 1.01859 3.12786 0.222656 2.09796 0.222656C1.06805 0.222656 0.233154 1.01859 0.233154 2.00043ZM96.0371 2.00043C96.0371 2.98227 96.8721 3.77821 97.9022 3.77821C98.9322 3.77821 99.7672 2.98227 99.7672 2.00043C99.7672 1.01859 98.9322 0.222657 97.9022 0.222657C96.8721 0.222657 96.0371 1.01859 96.0371 2.00043ZM2.09796 2.33377H2.8024V1.6671H2.09796V2.33377ZM4.21129 2.33377H5.62017V1.6671H4.21129V2.33377ZM7.02908 2.33377H8.43796V1.6671H7.02908V2.33377ZM9.84684 2.33377H11.2557V1.6671H9.84684V2.33377ZM12.6646 2.33377H14.0735V1.6671H12.6646V2.33377ZM15.4824 2.33377H16.8912V1.6671H15.4824V2.33377ZM18.3001 2.33377H19.709V1.6671H18.3001V2.33377ZM21.1179 2.33377H22.5268V1.6671H21.1179V2.33377ZM23.9356 2.33377H25.3445V1.6671H23.9356V2.33377ZM26.7534 2.33377H28.1624V1.6671H26.7534V2.33377ZM29.5712 2.33377H30.9801V1.6671H29.5712V2.33377ZM32.389 2.33377H33.7979V1.6671H32.389V2.33377ZM35.2068 2.33377H36.6157V1.6671H35.2068V2.33377ZM38.0245 2.33377H39.4334V1.6671H38.0245V2.33377ZM40.8423 2.33377H42.2512V1.6671H40.8423V2.33377ZM43.6601 2.33377H45.0689V1.6671H43.6601V2.33377ZM46.4778 2.33377H47.8867V1.6671H46.4778V2.33377ZM49.2956 2.33377H50.7045V1.6671H49.2956V2.33377ZM52.1134 2.33377H53.5223V1.6671H52.1134V2.33377ZM54.9312 2.33377H56.3401V1.6671H54.9312V2.33377ZM57.7489 2.33377H59.1578V1.6671H57.7489V2.33377ZM60.5667 2.33377H61.9756V1.6671H60.5667V2.33377ZM63.3845 2.33377H64.7933V1.6671H63.3845V2.33377ZM66.2023 2.33377H67.6112V1.6671H66.2023V2.33377ZM69.0201 2.33377H70.4287V1.6671H69.0201V2.33377ZM71.8378 2.33377H73.2469V1.6671H71.8378V2.33377ZM74.6553 2.33377H76.0644V1.6671H74.6553V2.33377ZM77.4735 2.33377H78.8826V1.6671H77.4735V2.33377ZM80.291 2.33377H81.7001V1.6671H80.291V2.33377ZM83.1091 2.33377H84.5175V1.6671H83.1091V2.33377ZM85.9266 2.33377H87.3357V1.6671H85.9266V2.33377ZM88.7448 2.33377H90.1532V1.6671H88.7448V2.33377ZM91.5623 2.33377H92.9714V1.6671H91.5623V2.33377ZM94.3798 2.33377H95.7889V1.6671H94.3798V2.33377ZM97.198 2.33377H97.9022V1.6671H97.198V2.33377Z" fill="#D1D5E4"/>
</g>
<defs>
<clipPath id="clip0_1682_88096">
<rect width="100" height="4" fill="white"/>
</clipPath>
</defs>
</svg>
