<svg width="248" height="80" viewBox="0 0 248 80" fill="none" xmlns="http://www.w3.org/2000/svg">
<rect width="248" height="80" fill="#393939"/>
<g filter="url(#filter0_dd_0_1)">
<rect x="-405" y="-428" width="680" height="1514" rx="16" fill="#FFFBFE"/>
<rect x="-404.5" y="-427.5" width="679" height="1513" rx="15.5" stroke="#D1D5E4"/>
</g>
<path d="M248 0H0V80H248V0Z" fill="#FEFBFF"/>
<g filter="url(#filter1_dd_0_1)">
<path d="M40 60C51.0457 60 60 51.0457 60 40C60 28.9543 51.0457 20 40 20C28.9543 20 20 28.9543 20 40C20 51.0457 28.9543 60 40 60Z" fill="#F2F4FF"/>
<path d="M43.6853 43.0473C43.6853 42.7429 43.8814 42.5469 44.1839 42.5469C44.4864 42.5469 44.6825 42.7429 44.6825 43.0473C44.6825 43.2341 44.6096 43.3461 44.5499 43.4077C44.4883 43.4712 44.3744 43.5459 44.1839 43.5459C43.9934 43.5459 43.8795 43.4712 43.8179 43.4077C43.7562 43.3461 43.6853 43.2341 43.6853 43.0473Z" fill="white"/>
<path d="M43.6853 43.0473C43.6853 42.7429 43.8814 42.5469 44.1839 42.5469C44.4864 42.5469 44.6825 42.7429 44.6825 43.0473C44.6825 43.2341 44.6096 43.3461 44.5499 43.4077C44.4883 43.4712 44.3744 43.5459 44.1839 43.5459C43.9934 43.5459 43.8795 43.4712 43.8179 43.4077C43.7562 43.3461 43.6853 43.2341 43.6853 43.0473Z" fill="url(#paint0_linear_0_1)"/>
<path d="M44.5537 37.6255H45.1644C46.0775 37.6255 46.5612 38.1092 46.5612 39.0224V43.3473C46.5612 44.2605 46.0775 44.7441 45.1644 44.7441H43.2055C42.2923 44.7441 41.8086 44.2605 41.8086 43.3473V43.2801H35.6312C34.8973 43.2801 34.3371 43.0634 33.9618 42.6339C33.6125 42.2343 33.437 41.6554 33.437 40.9122V37.6199C33.437 36.8767 33.6125 36.2978 33.9618 35.9C34.3371 35.4724 34.8992 35.2539 35.6312 35.2539H42.3595C43.0934 35.2539 43.6536 35.4705 44.029 35.9C44.3763 36.2997 44.5537 36.8786 44.5537 37.6218V37.6255ZM45.676 43.8646C45.7675 43.7731 45.8142 43.5994 45.8142 43.3492V39.0224C45.8142 38.5238 45.663 38.3725 45.1644 38.3725H43.2036C42.7181 38.3725 42.5537 38.5368 42.5537 39.0224V43.3492C42.5537 43.6013 42.6004 43.7749 42.6919 43.8646C42.7834 43.9561 42.9552 44.0009 43.2055 44.0009H45.1625C45.4127 44.0009 45.5845 43.9542 45.676 43.8646Z" fill="white"/>
<path d="M44.5537 37.6255H45.1644C46.0775 37.6255 46.5612 38.1092 46.5612 39.0224V43.3473C46.5612 44.2605 46.0775 44.7441 45.1644 44.7441H43.2055C42.2923 44.7441 41.8086 44.2605 41.8086 43.3473V43.2801H35.6312C34.8973 43.2801 34.3371 43.0634 33.9618 42.6339C33.6125 42.2343 33.437 41.6554 33.437 40.9122V37.6199C33.437 36.8767 33.6125 36.2978 33.9618 35.9C34.3371 35.4724 34.8992 35.2539 35.6312 35.2539H42.3595C43.0934 35.2539 43.6536 35.4705 44.029 35.9C44.3763 36.2997 44.5537 36.8786 44.5537 37.6218V37.6255ZM45.676 43.8646C45.7675 43.7731 45.8142 43.5994 45.8142 43.3492V39.0224C45.8142 38.5238 45.663 38.3725 45.1644 38.3725H43.2036C42.7181 38.3725 42.5537 38.5368 42.5537 39.0224V43.3492C42.5537 43.6013 42.6004 43.7749 42.6919 43.8646C42.7834 43.9561 42.9552 44.0009 43.2055 44.0009H45.1625C45.4127 44.0009 45.5845 43.9542 45.676 43.8646Z" fill="url(#paint1_linear_0_1)"/>
<path d="M40.5424 44.0039H37.2651C37.0597 44.0039 36.8916 44.1719 36.8916 44.3773C36.8916 44.5827 37.0597 44.7508 37.2651 44.7508H40.5424C40.7478 44.7508 40.9159 44.5827 40.9159 44.3773C40.9159 44.1719 40.7478 44.0039 40.5424 44.0039Z" fill="white"/>
<path d="M40.5424 44.0039H37.2651C37.0597 44.0039 36.8916 44.1719 36.8916 44.3773C36.8916 44.5827 37.0597 44.7508 37.2651 44.7508H40.5424C40.7478 44.7508 40.9159 44.5827 40.9159 44.3773C40.9159 44.1719 40.7478 44.0039 40.5424 44.0039Z" fill="url(#paint2_linear_0_1)"/>
</g>
<path d="M72.55 34.9996C75.238 34.9996 77.282 32.9276 77.282 30.0996C77.282 27.2716 75.238 25.1996 72.55 25.1996H69.022V34.9996H72.55ZM70.898 26.9916H72.55C74.16 26.9916 75.42 28.2516 75.42 30.0996C75.42 31.9476 74.16 33.2076 72.55 33.2076H70.898V26.9916ZM82.0284 35.1396C83.9604 35.1396 85.0104 33.9076 85.3324 32.9276H83.5404C83.3164 33.2776 82.7844 33.6696 82.0284 33.6696C81.0484 33.6696 80.2784 32.9836 80.1664 32.0316H85.4584C85.4864 31.9196 85.5284 31.6396 85.5284 31.3036C85.5284 29.2736 84.0164 27.7616 82.0284 27.7616C79.9704 27.7616 78.4164 29.3156 78.4164 31.4576C78.4164 33.5856 79.9704 35.1396 82.0284 35.1396ZM80.1664 30.8556C80.3064 29.9316 80.9924 29.2176 82.0284 29.2176C82.9944 29.2176 83.6804 29.9316 83.7784 30.8556H80.1664ZM90.8105 34.9996L93.2465 27.9016H91.4125L89.7325 32.9136H89.4525L87.7725 27.9016H85.9385L88.3745 34.9996H90.8105ZM95.0706 26.8936C95.6586 26.8936 96.1066 26.4736 96.1066 25.9136C96.1066 25.3396 95.6586 24.9336 95.0706 24.9336C94.4826 24.9336 94.0486 25.3396 94.0486 25.9136C94.0486 26.4736 94.4826 26.8936 95.0706 26.8936ZM95.9526 34.9996V27.9016H94.1886V34.9996H95.9526ZM100.964 35.1396C102.952 35.1396 104.086 33.7816 104.352 32.3536H102.574C102.392 32.9836 101.888 33.5156 100.964 33.5156C99.956 33.5156 99.116 32.6896 99.116 31.4576C99.116 30.2116 99.956 29.3996 100.964 29.3996C101.888 29.3996 102.392 29.9316 102.574 30.5056H104.352C104.086 29.1196 102.952 27.7616 100.964 27.7616C98.906 27.7616 97.352 29.3156 97.352 31.4576C97.352 33.5856 98.906 35.1396 100.964 35.1396ZM108.935 35.1396C110.867 35.1396 111.917 33.9076 112.239 32.9276H110.447C110.223 33.2776 109.691 33.6696 108.935 33.6696C107.955 33.6696 107.185 32.9836 107.073 32.0316H112.365C112.393 31.9196 112.435 31.6396 112.435 31.3036C112.435 29.2736 110.923 27.7616 108.935 27.7616C106.877 27.7616 105.323 29.3156 105.323 31.4576C105.323 33.5856 106.877 35.1396 108.935 35.1396ZM107.073 30.8556C107.213 29.9316 107.899 29.2176 108.935 29.2176C109.901 29.2176 110.587 29.9316 110.685 30.8556H107.073ZM120.623 37.9396C122.779 37.9396 124.053 36.6796 124.053 34.8176V27.9016H122.527L122.387 28.6716H122.317C121.883 28.1396 121.211 27.7616 120.273 27.7616C118.453 27.7616 117.053 29.1616 117.053 31.1776C117.053 33.1936 118.453 34.5936 120.273 34.5936C121.155 34.5936 121.869 34.2156 122.219 33.8236H122.289V34.8036C122.289 35.7696 121.631 36.3996 120.623 36.3996C119.559 36.3996 119.111 35.7836 119.041 35.3356H117.249C117.291 36.3436 118.215 37.9396 120.623 37.9396ZM120.553 33.0256C119.587 33.0256 118.817 32.2696 118.817 31.1776C118.817 30.0856 119.587 29.3296 120.553 29.3296C121.519 29.3296 122.289 30.0856 122.289 31.1776C122.289 32.2696 121.519 33.0256 120.553 33.0256ZM127.576 34.9996V30.9536C127.576 30.0296 128.038 29.5676 128.934 29.5676H130.124V27.9016H128.822C128.164 27.9016 127.758 28.1816 127.548 28.5176H127.478L127.338 27.9016H125.812V34.9996H127.576ZM134.296 35.1396C136.354 35.1396 137.908 33.5856 137.908 31.4576C137.908 29.3156 136.354 27.7616 134.296 27.7616C132.224 27.7616 130.684 29.3156 130.684 31.4576C130.684 33.5856 132.224 35.1396 134.296 35.1396ZM134.296 33.5016C133.274 33.5016 132.434 32.6896 132.434 31.4576C132.434 30.2116 133.274 29.3996 134.296 29.3996C135.304 29.3996 136.144 30.2116 136.144 31.4576C136.144 32.6896 135.304 33.5016 134.296 33.5016ZM142.092 35.1396C143.058 35.1396 143.8 34.7196 144.136 34.3276H144.206L144.346 34.9996H145.858V27.9016H144.094V31.9336C144.094 32.8016 143.45 33.4736 142.554 33.4736C141.686 33.4736 141.056 32.8296 141.056 31.9336V27.9016H139.292V32.1716C139.292 33.9636 140.468 35.1396 142.092 35.1396ZM149.382 37.7996V34.2856H149.452C149.802 34.7336 150.488 35.1396 151.454 35.1396C153.274 35.1396 154.744 33.6556 154.744 31.4576C154.744 29.2596 153.274 27.7616 151.454 27.7616C150.474 27.7616 149.76 28.1676 149.354 28.6996H149.284L149.144 27.9016H147.618V37.7996H149.382ZM151.188 33.5156C150.194 33.5156 149.382 32.7176 149.382 31.4576C149.382 30.1836 150.194 29.3996 151.188 29.3996C152.182 29.3996 152.98 30.1836 152.98 31.4576C152.98 32.7176 152.182 33.5156 151.188 33.5156ZM161.509 34.9996V30.9816C161.509 30.0996 162.153 29.4416 163.049 29.4416C163.931 29.4416 164.547 30.0856 164.547 30.9816V34.9996H166.311V30.7436C166.311 28.9516 165.135 27.7616 163.511 27.7616C162.447 27.7616 161.747 28.2516 161.481 28.5876H161.411L161.271 27.9016H159.745V34.9996H161.509ZM170.27 35.1396C171.306 35.1396 172.034 34.6636 172.3 34.3136H172.37L172.51 34.9996H174.036V30.4776C174.036 28.9096 172.874 27.7616 170.998 27.7616C169.122 27.7616 168.1 28.8956 167.988 30.0296H169.71C169.808 29.6376 170.214 29.2176 170.998 29.2176C171.768 29.2176 172.272 29.7356 172.272 30.4776V30.6316H170.606C168.646 30.6316 167.708 31.5976 167.708 32.9556C167.708 34.1876 168.688 35.1396 170.27 35.1396ZM170.578 33.7256C169.864 33.7256 169.472 33.3616 169.472 32.8156C169.472 32.2836 169.864 31.8916 170.788 31.8916H172.272V32.1016C172.272 33.0956 171.642 33.7256 170.578 33.7256ZM177.519 34.9996V30.8136C177.519 30.0156 178.093 29.4416 178.835 29.4416C179.549 29.4416 180.039 29.9456 180.039 30.8136V34.9996H181.803V30.8136C181.803 30.0156 182.391 29.4416 183.105 29.4416C183.833 29.4416 184.323 29.9456 184.323 30.8136V34.9996H186.073V30.6036C186.073 28.9516 184.953 27.7616 183.469 27.7616C182.377 27.7616 181.579 28.3356 181.271 28.8116H181.201C180.963 28.3776 180.277 27.7616 179.227 27.7616C178.415 27.7616 177.743 28.2236 177.491 28.5876H177.421L177.281 27.9016H175.755V34.9996H177.519ZM191.048 35.1396C192.98 35.1396 194.03 33.9076 194.352 32.9276H192.56C192.336 33.2776 191.804 33.6696 191.048 33.6696C190.068 33.6696 189.298 32.9836 189.186 32.0316H194.478C194.506 31.9196 194.548 31.6396 194.548 31.3036C194.548 29.2736 193.036 27.7616 191.048 27.7616C188.99 27.7616 187.436 29.3156 187.436 31.4576C187.436 33.5856 188.99 35.1396 191.048 35.1396ZM189.186 30.8556C189.326 29.9316 190.012 29.2176 191.048 29.2176C192.014 29.2176 192.7 29.9316 192.798 30.8556H189.186Z" fill="#0066FF"/>
<path d="M71.5701 54.9986H70.4501V47.2986H68.3501V46.3186H70.0301C70.3101 46.3186 70.4501 46.1786 70.4501 45.8986V45.1986H71.5701V54.9986ZM77.2396 55.1386C75.2096 55.1386 73.4596 53.3886 73.4596 50.0986C73.4596 46.8086 75.2096 45.0586 77.2396 45.0586C79.2696 45.0586 81.0196 46.8086 81.0196 50.0986C81.0196 53.3886 79.2696 55.1386 77.2396 55.1386ZM77.2396 54.0886C78.6396 54.0886 79.8996 52.7586 79.8996 50.0986C79.8996 47.4386 78.6396 46.1086 77.2396 46.1086C75.8396 46.1086 74.5796 47.4386 74.5796 50.0986C74.5796 52.7586 75.8396 54.0886 77.2396 54.0886ZM89.3616 55.1386C87.0516 55.1386 85.6516 53.7386 85.6516 52.1286H86.7716C86.7716 53.1786 87.6816 54.0886 89.3616 54.0886C91.1116 54.0886 91.8116 53.3186 91.8116 52.3386C91.8116 51.4986 91.2516 50.9386 90.1316 50.7286L88.2416 50.3786C86.6876 50.0846 85.8616 49.2586 85.8616 47.8586C85.8616 46.2486 87.1216 45.0586 89.2216 45.0586C91.4616 45.0586 92.8616 46.3886 92.8616 48.0686H91.7416C91.7416 47.0186 90.8316 46.1086 89.2216 46.1086C87.7516 46.1086 86.9816 46.8786 86.9816 47.8586C86.9816 48.6286 87.4856 49.2026 88.5916 49.3986L90.1316 49.6786C92.0916 50.0286 92.9316 50.8686 92.9316 52.3386C92.9316 53.9486 91.6716 55.1386 89.3616 55.1386ZM95.8749 54.9986H94.7549V45.1986H95.8749V54.9986ZM99.2381 54.9986H98.1181V45.1986H100.148L103.158 53.7386H103.438L106.448 45.1986H108.478V54.9986H107.358V46.6686H107.078L104.138 54.9986H102.458L99.5181 46.6686H99.2381V54.9986ZM116.75 55.1386C114.86 55.1386 113.39 53.6686 113.39 51.4986C113.39 49.3286 114.86 47.8586 116.75 47.8586C118.29 47.8586 119.48 48.7686 119.83 50.2386H118.78C118.5 49.3286 117.73 48.8386 116.75 48.8386C115.49 48.8386 114.44 49.8886 114.44 51.4986C114.44 53.1086 115.49 54.1586 116.75 54.1586C117.73 54.1586 118.5 53.6686 118.78 52.6886H119.83C119.48 54.2286 118.29 55.1386 116.75 55.1386ZM123.472 55.1386C122.002 55.1386 121.022 54.2286 121.022 52.9686C121.022 51.6386 121.862 50.7286 123.822 50.7286H125.712V50.5186C125.712 49.4686 125.082 48.8386 124.032 48.8386C122.982 48.8386 122.352 49.3986 122.282 50.0286H121.232C121.302 48.9086 122.282 47.8586 124.032 47.8586C125.712 47.8586 126.762 48.8386 126.762 50.5186V54.9986H125.852L125.712 54.1586H125.642C125.376 54.5786 124.592 55.1386 123.472 55.1386ZM123.472 54.1586C124.872 54.1586 125.712 53.3186 125.712 51.9886V51.7086H123.822C122.562 51.7086 122.072 52.2686 122.072 52.9686C122.072 53.6686 122.562 54.1586 123.472 54.1586ZM129.776 54.9986H128.726V47.9986H129.636L129.776 48.6986H129.846C130.126 48.2786 130.406 47.9986 131.176 47.9986H132.366V48.9786H131.316C130.336 48.9786 129.776 49.5386 129.776 50.5186V54.9986ZM136.147 55.1386C134.327 55.1386 132.927 53.6686 132.927 51.4986C132.927 49.3286 134.327 47.8586 136.147 47.8586C137.127 47.8586 137.827 48.2786 138.387 48.9786H138.457V45.1986H139.507V54.9986H138.597L138.457 54.0186H138.387C137.827 54.7186 137.127 55.1386 136.147 55.1386ZM136.217 54.1586C137.407 54.1586 138.457 53.1086 138.457 51.4986C138.457 49.8886 137.407 48.8386 136.217 48.8386C135.027 48.8386 133.977 49.8886 133.977 51.4986C133.977 53.1086 135.027 54.1586 136.217 54.1586ZM143.777 55.1386C142.027 55.1386 140.977 54.0886 140.977 52.9686H142.027C142.027 53.5986 142.657 54.1586 143.777 54.1586C144.897 54.1586 145.457 53.6686 145.457 53.1086C145.457 52.5486 145.107 52.2126 144.267 52.0586L143.077 51.8486C141.789 51.6246 141.117 50.9946 141.117 49.8886C141.117 48.7686 141.957 47.8586 143.707 47.8586C145.387 47.8586 146.437 48.9086 146.437 50.0286H145.387C145.387 49.3986 144.757 48.8386 143.707 48.8386C142.657 48.8386 142.167 49.3286 142.167 49.8886C142.167 50.3786 142.447 50.7146 143.287 50.8686L144.477 51.0786C145.877 51.3306 146.507 51.9886 146.507 53.1086C146.507 54.2286 145.597 55.1386 143.777 55.1386Z" fill="#6E7894"/>
<path d="M227.249 49.5984H219.446C219.055 49.5984 218.795 49.3424 218.795 48.9584C218.795 47.9984 218.34 47.4224 217.625 46.5264C217.235 46.0784 216.779 45.5024 216.324 44.7984C215.089 42.8784 213.983 40.5744 213.723 39.7424C213.463 38.9104 213.658 38.3344 213.918 38.0144C214.178 37.6304 214.698 37.4384 215.284 37.4384C216.064 37.4384 216.844 38.0784 217.56 38.9104V32.3184C217.56 31.2304 218.405 30.3984 219.511 30.3984C220.616 30.3984 221.462 31.2304 221.462 32.3184V35.0064C221.657 34.9424 221.852 34.8784 222.112 34.8784C222.827 34.8784 223.412 35.2624 223.738 35.7744C223.998 35.5824 224.323 35.5184 224.648 35.5184C225.558 35.5184 226.274 36.0944 226.534 36.9264C226.729 36.8624 226.989 36.7984 227.249 36.7984C228.355 36.7984 229.2 37.6304 229.2 38.7184V40.6384C229.2 42.3024 228.875 43.6464 228.55 44.9264C228.225 46.2064 227.899 47.4224 227.899 48.9584C227.899 49.3424 227.639 49.5984 227.249 49.5984Z" fill="#FEFEFF"/>
<path fill-rule="evenodd" clip-rule="evenodd" d="M219.446 49.5984H227.249C227.639 49.5984 227.899 49.3424 227.899 48.9584C227.899 47.4816 228.2 46.3005 228.512 45.074C228.525 45.0249 228.537 44.9757 228.55 44.9264C228.875 43.6464 229.2 42.3024 229.2 40.6384V38.7184C229.2 37.6304 228.355 36.7984 227.249 36.7984C226.989 36.7984 226.729 36.8624 226.534 36.9264C226.274 36.0944 225.558 35.5184 224.648 35.5184C224.323 35.5184 223.998 35.5824 223.738 35.7744C223.412 35.2624 222.827 34.8784 222.112 34.8784C221.852 34.8784 221.657 34.9424 221.462 35.0064V32.3184C221.462 31.2304 220.616 30.3984 219.511 30.3984C218.405 30.3984 217.56 31.2304 217.56 32.3184V38.9104C216.844 38.0784 216.064 37.4384 215.284 37.4384C214.698 37.4384 214.178 37.6304 213.918 38.0144C213.658 38.3344 213.463 38.9104 213.723 39.7424C213.983 40.5744 215.089 42.8784 216.324 44.7984C216.779 45.5024 217.235 46.0784 217.625 46.5264C218.34 47.4224 218.795 47.9984 218.795 48.9584C218.795 49.3424 219.055 49.5984 219.446 49.5984ZM226.599 48.3184H220.031C219.901 47.2304 219.25 46.5264 218.535 45.7584C218.438 45.6304 218.34 45.5064 218.242 45.3824C217.95 45.0104 217.657 44.6384 217.365 44.1584C216.064 42.1104 215.089 40.0624 214.893 39.3584C214.828 39.0384 214.828 38.8464 214.893 38.7824C214.958 38.7184 215.089 38.7184 215.219 38.7184C215.674 38.7184 216.909 39.9344 217.495 41.4064V41.9184C217.495 42.3024 217.755 42.5584 218.145 42.5584C218.535 42.5584 218.795 42.3024 218.795 41.9184V32.3184C218.795 31.9344 219.055 31.6784 219.446 31.6784C219.836 31.6784 220.096 31.9344 220.096 32.3184V38.0784C220.096 38.4624 220.356 38.7184 220.746 38.7184C221.136 38.7184 221.396 38.4624 221.396 38.0784V36.7984C221.396 36.4144 221.657 36.1584 222.047 36.1584C222.437 36.1584 222.697 36.4144 222.697 36.7984V38.7184C222.697 39.1024 222.957 39.3584 223.347 39.3584C223.738 39.3584 223.998 39.1024 223.998 38.7184V37.4384C223.998 37.0544 224.258 36.7984 224.648 36.7984C225.038 36.7984 225.298 37.0544 225.298 37.4384V39.3584C225.298 39.7424 225.558 39.9984 225.949 39.9984C226.339 39.9984 226.599 39.7424 226.599 39.3584V38.7184C226.599 38.3344 226.859 38.0784 227.249 38.0784C227.639 38.0784 227.899 38.3344 227.899 38.7184V40.6384C227.899 42.0514 227.6 43.2286 227.288 44.4529C227.275 44.504 227.262 44.5551 227.249 44.6064C227.205 44.8008 227.16 44.9952 227.113 45.1908C226.887 46.1545 226.653 47.148 226.599 48.3184Z" fill="#031A34"/>
<defs>
<filter id="filter0_dd_0_1" x="-413" y="-434" width="696" height="1530" filterUnits="userSpaceOnUse" color-interpolation-filters="sRGB">
<feFlood flood-opacity="0" result="BackgroundImageFix"/>
<feColorMatrix in="SourceAlpha" type="matrix" values="0 0 0 0 0 0 0 0 0 0 0 0 0 0 0 0 0 0 127 0" result="hardAlpha"/>
<feMorphology radius="2" operator="dilate" in="SourceAlpha" result="effect1_dropShadow_0_1"/>
<feOffset dy="2"/>
<feGaussianBlur stdDeviation="3"/>
<feComposite in2="hardAlpha" operator="out"/>
<feColorMatrix type="matrix" values="0 0 0 0 0 0 0 0 0 0 0 0 0 0 0 0 0 0 0.15 0"/>
<feBlend mode="normal" in2="BackgroundImageFix" result="effect1_dropShadow_0_1"/>
<feColorMatrix in="SourceAlpha" type="matrix" values="0 0 0 0 0 0 0 0 0 0 0 0 0 0 0 0 0 0 127 0" result="hardAlpha"/>
<feOffset dy="1"/>
<feGaussianBlur stdDeviation="1"/>
<feComposite in2="hardAlpha" operator="out"/>
<feColorMatrix type="matrix" values="0 0 0 0 0 0 0 0 0 0 0 0 0 0 0 0 0 0 0.3 0"/>
<feBlend mode="normal" in2="effect1_dropShadow_0_1" result="effect2_dropShadow_0_1"/>
<feBlend mode="normal" in="SourceGraphic" in2="effect2_dropShadow_0_1" result="shape"/>
</filter>
<filter id="filter1_dd_0_1" x="17" y="18" width="46" height="46" filterUnits="userSpaceOnUse" color-interpolation-filters="sRGB">
<feFlood flood-opacity="0" result="BackgroundImageFix"/>
<feColorMatrix in="SourceAlpha" type="matrix" values="0 0 0 0 0 0 0 0 0 0 0 0 0 0 0 0 0 0 127 0" result="hardAlpha"/>
<feOffset dy="1"/>
<feGaussianBlur stdDeviation="1.5"/>
<feComposite in2="hardAlpha" operator="out"/>
<feColorMatrix type="matrix" values="0 0 0 0 0 0 0 0 0 0 0 0 0 0 0 0 0 0 0.15 0"/>
<feBlend mode="normal" in2="BackgroundImageFix" result="effect1_dropShadow_0_1"/>
<feColorMatrix in="SourceAlpha" type="matrix" values="0 0 0 0 0 0 0 0 0 0 0 0 0 0 0 0 0 0 127 0" result="hardAlpha"/>
<feOffset dy="1"/>
<feGaussianBlur stdDeviation="1"/>
<feComposite in2="hardAlpha" operator="out"/>
<feColorMatrix type="matrix" values="0 0 0 0 0 0 0 0 0 0 0 0 0 0 0 0 0 0 0.3 0"/>
<feBlend mode="normal" in2="effect1_dropShadow_0_1" result="effect2_dropShadow_0_1"/>
<feBlend mode="normal" in="SourceGraphic" in2="effect2_dropShadow_0_1" result="shape"/>
</filter>
<linearGradient id="paint0_linear_0_1" x1="33.4369" y1="35.2546" x2="47.9512" y2="38.4643" gradientUnits="userSpaceOnUse">
<stop stop-color="#0066FF"/>
<stop offset="1" stop-color="#59C2C9"/>
</linearGradient>
<linearGradient id="paint1_linear_0_1" x1="33.437" y1="35.2539" x2="47.9513" y2="38.4636" gradientUnits="userSpaceOnUse">
<stop stop-color="#0066FF"/>
<stop offset="1" stop-color="#59C2C9"/>
</linearGradient>
<linearGradient id="paint2_linear_0_1" x1="33.4369" y1="35.255" x2="47.9512" y2="38.4647" gradientUnits="userSpaceOnUse">
<stop stop-color="#0066FF"/>
<stop offset="1" stop-color="#59C2C9"/>
</linearGradient>
</defs>
</svg>
