<svg width="106" height="124" viewBox="0 0 106 124" fill="none" xmlns="http://www.w3.org/2000/svg">
<rect width="106" height="124" fill="#393939"/>
<g filter="url(#filter0_dd_0_1)">
<rect x="-534" y="-522" width="680" height="1514" rx="16" fill="#FFFBFE"/>
<rect x="-533.5" y="-521.5" width="679" height="1513" rx="15.5" stroke="#D1D5E4"/>
</g>
<path d="M106 0H0V124H106V0Z" fill="#FEFBFF"/>
<g filter="url(#filter1_dd_0_1)">
<path d="M53 84C70.6731 84 85 69.6731 85 52C85 34.3269 70.6731 20 53 20C35.3269 20 21 34.3269 21 52C21 69.6731 35.3269 84 53 84Z" fill="white"/>
<path d="M53 84C70.6731 84 85 69.6731 85 52C85 34.3269 70.6731 20 53 20C35.3269 20 21 34.3269 21 52C21 69.6731 35.3269 84 53 84Z" fill="url(#paint0_linear_0_1)" fill-opacity="0.1"/>
<path d="M46.8309 42.1562H59.1614C59.7973 42.1562 60.3771 42.7304 60.3799 43.3579V60.6408C60.3799 61.2795 59.8113 61.8424 59.1642 61.8424H55.1138V56.3354C55.1138 56.1085 54.9317 55.9265 54.7077 55.9265H51.2875C51.0634 55.9265 50.8813 56.1085 50.8813 56.3354V61.8424H46.8309C46.1839 61.8424 45.6152 61.2823 45.6152 60.6408V43.3579C45.6152 42.7304 46.1951 42.1562 46.8309 42.1562ZM51.7105 48.1898C51.9345 48.1898 52.1166 48.0077 52.1166 47.7808V45.1646C52.1166 44.9377 51.9345 44.7556 51.7105 44.7556H49.1222C48.8981 44.7556 48.7161 44.9377 48.7161 45.1646V47.7808C48.7161 48.0049 48.8981 48.1898 49.1222 48.1898H51.7105ZM57.2343 47.7808V45.1646C57.2343 44.9377 57.0522 44.7556 56.8281 44.7556H54.2399C54.0158 44.7556 53.8337 44.9377 53.8337 45.1646V47.7808C53.8337 48.0049 54.0158 48.1898 54.2399 48.1898H56.8281C57.0522 48.1898 57.2343 48.0077 57.2343 47.7808ZM57.2343 52.9181V50.299C57.2343 50.0749 57.0522 49.8901 56.8281 49.8901H54.2399C54.0158 49.8901 53.8337 50.0721 53.8337 50.299V52.9181C53.8337 53.1422 54.0158 53.327 54.2399 53.327H56.8281C57.0522 53.327 57.2343 53.145 57.2343 52.9181ZM52.1166 52.9181V50.299C52.1166 50.0749 51.9345 49.8901 51.7105 49.8901H49.1222C48.8981 49.8901 48.7161 50.0721 48.7161 50.299V52.9181C48.7161 53.1422 48.8981 53.327 49.1222 53.327H51.7105C51.9345 53.327 52.1166 53.145 52.1166 52.9181Z" fill="#0066FF"/>
</g>
<path d="M24.9497 99.1396C27.4417 99.1396 28.7437 97.8516 28.7437 96.1996C28.7437 94.5896 27.9037 93.7496 25.9437 93.3996L24.4037 93.1196C23.4377 92.9376 23.0737 92.5876 23.0737 91.9996C23.0737 91.2996 23.6617 90.7116 24.8097 90.7116C26.0697 90.7116 26.8117 91.4536 26.8117 92.3076H28.6737C28.6737 90.4316 27.2737 89.0596 24.8097 89.0596C22.5137 89.0596 21.2117 90.3476 21.2117 91.9996C21.2117 93.4976 22.0517 94.3516 23.7317 94.6596L25.3837 94.9676C26.4617 95.1636 26.8817 95.5976 26.8817 96.1996C26.8817 96.8996 26.3217 97.4876 24.9497 97.4876C23.5917 97.4876 22.8637 96.7736 22.8637 95.9056H21.0017C21.0017 97.6976 22.4437 99.1396 24.9497 99.1396ZM31.1214 90.8936C31.7094 90.8936 32.1574 90.4736 32.1574 89.9136C32.1574 89.3396 31.7094 88.9336 31.1214 88.9336C30.5334 88.9336 30.0994 89.3396 30.0994 89.9136C30.0994 90.4736 30.5334 90.8936 31.1214 90.8936ZM32.0034 98.9996V91.9016H30.2394V98.9996H32.0034ZM37.7288 98.9996V97.4036H36.5808C36.2588 97.4036 36.1188 97.2636 36.1188 96.9416V93.5676H37.7288V91.9016H36.1188V89.7736H34.3548V91.9016H33.2348V93.5676H34.3548V97.3056C34.3548 98.3556 34.9988 98.9996 36.1608 98.9996H37.7288ZM42.2101 99.1396C44.1421 99.1396 45.1921 97.9076 45.5141 96.9276H43.7221C43.4981 97.2776 42.9661 97.6696 42.2101 97.6696C41.2301 97.6696 40.4601 96.9836 40.3481 96.0316H45.6401C45.6681 95.9196 45.7101 95.6396 45.7101 95.3036C45.7101 93.2736 44.1981 91.7616 42.2101 91.7616C40.1521 91.7616 38.5981 93.3156 38.5981 95.4576C38.5981 97.5856 40.1521 99.1396 42.2101 99.1396ZM40.3481 94.8556C40.4881 93.9316 41.1741 93.2176 42.2101 93.2176C43.1761 93.2176 43.8621 93.9316 43.9601 94.8556H40.3481ZM52.4565 98.9996V94.9816C52.4565 94.0996 53.1005 93.4416 53.9965 93.4416C54.8785 93.4416 55.4945 94.0856 55.4945 94.9816V98.9996H57.2585V94.7436C57.2585 92.9516 56.0825 91.7616 54.4585 91.7616C53.3945 91.7616 52.6945 92.2516 52.4285 92.5876H52.3585L52.2185 91.9016H50.6925V98.9996H52.4565ZM61.2177 99.1396C62.2537 99.1396 62.9817 98.6636 63.2477 98.3136H63.3177L63.4577 98.9996H64.9837V94.4776C64.9837 92.9096 63.8217 91.7616 61.9457 91.7616C60.0697 91.7616 59.0477 92.8956 58.9357 94.0296H60.6577C60.7557 93.6376 61.1617 93.2176 61.9457 93.2176C62.7157 93.2176 63.2197 93.7356 63.2197 94.4776V94.6316H61.5537C59.5937 94.6316 58.6557 95.5976 58.6557 96.9556C58.6557 98.1876 59.6357 99.1396 61.2177 99.1396ZM61.5257 97.7256C60.8117 97.7256 60.4197 97.3616 60.4197 96.8156C60.4197 96.2836 60.8117 95.8916 61.7357 95.8916H63.2197V96.1016C63.2197 97.0956 62.5897 97.7256 61.5257 97.7256ZM68.4663 98.9996V94.8136C68.4663 94.0156 69.0403 93.4416 69.7823 93.4416C70.4963 93.4416 70.9863 93.9456 70.9863 94.8136V98.9996H72.7503V94.8136C72.7503 94.0156 73.3383 93.4416 74.0523 93.4416C74.7803 93.4416 75.2703 93.9456 75.2703 94.8136V98.9996H77.0203V94.6036C77.0203 92.9516 75.9003 91.7616 74.4163 91.7616C73.3243 91.7616 72.5263 92.3356 72.2183 92.8116H72.1483C71.9103 92.3776 71.2243 91.7616 70.1743 91.7616C69.3623 91.7616 68.6903 92.2236 68.4383 92.5876H68.3683L68.2283 91.9016H66.7023V98.9996H68.4663ZM81.9952 99.1396C83.9272 99.1396 84.9772 97.9076 85.2992 96.9276H83.5072C83.2832 97.2776 82.7512 97.6696 81.9952 97.6696C81.0152 97.6696 80.2452 96.9836 80.1332 96.0316H85.4252C85.4532 95.9196 85.4952 95.6396 85.4952 95.3036C85.4952 93.2736 83.9832 91.7616 81.9952 91.7616C79.9372 91.7616 78.3832 93.3156 78.3832 95.4576C78.3832 97.5856 79.9372 99.1396 81.9952 99.1396ZM80.1332 94.8556C80.2732 93.9316 80.9592 93.2176 81.9952 93.2176C82.9612 93.2176 83.6472 93.9316 83.7452 94.8556H80.1332Z" fill="#0066FF"/>
<path d="M98.2492 91.5984H90.4456C90.0554 91.5984 89.7953 91.3424 89.7953 90.9584C89.7953 89.9984 89.3401 89.4224 88.6247 88.5264C88.2346 88.0784 87.7793 87.5024 87.3241 86.7984C86.0886 84.8784 84.9831 82.5744 84.7229 81.7424C84.4628 80.9104 84.6579 80.3344 84.918 80.0144C85.1781 79.6304 85.6984 79.4384 86.2837 79.4384C87.064 79.4384 87.8444 80.0784 88.5597 80.9104V74.3184C88.5597 73.2304 89.4051 72.3984 90.5106 72.3984C91.6161 72.3984 92.4615 73.2304 92.4615 74.3184V77.0064C92.6566 76.9424 92.8517 76.8784 93.1118 76.8784C93.8271 76.8784 94.4124 77.2624 94.7376 77.7744C94.9977 77.5824 95.3228 77.5184 95.648 77.5184C96.5584 77.5184 97.2737 78.0944 97.5339 78.9264C97.729 78.8624 97.9891 78.7984 98.2492 78.7984C99.3547 78.7984 100.2 79.6304 100.2 80.7184V82.6384C100.2 84.3024 99.8749 85.6464 99.5498 86.9264C99.2246 88.2064 98.8995 89.4224 98.8995 90.9584C98.8995 91.3424 98.6394 91.5984 98.2492 91.5984Z" fill="#FEFEFF"/>
<path fill-rule="evenodd" clip-rule="evenodd" d="M90.4456 91.5984H98.2492C98.6394 91.5984 98.8995 91.3424 98.8995 90.9584C98.8995 89.4816 99.2001 88.3005 99.5122 87.074C99.5247 87.0249 99.5373 86.9757 99.5498 86.9264C99.8749 85.6464 100.2 84.3024 100.2 82.6384V80.7184C100.2 79.6304 99.3547 78.7984 98.2492 78.7984C97.9891 78.7984 97.729 78.8624 97.5339 78.9264C97.2737 78.0944 96.5584 77.5184 95.648 77.5184C95.3228 77.5184 94.9977 77.5824 94.7376 77.7744C94.4124 77.2624 93.8271 76.8784 93.1118 76.8784C92.8517 76.8784 92.6566 76.9424 92.4615 77.0064V74.3184C92.4615 73.2304 91.6161 72.3984 90.5106 72.3984C89.4051 72.3984 88.5597 73.2304 88.5597 74.3184V80.9104C87.8444 80.0784 87.064 79.4384 86.2837 79.4384C85.6984 79.4384 85.1781 79.6304 84.918 80.0144C84.6579 80.3344 84.4628 80.9104 84.7229 81.7424C84.9831 82.5744 86.0886 84.8784 87.3241 86.7984C87.7793 87.5024 88.2346 88.0784 88.6247 88.5264C89.3401 89.4224 89.7953 89.9984 89.7953 90.9584C89.7953 91.3424 90.0554 91.5984 90.4456 91.5984ZM97.5989 90.3184H91.0308C90.9008 89.2304 90.2505 88.5264 89.5351 87.7584C89.4376 87.6304 89.34 87.5064 89.2425 87.3824C88.9499 87.0104 88.6572 86.6384 88.3646 86.1584C87.064 84.1104 86.0885 82.0624 85.8934 81.3584C85.8284 81.0384 85.8284 80.8464 85.8934 80.7824C85.9585 80.7184 86.0885 80.7184 86.2186 80.7184C86.6738 80.7184 87.9094 81.9344 88.4946 83.4064V83.9184C88.4946 84.3024 88.7548 84.5584 89.1449 84.5584C89.5351 84.5584 89.7952 84.3024 89.7952 83.9184V74.3184C89.7952 73.9344 90.0554 73.6784 90.4455 73.6784C90.8357 73.6784 91.0958 73.9344 91.0958 74.3184V80.0784C91.0958 80.4624 91.356 80.7184 91.7461 80.7184C92.1363 80.7184 92.3964 80.4624 92.3964 80.0784V78.7984C92.3964 78.4144 92.6566 78.1584 93.0467 78.1584C93.4369 78.1584 93.697 78.4144 93.697 78.7984V80.7184C93.697 81.1024 93.9572 81.3584 94.3473 81.3584C94.7375 81.3584 94.9976 81.1024 94.9976 80.7184V79.4384C94.9976 79.0544 95.2578 78.7984 95.6479 78.7984C96.0381 78.7984 96.2983 79.0544 96.2983 79.4384V81.3584C96.2983 81.7424 96.5584 81.9984 96.9486 81.9984C97.3387 81.9984 97.5989 81.7424 97.5989 81.3584V80.7184C97.5989 80.3344 97.859 80.0784 98.2492 80.0784C98.6393 80.0784 98.8995 80.3344 98.8995 80.7184V82.6384C98.8995 84.0514 98.5998 85.2286 98.2882 86.4529C98.2752 86.504 98.2622 86.5551 98.2492 86.6064C98.2053 86.8008 98.1595 86.9952 98.1135 87.1908C97.8867 88.1545 97.6529 89.148 97.5989 90.3184Z" fill="#031A34"/>
<defs>
<filter id="filter0_dd_0_1" x="-542" y="-528" width="696" height="1530" filterUnits="userSpaceOnUse" color-interpolation-filters="sRGB">
<feFlood flood-opacity="0" result="BackgroundImageFix"/>
<feColorMatrix in="SourceAlpha" type="matrix" values="0 0 0 0 0 0 0 0 0 0 0 0 0 0 0 0 0 0 127 0" result="hardAlpha"/>
<feMorphology radius="2" operator="dilate" in="SourceAlpha" result="effect1_dropShadow_0_1"/>
<feOffset dy="2"/>
<feGaussianBlur stdDeviation="3"/>
<feComposite in2="hardAlpha" operator="out"/>
<feColorMatrix type="matrix" values="0 0 0 0 0 0 0 0 0 0 0 0 0 0 0 0 0 0 0.15 0"/>
<feBlend mode="normal" in2="BackgroundImageFix" result="effect1_dropShadow_0_1"/>
<feColorMatrix in="SourceAlpha" type="matrix" values="0 0 0 0 0 0 0 0 0 0 0 0 0 0 0 0 0 0 127 0" result="hardAlpha"/>
<feOffset dy="1"/>
<feGaussianBlur stdDeviation="1"/>
<feComposite in2="hardAlpha" operator="out"/>
<feColorMatrix type="matrix" values="0 0 0 0 0 0 0 0 0 0 0 0 0 0 0 0 0 0 0.3 0"/>
<feBlend mode="normal" in2="effect1_dropShadow_0_1" result="effect2_dropShadow_0_1"/>
<feBlend mode="normal" in="SourceGraphic" in2="effect2_dropShadow_0_1" result="shape"/>
</filter>
<filter id="filter1_dd_0_1" x="18" y="18" width="70" height="70" filterUnits="userSpaceOnUse" color-interpolation-filters="sRGB">
<feFlood flood-opacity="0" result="BackgroundImageFix"/>
<feColorMatrix in="SourceAlpha" type="matrix" values="0 0 0 0 0 0 0 0 0 0 0 0 0 0 0 0 0 0 127 0" result="hardAlpha"/>
<feOffset dy="1"/>
<feGaussianBlur stdDeviation="1.5"/>
<feComposite in2="hardAlpha" operator="out"/>
<feColorMatrix type="matrix" values="0 0 0 0 0 0 0 0 0 0 0 0 0 0 0 0 0 0 0.15 0"/>
<feBlend mode="normal" in2="BackgroundImageFix" result="effect1_dropShadow_0_1"/>
<feColorMatrix in="SourceAlpha" type="matrix" values="0 0 0 0 0 0 0 0 0 0 0 0 0 0 0 0 0 0 127 0" result="hardAlpha"/>
<feOffset dy="1"/>
<feGaussianBlur stdDeviation="1"/>
<feComposite in2="hardAlpha" operator="out"/>
<feColorMatrix type="matrix" values="0 0 0 0 0 0 0 0 0 0 0 0 0 0 0 0 0 0 0.3 0"/>
<feBlend mode="normal" in2="effect1_dropShadow_0_1" result="effect2_dropShadow_0_1"/>
<feBlend mode="normal" in="SourceGraphic" in2="effect2_dropShadow_0_1" result="shape"/>
</filter>
<linearGradient id="paint0_linear_0_1" x1="21" y1="20" x2="93.3869" y2="31.5819" gradientUnits="userSpaceOnUse">
<stop stop-color="#0066FF"/>
<stop offset="1" stop-color="#59C2C9"/>
</linearGradient>
</defs>
</svg>
