<svg width="190" height="55" viewBox="0 0 190 55" fill="none" xmlns="http://www.w3.org/2000/svg">
<rect width="190" height="55" fill="#393939"/>
<g filter="url(#filter0_dd_0_1)">
<rect x="-445" y="-693" width="680" height="808" rx="16" fill="#FFFBFE"/>
<rect x="-444.5" y="-692.5" width="679" height="807" rx="15.5" stroke="#D1D5E4"/>
</g>
<g filter="url(#filter1_dd_0_1)">
<path d="M179.053 0.957031H10.9469C5.07544 0.957031 0.315674 5.68343 0.315674 11.5137V43.8436C0.315674 49.6739 5.07544 54.4003 10.9469 54.4003H179.053C184.925 54.4003 189.684 49.6739 189.684 43.8436V11.5137C189.684 5.68343 184.925 0.957031 179.053 0.957031Z" fill="#FEFEFF"/>
<path d="M179.053 1.28516H10.947C5.25897 1.28516 0.647949 5.86385 0.647949 11.512V43.8419C0.647949 49.49 5.25897 54.0687 10.947 54.0687H179.053C184.741 54.0687 189.352 49.49 189.352 43.8419V11.512C189.352 5.86385 184.741 1.28516 179.053 1.28516Z" stroke="#D1D5E4"/>
</g>
<path d="M18.6686 20.7539C18.8579 20.7539 19.0555 20.7581 19.2261 20.7622C20.657 20.7952 26.2293 21.357 26.2293 28.0302C26.2293 34.72 20.6508 35.2405 19.2552 35.2652C19.122 35.2673 18.9681 35.2694 18.8143 35.2694C18.7372 35.2694 18.6603 35.2694 18.5854 35.2673C17.117 35.2467 11.6113 34.7179 11.6113 27.9868C11.6113 21.2661 17.0649 20.7663 18.5335 20.7539H18.6686ZM18.4606 23.8685V30.1349C18.4606 30.3868 18.6645 30.5893 18.9182 30.5893C19.172 30.5893 19.3758 30.3848 19.3758 30.1349V23.8685C19.3758 23.6165 19.172 23.4141 18.9182 23.4141C18.6645 23.4141 18.4606 23.6186 18.4606 23.8685ZM18.9182 32.2415C19.2053 32.2415 19.4382 32.0102 19.4382 31.7231C19.4382 31.436 19.2053 31.2047 18.9182 31.2047C18.6312 31.2047 18.3982 31.4381 18.3982 31.7231C18.3982 32.0102 18.6312 32.2415 18.9182 32.2415Z" fill="white"/>
<path d="M18.6686 20.7539C18.8579 20.7539 19.0555 20.7581 19.2261 20.7622C20.657 20.7952 26.2293 21.357 26.2293 28.0302C26.2293 34.72 20.6508 35.2405 19.2552 35.2652C19.122 35.2673 18.9681 35.2694 18.8143 35.2694C18.7372 35.2694 18.6603 35.2694 18.5854 35.2673C17.117 35.2467 11.6113 34.7179 11.6113 27.9868C11.6113 21.2661 17.0649 20.7663 18.5335 20.7539H18.6686ZM18.4606 23.8685V30.1349C18.4606 30.3868 18.6645 30.5893 18.9182 30.5893C19.172 30.5893 19.3758 30.3848 19.3758 30.1349V23.8685C19.3758 23.6165 19.172 23.4141 18.9182 23.4141C18.6645 23.4141 18.4606 23.6186 18.4606 23.8685ZM18.9182 32.2415C19.2053 32.2415 19.4382 32.0102 19.4382 31.7231C19.4382 31.436 19.2053 31.2047 18.9182 31.2047C18.6312 31.2047 18.3982 31.4381 18.3982 31.7231C18.3982 32.0102 18.6312 32.2415 18.9182 32.2415Z" fill="url(#paint0_linear_0_1)"/>
<path d="M45.299 24.0517H44.2824L43.481 21.914H39.3428L38.5415 24.0517H37.5249L40.6943 15.7383H42.1296L45.299 24.0517ZM41.2923 16.7478L39.6777 21.0232H43.1462L41.5315 16.7478H41.2923ZM47.0977 24.0517H46.2006V15.7383H47.0977V24.0517ZM51.3389 24.1704C49.7242 24.1704 48.4684 22.9234 48.4684 21.0826C48.4684 19.2418 49.7242 17.9948 51.3389 17.9948C52.8937 17.9948 54.0897 19.1824 54.0897 20.8451C54.0897 21.1895 54.0538 21.427 54.0299 21.4983H49.3654C49.485 22.6265 50.3342 23.3391 51.3389 23.3391C52.0565 23.3391 52.6545 22.9828 52.9535 22.389H53.9103C53.4917 23.5173 52.5947 24.1704 51.3389 24.1704ZM49.3654 20.6669H53.1927C53.1329 19.5981 52.3555 18.8261 51.3389 18.8261C50.2624 18.8261 49.485 19.5981 49.3654 20.6669ZM56.3 24.0517H55.403V18.1135H56.1804L56.3 18.7074H56.3598C56.599 18.3511 56.8382 18.1135 57.496 18.1135H58.5126V18.9449H57.6156C56.7784 18.9449 56.3 19.4199 56.3 20.2513V24.0517ZM62.1588 24.0517H60.9626C60.3048 24.0517 59.8862 23.636 59.8862 23.0422V18.9449H58.9294V18.1135H59.8862V16.4509H60.7832V18.1135H62.1588V18.9449H60.7832V22.8641C60.7832 23.1016 60.9028 23.2203 61.142 23.2203H62.1588V24.0517ZM65.3289 24.1704C63.8339 24.1704 62.9369 23.2797 62.9369 22.3296H63.8339C63.8339 22.8641 64.3721 23.3391 65.3289 23.3391C66.2857 23.3391 66.7641 22.9234 66.7641 22.4484C66.7641 21.9733 66.4651 21.6883 65.7475 21.5577L64.7309 21.3795C63.6306 21.1895 63.0565 20.6551 63.0565 19.7168C63.0565 18.7667 63.7741 17.9948 65.2691 17.9948C66.7043 17.9948 67.6013 18.8855 67.6013 19.8356H66.7043C66.7043 19.3012 66.1661 18.8261 65.2691 18.8261C64.3721 18.8261 63.9535 19.2418 63.9535 19.7168C63.9535 20.1325 64.1927 20.4175 64.9103 20.5482L65.9269 20.7263C67.1229 20.9401 67.6611 21.4983 67.6611 22.4484C67.6611 23.3985 66.8837 24.1704 65.3289 24.1704Z" fill="#031A34"/>
<path d="M40.236 40.5462H39.3855V34.7401H37.7908V34.0011H39.0665C39.2791 34.0011 39.3855 33.8955 39.3855 33.6844V33.1565H40.236V40.5462ZM46.513 40.6518C45.0777 40.6518 43.9615 39.5433 43.9615 37.9071C43.9615 36.2708 45.0777 35.1623 46.513 35.1623C47.6824 35.1623 48.5861 35.8485 48.8518 36.957H48.0545C47.8419 36.2708 47.2571 35.9013 46.513 35.9013C45.5562 35.9013 44.7588 36.693 44.7588 37.9071C44.7588 39.1211 45.5562 39.9128 46.513 39.9128C47.2571 39.9128 47.8419 39.5433 48.0545 38.8044H48.8518C48.5861 39.9656 47.6824 40.6518 46.513 40.6518ZM50.7671 40.5462H49.9698V35.2679H50.6608L50.7671 35.7957H50.8203C51.0329 35.479 51.2455 35.2679 51.8302 35.2679H52.7339V36.0069H51.9366C51.1924 36.0069 50.7671 36.4291 50.7671 37.1681V40.5462ZM53.9867 34.2333C53.6678 34.2333 53.4552 34.0222 53.4552 33.7055C53.4552 33.3888 53.6678 33.1777 53.9867 33.1777C54.3057 33.1777 54.5183 33.3888 54.5183 33.7055C54.5183 34.0222 54.3057 34.2333 53.9867 34.2333ZM54.3801 40.5462H53.5827V35.2679H54.3801V40.5462ZM58.2588 40.5462H57.1957C56.611 40.5462 56.2389 40.1768 56.2389 39.6489V36.0069H55.3884V35.2679H56.2389V33.7899H57.0362V35.2679H58.2588V36.0069H57.0362V39.4906C57.0362 39.7017 57.1425 39.8073 57.3552 39.8073H58.2588V40.5462ZM59.8837 34.2333C59.5648 34.2333 59.3522 34.0222 59.3522 33.7055C59.3522 33.3888 59.5648 33.1777 59.8837 33.1777C60.2027 33.1777 60.4153 33.3888 60.4153 33.7055C60.4153 34.0222 60.2027 34.2333 59.8837 34.2333ZM60.2771 40.5462H59.4797V35.2679H60.2771V40.5462ZM63.9961 40.6518C62.5609 40.6518 61.4449 39.5433 61.4449 37.9071C61.4449 36.2708 62.5609 35.1623 63.9961 35.1623C65.1655 35.1623 66.0692 35.8485 66.335 36.957H65.5376C65.325 36.2708 64.7403 35.9013 63.9961 35.9013C63.0393 35.9013 62.2419 36.693 62.2419 37.9071C62.2419 39.1211 63.0393 39.9128 63.9961 39.9128C64.7403 39.9128 65.325 39.5433 65.5376 38.8044H66.335C66.0692 39.9656 65.1655 40.6518 63.9961 40.6518ZM69.1011 40.6518C67.9848 40.6518 67.2406 39.9656 67.2406 39.0155C67.2406 38.0126 67.8785 37.3264 69.3668 37.3264H70.8021V37.1681C70.8021 36.3763 70.3237 35.9013 69.5263 35.9013C68.729 35.9013 68.2506 36.3236 68.1974 36.7986H67.4001C67.4532 35.9541 68.1974 35.1623 69.5263 35.1623C70.8021 35.1623 71.5994 35.9013 71.5994 37.1681V40.5462H70.9084L70.8021 39.9128H70.7489C70.5469 40.2295 69.9516 40.6518 69.1011 40.6518ZM69.1011 39.9128C70.1642 39.9128 70.8021 39.2794 70.8021 38.2765V38.0654H69.3668C68.41 38.0654 68.0379 38.4877 68.0379 39.0155C68.0379 39.5433 68.41 39.9128 69.1011 39.9128ZM73.9409 40.5462H73.1436V33.1565H73.9409V40.5462ZM77.9821 42.6576H77.1848L80.1084 32.8398H80.9057L77.9821 42.6576ZM86.1688 40.6518C84.6805 40.6518 83.7237 39.7017 83.7237 38.5932H84.5742C84.5742 39.2794 85.1589 39.86 86.1688 39.86C87.1256 39.86 87.7635 39.2794 87.7635 38.5405C87.7635 37.7487 87.1256 37.1681 86.1688 37.1681H85.6904V36.3763H86.1688C87.1256 36.3763 87.6572 35.7957 87.6572 35.0779C87.6572 34.4234 87.0725 33.8427 86.1688 33.8427C85.3183 33.8427 84.6805 34.4233 84.6805 35.0568H83.83C83.83 34.0011 84.7868 33.051 86.1688 33.051C87.5509 33.051 88.5077 33.9483 88.5077 35.099C88.5077 35.9963 87.8379 36.5664 87.3383 36.7458V36.7986C87.8911 36.9781 88.614 37.5798 88.614 38.5405C88.614 39.7017 87.6041 40.6518 86.1688 40.6518ZM94.416 40.5462H93.034L91.5987 35.2679H92.4492L93.6187 39.7017H93.8313L95.0007 35.2679H96.2765L97.4459 39.7017H97.6585L98.828 35.2679H99.6785L98.2433 40.5462H96.8612L95.7449 36.2708H95.5323L94.416 40.5462ZM102.126 40.6518C101.01 40.6518 100.266 39.9656 100.266 39.0155C100.266 38.0126 100.904 37.3264 102.392 37.3264H103.827V37.1681C103.827 36.3763 103.349 35.9013 102.552 35.9013C101.754 35.9013 101.276 36.3236 101.223 36.7986H100.425C100.478 35.9541 101.223 35.1623 102.552 35.1623C103.827 35.1623 104.625 35.9013 104.625 37.1681V40.5462H103.934L103.827 39.9128H103.774C103.572 40.2295 102.977 40.6518 102.126 40.6518ZM102.126 39.9128C103.189 39.9128 103.827 39.2794 103.827 38.2765V38.0654H102.392C101.435 38.0654 101.063 38.4877 101.063 39.0155C101.063 39.5433 101.435 39.9128 102.126 39.9128ZM106.913 40.5462H106.116V35.2679H106.807L106.913 35.7957H106.966C107.179 35.479 107.391 35.2679 107.976 35.2679H108.88V36.0069H108.082C107.338 36.0069 106.913 36.4291 106.913 37.1681V40.5462ZM110.526 40.5462H109.729V35.2679H110.42L110.526 35.8485H110.579C110.813 35.5529 111.398 35.1623 112.174 35.1623C113.397 35.1623 114.3 36.0596 114.3 37.3792V40.5462H113.503V37.3792C113.503 36.5347 112.865 35.9013 112.068 35.9013C111.217 35.9013 110.526 36.5875 110.526 37.3792V40.5462ZM116.196 34.2333C115.877 34.2333 115.665 34.0222 115.665 33.7055C115.665 33.3888 115.877 33.1777 116.196 33.1777C116.515 33.1777 116.728 33.3888 116.728 33.7055C116.728 34.0222 116.515 34.2333 116.196 34.2333ZM116.589 40.5462H115.792V35.2679H116.589V40.5462ZM118.873 40.5462H118.076V35.2679H118.767L118.873 35.8485H118.926C119.16 35.5529 119.745 35.1623 120.521 35.1623C121.744 35.1623 122.647 36.0596 122.647 37.3792V40.5462H121.85V37.3792C121.85 36.5347 121.212 35.9013 120.415 35.9013C119.564 35.9013 118.873 36.5875 118.873 37.3792V40.5462ZM126.425 42.7631C124.936 42.7631 124.086 41.8658 124.033 40.9685H124.83C124.883 41.4963 125.415 42.0242 126.425 42.0242C127.381 42.0242 128.019 41.4436 128.019 40.5462V39.5961H127.966C127.541 40.0712 126.956 40.3351 126.265 40.3351C124.883 40.3351 123.82 39.2794 123.82 37.7487C123.82 36.218 124.883 35.1623 126.265 35.1623C126.956 35.1623 127.594 35.479 127.966 35.9541H128.019L128.126 35.2679H128.817V40.5462C128.817 41.8658 127.913 42.7631 126.425 42.7631ZM126.318 39.5961C127.275 39.5961 128.019 38.8572 128.019 37.7487C128.019 36.6403 127.275 35.9013 126.318 35.9013C125.362 35.9013 124.617 36.6403 124.617 37.7487C124.617 38.8572 125.362 39.5961 126.318 39.5961Z" fill="#6E7894"/>
<defs>
<filter id="filter0_dd_0_1" x="-453" y="-699" width="696" height="824" filterUnits="userSpaceOnUse" color-interpolation-filters="sRGB">
<feFlood flood-opacity="0" result="BackgroundImageFix"/>
<feColorMatrix in="SourceAlpha" type="matrix" values="0 0 0 0 0 0 0 0 0 0 0 0 0 0 0 0 0 0 127 0" result="hardAlpha"/>
<feMorphology radius="2" operator="dilate" in="SourceAlpha" result="effect1_dropShadow_0_1"/>
<feOffset dy="2"/>
<feGaussianBlur stdDeviation="3"/>
<feComposite in2="hardAlpha" operator="out"/>
<feColorMatrix type="matrix" values="0 0 0 0 0 0 0 0 0 0 0 0 0 0 0 0 0 0 0.15 0"/>
<feBlend mode="normal" in2="BackgroundImageFix" result="effect1_dropShadow_0_1"/>
<feColorMatrix in="SourceAlpha" type="matrix" values="0 0 0 0 0 0 0 0 0 0 0 0 0 0 0 0 0 0 127 0" result="hardAlpha"/>
<feOffset dy="1"/>
<feGaussianBlur stdDeviation="1"/>
<feComposite in2="hardAlpha" operator="out"/>
<feColorMatrix type="matrix" values="0 0 0 0 0 0 0 0 0 0 0 0 0 0 0 0 0 0 0.3 0"/>
<feBlend mode="normal" in2="effect1_dropShadow_0_1" result="effect2_dropShadow_0_1"/>
<feBlend mode="normal" in="SourceGraphic" in2="effect2_dropShadow_0_1" result="shape"/>
</filter>
<filter id="filter1_dd_0_1" x="-5.85205" y="-3.21484" width="201.704" height="65.7852" filterUnits="userSpaceOnUse" color-interpolation-filters="sRGB">
<feFlood flood-opacity="0" result="BackgroundImageFix"/>
<feColorMatrix in="SourceAlpha" type="matrix" values="0 0 0 0 0 0 0 0 0 0 0 0 0 0 0 0 0 0 127 0" result="hardAlpha"/>
<feOffset dy="2"/>
<feGaussianBlur stdDeviation="3"/>
<feComposite in2="hardAlpha" operator="out"/>
<feColorMatrix type="matrix" values="0 0 0 0 0 0 0 0 0 0 0 0 0 0 0 0 0 0 0.15 0"/>
<feBlend mode="normal" in2="BackgroundImageFix" result="effect1_dropShadow_0_1"/>
<feColorMatrix in="SourceAlpha" type="matrix" values="0 0 0 0 0 0 0 0 0 0 0 0 0 0 0 0 0 0 127 0" result="hardAlpha"/>
<feOffset dy="1"/>
<feGaussianBlur stdDeviation="1"/>
<feComposite in2="hardAlpha" operator="out"/>
<feColorMatrix type="matrix" values="0 0 0 0 0 0 0 0 0 0 0 0 0 0 0 0 0 0 0.3 0"/>
<feBlend mode="normal" in2="effect1_dropShadow_0_1" result="effect2_dropShadow_0_1"/>
<feBlend mode="normal" in="SourceGraphic" in2="effect2_dropShadow_0_1" result="shape"/>
</filter>
<linearGradient id="paint0_linear_0_1" x1="11.6113" y1="20.7539" x2="28.139" y2="23.417" gradientUnits="userSpaceOnUse">
<stop stop-color="#0066FF"/>
<stop offset="1" stop-color="#59C2C9"/>
</linearGradient>
</defs>
</svg>
