<svg width="190" height="55" viewBox="0 0 190 55" fill="none" xmlns="http://www.w3.org/2000/svg">
<rect width="190" height="55" fill="#393939"/>
<g filter="url(#filter0_dd_0_1)">
<rect x="-445" y="-553" width="680" height="808" rx="16" fill="#FFFBFE"/>
<rect x="-444.5" y="-552.5" width="679" height="807" rx="15.5" stroke="#D1D5E4"/>
</g>
<g filter="url(#filter1_dd_0_1)">
<path d="M179.053 0.519531H10.9469C5.07544 0.519531 0.315674 5.31978 0.315674 11.2412V44.0762C0.315674 49.9976 5.07544 54.7979 10.9469 54.7979H179.053C184.925 54.7979 189.684 49.9976 189.684 44.0762V11.2412C189.684 5.31978 184.925 0.519531 179.053 0.519531Z" fill="#FEFEFF"/>
<path d="M179.053 0.855469H10.947C5.25897 0.855469 0.647949 5.50571 0.647949 11.2421V44.0771C0.647949 49.8135 5.25897 54.4637 10.947 54.4637H179.053C184.741 54.4637 189.352 49.8135 189.352 44.0771V11.2421C189.352 5.50571 184.741 0.855469 179.053 0.855469Z" stroke="#D1D5E4"/>
</g>
<path d="M22.5933 31.0577C22.5933 30.7518 22.7887 30.5547 23.0902 30.5547C23.3917 30.5547 23.5871 30.7518 23.5871 31.0577C23.5871 31.2454 23.5146 31.3581 23.455 31.42C23.3936 31.4838 23.28 31.5589 23.0902 31.5589C22.9004 31.5589 22.7868 31.4838 22.7254 31.42C22.664 31.3581 22.5933 31.2454 22.5933 31.0577Z" fill="white"/>
<path d="M22.5933 31.0577C22.5933 30.7518 22.7887 30.5547 23.0902 30.5547C23.3917 30.5547 23.5871 30.7518 23.5871 31.0577C23.5871 31.2454 23.5146 31.3581 23.455 31.42C23.3936 31.4838 23.28 31.5589 23.0902 31.5589C22.9004 31.5589 22.7868 31.4838 22.7254 31.42C22.664 31.3581 22.5933 31.2454 22.5933 31.0577Z" fill="url(#paint0_linear_0_1)"/>
<path d="M23.4586 25.6065H24.0673C24.9774 25.6065 25.4594 26.0926 25.4594 27.0105V31.3578C25.4594 32.2756 24.9774 32.7618 24.0673 32.7618H22.1149C21.2048 32.7618 20.7227 32.2756 20.7227 31.3578V31.2902H14.5658C13.8343 31.2902 13.276 31.0724 12.9019 30.6407C12.5539 30.239 12.3789 29.6571 12.3789 28.9101V25.6009C12.3789 24.8538 12.5539 24.2719 12.9019 23.8721C13.276 23.4422 13.8362 23.2227 14.5658 23.2227H21.2717C22.0032 23.2227 22.5616 23.4404 22.9356 23.8721C23.2818 24.2738 23.4586 24.8557 23.4586 25.6027V25.6065ZM24.5772 31.8777C24.6684 31.7857 24.715 31.6111 24.715 31.3597V27.0105C24.715 26.5094 24.5642 26.3573 24.0673 26.3573H22.113C21.6291 26.3573 21.4653 26.5225 21.4653 27.0105V31.3597C21.4653 31.613 21.5118 31.7876 21.603 31.8777C21.6943 31.9696 21.8655 32.0147 22.1149 32.0147H24.0654C24.3148 32.0147 24.486 31.9678 24.5772 31.8777Z" fill="white"/>
<path d="M23.4586 25.6065H24.0673C24.9774 25.6065 25.4594 26.0926 25.4594 27.0105V31.3578C25.4594 32.2756 24.9774 32.7618 24.0673 32.7618H22.1149C21.2048 32.7618 20.7227 32.2756 20.7227 31.3578V31.2902H14.5658C13.8343 31.2902 13.276 31.0724 12.9019 30.6407C12.5539 30.239 12.3789 29.6571 12.3789 28.9101V25.6009C12.3789 24.8538 12.5539 24.2719 12.9019 23.8721C13.276 23.4422 13.8362 23.2227 14.5658 23.2227H21.2717C22.0032 23.2227 22.5616 23.4404 22.9356 23.8721C23.2818 24.2738 23.4586 24.8557 23.4586 25.6027V25.6065ZM24.5772 31.8777C24.6684 31.7857 24.715 31.6111 24.715 31.3597V27.0105C24.715 26.5094 24.5642 26.3573 24.0673 26.3573H22.113C21.6291 26.3573 21.4653 26.5225 21.4653 27.0105V31.3597C21.4653 31.613 21.5118 31.7876 21.603 31.8777C21.6943 31.9696 21.8655 32.0147 22.1149 32.0147H24.0654C24.3148 32.0147 24.486 31.9678 24.5772 31.8777Z" fill="url(#paint1_linear_0_1)"/>
<path d="M19.4607 32.0156H16.1942C15.9895 32.0156 15.822 32.1846 15.822 32.391C15.822 32.5975 15.9895 32.7664 16.1942 32.7664H19.4607C19.6654 32.7664 19.8329 32.5975 19.8329 32.391C19.8329 32.1846 19.6654 32.0156 19.4607 32.0156Z" fill="white"/>
<path d="M19.4607 32.0156H16.1942C15.9895 32.0156 15.822 32.1846 15.822 32.391C15.822 32.5975 15.9895 32.7664 16.1942 32.7664H19.4607C19.6654 32.7664 19.8329 32.5975 19.8329 32.391C19.8329 32.1846 19.6654 32.0156 19.4607 32.0156Z" fill="url(#paint2_linear_0_1)"/>
<path d="M41.5316 23.9745H40.5748V16.4359H37.824V15.5312H44.2824V16.4359H41.5316V23.9745ZM46.9707 24.0952C45.3561 24.0952 44.1003 22.8287 44.1003 20.9591C44.1003 19.0895 45.3561 17.823 46.9707 17.823C48.5853 17.823 49.8411 19.0895 49.8411 20.9591C49.8411 22.8287 48.5853 24.0952 46.9707 24.0952ZM46.9707 23.2508C48.0471 23.2508 48.9441 22.3462 48.9441 20.9591C48.9441 19.572 48.0471 18.6673 46.9707 18.6673C45.8943 18.6673 44.9973 19.572 44.9973 20.9591C44.9973 22.3462 45.8943 23.2508 46.9707 23.2508ZM53.7258 23.9745H52.5298C51.872 23.9745 51.4534 23.5524 51.4534 22.9493V18.788H50.4966V17.9436H51.4534V16.255H52.3504V17.9436H53.7258V18.788H52.3504V22.7684C52.3504 23.0096 52.47 23.1302 52.7092 23.1302H53.7258V23.9745ZM56.7196 24.0952C55.4638 24.0952 54.6266 23.3111 54.6266 22.2256C54.6266 21.0797 55.3442 20.2957 57.0186 20.2957H58.6332V20.1148C58.6332 19.2101 58.095 18.6673 57.198 18.6673C56.301 18.6673 55.7628 19.1498 55.703 19.6926H54.806C54.8658 18.7276 55.703 17.823 57.198 17.823C58.6332 17.823 59.5302 18.6673 59.5302 20.1148V23.9745H58.7528L58.6332 23.2508H58.5734C58.3462 23.6127 57.6764 24.0952 56.7196 24.0952ZM56.7196 23.2508C57.9156 23.2508 58.6332 22.5271 58.6332 21.3813V21.14H57.0186C55.9422 21.14 55.5236 21.6225 55.5236 22.2256C55.5236 22.8287 55.9422 23.2508 56.7196 23.2508ZM62.1648 23.9745H61.2677V15.5312H62.1648V23.9745ZM69.0426 24.0952C67.4878 24.0952 66.2917 22.8287 66.2917 20.9591C66.2917 19.0895 67.4878 17.823 69.0426 17.823C69.8798 17.823 70.4778 18.1849 70.9562 18.788H71.016V15.5312H71.913V23.9745H71.1356L71.016 23.1302H70.9562C70.4778 23.7333 69.8798 24.0952 69.0426 24.0952ZM69.1024 23.2508C70.119 23.2508 71.016 22.3462 71.016 20.9591C71.016 19.572 70.119 18.6673 69.1024 18.6673C68.0858 18.6673 67.1888 19.572 67.1888 20.9591C67.1888 22.3462 68.0858 23.2508 69.1024 23.2508ZM76.1589 24.0952C74.5442 24.0952 73.2884 22.8287 73.2884 20.9591C73.2884 19.0895 74.5442 17.823 76.1589 17.823C77.7137 17.823 78.9097 19.0292 78.9097 20.7178C78.9097 21.0676 78.8738 21.3089 78.8499 21.3813H74.1854C74.305 22.5271 75.1542 23.2508 76.1589 23.2508C76.8765 23.2508 77.4745 22.889 77.7735 22.2859H78.7303C78.3117 23.4318 77.4147 24.0952 76.1589 24.0952ZM74.1854 20.5369H78.0127C77.9529 19.4514 77.1755 18.6673 76.1589 18.6673C75.0824 18.6673 74.305 19.4514 74.1854 20.5369ZM82.9761 23.9745H81.5409L79.3881 17.9436H80.3449L82.1389 23.0096H82.3781L84.1721 17.9436H85.129L82.9761 23.9745ZM86.5403 16.7616C86.1815 16.7616 85.9422 16.5203 85.9422 16.1585C85.9422 15.7966 86.1815 15.5554 86.5403 15.5554C86.8991 15.5554 87.1383 15.7966 87.1383 16.1585C87.1383 16.5203 86.8991 16.7616 86.5403 16.7616ZM86.9828 23.9745H86.0858V17.9436H86.9828V23.9745ZM91.1668 24.0952C89.5522 24.0952 88.2964 22.8287 88.2964 20.9591C88.2964 19.0895 89.5522 17.823 91.1668 17.823C92.4825 17.823 93.4991 18.607 93.7981 19.8735H92.9011C92.6619 19.0895 92.004 18.6673 91.1668 18.6673C90.0904 18.6673 89.1934 19.572 89.1934 20.9591C89.1934 22.3462 90.0904 23.2508 91.1668 23.2508C92.004 23.2508 92.6619 22.8287 92.9011 21.9843H93.7981C93.4991 23.3111 92.4825 24.0952 91.1668 24.0952ZM97.5675 24.0952C95.9529 24.0952 94.6971 22.8287 94.6971 20.9591C94.6971 19.0895 95.9529 17.823 97.5675 17.823C99.1223 17.823 100.318 19.0292 100.318 20.7178C100.318 21.0676 100.282 21.3089 100.259 21.3813H95.5941C95.7137 22.5271 96.5628 23.2508 97.5675 23.2508C98.2851 23.2508 98.8831 22.889 99.1821 22.2859H100.139C99.7203 23.4318 98.8233 24.0952 97.5675 24.0952ZM95.5941 20.5369H99.4213C99.3615 19.4514 98.5841 18.6673 97.5675 18.6673C96.4911 18.6673 95.7137 19.4514 95.5941 20.5369ZM103.546 24.0952C102.051 24.0952 101.154 23.1905 101.154 22.2256H102.051C102.051 22.7684 102.589 23.2508 103.546 23.2508C104.502 23.2508 104.981 22.8287 104.981 22.3462C104.981 21.8637 104.682 21.5742 103.964 21.4416L102.948 21.2606C101.847 21.0676 101.273 20.5249 101.273 19.572C101.273 18.607 101.991 17.823 103.486 17.823C104.921 17.823 105.818 18.7276 105.818 19.6926H104.921C104.921 19.1498 104.383 18.6673 103.486 18.6673C102.589 18.6673 102.17 19.0895 102.17 19.572C102.17 19.9941 102.409 20.2836 103.127 20.4163L104.144 20.5972C105.34 20.8143 105.878 21.3812 105.878 22.3462C105.878 23.3111 105.1 24.0952 103.546 24.0952Z" fill="#031A34"/>
<path d="M40.4486 40.835C39.226 40.835 38.1629 40.0845 38.0034 38.7443H38.8539C39.0134 39.5484 39.6513 40.0309 40.4486 40.0309C41.4054 40.0309 42.1496 39.2804 42.1496 38.2833C42.1496 37.2433 41.4586 36.5464 40.5018 36.5464C39.917 36.5464 39.3855 36.7608 39.0665 37.1897H38.1629L38.5881 33.2227H42.5748V34.0268H39.3004L39.0665 36.2247H39.1197C39.4918 35.9031 40.0234 35.7422 40.6081 35.7422C41.8838 35.7422 43.0001 36.8144 43.0001 38.2833C43.0001 39.7629 41.937 40.835 40.4486 40.835ZM48.9632 40.835C47.5279 40.835 46.4117 39.7093 46.4117 38.0474C46.4117 36.3855 47.5279 35.2598 48.9632 35.2598C50.3984 35.2598 51.5146 36.3855 51.5146 38.0474C51.5146 39.7093 50.3984 40.835 48.9632 40.835ZM48.9632 40.0845C49.92 40.0845 50.7173 39.2804 50.7173 38.0474C50.7173 36.8144 49.92 36.0103 48.9632 36.0103C48.0063 36.0103 47.209 36.8144 47.209 38.0474C47.209 39.2804 48.0063 40.0845 48.9632 40.0845ZM53.7451 40.7278H52.9478V36.1175H52.0973V35.367H52.9478V34.3484C52.9478 33.8123 53.3199 33.4371 53.9046 33.4371H54.8614V34.1876H54.0641C53.8515 34.1876 53.7451 34.2948 53.7451 34.5093V35.367H54.8614V36.1175H53.7451V40.7278ZM59.8685 40.7278H59.018V34.8309H57.4233V34.0804H58.699C58.9117 34.0804 59.018 33.9732 59.018 33.7587V33.2227H59.8685V40.7278ZM63.642 40.835C62.4194 40.835 61.3564 40.0845 61.197 38.7443H62.0473C62.2067 39.5484 62.8446 40.0309 63.642 40.0309C64.5988 40.0309 65.3429 39.2804 65.3429 38.2833C65.3429 37.2433 64.6519 36.5464 63.6951 36.5464C63.1104 36.5464 62.5788 36.7608 62.2599 37.1897H61.3564L61.7815 33.2227H65.7682V34.0268H62.4938L62.2599 36.2247H62.313C62.6851 35.9031 63.2167 35.7422 63.8014 35.7422C65.0772 35.7422 66.1935 36.8144 66.1935 38.2833C66.1935 39.7629 65.1303 40.835 63.642 40.835ZM72.1569 40.835C70.7217 40.835 69.6054 39.7093 69.6054 38.0474C69.6054 36.3855 70.7217 35.2598 72.1569 35.2598C73.3263 35.2598 74.23 35.9567 74.4958 37.0825H73.6984C73.4858 36.3855 72.9011 36.0103 72.1569 36.0103C71.2001 36.0103 70.4028 36.8144 70.4028 38.0474C70.4028 39.2804 71.2001 40.0845 72.1569 40.0845C72.9011 40.0845 73.4858 39.7093 73.6984 38.9587H74.4958C74.23 40.1381 73.3263 40.835 72.1569 40.835ZM77.8459 40.835C76.4107 40.835 75.2944 39.7093 75.2944 38.0474C75.2944 36.3855 76.4107 35.2598 77.8459 35.2598C79.2812 35.2598 80.3974 36.3855 80.3974 38.0474C80.3974 39.7093 79.2812 40.835 77.8459 40.835ZM77.8459 40.0845C78.8027 40.0845 79.6001 39.2804 79.6001 38.0474C79.6001 36.8144 78.8027 36.0103 77.8459 36.0103C76.8891 36.0103 76.0918 36.8144 76.0918 38.0474C76.0918 39.2804 76.8891 40.0845 77.8459 40.0845ZM82.3596 40.7278H81.5622V35.367H82.2532L82.3596 35.9567H82.4127C82.6466 35.6565 83.2313 35.2598 84.0074 35.2598C85.23 35.2598 86.1337 36.1711 86.1337 37.5113V40.7278H85.3363V37.5113C85.3363 36.6536 84.6984 36.0103 83.9011 36.0103C83.0506 36.0103 82.3596 36.7072 82.3596 37.5113V40.7278ZM88.4227 40.7278H87.6253V35.367H88.3164L88.4227 35.9567H88.4758C88.7097 35.6565 89.2944 35.2598 90.0705 35.2598C91.2931 35.2598 92.1968 36.1711 92.1968 37.5113V40.7278H91.3994V37.5113C91.3994 36.6536 90.7616 36.0103 89.9642 36.0103C89.1137 36.0103 88.4227 36.7072 88.4227 37.5113V40.7278ZM95.921 40.835C94.4858 40.835 93.3695 39.7093 93.3695 38.0474C93.3695 36.3855 94.4858 35.2598 95.921 35.2598C97.3031 35.2598 98.3662 36.3319 98.3662 37.833C98.3662 38.1439 98.3343 38.3583 98.313 38.4227H94.1669C94.2732 39.4412 95.028 40.0845 95.921 40.0845C96.5589 40.0845 97.0905 39.7629 97.3562 39.2268H98.2067C97.8346 40.2453 97.0373 40.835 95.921 40.835ZM94.1669 37.6721H97.5689C97.5157 36.7072 96.8247 36.0103 95.921 36.0103C94.9642 36.0103 94.2732 36.7072 94.1669 37.6721ZM101.766 40.835C100.331 40.835 99.2147 39.7093 99.2147 38.0474C99.2147 36.3855 100.331 35.2598 101.766 35.2598C102.936 35.2598 103.839 35.9567 104.105 37.0825H103.308C103.095 36.3855 102.51 36.0103 101.766 36.0103C100.809 36.0103 100.012 36.8144 100.012 38.0474C100.012 39.2804 100.809 40.0845 101.766 40.0845C102.51 40.0845 103.095 39.7093 103.308 38.9587H104.105C103.839 40.1381 102.936 40.835 101.766 40.835ZM107.511 40.7278H106.448C105.863 40.7278 105.491 40.3526 105.491 39.8165V36.1175H104.641V35.367H105.491V33.866H106.288V35.367H107.511V36.1175H106.288V39.6556C106.288 39.8701 106.395 39.9773 106.607 39.9773H107.511V40.7278ZM110.757 40.835C109.322 40.835 108.205 39.7093 108.205 38.0474C108.205 36.3855 109.322 35.2598 110.757 35.2598C112.139 35.2598 113.202 36.3319 113.202 37.833C113.202 38.1439 113.17 38.3583 113.149 38.4227H109.003C109.109 39.4412 109.864 40.0845 110.757 40.0845C111.395 40.0845 111.926 39.7629 112.192 39.2268H113.043C112.671 40.2453 111.873 40.835 110.757 40.835ZM109.003 37.6721H112.405C112.352 36.7072 111.661 36.0103 110.757 36.0103C109.8 36.0103 109.109 36.7072 109.003 37.6721ZM116.496 40.835C115.114 40.835 114.051 39.7093 114.051 38.0474C114.051 36.3855 115.114 35.2598 116.496 35.2598C117.24 35.2598 117.772 35.5814 118.197 36.1175H118.25V33.2227H119.047V40.7278H118.356L118.25 39.9773H118.197C117.772 40.5134 117.24 40.835 116.496 40.835ZM116.549 40.0845C117.453 40.0845 118.25 39.2804 118.25 38.0474C118.25 36.8144 117.453 36.0103 116.549 36.0103C115.645 36.0103 114.848 36.8144 114.848 38.0474C114.848 39.2804 115.645 40.0845 116.549 40.0845Z" fill="#6E7894"/>
<path d="M172.78 31.5696C172.676 31.5696 172.577 31.5229 172.507 31.4425C172.368 31.2798 172.377 31.0317 172.528 30.8812L175.474 27.9694L172.53 25.1136C172.379 24.9641 172.368 24.716 172.506 24.5522C172.639 24.3936 172.87 24.3773 173.021 24.5167C173.024 24.5197 173.027 24.5217 173.03 24.5248L176.274 27.6724C176.352 27.7477 176.395 27.8535 176.395 27.9643C176.396 28.0752 176.354 28.182 176.276 28.2582L173.032 31.4639C172.964 31.5319 172.874 31.5698 172.78 31.5696Z" fill="#031A34"/>
<defs>
<filter id="filter0_dd_0_1" x="-453" y="-559" width="696" height="824" filterUnits="userSpaceOnUse" color-interpolation-filters="sRGB">
<feFlood flood-opacity="0" result="BackgroundImageFix"/>
<feColorMatrix in="SourceAlpha" type="matrix" values="0 0 0 0 0 0 0 0 0 0 0 0 0 0 0 0 0 0 127 0" result="hardAlpha"/>
<feMorphology radius="2" operator="dilate" in="SourceAlpha" result="effect1_dropShadow_0_1"/>
<feOffset dy="2"/>
<feGaussianBlur stdDeviation="3"/>
<feComposite in2="hardAlpha" operator="out"/>
<feColorMatrix type="matrix" values="0 0 0 0 0 0 0 0 0 0 0 0 0 0 0 0 0 0 0.15 0"/>
<feBlend mode="normal" in2="BackgroundImageFix" result="effect1_dropShadow_0_1"/>
<feColorMatrix in="SourceAlpha" type="matrix" values="0 0 0 0 0 0 0 0 0 0 0 0 0 0 0 0 0 0 127 0" result="hardAlpha"/>
<feOffset dy="1"/>
<feGaussianBlur stdDeviation="1"/>
<feComposite in2="hardAlpha" operator="out"/>
<feColorMatrix type="matrix" values="0 0 0 0 0 0 0 0 0 0 0 0 0 0 0 0 0 0 0.3 0"/>
<feBlend mode="normal" in2="effect1_dropShadow_0_1" result="effect2_dropShadow_0_1"/>
<feBlend mode="normal" in="SourceGraphic" in2="effect2_dropShadow_0_1" result="shape"/>
</filter>
<filter id="filter1_dd_0_1" x="-5.85205" y="-3.64453" width="201.704" height="66.6094" filterUnits="userSpaceOnUse" color-interpolation-filters="sRGB">
<feFlood flood-opacity="0" result="BackgroundImageFix"/>
<feColorMatrix in="SourceAlpha" type="matrix" values="0 0 0 0 0 0 0 0 0 0 0 0 0 0 0 0 0 0 127 0" result="hardAlpha"/>
<feOffset dy="2"/>
<feGaussianBlur stdDeviation="3"/>
<feComposite in2="hardAlpha" operator="out"/>
<feColorMatrix type="matrix" values="0 0 0 0 0 0 0 0 0 0 0 0 0 0 0 0 0 0 0.15 0"/>
<feBlend mode="normal" in2="BackgroundImageFix" result="effect1_dropShadow_0_1"/>
<feColorMatrix in="SourceAlpha" type="matrix" values="0 0 0 0 0 0 0 0 0 0 0 0 0 0 0 0 0 0 127 0" result="hardAlpha"/>
<feOffset dy="1"/>
<feGaussianBlur stdDeviation="1"/>
<feComposite in2="hardAlpha" operator="out"/>
<feColorMatrix type="matrix" values="0 0 0 0 0 0 0 0 0 0 0 0 0 0 0 0 0 0 0.3 0"/>
<feBlend mode="normal" in2="effect1_dropShadow_0_1" result="effect2_dropShadow_0_1"/>
<feBlend mode="normal" in="SourceGraphic" in2="effect2_dropShadow_0_1" result="shape"/>
</filter>
<linearGradient id="paint0_linear_0_1" x1="12.379" y1="23.2248" x2="26.8564" y2="26.3993" gradientUnits="userSpaceOnUse">
<stop stop-color="#0066FF"/>
<stop offset="1" stop-color="#59C2C9"/>
</linearGradient>
<linearGradient id="paint1_linear_0_1" x1="12.3789" y1="23.2227" x2="26.8563" y2="26.3972" gradientUnits="userSpaceOnUse">
<stop stop-color="#0066FF"/>
<stop offset="1" stop-color="#59C2C9"/>
</linearGradient>
<linearGradient id="paint2_linear_0_1" x1="12.3788" y1="23.2217" x2="26.8562" y2="26.3962" gradientUnits="userSpaceOnUse">
<stop stop-color="#0066FF"/>
<stop offset="1" stop-color="#59C2C9"/>
</linearGradient>
</defs>
</svg>
