<svg width="190" height="55" viewBox="0 0 190 55" fill="none" xmlns="http://www.w3.org/2000/svg">
<rect width="190" height="55" fill="#393939"/>
<g filter="url(#filter0_dd_0_1)">
<rect x="-445" y="-401" width="680" height="808" rx="16" fill="#FFFBFE"/>
<rect x="-444.5" y="-400.5" width="679" height="807" rx="15.5" stroke="#D1D5E4"/>
</g>
<g filter="url(#filter1_dd_0_1)">
<path d="M179.053 0.957031H10.9469C5.07544 0.957031 0.315674 5.68343 0.315674 11.5137V43.8436C0.315674 49.6739 5.07544 54.4003 10.9469 54.4003H179.053C184.925 54.4003 189.684 49.6739 189.684 43.8436V11.5137C189.684 5.68343 184.925 0.957031 179.053 0.957031Z" fill="#FEFEFF"/>
<path d="M179.053 1.28516H10.947C5.25897 1.28516 0.647949 5.86385 0.647949 11.512V43.8419C0.647949 49.49 5.25897 54.0687 10.947 54.0687H179.053C184.741 54.0687 189.352 49.49 189.352 43.8419V11.512C189.352 5.86385 184.741 1.28516 179.053 1.28516Z" stroke="#D1D5E4"/>
</g>
<path d="M22.9243 28.062C22.3083 28.062 21.7517 28.2893 21.3144 28.6515L20.3019 27.77C20.5941 27.3671 20.7728 26.8755 20.7728 26.3414C20.7728 26.2785 20.7578 26.2194 20.7541 26.1583L22.3492 25.6908C22.6358 26.1565 23.1495 26.4707 23.7395 26.4707C24.6422 26.4707 25.3736 25.7425 25.3736 24.8481C25.3736 23.9535 24.6404 23.2254 23.7395 23.2254C22.8387 23.2254 22.1035 23.9535 22.1035 24.8481C22.1035 24.8628 22.1073 24.8739 22.1073 24.8887L20.5531 25.3434C20.166 24.4895 19.3043 23.8889 18.3011 23.8889C17.6162 23.8889 16.9982 24.1661 16.5497 24.6133L15.5596 23.7706C15.6805 23.5543 15.7568 23.3066 15.7568 23.0406C15.7568 22.2015 15.0682 21.5195 14.2232 21.5195C13.3782 21.5195 12.6914 22.2015 12.6914 23.0406C12.6914 23.8796 13.3782 24.5616 14.2232 24.5616C14.493 24.5616 14.7425 24.4876 14.9621 24.3657L16.0695 25.3064C15.9206 25.6224 15.8312 25.9698 15.8312 26.3395C15.8312 26.8625 16.0006 27.3468 16.2835 27.7459L15.3827 28.6219C15.0645 28.3651 14.6661 28.2043 14.2251 28.2043C13.2089 28.2043 12.3806 29.0249 12.3806 30.034C12.3806 31.0431 13.207 31.8636 14.2251 31.8636C15.2431 31.8636 16.0695 31.0431 16.0695 30.034C16.0695 29.7678 16.0081 29.5146 15.9039 29.2854L16.8809 28.3374C17.283 28.6201 17.7725 28.7901 18.3029 28.7901C18.8222 28.7901 19.3043 28.6293 19.7025 28.3559L20.7635 29.2799C20.5326 29.6587 20.393 30.0968 20.393 30.5718C20.393 30.8989 20.4601 31.2075 20.5754 31.494L19.4718 31.9985C19.1907 31.6751 18.7794 31.4644 18.3141 31.4644C17.4691 31.4644 16.7805 32.1464 16.7805 32.9854C16.7805 33.8226 17.4691 34.5065 18.3141 34.5065C19.1591 34.5065 19.8459 33.8245 19.8459 32.9854C19.8459 32.9078 19.8347 32.8339 19.8235 32.76L21.0221 32.2129C21.4875 32.7434 22.1649 33.0871 22.9261 33.0871C24.3239 33.0871 25.4611 31.9597 25.4611 30.5736C25.4592 29.1912 24.3221 28.062 22.9243 28.062Z" fill="white"/>
<path d="M22.9243 28.062C22.3083 28.062 21.7517 28.2893 21.3144 28.6515L20.3019 27.77C20.5941 27.3671 20.7728 26.8755 20.7728 26.3414C20.7728 26.2785 20.7578 26.2194 20.7541 26.1583L22.3492 25.6908C22.6358 26.1565 23.1495 26.4707 23.7395 26.4707C24.6422 26.4707 25.3736 25.7425 25.3736 24.8481C25.3736 23.9535 24.6404 23.2254 23.7395 23.2254C22.8387 23.2254 22.1035 23.9535 22.1035 24.8481C22.1035 24.8628 22.1073 24.8739 22.1073 24.8887L20.5531 25.3434C20.166 24.4895 19.3043 23.8889 18.3011 23.8889C17.6162 23.8889 16.9982 24.1661 16.5497 24.6133L15.5596 23.7706C15.6805 23.5543 15.7568 23.3066 15.7568 23.0406C15.7568 22.2015 15.0682 21.5195 14.2232 21.5195C13.3782 21.5195 12.6914 22.2015 12.6914 23.0406C12.6914 23.8796 13.3782 24.5616 14.2232 24.5616C14.493 24.5616 14.7425 24.4876 14.9621 24.3657L16.0695 25.3064C15.9206 25.6224 15.8312 25.9698 15.8312 26.3395C15.8312 26.8625 16.0006 27.3468 16.2835 27.7459L15.3827 28.6219C15.0645 28.3651 14.6661 28.2043 14.2251 28.2043C13.2089 28.2043 12.3806 29.0249 12.3806 30.034C12.3806 31.0431 13.207 31.8636 14.2251 31.8636C15.2431 31.8636 16.0695 31.0431 16.0695 30.034C16.0695 29.7678 16.0081 29.5146 15.9039 29.2854L16.8809 28.3374C17.283 28.6201 17.7725 28.7901 18.3029 28.7901C18.8222 28.7901 19.3043 28.6293 19.7025 28.3559L20.7635 29.2799C20.5326 29.6587 20.393 30.0968 20.393 30.5718C20.393 30.8989 20.4601 31.2075 20.5754 31.494L19.4718 31.9985C19.1907 31.6751 18.7794 31.4644 18.3141 31.4644C17.4691 31.4644 16.7805 32.1464 16.7805 32.9854C16.7805 33.8226 17.4691 34.5065 18.3141 34.5065C19.1591 34.5065 19.8459 33.8245 19.8459 32.9854C19.8459 32.9078 19.8347 32.8339 19.8235 32.76L21.0221 32.2129C21.4875 32.7434 22.1649 33.0871 22.9261 33.0871C24.3239 33.0871 25.4611 31.9597 25.4611 30.5736C25.4592 29.1912 24.3221 28.062 22.9243 28.062Z" fill="url(#paint0_linear_0_1)"/>
<path d="M42.1297 24.172C39.9171 24.172 38.123 22.45 38.123 19.8966C38.123 17.3432 39.9171 15.6211 42.1297 15.6211C43.9237 15.6211 45.3589 16.69 45.8373 18.412H44.8207C44.4021 17.2244 43.3855 16.5118 42.1297 16.5118C40.4553 16.5118 39.0799 17.8776 39.0799 19.8966C39.0799 21.9155 40.4553 23.2813 42.1297 23.2813C43.3855 23.2813 44.4021 22.5687 44.8207 21.3217H45.8373C45.3589 23.1032 43.9237 24.172 42.1297 24.172ZM49.6104 24.172C47.9957 24.172 46.7399 22.925 46.7399 21.0842C46.7399 19.2434 47.9957 17.9964 49.6104 17.9964C51.225 17.9964 52.4808 19.2434 52.4808 21.0842C52.4808 22.925 51.225 24.172 49.6104 24.172ZM49.6104 23.3407C50.6868 23.3407 51.5838 22.45 51.5838 21.0842C51.5838 19.7184 50.6868 18.8277 49.6104 18.8277C48.5339 18.8277 47.6369 19.7184 47.6369 21.0842C47.6369 22.45 48.5339 23.3407 49.6104 23.3407ZM54.6883 24.0533H53.7913V18.1151H54.5687L54.6883 18.7683H54.7481C55.0112 18.4358 55.669 17.9964 56.5421 17.9964C57.9175 17.9964 58.9341 19.0058 58.9341 20.4904V24.0533H58.0371V20.4904C58.0371 19.5403 57.3195 18.8277 56.4225 18.8277C55.4657 18.8277 54.6883 19.5996 54.6883 20.4904V24.0533ZM61.5091 24.0533H60.6123V18.1151H61.3897L61.5091 18.7683H61.5689C61.832 18.4358 62.4898 17.9964 63.3629 17.9964C64.7383 17.9964 65.7549 19.0058 65.7549 20.4904V24.0533H64.8579V20.4904C64.8579 19.5403 64.1403 18.8277 63.2433 18.8277C62.2865 18.8277 61.5091 19.5996 61.5091 20.4904V24.0533ZM69.945 24.172C68.3304 24.172 67.0745 22.925 67.0745 21.0842C67.0745 19.2434 68.3304 17.9964 69.945 17.9964C71.4998 17.9964 72.6958 19.184 72.6958 20.8467C72.6958 21.1911 72.6599 21.4286 72.636 21.4999H67.9716C68.0912 22.6281 68.9403 23.3407 69.945 23.3407C70.6626 23.3407 71.2606 22.9844 71.5596 22.3906H72.5164C72.0978 23.5188 71.2008 24.172 69.945 24.172ZM67.9716 20.6685H71.7988C71.739 19.5997 70.9616 18.8277 69.945 18.8277C68.8686 18.8277 68.0912 19.5997 67.9716 20.6685ZM76.5204 24.172C74.9058 24.172 73.65 22.925 73.65 21.0842C73.65 19.2434 74.9058 17.9964 76.5204 17.9964C77.836 17.9964 78.8526 18.7683 79.1516 20.0153H78.2546C78.0154 19.2434 77.3576 18.8277 76.5204 18.8277C75.444 18.8277 74.547 19.7184 74.547 21.0842C74.547 22.45 75.444 23.3407 76.5204 23.3407C77.3576 23.3407 78.0154 22.925 78.2546 22.0937H79.1516C78.8526 23.4001 77.836 24.172 76.5204 24.172ZM82.9835 24.0533H81.7875C81.1297 24.0533 80.7111 23.6376 80.7111 23.0438V18.9465H79.7543V18.1151H80.7111V16.4524H81.6081V18.1151H82.9835V18.9465H81.6081V22.8656C81.6081 23.1032 81.7277 23.2219 81.9669 23.2219H82.9835V24.0533ZM84.8121 16.9512C84.4533 16.9512 84.2141 16.7137 84.2141 16.3574C84.2141 16.0011 84.4533 15.7636 84.8121 15.7636C85.1709 15.7636 85.4101 16.0011 85.4101 16.3574C85.4101 16.7137 85.1709 16.9512 84.8121 16.9512ZM85.2546 24.0533H84.3576V18.1151H85.2546V24.0533ZM89.4387 24.172C87.8241 24.172 86.5682 22.925 86.5682 21.0842C86.5682 19.2434 87.8241 17.9964 89.4387 17.9964C91.0533 17.9964 92.3091 19.2434 92.3091 21.0842C92.3091 22.925 91.0533 24.172 89.4387 24.172ZM89.4387 23.3407C90.5151 23.3407 91.4121 22.45 91.4121 21.0842C91.4121 19.7184 90.5151 18.8277 89.4387 18.8277C88.3623 18.8277 87.4652 19.7184 87.4652 21.0842C87.4652 22.45 88.3623 23.3407 89.4387 23.3407ZM94.5164 24.0533H93.6194V18.1151H94.3968L94.5164 18.7683H94.5762C94.8393 18.4358 95.4971 17.9964 96.3702 17.9964C97.7456 17.9964 98.7623 19.0058 98.7623 20.4904V24.0533H97.8652V20.4904C97.8652 19.5403 97.1476 18.8277 96.2506 18.8277C95.2938 18.8277 94.5164 19.5996 94.5164 20.4904V24.0533ZM102.354 24.172C100.859 24.172 99.9623 23.2813 99.9623 22.3312H100.859C100.859 22.8656 101.397 23.3407 102.354 23.3407C103.311 23.3407 103.789 22.925 103.789 22.45C103.789 21.9749 103.49 21.6899 102.773 21.5592L101.756 21.3811C100.656 21.1911 100.082 20.6566 100.082 19.7184C100.082 18.7683 100.799 17.9964 102.294 17.9964C103.73 17.9964 104.627 18.8871 104.627 19.8372H103.73C103.73 19.3027 103.191 18.8277 102.294 18.8277C101.397 18.8277 100.979 19.2434 100.979 19.7184C100.979 20.1341 101.218 20.4191 101.936 20.5498L102.952 20.7279C104.148 20.9417 104.687 21.4999 104.687 22.45C104.687 23.4001 103.909 24.172 102.354 24.172Z" fill="#031A34"/>
<path d="M42.7873 40.546H38.1095V39.8599L41.1395 36.6401C41.5647 36.1967 41.7773 35.8483 41.7773 35.2677C41.7773 34.4232 41.1926 33.8425 40.3421 33.8425C39.5448 33.8425 38.9069 34.4759 38.9069 35.426H38.0564C38.0564 34.0537 39.0132 33.0508 40.3421 33.0508C41.671 33.0508 42.6278 33.9481 42.6278 35.2677C42.6278 36.165 42.2451 36.6823 41.7242 37.2207L39.3321 39.7015V39.7543H42.7873V40.546ZM48.6411 40.6516C47.2059 40.6516 46.0896 39.5432 46.0896 37.9069C46.0896 36.2706 47.2059 35.1621 48.6411 35.1621C50.0763 35.1621 51.1926 36.2706 51.1926 37.9069C51.1926 39.5432 50.0763 40.6516 48.6411 40.6516ZM48.6411 39.9126C49.5979 39.9126 50.3953 39.1209 50.3953 37.9069C50.3953 36.6928 49.5979 35.9011 48.6411 35.9011C47.6843 35.9011 46.887 36.6928 46.887 37.9069C46.887 39.1209 47.6843 39.9126 48.6411 39.9126ZM53.4231 40.546H52.6258V36.0067H51.7753V35.2677H52.6258V34.2648C52.6258 33.737 52.9979 33.3675 53.5826 33.3675H54.5394V34.1065H53.742C53.5294 34.1065 53.4231 34.212 53.4231 34.4232V35.2677H54.5394V36.0067H53.4231V40.546ZM60.0199 40.6516C58.5846 40.6516 57.4684 39.5432 57.4684 38.1708C57.4684 37.6429 57.681 37.0623 57.8936 36.7456L60.2325 33.1563H61.1893L59.4351 35.9011H59.4883C59.6265 35.8589 59.9029 35.7955 60.1793 35.7955C61.5082 35.7955 62.5713 36.7984 62.5713 38.1708C62.5713 39.5432 61.4551 40.6516 60.0199 40.6516ZM60.0199 39.8599C60.9767 39.8599 61.7208 39.1209 61.7208 38.1708C61.7208 37.2207 60.9767 36.4817 60.0199 36.4817C59.063 36.4817 58.3189 37.2207 58.3189 38.1708C58.3189 39.1209 59.063 39.8599 60.0199 39.8599ZM67.8345 40.6516C66.7182 40.6516 65.974 39.9654 65.974 39.0153C65.974 38.0124 66.6119 37.3262 68.1002 37.3262H69.5355V37.1679C69.5355 36.3761 69.0571 35.9011 68.2597 35.9011C67.4624 35.9011 66.984 36.3234 66.9308 36.7984H66.1335C66.1866 35.9539 66.9308 35.1621 68.2597 35.1621C69.5355 35.1621 70.3328 35.9011 70.3328 37.1679V40.546H69.6418L69.5355 39.9126H69.4823C69.2803 40.2293 68.685 40.6516 67.8345 40.6516ZM67.8345 39.9126C68.8976 39.9126 69.5355 39.2792 69.5355 38.2764V38.0652H68.1002C67.1434 38.0652 66.7713 38.4875 66.7713 39.0153C66.7713 39.5432 67.1434 39.9126 67.8345 39.9126ZM74.0564 40.6516C72.6212 40.6516 71.5049 39.5432 71.5049 37.9069C71.5049 36.2706 72.6212 35.1621 74.0564 35.1621C75.2258 35.1621 76.1295 35.8483 76.3953 36.9568H75.5979C75.3853 36.2706 74.8006 35.9011 74.0564 35.9011C73.0996 35.9011 72.3022 36.6928 72.3022 37.9069C72.3022 39.1209 73.0996 39.9126 74.0564 39.9126C74.8006 39.9126 75.3853 39.5432 75.5979 38.8042H76.3953C76.1295 39.9654 75.2258 40.6516 74.0564 40.6516ZM79.8012 40.546H78.7381C78.1534 40.546 77.7813 40.1766 77.7813 39.6487V36.0067H76.9308V35.2677H77.7813V33.7897H78.5787V35.2677H79.8012V36.0067H78.5787V39.4904C78.5787 39.7015 78.685 39.8071 78.8976 39.8071H79.8012V40.546ZM81.4265 34.2331C81.1076 34.2331 80.8949 34.022 80.8949 33.7053C80.8949 33.3886 81.1076 33.1775 81.4265 33.1775C81.7454 33.1775 81.9581 33.3886 81.9581 33.7053C81.9581 34.022 81.7454 34.2331 81.4265 34.2331ZM81.8199 40.546H81.0225V35.2677H81.8199V40.546ZM85.8577 40.546H84.582L82.6684 35.2677H83.5188L85.1135 39.7015H85.3262L86.9208 35.2677H87.7713L85.8577 40.546ZM90.7507 40.6516C89.3155 40.6516 88.1993 39.5432 88.1993 37.9069C88.1993 36.2706 89.3155 35.1621 90.7507 35.1621C92.1328 35.1621 93.1959 36.2178 93.1959 37.6957C93.1959 38.0019 93.164 38.213 93.1428 38.2764H88.9966C89.1029 39.2792 89.8577 39.9126 90.7507 39.9126C91.3886 39.9126 91.9202 39.5959 92.186 39.0681H93.0365C92.6644 40.071 91.867 40.6516 90.7507 40.6516ZM88.9966 37.5374H92.3986C92.3454 36.5873 91.6544 35.9011 90.7507 35.9011C89.7939 35.9011 89.1029 36.5873 88.9966 37.5374Z" fill="#6E7894"/>
<path d="M172.78 31.53C172.676 31.53 172.577 31.4839 172.507 31.4048C172.368 31.2446 172.377 31.0003 172.528 30.8521L175.474 27.9852L172.53 25.1733C172.379 25.0261 172.368 24.7818 172.506 24.6205C172.639 24.4644 172.87 24.4483 173.021 24.5855C173.024 24.5885 173.027 24.5905 173.03 24.5936L176.274 27.6927C176.352 27.7668 176.395 27.871 176.395 27.9801C176.396 28.0893 176.354 28.1944 176.276 28.2695L173.032 31.4259C172.964 31.4928 172.874 31.5302 172.78 31.53Z" fill="#031A34"/>
<defs>
<filter id="filter0_dd_0_1" x="-453" y="-407" width="696" height="824" filterUnits="userSpaceOnUse" color-interpolation-filters="sRGB">
<feFlood flood-opacity="0" result="BackgroundImageFix"/>
<feColorMatrix in="SourceAlpha" type="matrix" values="0 0 0 0 0 0 0 0 0 0 0 0 0 0 0 0 0 0 127 0" result="hardAlpha"/>
<feMorphology radius="2" operator="dilate" in="SourceAlpha" result="effect1_dropShadow_0_1"/>
<feOffset dy="2"/>
<feGaussianBlur stdDeviation="3"/>
<feComposite in2="hardAlpha" operator="out"/>
<feColorMatrix type="matrix" values="0 0 0 0 0 0 0 0 0 0 0 0 0 0 0 0 0 0 0.15 0"/>
<feBlend mode="normal" in2="BackgroundImageFix" result="effect1_dropShadow_0_1"/>
<feColorMatrix in="SourceAlpha" type="matrix" values="0 0 0 0 0 0 0 0 0 0 0 0 0 0 0 0 0 0 127 0" result="hardAlpha"/>
<feOffset dy="1"/>
<feGaussianBlur stdDeviation="1"/>
<feComposite in2="hardAlpha" operator="out"/>
<feColorMatrix type="matrix" values="0 0 0 0 0 0 0 0 0 0 0 0 0 0 0 0 0 0 0.3 0"/>
<feBlend mode="normal" in2="effect1_dropShadow_0_1" result="effect2_dropShadow_0_1"/>
<feBlend mode="normal" in="SourceGraphic" in2="effect2_dropShadow_0_1" result="shape"/>
</filter>
<filter id="filter1_dd_0_1" x="-5.85205" y="-3.21484" width="201.704" height="65.7852" filterUnits="userSpaceOnUse" color-interpolation-filters="sRGB">
<feFlood flood-opacity="0" result="BackgroundImageFix"/>
<feColorMatrix in="SourceAlpha" type="matrix" values="0 0 0 0 0 0 0 0 0 0 0 0 0 0 0 0 0 0 127 0" result="hardAlpha"/>
<feOffset dy="2"/>
<feGaussianBlur stdDeviation="3"/>
<feComposite in2="hardAlpha" operator="out"/>
<feColorMatrix type="matrix" values="0 0 0 0 0 0 0 0 0 0 0 0 0 0 0 0 0 0 0.15 0"/>
<feBlend mode="normal" in2="BackgroundImageFix" result="effect1_dropShadow_0_1"/>
<feColorMatrix in="SourceAlpha" type="matrix" values="0 0 0 0 0 0 0 0 0 0 0 0 0 0 0 0 0 0 127 0" result="hardAlpha"/>
<feOffset dy="1"/>
<feGaussianBlur stdDeviation="1"/>
<feComposite in2="hardAlpha" operator="out"/>
<feColorMatrix type="matrix" values="0 0 0 0 0 0 0 0 0 0 0 0 0 0 0 0 0 0 0.3 0"/>
<feBlend mode="normal" in2="effect1_dropShadow_0_1" result="effect2_dropShadow_0_1"/>
<feBlend mode="normal" in="SourceGraphic" in2="effect2_dropShadow_0_1" result="shape"/>
</filter>
<linearGradient id="paint0_linear_0_1" x1="12.3806" y1="21.5195" x2="27.1699" y2="23.9028" gradientUnits="userSpaceOnUse">
<stop stop-color="#0066FF"/>
<stop offset="1" stop-color="#59C2C9"/>
</linearGradient>
</defs>
</svg>
