<svg width="560" height="114" viewBox="0 0 560 114" fill="none" xmlns="http://www.w3.org/2000/svg">
<g filter="url(#filter0_dd_1875_92202)">
<path d="M539.759 5.03125H20.2409C12.7884 5.03125 6.74695 11.0359 6.74695 18.443V92.2077C6.74695 99.6148 12.7884 105.619 20.2409 105.619H539.759C547.211 105.619 553.253 99.6148 553.253 92.2077V18.443C553.253 11.0359 547.211 5.03125 539.759 5.03125Z" fill="#FEFEFF"/>
<path d="M539.759 5.44922H20.2409C13.0212 5.44922 7.16858 11.2662 7.16858 18.4419V92.2066C7.16858 99.3822 13.0212 105.199 20.2409 105.199H539.759C546.979 105.199 552.831 99.3822 552.831 92.2066V18.4419C552.831 11.2662 546.979 5.44922 539.759 5.44922Z" stroke="#D1D5E4"/>
</g>
<path d="M47.2289 72.0885C62.134 72.0885 74.2169 60.0792 74.2169 45.2649C74.2169 30.4507 62.134 18.4414 47.2289 18.4414C32.3239 18.4414 20.241 30.4507 20.241 45.2649C20.241 60.0792 32.3239 72.0885 47.2289 72.0885Z" fill="white"/>
<path d="M47.2289 72.0885C62.134 72.0885 74.2169 60.0792 74.2169 45.2649C74.2169 30.4507 62.134 18.4414 47.2289 18.4414C32.3239 18.4414 20.241 30.4507 20.241 45.2649C20.241 60.0792 32.3239 72.0885 47.2289 72.0885Z" fill="url(#paint0_linear_1875_92202)" fill-opacity="0.1"/>
<path d="M42.026 37.0117H52.4252C52.9615 37.0117 53.4505 37.4931 53.4529 38.019V52.5062C53.4529 53.0415 52.9733 53.5135 52.4276 53.5135H49.0116V48.8973C49.0116 48.7071 48.858 48.5545 48.6691 48.5545H45.7846C45.5956 48.5545 45.442 48.7071 45.442 48.8973V53.5135H42.026C41.4804 53.5135 41.0007 53.0439 41.0007 52.5062V38.019C41.0007 37.4931 41.4898 37.0117 42.026 37.0117ZM46.1413 42.0694C46.3303 42.0694 46.4838 41.9167 46.4838 41.7265V39.5335C46.4838 39.3434 46.3303 39.1907 46.1413 39.1907H43.9584C43.7694 39.1907 43.6159 39.3434 43.6159 39.5335V41.7265C43.6159 41.9144 43.7694 42.0694 43.9584 42.0694H46.1413ZM50.8 41.7265V39.5335C50.8 39.3434 50.6464 39.1907 50.4574 39.1907H48.2746C48.0856 39.1907 47.932 39.3434 47.932 39.5335V41.7265C47.932 41.9144 48.0856 42.0694 48.2746 42.0694H50.4574C50.6464 42.0694 50.8 41.9167 50.8 41.7265ZM50.8 46.0327V43.8374C50.8 43.6495 50.6464 43.4945 50.4574 43.4945H48.2746C48.0856 43.4945 47.932 43.6472 47.932 43.8374V46.0327C47.932 46.2206 48.0856 46.3756 48.2746 46.3756H50.4574C50.6464 46.3756 50.8 46.2229 50.8 46.0327ZM46.4838 46.0327V43.8374C46.4838 43.6495 46.3303 43.4945 46.1413 43.4945H43.9584C43.7694 43.4945 43.6159 43.6472 43.6159 43.8374V46.0327C43.6159 46.2206 43.7694 46.3756 43.9584 46.3756H46.1413C46.3303 46.3756 46.4838 46.2229 46.4838 46.0327Z" fill="#0066FF"/>
<path d="M92.5232 34.5189C95.2253 34.5189 96.6371 33.1307 96.6371 31.3503C96.6371 29.6152 95.7263 28.7099 93.601 28.3327L91.9311 28.0309C90.8836 27.8348 90.4889 27.4576 90.4889 26.8239C90.4889 26.0694 91.1265 25.4357 92.3713 25.4357C93.7376 25.4357 94.5422 26.2354 94.5422 27.1558H96.5612C96.5612 25.134 95.0432 23.6553 92.3713 23.6553C89.8817 23.6553 88.4699 25.0434 88.4699 26.8239C88.4699 28.4383 89.3807 29.3587 91.2024 29.6906L92.9938 30.0226C94.1627 30.2338 94.6181 30.7015 94.6181 31.3503C94.6181 32.1047 94.0109 32.7384 92.5232 32.7384C91.0506 32.7384 90.2612 31.9689 90.2612 31.0335H88.2422C88.2422 32.9648 89.8058 34.5189 92.5232 34.5189ZM99.2153 25.6319C99.8529 25.6319 100.339 25.1792 100.339 24.5757C100.339 23.9571 99.8529 23.5195 99.2153 23.5195C98.5777 23.5195 98.1071 23.9571 98.1071 24.5757C98.1071 25.1792 98.5777 25.6319 99.2153 25.6319ZM100.172 34.368V26.7182H98.2589V34.368H100.172ZM106.38 34.368V32.6479H105.135C104.786 32.6479 104.634 32.497 104.634 32.15V28.5137H106.38V26.7182H104.634V24.4248H102.721V26.7182H101.507V28.5137H102.721V32.5423C102.721 33.6739 103.42 34.368 104.68 34.368H106.38ZM111.239 34.5189C113.334 34.5189 114.473 33.1911 114.822 32.1349H112.879C112.636 32.5121 112.059 32.9346 111.239 32.9346C110.177 32.9346 109.342 32.1953 109.22 31.1693H114.959C114.989 31.0486 115.034 30.7468 115.034 30.3847C115.034 28.1969 113.395 26.5674 111.239 26.5674C109.008 26.5674 107.323 28.2421 107.323 30.5506C107.323 32.8441 109.008 34.5189 111.239 34.5189ZM109.22 29.9019C109.372 28.906 110.116 28.1365 111.239 28.1365C112.287 28.1365 113.031 28.906 113.137 29.9019H109.22ZM122.35 34.368V30.0376C122.35 29.0871 123.048 28.3779 124.02 28.3779C124.976 28.3779 125.644 29.072 125.644 30.0376V34.368H127.557V29.7811C127.557 27.8499 126.282 26.5674 124.521 26.5674C123.367 26.5674 122.608 27.0954 122.32 27.4576H122.244L122.092 26.7182H120.437V34.368H122.35ZM131.85 34.5189C132.973 34.5189 133.762 34.0059 134.051 33.6286H134.127L134.279 34.368H135.933V29.4945C135.933 27.8046 134.673 26.5674 132.639 26.5674C130.605 26.5674 129.497 27.7895 129.375 29.0116H131.242C131.349 28.5892 131.789 28.1365 132.639 28.1365C133.474 28.1365 134.021 28.6948 134.021 29.4945V29.6604H132.214C130.089 29.6604 129.072 30.7015 129.072 32.1651C129.072 33.4929 130.134 34.5189 131.85 34.5189ZM132.184 32.9949C131.409 32.9949 130.984 32.6026 130.984 32.0142C130.984 31.4409 131.409 31.0184 132.411 31.0184H134.021V31.2447C134.021 32.316 133.337 32.9949 132.184 32.9949ZM139.71 34.368V29.8566C139.71 28.9966 140.332 28.3779 141.137 28.3779C141.911 28.3779 142.442 28.9211 142.442 29.8566V34.368H144.355V29.8566C144.355 28.9966 144.993 28.3779 145.767 28.3779C146.556 28.3779 147.088 28.9211 147.088 29.8566V34.368H148.985V29.6303C148.985 27.8499 147.771 26.5674 146.162 26.5674C144.978 26.5674 144.112 27.186 143.778 27.699H143.702C143.444 27.2312 142.701 26.5674 141.562 26.5674C140.681 26.5674 139.953 27.0653 139.68 27.4576H139.604L139.452 26.7182H137.797V34.368H139.71ZM154.38 34.5189C156.474 34.5189 157.613 33.1911 157.962 32.1349H156.019C155.776 32.5121 155.199 32.9346 154.38 32.9346C153.317 32.9346 152.482 32.1953 152.361 31.1693H158.099C158.129 31.0486 158.175 30.7468 158.175 30.3847C158.175 28.1969 156.535 26.5674 154.38 26.5674C152.148 26.5674 150.463 28.2421 150.463 30.5506C150.463 32.8441 152.148 34.5189 154.38 34.5189ZM152.361 29.9019C152.512 28.906 153.256 28.1365 154.38 28.1365C155.427 28.1365 156.171 28.906 156.277 29.9019H152.361Z" fill="#031A34"/>
<path d="M89.8699 60.3531H88.7904V50.9648H92.9061C94.3904 50.9648 95.6049 52.1719 95.6049 53.8484C95.6049 55.5248 94.3904 56.7319 92.9061 56.7319H89.8699V60.3531ZM89.8699 51.9707V55.726H92.9061C93.7832 55.726 94.5253 54.9884 94.5253 53.8484C94.5253 52.7084 93.7832 51.9707 92.9061 51.9707H89.8699ZM98.3003 60.3531H97.2882V50.9648H98.3003V54.3848H98.3678C98.6646 54.0093 99.4068 53.5131 100.392 53.5131C101.944 53.5131 103.091 54.6531 103.091 56.3295V60.3531H102.079V56.3295C102.079 55.2566 101.269 54.4519 100.257 54.4519C99.1774 54.4519 98.3003 55.3237 98.3003 56.3295V60.3531ZM107.482 59.2131L109.371 53.6472H110.451L107.415 62.0966C107.199 62.7136 106.875 63.0354 106.133 63.0354H104.783V62.0966H106.065C106.335 62.0966 106.47 61.8954 106.538 61.6943L106.807 60.8895L104.041 53.6472H105.121L107.212 59.2131H107.482ZM113.691 60.4872C112.004 60.4872 110.992 59.4813 110.992 58.4084H112.004C112.004 59.0119 112.611 59.5484 113.691 59.5484C114.771 59.5484 115.31 59.079 115.31 58.5425C115.31 58.006 114.973 57.6841 114.163 57.5366L113.016 57.3354C111.775 57.1208 111.127 56.5173 111.127 55.4578C111.127 54.3848 111.937 53.5131 113.624 53.5131C115.243 53.5131 116.255 54.519 116.255 55.5919H115.243C115.243 54.9884 114.636 54.4519 113.624 54.4519C112.611 54.4519 112.139 54.9213 112.139 55.4578C112.139 55.9272 112.409 56.2491 113.219 56.3966L114.366 56.5978C115.715 56.8392 116.322 57.4695 116.322 58.5425C116.322 59.6154 115.445 60.4872 113.691 60.4872ZM118.251 52.3328C117.846 52.3328 117.576 52.0646 117.576 51.6623C117.576 51.2599 117.846 50.9917 118.251 50.9917C118.656 50.9917 118.926 51.2599 118.926 51.6623C118.926 52.0646 118.656 52.3328 118.251 52.3328ZM118.75 60.3531H117.738V53.6472H118.75V60.3531ZM123.472 60.4872C121.65 60.4872 120.233 59.079 120.233 57.0001C120.233 54.9213 121.65 53.5131 123.472 53.5131C124.956 53.5131 126.103 54.3848 126.44 55.7931H125.428C125.158 54.9213 124.416 54.4519 123.472 54.4519C122.257 54.4519 121.245 55.4578 121.245 57.0001C121.245 58.5425 122.257 59.5484 123.472 59.5484C124.416 59.5484 125.158 59.079 125.428 58.1401H126.44C126.103 59.6154 124.956 60.4872 123.472 60.4872ZM129.95 60.4872C128.534 60.4872 127.589 59.6154 127.589 58.4084C127.589 57.1343 128.399 56.2625 130.288 56.2625H132.109V56.0613C132.109 55.0554 131.502 54.4519 130.49 54.4519C129.478 54.4519 128.871 54.9884 128.803 55.5919H127.791C127.859 54.519 128.803 53.5131 130.49 53.5131C132.109 53.5131 133.121 54.4519 133.121 56.0613V60.3531H132.244L132.109 59.5484H132.042C131.786 59.9507 131.03 60.4872 129.95 60.4872ZM129.95 59.5484C131.3 59.5484 132.109 58.7437 132.109 57.4695V57.2013H130.288C129.073 57.2013 128.601 57.7378 128.601 58.4084C128.601 59.079 129.073 59.5484 129.95 59.5484ZM136.094 60.3531H135.082V50.9648H136.094V60.3531ZM143.314 60.4872C141.628 60.4872 140.616 59.4813 140.616 58.4084H141.628C141.628 59.0119 142.235 59.5484 143.314 59.5484C144.394 59.5484 144.934 59.079 144.934 58.5425C144.934 58.006 144.596 57.6841 143.787 57.5366L142.64 57.3354C141.398 57.1208 140.751 56.5173 140.751 55.4578C140.751 54.3848 141.56 53.5131 143.247 53.5131C144.866 53.5131 145.878 54.519 145.878 55.5919H144.866C144.866 54.9884 144.259 54.4519 143.247 54.4519C142.235 54.4519 141.763 54.9213 141.763 55.4578C141.763 55.9272 142.033 56.2491 142.842 56.3966L143.989 56.5978C145.339 56.8392 145.946 57.4695 145.946 58.5425C145.946 59.6154 145.069 60.4872 143.314 60.4872ZM147.875 52.3328C147.47 52.3328 147.2 52.0646 147.2 51.6623C147.2 51.2599 147.47 50.9917 147.875 50.9917C148.279 50.9917 148.549 51.2599 148.549 51.6623C148.549 52.0646 148.279 52.3328 147.875 52.3328ZM148.374 60.3531H147.362V53.6472H148.374V60.3531ZM153.298 60.3531H151.948C151.206 60.3531 150.734 59.8837 150.734 59.2131V54.586H149.654V53.6472H150.734V51.7695H151.746V53.6472H153.298V54.586H151.746V59.0119C151.746 59.2801 151.881 59.4143 152.151 59.4143H153.298V60.3531ZM157.417 60.4872C155.596 60.4872 154.179 59.079 154.179 57.0001C154.179 54.9213 155.596 53.5131 157.417 53.5131C159.172 53.5131 160.521 54.8543 160.521 56.7319C160.521 57.1208 160.481 57.3891 160.454 57.4695H155.191C155.326 58.7437 156.284 59.5484 157.417 59.5484C158.227 59.5484 158.902 59.146 159.239 58.4754H160.319C159.846 59.7496 158.834 60.4872 157.417 60.4872ZM155.191 56.5307H159.509C159.441 55.3237 158.564 54.4519 157.417 54.4519C156.203 54.4519 155.326 55.3237 155.191 56.5307Z" fill="#6E7894"/>
<path d="M94.5928 87.1773H88.7904V77.7891H89.8699V86.1714H94.5928V87.1773ZM98.3812 87.3114C96.5596 87.3114 95.1427 85.9032 95.1427 83.8244C95.1427 81.7455 96.5596 80.3373 98.3812 80.3373C100.203 80.3373 101.62 81.7455 101.62 83.8244C101.62 85.9032 100.203 87.3114 98.3812 87.3114ZM98.3812 86.3726C99.5957 86.3726 100.608 85.3667 100.608 83.8244C100.608 82.282 99.5957 81.2761 98.3812 81.2761C97.1668 81.2761 96.1547 82.282 96.1547 83.8244C96.1547 85.3667 97.1668 86.3726 98.3812 86.3726ZM104.11 87.1773H103.098V80.4714H103.975L104.11 81.142H104.178C104.448 80.7397 104.718 80.4714 105.46 80.4714H106.607V81.4102H105.595C104.65 81.4102 104.11 81.9467 104.11 82.8855V87.1773ZM110.386 87.3114C108.564 87.3114 107.147 85.9032 107.147 83.8244C107.147 81.7455 108.564 80.3373 110.386 80.3373C112.14 80.3373 113.489 81.6785 113.489 83.5561C113.489 83.9451 113.449 84.2133 113.422 84.2938H108.159C108.294 85.5679 109.252 86.3726 110.386 86.3726C111.195 86.3726 111.87 85.9702 112.208 85.2996H113.287C112.815 86.5738 111.803 87.3114 110.386 87.3114ZM108.159 83.3549H112.477C112.41 82.1479 111.533 81.2761 110.386 81.2761C109.171 81.2761 108.294 82.1479 108.159 83.3549ZM115.983 87.1773H114.971V80.4714H115.848L115.983 81.2091H116.051C116.348 80.8335 117.022 80.3373 117.805 80.3373C118.844 80.3373 119.532 80.9811 119.762 81.4773H119.829C120.153 80.9811 120.976 80.3373 122.056 80.3373C123.472 80.3373 124.485 81.4102 124.485 82.9526V87.1773H123.472V82.9526C123.472 81.9467 122.865 81.2761 121.921 81.2761C121.044 81.2761 120.234 82.0138 120.234 82.9526V87.1773H119.222V82.9526C119.222 81.9467 118.615 81.2761 117.67 81.2761C116.793 81.2761 115.983 82.0138 115.983 82.9526V87.1773ZM129.993 79.1571C129.588 79.1571 129.318 78.8888 129.318 78.4865C129.318 78.0841 129.588 77.8159 129.993 77.8159C130.397 77.8159 130.667 78.0841 130.667 78.4865C130.667 78.8888 130.397 79.1571 129.993 79.1571ZM130.492 87.1773H129.48V80.4714H130.492V87.1773ZM133.391 89.8596H132.379V80.4714H133.256L133.391 81.4102H133.459C133.999 80.7397 134.673 80.3373 135.618 80.3373C137.372 80.3373 138.721 81.7455 138.721 83.8244C138.721 85.9032 137.372 87.3114 135.618 87.3114C134.673 87.3114 133.999 86.9091 133.459 86.2385H133.391V89.8596ZM135.55 86.3726C136.697 86.3726 137.709 85.3667 137.709 83.8244C137.709 82.282 136.697 81.2761 135.55 81.2761C134.403 81.2761 133.391 82.282 133.391 83.8244C133.391 85.3667 134.403 86.3726 135.55 86.3726ZM142.366 87.3114C140.679 87.3114 139.667 86.3055 139.667 85.2326H140.679C140.679 85.8361 141.286 86.3726 142.366 86.3726C143.445 86.3726 143.985 85.9032 143.985 85.3667C143.985 84.8302 143.648 84.5084 142.838 84.3608L141.691 84.1596C140.45 83.9451 139.802 83.3415 139.802 82.282C139.802 81.2091 140.611 80.3373 142.298 80.3373C143.918 80.3373 144.93 81.3432 144.93 82.4161H143.918C143.918 81.8126 143.31 81.2761 142.298 81.2761C141.286 81.2761 140.814 81.7455 140.814 82.282C140.814 82.7514 141.084 83.0733 141.893 83.2208L143.04 83.422C144.39 83.6634 144.997 84.2938 144.997 85.3667C144.997 86.4396 144.12 87.3114 142.366 87.3114ZM149.112 87.3114C147.56 87.3114 146.413 86.1714 146.413 84.4949V80.4714H147.425V84.4949C147.425 85.5679 148.235 86.3726 149.247 86.3726C150.326 86.3726 151.203 85.5008 151.203 84.4949V80.4714H152.215V87.1773H151.338L151.203 86.4397H151.136C150.812 86.8286 150.097 87.3114 149.112 87.3114ZM155.121 87.1773H154.109V80.4714H154.986L155.121 81.2091H155.188C155.485 80.8335 156.16 80.3373 156.943 80.3373C157.982 80.3373 158.67 80.9811 158.899 81.4773H158.967C159.291 80.9811 160.114 80.3373 161.193 80.3373C162.61 80.3373 163.622 81.4102 163.622 82.9526V87.1773H162.61V82.9526C162.61 81.9467 162.003 81.2761 161.058 81.2761C160.181 81.2761 159.371 82.0138 159.371 82.9526V87.1773H158.359V82.9526C158.359 81.9467 157.752 81.2761 156.808 81.2761C155.931 81.2761 155.121 82.0138 155.121 82.9526V87.1773ZM171.317 87.3114C169.563 87.3114 168.213 85.9032 168.213 83.8244C168.213 81.7455 169.563 80.3373 171.317 80.3373C172.262 80.3373 172.936 80.7397 173.476 81.4102H173.544V77.7891H174.556V87.1773H173.678L173.544 86.2385H173.476C172.936 86.9091 172.262 87.3114 171.317 87.3114ZM171.384 86.3726C172.531 86.3726 173.544 85.3667 173.544 83.8244C173.544 82.282 172.531 81.2761 171.384 81.2761C170.238 81.2761 169.225 82.282 169.225 83.8244C169.225 85.3667 170.238 86.3726 171.384 86.3726ZM179.345 87.3114C177.523 87.3114 176.107 85.9032 176.107 83.8244C176.107 81.7455 177.523 80.3373 179.345 80.3373C181.167 80.3373 182.584 81.7455 182.584 83.8244C182.584 85.9032 181.167 87.3114 179.345 87.3114ZM179.345 86.3726C180.56 86.3726 181.572 85.3667 181.572 83.8244C181.572 82.282 180.56 81.2761 179.345 81.2761C178.131 81.2761 177.119 82.282 177.119 83.8244C177.119 85.3667 178.131 86.3726 179.345 86.3726ZM185.142 87.1773H184.13V77.7891H185.142V87.1773ZM189.927 87.3114C188.105 87.3114 186.688 85.9032 186.688 83.8244C186.688 81.7455 188.105 80.3373 189.927 80.3373C191.749 80.3373 193.165 81.7455 193.165 83.8244C193.165 85.9032 191.749 87.3114 189.927 87.3114ZM189.927 86.3726C191.141 86.3726 192.153 85.3667 192.153 83.8244C192.153 82.282 191.141 81.2761 189.927 81.2761C188.712 81.2761 187.7 82.282 187.7 83.8244C187.7 85.3667 188.712 86.3726 189.927 86.3726ZM195.656 87.1773H194.644V80.4714H195.521L195.656 81.142H195.723C195.993 80.7397 196.263 80.4714 197.005 80.4714H198.152V81.4102H197.14C196.196 81.4102 195.656 81.9467 195.656 82.8855V87.1773ZM204.235 87.3114C202.548 87.3114 201.536 86.3055 201.536 85.2326H202.548C202.548 85.8361 203.155 86.3726 204.235 86.3726C205.314 86.3726 205.854 85.9032 205.854 85.3667C205.854 84.8302 205.517 84.5084 204.707 84.3608L203.56 84.1596C202.319 83.9451 201.671 83.3415 201.671 82.282C201.671 81.2091 202.481 80.3373 204.167 80.3373C205.787 80.3373 206.799 81.3432 206.799 82.4161H205.787C205.787 81.8126 205.179 81.2761 204.167 81.2761C203.155 81.2761 202.683 81.7455 202.683 82.282C202.683 82.7514 202.953 83.0733 203.762 83.2208L204.909 83.422C206.259 83.6634 206.866 84.2938 206.866 85.3667C206.866 86.4396 205.989 87.3114 204.235 87.3114ZM208.796 79.1571C208.391 79.1571 208.121 78.8888 208.121 78.4865C208.121 78.0841 208.391 77.8159 208.796 77.8159C209.201 77.8159 209.47 78.0841 209.47 78.4865C209.47 78.8888 209.201 79.1571 208.796 79.1571ZM209.295 87.1773H208.283V80.4714H209.295V87.1773ZM214.218 87.1773H212.868C212.126 87.1773 211.654 86.7079 211.654 86.0373V81.4102H210.574V80.4714H211.654V78.5938H212.666V80.4714H214.218V81.4102H212.666V85.8361C212.666 86.1044 212.801 86.2385 213.071 86.2385H214.218V87.1773ZM220.706 87.3114C219.289 87.3114 218.344 86.4396 218.344 85.2326C218.344 83.9585 219.154 83.0867 221.043 83.0867H222.865V82.8855C222.865 81.8796 222.258 81.2761 221.246 81.2761C220.234 81.2761 219.626 81.8126 219.559 82.4161H218.547C218.614 81.3432 219.559 80.3373 221.246 80.3373C222.865 80.3373 223.877 81.2761 223.877 82.8855V87.1773H223L222.865 86.3726H222.797C222.541 86.7749 221.785 87.3114 220.706 87.3114ZM220.706 86.3726C222.055 86.3726 222.865 85.5679 222.865 84.2938V84.0255H221.043C219.829 84.0255 219.356 84.562 219.356 85.2326C219.356 85.9032 219.829 86.3726 220.706 86.3726ZM226.781 87.1773H225.769V80.4714H226.647L226.781 81.2091H226.849C227.146 80.8335 227.821 80.3373 228.603 80.3373C229.642 80.3373 230.33 80.9811 230.56 81.4773H230.627C230.951 80.9811 231.774 80.3373 232.854 80.3373C234.271 80.3373 235.283 81.4102 235.283 82.9526V87.1773H234.271V82.9526C234.271 81.9467 233.663 81.2761 232.719 81.2761C231.842 81.2761 231.032 82.0138 231.032 82.9526V87.1773H230.02V82.9526C230.02 81.9467 229.413 81.2761 228.468 81.2761C227.591 81.2761 226.781 82.0138 226.781 82.9526V87.1773ZM240.002 87.3114C238.181 87.3114 236.764 85.9032 236.764 83.8244C236.764 81.7455 238.181 80.3373 240.002 80.3373C241.756 80.3373 243.106 81.6785 243.106 83.5561C243.106 83.9451 243.065 84.2133 243.038 84.2938H237.776C237.911 85.5679 238.869 86.3726 240.002 86.3726C240.812 86.3726 241.487 85.9702 241.824 85.2996H242.903C242.431 86.5738 241.419 87.3114 240.002 87.3114ZM237.776 83.3549H242.094C242.026 82.1479 241.149 81.2761 240.002 81.2761C238.788 81.2761 237.911 82.1479 237.776 83.3549ZM247.491 87.1773H246.142C245.4 87.1773 244.928 86.7079 244.928 86.0373V81.4102H243.848V80.4714H244.928V78.5938H245.94V80.4714H247.491V81.4102H245.94V85.8361C245.94 86.1044 246.074 86.2385 246.344 86.2385H247.491V87.1773ZM254.722 87.3114C252.9 87.3114 251.483 85.9032 251.483 83.8244C251.483 81.7455 252.9 80.3373 254.722 80.3373C256.206 80.3373 257.353 81.2091 257.69 82.6173H256.678C256.408 81.7455 255.666 81.2761 254.722 81.2761C253.507 81.2761 252.495 82.282 252.495 83.8244C252.495 85.3667 253.507 86.3726 254.722 86.3726C255.666 86.3726 256.408 85.9032 256.678 84.9644H257.69C257.353 86.4396 256.206 87.3114 254.722 87.3114ZM261.943 87.3114C260.121 87.3114 258.704 85.9032 258.704 83.8244C258.704 81.7455 260.121 80.3373 261.943 80.3373C263.764 80.3373 265.181 81.7455 265.181 83.8244C265.181 85.9032 263.764 87.3114 261.943 87.3114ZM261.943 86.3726C263.157 86.3726 264.169 85.3667 264.169 83.8244C264.169 82.282 263.157 81.2761 261.943 81.2761C260.728 81.2761 259.716 82.282 259.716 83.8244C259.716 85.3667 260.728 86.3726 261.943 86.3726ZM267.672 87.1773H266.66V80.4714H267.538L267.672 81.2091H267.74C268.037 80.8335 268.779 80.3373 269.764 80.3373C271.316 80.3373 272.462 81.4773 272.462 83.1538V87.1773H271.451V83.1538C271.451 82.0808 270.641 81.2761 269.629 81.2761C268.55 81.2761 267.672 82.1479 267.672 83.1538V87.1773ZM276.515 87.3114C274.828 87.3114 273.816 86.3055 273.816 85.2326H274.828C274.828 85.8361 275.436 86.3726 276.515 86.3726C277.595 86.3726 278.134 85.9032 278.134 85.3667C278.134 84.8302 277.797 84.5084 276.988 84.3608L275.841 84.1596C274.599 83.9451 273.951 83.3415 273.951 82.282C273.951 81.2091 274.761 80.3373 276.448 80.3373C278.067 80.3373 279.079 81.3432 279.079 82.4161H278.067C278.067 81.8126 277.46 81.2761 276.448 81.2761C275.436 81.2761 274.963 81.7455 274.963 82.282C274.963 82.7514 275.233 83.0733 276.043 83.2208L277.19 83.422C278.539 83.6634 279.147 84.2938 279.147 85.3667C279.147 86.4396 278.269 87.3114 276.515 87.3114ZM283.396 87.3114C281.575 87.3114 280.158 85.9032 280.158 83.8244C280.158 81.7455 281.575 80.3373 283.396 80.3373C285.151 80.3373 286.5 81.6785 286.5 83.5561C286.5 83.9451 286.459 84.2133 286.432 84.2938H281.17C281.305 85.5679 282.263 86.3726 283.396 86.3726C284.206 86.3726 284.881 85.9702 285.218 85.2996H286.298C285.825 86.5738 284.813 87.3114 283.396 87.3114ZM281.17 83.3549H285.488C285.42 82.1479 284.543 81.2761 283.396 81.2761C282.182 81.2761 281.305 82.1479 281.17 83.3549ZM290.815 87.3114C288.994 87.3114 287.577 85.9032 287.577 83.8244C287.577 81.7455 288.994 80.3373 290.815 80.3373C292.3 80.3373 293.447 81.2091 293.784 82.6173H292.772C292.502 81.7455 291.76 81.2761 290.815 81.2761C289.601 81.2761 288.589 82.282 288.589 83.8244C288.589 85.3667 289.601 86.3726 290.815 86.3726C291.76 86.3726 292.502 85.9032 292.772 84.9644H293.784C293.447 86.4396 292.3 87.3114 290.815 87.3114ZM298.107 87.1773H296.758C296.016 87.1773 295.543 86.7079 295.543 86.0373V81.4102H294.464V80.4714H295.543V78.5938H296.555V80.4714H298.107V81.4102H296.555V85.8361C296.555 86.1044 296.69 86.2385 296.96 86.2385H298.107V87.1773ZM302.227 87.3114C300.405 87.3114 298.989 85.9032 298.989 83.8244C298.989 81.7455 300.405 80.3373 302.227 80.3373C303.981 80.3373 305.331 81.6785 305.331 83.5561C305.331 83.9451 305.29 84.2133 305.263 84.2938H300.001C300.136 85.5679 301.094 86.3726 302.227 86.3726C303.037 86.3726 303.712 85.9702 304.049 85.2996H305.128C304.656 86.5738 303.644 87.3114 302.227 87.3114ZM300.001 83.3549H304.319C304.251 82.1479 303.374 81.2761 302.227 81.2761C301.013 81.2761 300.136 82.1479 300.001 83.3549ZM309.717 87.1773H308.368C307.626 87.1773 307.153 86.7079 307.153 86.0373V81.4102H306.074V80.4714H307.153V78.5938H308.165V80.4714H309.717V81.4102H308.165V85.8361C308.165 86.1044 308.3 86.2385 308.57 86.2385H309.717V87.1773ZM313.834 87.3114C312.282 87.3114 311.135 86.1714 311.135 84.4949V80.4714H312.147V84.4949C312.147 85.5679 312.957 86.3726 313.969 86.3726C315.048 86.3726 315.925 85.5008 315.925 84.4949V80.4714H316.937V87.1773H316.06L315.925 86.4397H315.858C315.534 86.8286 314.819 87.3114 313.834 87.3114ZM319.843 87.1773H318.831V80.4714H319.708L319.843 81.142H319.91C320.18 80.7397 320.45 80.4714 321.192 80.4714H322.339V81.4102H321.327C320.382 81.4102 319.843 81.9467 319.843 82.8855V87.1773ZM323.349 87.2444C322.944 87.2444 322.674 86.9761 322.674 86.5738C322.674 86.1714 322.944 85.9032 323.349 85.9032C323.753 85.9032 324.023 86.1714 324.023 86.5738C324.023 86.9761 323.753 87.2444 323.349 87.2444Z" fill="#6E7894"/>
<path d="M531.797 59.7966C531.665 59.7966 531.539 59.7381 531.45 59.6376C531.274 59.4341 531.286 59.1237 531.477 58.9354L535.217 55.2931L531.48 51.7208C531.287 51.5338 531.274 51.2234 531.449 51.0185C531.618 50.8201 531.911 50.7998 532.103 50.974C532.106 50.9779 532.111 50.9804 532.114 50.9843L536.231 54.9216C536.33 55.0157 536.386 55.1481 536.386 55.2867C536.386 55.4254 536.332 55.559 536.235 55.6544L532.116 59.6644C532.03 59.7494 531.916 59.7969 531.797 59.7966Z" fill="#031A34"/>
<defs>
<filter id="filter0_dd_1875_92202" x="0.668579" y="0.949219" width="558.663" height="112.75" filterUnits="userSpaceOnUse" color-interpolation-filters="sRGB">
<feFlood flood-opacity="0" result="BackgroundImageFix"/>
<feColorMatrix in="SourceAlpha" type="matrix" values="0 0 0 0 0 0 0 0 0 0 0 0 0 0 0 0 0 0 127 0" result="hardAlpha"/>
<feOffset dy="2"/>
<feGaussianBlur stdDeviation="3"/>
<feComposite in2="hardAlpha" operator="out"/>
<feColorMatrix type="matrix" values="0 0 0 0 0 0 0 0 0 0 0 0 0 0 0 0 0 0 0.15 0"/>
<feBlend mode="normal" in2="BackgroundImageFix" result="effect1_dropShadow_1875_92202"/>
<feColorMatrix in="SourceAlpha" type="matrix" values="0 0 0 0 0 0 0 0 0 0 0 0 0 0 0 0 0 0 127 0" result="hardAlpha"/>
<feOffset dy="1"/>
<feGaussianBlur stdDeviation="1"/>
<feComposite in2="hardAlpha" operator="out"/>
<feColorMatrix type="matrix" values="0 0 0 0 0 0 0 0 0 0 0 0 0 0 0 0 0 0 0.3 0"/>
<feBlend mode="normal" in2="effect1_dropShadow_1875_92202" result="effect2_dropShadow_1875_92202"/>
<feBlend mode="normal" in="SourceGraphic" in2="effect2_dropShadow_1875_92202" result="shape"/>
</filter>
<linearGradient id="paint0_linear_1875_92202" x1="20.241" y1="18.4414" x2="81.2714" y2="28.2661" gradientUnits="userSpaceOnUse">
<stop stop-color="#0066FF"/>
<stop offset="1" stop-color="#59C2C9"/>
</linearGradient>
</defs>
</svg>
